0
SECTION
2
HEADER
9
$INSUNITS
70
4
9
$ACADVER
1
AC1014
9
$HANDSEED
5
FFFF
0
ENDSEC
0
SECTION
2
TABLES
0
TABLE
2
VPORT
5
8
100
AcDbSymbolTable
0
ENDTAB
0
TABLE
2
LTYPE
5
5
100
AcDbSymbolTable
0
LTYPE
5
14
100
AcDbSymbolTableRecord
100
AcDbLinetypeTableRecord
2
BYBLOCK
70
0
0
LTYPE
5
15
100
AcDbSymbolTableRecord
100
AcDbLinetypeTableRecord
2
BYLAYER
70
0
0
ENDTAB
0
TABLE
2
LAYER
5
2
100
AcDbSymbolTable
70
2
0
LAYER
5
50
100
AcDbSymbolTableRecord
100
AcDbLayerTableRecord
2
0
70
0
6
CONTINUOUS
0
ENDTAB
0
TABLE
2
STYLE
5
3
100
AcDbSymbolTable
70
1
0
STYLE
5
11
100
AcDbSymbolTableRecord
100
AcDbTextStyleTableRecord
2
STANDARD
70
0
0
ENDTAB
0
TABLE
2
VIEW
5
6
100
AcDbSymbolTable
70
0
0
ENDTAB
0
TABLE
2
UCS
5
7
100
AcDbSymbolTable
70
0
0
ENDTAB
0
TABLE
2
APPID
5
9
100
AcDbSymbolTable
70
2
0
APPID
5
12
100
AcDbSymbolTableRecord
100
AcDbRegAppTableRecord
2
ACAD
70
0
0
ENDTAB
0
TABLE
2
DIMSTYLE
5
A
100
AcDbSymbolTable
70
1
0
ENDTAB
0
TABLE
2
BLOCK_RECORD
5
1
100
AcDbSymbolTable
70
1
0
BLOCK_RECORD
5
1F
100
AcDbSymbolTableRecord
100
AcDbBlockTableRecord
2
*MODEL_SPACE
0
BLOCK_RECORD
5
1B
100
AcDbSymbolTableRecord
100
AcDbBlockTableRecord
2
*PAPER_SPACE
0
ENDTAB
0
ENDSEC
0
SECTION
2
BLOCKS
0
BLOCK
5
20
100
AcDbEntity
100
AcDbBlockBegin
2
*MODEL_SPACE
0
ENDBLK
5
21
100
AcDbEntity
100
AcDbBlockEnd
0
BLOCK
5
1C
100
AcDbEntity
100
AcDbBlockBegin
2
*PAPER_SPACE
0
ENDBLK
5
1D
100
AcDbEntity
100
AcDbBlockEnd
0
ENDSEC
0
SECTION
2
ENTITIES
0
LINE
5
100
100
AcDbEntity
8
0
100
AcDbLine
10
-90.179094691604931
20
-274.61747060110616
30
0
11
-143.97591759832065
21
-274.61747060110616
31
1.6543612251060553e-23
0
ARC
5
101
100
AcDbEntity
8
0
100
AcDbCircle
10
-143.97591759832065
20
-266.61746888332408
30
-1.7763568394002501e-14
40
7.9999999999999769
210
-2.8472719631272091e-31
220
1.6155697831930198e-27
230
1
100
AcDbArc
50
138.76059075778502
51
270
0
ARC
5
102
100
AcDbEntity
8
0
100
AcDbCircle
10
-152.00041905999001
20
-259.58279283745287
30
0
40
2.6714240276867245
210
5.0001497031033873e-15
220
-4.3833806856818335e-15
230
1
100
AcDbArc
50
-41.239421496201651
51
121.9064481001448
0
ARC
5
103
100
AcDbEntity
8
0
100
AcDbCircle
10
-143.97591759832056
20
-272.47146469147793
30
0
40
17.853995808155084
210
1.5651404088937715e-26
220
-2.5138733127976603e-26
230
1
100
AcDbArc
50
121.90644040327862
51
155.09214790105682
0
ARC
5
104
100
AcDbEntity
8
0
100
AcDbCircle
10
-167.42513772401782
20
-261.5827928374531
30
0
40
7.9999999999999716
210
-2.0739217274838679e-43
220
1.6155871338926379e-27
230
1
100
AcDbArc
50
270
51
335.09214790105699
0
LINE
5
105
100
AcDbEntity
8
0
100
AcDbLine
10
-167.42513772401782
20
-269.58279283745304
30
1.2924697071141057e-26
11
-179.42809445755393
21
-269.58279283745293
31
-1.7763568394002505e-14
0
ARC
5
106
100
AcDbEntity
8
0
100
AcDbCircle
10
-179.4280944575539
20
-276.58279283745304
30
-1.7763568394002505e-14
40
7.000000000000135
210
2.0679513186886377e-25
220
1.0495484195712165e-39
230
1
100
AcDbArc
50
90.000000000000242
51
180
0
LINE
5
107
100
AcDbEntity
8
0
100
AcDbLine
10
-186.42809445755393
20
-276.58279283745298
30
-1.7763568392554939e-14
11
-186.42809445755387
21
-292.65214492919506
31
3.2311742677852644e-26
0
ARC
5
108
100
AcDbEntity
8
0
100
AcDbCircle
10
-179.4280944575539
20
-292.652144929195
30
-9.8723158369840552e-39
40
6.9999999999999574
210
4.6159632396946569e-27
220
1.6155871338913142e-27
230
1
100
AcDbArc
50
180
51
270
0
LINE
5
109
100
AcDbEntity
8
0
100
AcDbLine
10
-179.4280944575539
20
-299.652144929195
30
1.1309109937243815e-26
11
-167.42513772401907
21
-299.65214492919517
31
-1.7763568394002505e-14
0
ARC
5
110
100
AcDbEntity
8
0
100
AcDbCircle
10
-167.42513772401904
20
-307.65214492919506
30
0
40
7.9999999999999885
210
1.8756037182217536e-25
220
8.7093870527165287e-26
230
1
100
AcDbArc
50
24.907852098942271
51
90.000000000000199
0
ARC
5
111
100
AcDbEntity
8
0
100
AcDbCircle
10
-143.97591759832056
20
-296.76347307517
30
0
40
17.853995808155069
210
3.0520128556173757e-27
220
-2.2658530336713897e-25
230
1
100
AcDbArc
50
204.9078520989425
51
238.09365124553889
0
ARC
5
112
100
AcDbEntity
8
0
100
AcDbCircle
10
-152.00041905998995
20
-309.65214492919506
30
0
40
2.6714240278127561
210
-2.2427116593304551e-25
220
-7.5149350019122404e-25
230
1
100
AcDbArc
50
-121.90583558128463
51
41.239402719221992
0
ARC
5
113
100
AcDbEntity
8
0
100
AcDbCircle
10
-143.97591759832065
20
-302.61746888332391
30
0
40
7.9999999999999716
210
-2.0679515313825715e-25
220
1.1147551223859109e-25
230
1
100
AcDbArc
50
90
51
221.23941551237431
0
LINE
5
114
100
AcDbEntity
8
0
100
AcDbLine
10
-143.97591759832065
20
-294.61746888332391
30
-8.9180409790872929e-25
11
-90.179090182704016
21
-294.61746888332385
31
0
0
ARC
5
115
100
AcDbEntity
8
0
100
AcDbCircle
10
-90.179090182703987
20
-314.61746888332385
30
0
40
19.999999999999968
210
0
220
-0
230
1
100
AcDbArc
50
73.73979529168848
51
90.000000000000071
0
ARC
5
116
100
AcDbEntity
8
0
100
AcDbCircle
10
-83.179090182704201
20
-290.6174688833238
30
-1.7763568394002505e-14
40
5.0000000000000249
210
9.9475983026261973e-16
220
3.4106051315905725e-15
230
1
100
AcDbArc
50
-106.26020470831115
51
2.1514418276737845e-05
0
LINE
5
117
100
AcDbEntity
8
0
100
AcDbLine
10
-78.17909018270457
20
-290.6174670046147
30
-1.7763568394995119e-14
11
-78.17909469160567
21
-278.61746872239718
31
-1.6155871338926322e-26
0
ARC
5
118
100
AcDbEntity
8
0
100
AcDbCircle
10
-83.179094691605329
20
-278.61747060110633
30
0
40
5.000000000000016
210
3.2311736607413648e-27
220
1.615588347979844e-27
230
1
100
AcDbArc
50
2.1514418276737845e-05
51
106.26020470831089
0
ARC
5
119
100
AcDbEntity
8
0
100
AcDbCircle
10
-90.179094691604931
20
-254.61747060110616
30
-1.7763568394002505e-14
40
20
210
-1.6255062188999262e-43
220
8.8817841970012523e-16
230
1
100
AcDbArc
50
270
51
286.26020470831099
0
CIRCLE
5
120
100
AcDbEntity
8
0
100
AcDbCircle
10
-83.179094025454077
20
-278.61747060110622
30
-1.7763568394002505e-14
40
1.2499999999999982
210
-2.0739217274838679e-43
220
1.6155871338926354e-27
230
1
0
CIRCLE
5
121
100
AcDbEntity
8
0
100
AcDbCircle
10
-83.179090848855424
20
-290.6174688833238
30
-1.7763568394002505e-14
40
1.2499999999999982
210
-2.0739217274838679e-43
220
1.6155871338926354e-27
230
1
0
CIRCLE
5
122
100
AcDbEntity
8
0
100
AcDbCircle
10
-179.8126909352568
20
-294.61481799145952
30
0
40
1.2499999999999982
210
-2.0739217274838679e-43
220
1.6155871338926354e-27
230
1
0
CIRCLE
5
123
100
AcDbEntity
8
0
100
AcDbCircle
10
-179.81269093525682
20
-274.62011977519046
30
0
40
1.2499999999999982
210
-2.0739217274838679e-43
220
1.6155871338926354e-27
230
1
0
CIRCLE
5
124
100
AcDbEntity
8
0
100
AcDbCircle
10
-137.00998269370285
20
-289.86746888332362
30
0
40
1.2499999999999982
210
-2.0739217280832763e-43
220
1.6155871338926354e-27
230
1
0
CIRCLE
5
125
100
AcDbEntity
8
0
100
AcDbCircle
10
-137.00998269370285
20
-279.36747442995443
30
-1.7763568394002505e-14
40
1.2499999999999982
210
-2.0739217278020036e-43
220
1.6155871338926354e-27
230
1
0
LWPOLYLINE
5
126
100
AcDbEntity
8
0
100
AcDbPolyline
90
8
70
1
43
0.0
10
-179.51739655805977
20
-289.37997850712287
10
-145.59186784663285
20
-289.37997850712287
42
0.41421356237307422
10
-144.59186784663282
20
-288.37997850712281
10
-144.59186784663285
20
-280.85496480615546
42
0.41421356237309509
10
-145.59186784663285
20
-279.85496480615558
10
-179.51739655805977
20
-279.85496480615552
42
0.41421356237307422
10
-180.51739655805974
20
-280.85496480615546
10
-180.51739655805977
20
-288.37997850712281
42
0.41421356237309509
0
LINE
5
127
100
AcDbEntity
8
0
100
AcDbLine
10
-134.96682633914449
20
-327.61746790519146
30
-1.7763568394002505e-14
11
-81.170003432428786
21
-327.61746790518936
31
-1.7763568377458892e-14
0
ARC
5
128
100
AcDbEntity
8
0
100
AcDbCircle
10
-81.170003432428416
20
-335.61746962297127
30
-1.7763568394002508e-14
40
7.9999999999999822
210
-2.0679563032721739e-25
220
1.6156612016931839e-27
230
1
100
AcDbArc
50
-41.239409242212837
51
90.000000000002643
0
ARC
5
129
100
AcDbEntity
8
0
100
AcDbCircle
10
-73.145501970758815
20
-342.65214566884225
30
0
40
2.671424027686728
210
-5.0001497026121771e-15
220
4.3833806855260548e-15
230
1
100
AcDbArc
50
138.76057850379894
51
301.90644810014851
0
ARC
5
130
100
AcDbEntity
8
0
100
AcDbCircle
10
-81.170003432428757
20
-329.76347381481753
30
-1.7763568394002505e-14
40
17.853995808155002
210
-5.2585682879951178e-16
220
8.4461268787592539e-16
230
1
100
AcDbArc
50
301.90644040328107
51
335.09214790105938
0
ARC
5
131
100
AcDbEntity
8
0
100
AcDbCircle
10
-57.720783306731036
20
-340.65214566884146
30
-1.7763568394002505e-14
40
7.9999999999999716
210
-4.1359030627651439e-25
220
1.615685741488801e-27
230
1
100
AcDbArc
50
90.000000000002331
51
155.09214790105869
0
LINE
5
132
100
AcDbEntity
8
0
100
AcDbLine
10
-57.720783306731363
20
-332.65214566884146
30
-1.7763568394015429e-14
11
-45.717826573195254
21
-332.65214566884111
31
-1.7763568394002505e-14
0
ARC
5
133
100
AcDbEntity
8
0
100
AcDbCircle
10
-45.71782657319546
20
-325.65214566884106
30
-1.7763568394002505e-14
40
7.0000000000000284
210
-2.0679513186886544e-25
220
-6.0349034125346364e-39
230
1
100
AcDbArc
50
-89.999999999998323
51
0
0
LINE
5
134
100
AcDbEntity
8
0
100
AcDbLine
10
-38.717826573195502
20
-325.65214566884083
30
-1.7763568392554939e-14
11
-38.717826573196227
21
-309.58279357709876
31
-1.7763568394034816e-14
0
ARC
5
135
100
AcDbEntity
8
0
100
AcDbCircle
10
-45.717826573196135
20
-309.58279357709904
30
8.9539608754041431e-39
40
6.9999999999999085
210
2.5376526277192927e-15
220
-1.5254316018687897e-27
230
1
100
AcDbArc
50
0
51
90.000000000002842
0
LINE
5
136
100
AcDbEntity
8
0
100
AcDbLine
10
-45.717826573196483
20
-302.5827935770991
30
1.1309109937248183e-26
11
-57.720783306731306
21
-302.58279357709944
31
-1.7763568394002505e-14
0
ARC
5
137
100
AcDbEntity
8
0
100
AcDbCircle
10
-57.72078330673164
20
-294.58279357709955
30
0
40
7.9999999999999876
210
-1.4401343655858559e-25
220
-1.80874056438259e-25
230
1
100
AcDbArc
50
204.90785209894457
51
270.00000000000239
0
ARC
5
138
100
AcDbEntity
8
0
100
AcDbCircle
10
-81.170003432429709
20
-305.47146543112547
30
-1.7763568394002505e-14
40
17.853995808155076
210
-9.0239257540191456e-16
220
-4.190270117466558e-16
230
1
100
AcDbArc
50
24.907852098944538
51
58.093651245541182
0
ARC
5
139
100
AcDbEntity
8
0
100
AcDbCircle
10
-73.145501970760876
20
-292.58279357710012
30
0
40
2.6714240278127788
210
3.5144126605197017e-15
220
5.6448584473191117e-15
230
1
100
AcDbArc
50
58.09416441871744
51
221.2394027192239
0
ARC
5
140
100
AcDbEntity
8
0
100
AcDbCircle
10
-81.170003432429894
20
-299.61746962297156
30
0
40
7.9999999999999361
210
-2.0679515313824183e-25
220
-3.8127856359867166e-25
230
1
100
AcDbArc
50
-89.999999999997556
51
41.239415512376524
0
LINE
5
141
100
AcDbEntity
8
0
100
AcDbLine
10
-81.170003432429553
20
-307.6174696229715
30
-3.0502285087892793e-24
11
-134.96683084804616
21
-307.61746962297377
31
-1.7763568410546117e-14
0
ARC
5
142
100
AcDbEntity
8
0
100
AcDbCircle
10
-134.96683084804701
20
-287.61746962297389
30
-1.7763568394002505e-14
40
19.999999999999925
210
-2.1299900773240523e-25
220
8.2718061255199698e-27
230
1
100
AcDbArc
50
253.7397952916908
51
270.00000000000244
0
ARC
5
143
100
AcDbEntity
8
0
100
AcDbCircle
10
-141.96683084804584
20
-311.61746962297411
30
-1.7763568394002505e-14
40
5.0000000000000044
210
5.7902642878701703e-26
220
1.9852334701272944e-25
230
1
100
AcDbArc
50
73.739795291690697
51
180.00002151441828
0
LINE
5
144
100
AcDbEntity
8
0
100
AcDbLine
10
-146.96683084804548
20
-311.61747150168344
30
-1.7763568394074884e-14
11
-146.96682633914392
21
-323.6174697839009
31
0
0
ARC
5
145
100
AcDbEntity
8
0
100
AcDbCircle
10
-141.96682633914421
20
-323.61746790519163
30
-1.7763568394002505e-14
40
5.0000000000000693
210
3.5527136788002012e-15
220
1.3349032041599547e-21
230
1
100
AcDbArc
50
180.00002151441828
51
286.26020470831298
0
ARC
5
146
100
AcDbEntity
8
0
100
AcDbCircle
10
-134.96682633914367
20
-347.6174679051914
30
-1.7763568394002505e-14
40
19.999999999999929
210
-2.0679515313825715e-25
220
-8.4488656465352306e-39
230
1
100
AcDbArc
50
90.000000000002373
51
106.26020470831338
0
CIRCLE
5
147
100
AcDbEntity
8
0
100
AcDbCircle
10
-141.96682700529547
20
-323.61746790519169
30
-1.7763568394002505e-14
40
1.2499999999999987
210
-2.0679515313825715e-25
220
-8.5148721967780167e-39
230
1
0
CIRCLE
5
148
100
AcDbEntity
8
0
100
AcDbCircle
10
-141.96683018189461
20
-311.61746962297411
30
-1.7763568394002505e-14
40
1.2499999999999987
210
-2.0679515313825715e-25
220
-8.5148721967780167e-39
230
1
0
CIRCLE
5
149
100
AcDbEntity
8
0
100
AcDbCircle
10
-45.333230095493384
20
-307.62012051483458
30
0
40
1.2499999999999987
210
-2.0679515313825715e-25
220
-8.5148721967780167e-39
230
1
0
CIRCLE
5
150
100
AcDbEntity
8
0
100
AcDbCircle
10
-45.333230095492567
20
-327.61481873110364
30
-1.7763568394002505e-14
40
1.2499999999999987
210
-2.0679515313825715e-25
220
-8.5148721967780167e-39
230
1
0
CIRCLE
5
151
100
AcDbEntity
8
0
100
AcDbCircle
10
-88.135938337047151
20
-312.36746962297207
30
-1.7763568394002505e-14
40
1.2499999999999987
210
-2.0679515313825715e-25
220
-8.5148721967856892e-39
230
1
0
CIRCLE
5
152
100
AcDbEntity
8
0
100
AcDbCircle
10
-88.135938337046724
20
-322.86746407634132
30
-1.7763568394002505e-14
40
1.2499999999999987
210
-2.0679515313825715e-25
220
-8.5148721967820898e-39
230
1
0
LWPOLYLINE
5
153
100
AcDbEntity
8
0
100
AcDbPolyline
90
8
70
1
43
0.0
10
-45.628524472690195
20
-312.85495999917111
10
-79.554053184117095
20
-312.85495999917248
42
0.41421356237311585
10
-80.554053184117066
20
-313.85495999917265
10
-80.554053184116739
20
-321.37997370014
42
0.41421356237308465
10
-79.554053184116711
20
-322.37997370013989
10
-45.628524472689797
20
-322.37997370013858
42
0.41421356237308204
10
-44.628524472689868
20
-321.37997370013858
10
-44.62852447269016
20
-313.85495999917117
42
0.41421356237309509
0
LINE
5
154
100
AcDbEntity
8
0
100
AcDbLine
10
-90.17909469160486
20
-332.61747060110599
30
0
11
-143.97591759832056
21
-332.61747060110599
31
1.6543612251060553e-23
0
ARC
5
155
100
AcDbEntity
8
0
100
AcDbCircle
10
-143.97591759832056
20
-324.61746888332385
30
-8.9683101716788293e-42
40
7.9999999999999538
210
4.6635212892729912e-42
220
1.6155871338926408e-27
230
1
100
AcDbArc
50
138.76059075778534
51
270
0
ARC
5
156
100
AcDbEntity
8
0
100
AcDbCircle
10
-152.00041905998995
20
-317.58279283745264
30
0
40
2.6714240276867245
210
2.3982522839151808e-27
220
-2.1024276001547451e-27
230
1
100
AcDbArc
50
-41.239421496202155
51
121.90644810014547
0
ARC
5
157
100
AcDbEntity
8
0
100
AcDbCircle
10
-143.97591759832051
20
-330.47146469147776
30
0
40
17.853995808155084
210
1.5651404088937715e-26
220
-2.5138733127976603e-26
230
1
100
AcDbArc
50
121.90644040327862
51
155.09214790105682
0
ARC
5
158
100
AcDbEntity
8
0
100
AcDbCircle
10
-167.42513772401776
20
-319.58279283745293
30
0
40
7.9999999999999716
210
-2.0739217274838671e-43
220
1.6155871338926379e-27
230
1
100
AcDbArc
50
270
51
335.09214790105699
0
LINE
5
159
100
AcDbEntity
8
0
100
AcDbLine
10
-167.42513772401776
20
-327.58279283745287
30
1.2924697071141057e-26
11
-179.42809445755387
21
-327.58279283745276
31
0
0
ARC
5
160
100
AcDbEntity
8
0
100
AcDbCircle
10
-179.42809445755398
20
-334.58279283745276
30
2.8928181289767232e-38
40
7.0000000000000284
210
2.0679515313825595e-25
220
9.8395174454991637e-40
230
1
100
AcDbArc
50
89.999999999999076
51
180
0
LINE
5
161
100
AcDbEntity
8
0
100
AcDbLine
10
-186.42809445755387
20
-334.58279283745287
30
1.4475660719677973e-24
11
-186.42809445755378
21
-350.65214492919495
31
1.7763568394034816e-14
0
ARC
5
162
100
AcDbEntity
8
0
100
AcDbCircle
10
-179.42809445755393
20
-350.65214492919495
30
1.9629837303770621e-38
40
6.9999999999998508
210
2.5376526277193136e-15
220
1.6155871338925204e-27
230
1
100
AcDbArc
50
180
51
270.00000000000074
0
LINE
5
163
100
AcDbEntity
8
0
100
AcDbLine
10
-179.42809445755384
20
-357.65214492919483
30
1.130910993724523e-26
11
-167.42513772401901
21
-357.65214492919495
31
0
0
ARC
5
164
100
AcDbEntity
8
0
100
AcDbCircle
10
-167.42513772401895
20
-365.65214492919489
30
0
40
7.9999999999999885
210
1.8756037182217536e-25
220
8.7093870527165287e-26
230
1
100
AcDbArc
50
24.907852098942271
51
90.000000000000398
0
ARC
5
165
100
AcDbEntity
8
0
100
AcDbCircle
10
-143.97591759832051
20
-354.76347307516983
30
1.7763568394002505e-14
40
17.853995808155069
210
-9.0239257548291933e-16
220
-4.1902701201223451e-16
230
1
100
AcDbArc
50
204.90785209894258
51
238.09365124553889
0
ARC
5
166
100
AcDbEntity
8
0
100
AcDbCircle
10
-152.00041905998987
20
-367.65214492919489
30
0
40
2.6714240278127561
210
3.5144126621296414e-15
220
5.6448584495132715e-15
230
1
100
AcDbArc
50
-121.90583558128515
51
41.239402719221992
0
ARC
5
167
100
AcDbEntity
8
0
100
AcDbCircle
10
-143.97591759832056
20
-360.61746888332374
30
0
40
7.9999999999999716
210
-2.0679515313825715e-25
220
1.1147551223859109e-25
230
1
100
AcDbArc
50
90.000000000000199
51
221.23941551237431
0
LINE
5
168
100
AcDbEntity
8
0
100
AcDbLine
10
-143.97591759832059
20
-352.61746888332374
30
-8.9180409790872929e-25
11
-90.179090182703945
21
-352.61746888332368
31
1.7763568394002505e-14
0
ARC
5
169
100
AcDbEntity
8
0
100
AcDbCircle
10
-90.179090182703902
20
-372.61746888332368
30
0
40
19.999999999999968
210
0
220
-0
230
1
100
AcDbArc
50
73.739795291688566
51
90.000000000000128
0
ARC
5
170
100
AcDbEntity
8
0
100
AcDbCircle
10
-83.17909018270413
20
-348.61746888332362
30
0
40
5.0000000000000249
210
1.9852334701272755e-25
220
-5.790264287870975e-26
230
1
100
AcDbArc
50
-106.26020470831135
51
2.1514418276737845e-05
0
LINE
5
171
100
AcDbEntity
8
0
100
AcDbLine
10
-78.179090182704499
20
-348.61746700461453
30
-9.9261662628134353e-25
11
-78.179094691605599
21
-336.61746872239695
31
-1.6155871338926322e-26
0
ARC
5
172
100
AcDbEntity
8
0
100
AcDbCircle
10
-83.179094691605258
20
-336.61747060110611
30
1.7763568394002505e-14
40
5.000000000000016
210
3.5527136788034702e-15
220
1.3349047692612333e-21
230
1
100
AcDbArc
50
2.1514418276737845e-05
51
106.26020470831074
0
ARC
5
173
100
AcDbEntity
8
0
100
AcDbCircle
10
-90.17909469160486
20
-312.61747060110599
30
0
40
20
210
-1.6255062188999254e-43
220
0
230
1
100
AcDbArc
50
270
51
286.26020470831105
0
CIRCLE
5
174
100
AcDbEntity
8
0
100
AcDbCircle
10
-83.179094025453992
20
-336.61747060110605
30
0
40
1.2499999999999982
210
-2.0739217274838671e-43
220
1.6155871338926354e-27
230
1
0
CIRCLE
5
175
100
AcDbEntity
8
0
100
AcDbCircle
10
-83.179090848855353
20
-348.61746888332362
30
0
40
1.2499999999999982
210
-2.0739217274838671e-43
220
1.6155871338926354e-27
230
1
0
CIRCLE
5
176
100
AcDbEntity
8
0
100
AcDbCircle
10
-179.81269093525671
20
-352.61481799145935
30
0
40
1.2499999999999982
210
-2.0739217274838671e-43
220
1.6155871338926354e-27
230
1
0
CIRCLE
5
177
100
AcDbEntity
8
0
100
AcDbCircle
10
-179.81269093525674
20
-332.62011977519029
30
0
40
1.2499999999999982
210
-2.0739217274838671e-43
220
1.6155871338926354e-27
230
1
0
CIRCLE
5
178
100
AcDbEntity
8
0
100
AcDbCircle
10
-137.00998269370277
20
-347.86746888332345
30
0
40
1.2499999999999982
210
-2.0739217280832755e-43
220
1.6155871338926354e-27
230
1
0
CIRCLE
5
179
100
AcDbEntity
8
0
100
AcDbCircle
10
-137.00998269370277
20
-337.3674744299542
30
0
40
1.2499999999999982
210
-2.0739217278020028e-43
220
1.6155871338926354e-27
230
1
0
LWPOLYLINE
5
180
100
AcDbEntity
8
0
100
AcDbPolyline
90
8
70
1
43
0.0
10
-179.51739655805969
20
-347.3799785071227
10
-145.59186784663279
20
-347.3799785071227
42
0.41421356237307422
10
-144.59186784663277
20
-346.3799785071227
10
-144.59186784663279
20
-338.85496480615529
42
0.41421356237309509
10
-145.59186784663279
20
-337.85496480615541
10
-179.51739655805969
20
-337.85496480615535
42
0.41421356237307422
10
-180.51739655805966
20
-338.85496480615529
10
-180.51739655805972
20
-346.3799785071227
42
0.41421356237309509
0
LINE
5
181
100
AcDbEntity
8
0
100
AcDbLine
10
-134.96682633914435
20
-385.61746790519101
30
-1.7763568394002505e-14
11
-81.170003432428643
21
-385.6174679051889
31
-1.7763568377458892e-14
0
ARC
5
182
100
AcDbEntity
8
0
100
AcDbCircle
10
-81.170003432428274
20
-393.61746962297082
30
-3.5527136788005003e-14
40
7.9999999999999822
210
-2.06794110121563e-25
220
1.6155254949971473e-27
230
1
100
AcDbArc
50
-41.239409242212837
51
90.000000000002643
0
ARC
5
183
100
AcDbEntity
8
0
100
AcDbCircle
10
-73.145501970758673
20
-400.6521456688418
30
-1.7763568394002505e-14
40
2.671424027686728
210
-5.0001497026121771e-15
220
4.383380685526054e-15
230
1
100
AcDbArc
50
138.76057850379894
51
301.90644810014851
0
ARC
5
184
100
AcDbEntity
8
0
100
AcDbCircle
10
-81.170003432428615
20
-387.76347381481708
30
-1.7763568394002505e-14
40
17.853995808155002
210
-1.8029254302475681e-25
220
-1.0168243332221665e-25
230
1
100
AcDbArc
50
301.90644040328107
51
335.09214790105938
0
ARC
5
185
100
AcDbEntity
8
0
100
AcDbCircle
10
-57.720783306730894
20
-398.652145668841
30
-1.7763568394002505e-14
40
7.9999999999999716
210
-4.1359030627651439e-25
220
1.615685741488801e-27
230
1
100
AcDbArc
50
90.000000000002331
51
155.09214790105869
0
LINE
5
186
100
AcDbEntity
8
0
100
AcDbLine
10
-57.720783306731221
20
-390.652145668841
30
-1.7763568394015429e-14
11
-45.717826573195111
21
-390.65214566884066
31
-3.5527136788005009e-14
0
ARC
5
187
100
AcDbEntity
8
0
100
AcDbCircle
10
-45.717826573195318
20
-383.6521456688406
30
-3.5527136788005009e-14
40
7.0000000000000284
210
-2.0679589455840326e-25
220
-6.0349256701073982e-39
230
1
100
AcDbArc
50
-89.999999999998323
51
0
0
LINE
5
188
100
AcDbEntity
8
0
100
AcDbLine
10
-38.71782657319536
20
-383.65214566884038
30
-3.5527136786557437e-14
11
-38.717826573196085
21
-367.5827935770983
31
-3.5527136788037321e-14
0
ARC
5
189
100
AcDbEntity
8
0
100
AcDbCircle
10
-45.717826573195936
20
-367.58279357709853
30
-1.7763568394002501e-14
40
6.9999999999998463
210
2.5376526277193152e-15
220
-1.5381649444737904e-27
230
1
100
AcDbArc
50
0
51
90.000000000003311
0
LINE
5
190
100
AcDbEntity
8
0
100
AcDbLine
10
-45.717826573196341
20
-360.58279357709864
30
-1.7763568393991196e-14
11
-57.720783306731164
21
-360.58279357709898
31
-3.5527136788005009e-14
0
ARC
5
191
100
AcDbEntity
8
0
100
AcDbCircle
10
-57.720783306731498
20
-352.5827935770991
30
-1.7763568394002505e-14
40
7.9999999999999876
210
-1.4401325768707612e-25
220
-1.808739733790715e-25
230
1
100
AcDbArc
50
204.90785209894457
51
270.00000000000239
0
ARC
5
192
100
AcDbEntity
8
0
100
AcDbCircle
10
-81.170003432429567
20
-363.47146543112501
30
-3.5527136788005009e-14
40
17.853995808155076
210
-9.0239257540191476e-16
220
-4.190270117466559e-16
230
1
100
AcDbArc
50
24.907852098944538
51
58.093651245541182
0
ARC
5
193
100
AcDbEntity
8
0
100
AcDbCircle
10
-73.145501970760733
20
-350.58279357709966
30
-1.7763568394002505e-14
40
2.6714240278127788
210
3.5144126605197017e-15
220
5.6448584473191117e-15
230
1
100
AcDbArc
50
58.09416441871744
51
221.2394027192239
0
ARC
5
194
100
AcDbEntity
8
0
100
AcDbCircle
10
-81.170003432429752
20
-357.6174696229711
30
-1.7763568394002505e-14
40
7.9999999999999716
210
-2.0679515313824183e-25
220
-3.8127866220628445e-25
230
1
100
AcDbArc
50
-89.999999999997556
51
41.239415512376524
0
LINE
5
195
100
AcDbEntity
8
0
100
AcDbLine
10
-81.170003432429411
20
-365.61746962297104
30
-1.7763568397052733e-14
11
-134.96683084804602
21
-365.61746962297326
31
-3.5527136804548622e-14
0
ARC
5
196
100
AcDbEntity
8
0
100
AcDbCircle
10
-134.96683084804687
20
-345.61746962297343
30
-1.7763568394002505e-14
40
19.999999999999957
210
-2.1299900773240523e-25
220
8.2718061255199569e-27
230
1
100
AcDbArc
50
253.7397952916908
51
270.00000000000244
0
ARC
5
197
100
AcDbEntity
8
0
100
AcDbCircle
10
-141.96683084804567
20
-369.61746962297366
30
-3.5527136788005009e-14
40
4.9999999999999698
210
-9.9475983000607664e-16
220
-3.4106051314500262e-15
230
1
100
AcDbArc
50
73.739795291690825
51
180.00002151441828
0
LINE
5
198
100
AcDbEntity
8
0
100
AcDbLine
10
-146.96683084804533
20
-369.61747150168299
30
-3.5527136788077389e-14
11
-146.96682633914378
21
-381.61746978390045
31
-1.7763568394002505e-14
0
ARC
5
199
100
AcDbEntity
8
0
100
AcDbCircle
10
-141.96682633914406
20
-381.61746790519118
30
-1.7763568394002505e-14
40
5.0000000000000693
210
9.9573935441338191e-46
220
-2.650062426938495e-39
230
1
100
AcDbArc
50
180.00002151441828
51
286.26020470831332
0
ARC
5
200
100
AcDbEntity
8
0
100
AcDbCircle
10
-134.96682633914355
20
-405.61746790519095
30
-3.5527136788005009e-14
40
19.999999999999929
210
-2.0675886553661698e-25
220
-8.8817841970012839e-16
230
1
100
AcDbArc
50
90.000000000002288
51
106.26020470831321
0
CIRCLE
5
201
100
AcDbEntity
8
0
100
AcDbCircle
10
-141.96682700529533
20
-381.61746790519123
30
-3.5527136788005009e-14
40
1.2499999999999987
210
-2.0679515313825715e-25
220
-8.5148721967780167e-39
230
1
0
CIRCLE
5
202
100
AcDbEntity
8
0
100
AcDbCircle
10
-141.96683018189447
20
-369.61746962297366
30
-3.5527136788005009e-14
40
1.2499999999999987
210
-2.0679515313825715e-25
220
-8.5148721967780167e-39
230
1
0
CIRCLE
5
203
100
AcDbEntity
8
0
100
AcDbCircle
10
-45.333230095493242
20
-365.62012051483413
30
-1.7763568394002505e-14
40
1.2499999999999987
210
-2.0679515313825715e-25
220
-8.5148721967780167e-39
230
1
0
CIRCLE
5
204
100
AcDbEntity
8
0
100
AcDbCircle
10
-45.333230095492425
20
-385.61481873110318
30
-1.7763568394002505e-14
40
1.2499999999999987
210
-2.0679515313825715e-25
220
-8.5148721967780167e-39
230
1
0
CIRCLE
5
205
100
AcDbEntity
8
0
100
AcDbCircle
10
-88.135938337047008
20
-370.36746962297161
30
-1.7763568394002505e-14
40
1.2499999999999987
210
-2.0679515313825715e-25
220
-8.5148721967856892e-39
230
1
0
CIRCLE
5
206
100
AcDbEntity
8
0
100
AcDbCircle
10
-88.135938337046582
20
-380.86746407634087
30
-3.5527136788005009e-14
40
1.2499999999999987
210
-2.0679515313825715e-25
220
-8.5148721967820898e-39
230
1
0
LWPOLYLINE
5
207
100
AcDbEntity
8
0
100
AcDbPolyline
90
8
70
1
43
0.0
10
-45.628524472690053
20
-370.85495999917066
10
-79.554053184116952
20
-370.85495999917202
42
0.41421356237310542
10
-80.554053184116924
20
-371.85495999917214
10
-80.554053184116597
20
-379.37997370013954
42
0.41421356237308465
10
-79.554053184116569
20
-380.37997370013943
10
-45.628524472689655
20
-380.37997370013812
42
0.41421356237308204
10
-44.628524472689726
20
-379.37997370013812
10
-44.628524472690017
20
-371.85495999917066
42
0.41421356237308465
0
LINE
5
208
100
AcDbEntity
8
0
100
AcDbLine
10
-90.179094691604931
20
-390.61747060110577
30
0
11
-143.97591759832065
21
-390.61747060110577
31
0
0
ARC
5
209
100
AcDbEntity
8
0
100
AcDbCircle
10
-143.97591759832059
20
-382.61746888332357
30
6.4284847310593848e-39
40
7.9999999999999707
210
-2.0679515313825669e-25
220
1.615587133892333e-27
230
1
100
AcDbArc
50
138.76059075778559
51
269.9999999999996
0
ARC
5
210
100
AcDbEntity
8
0
100
AcDbCircle
10
-152.00041905999001
20
-375.58279283745242
30
-1.7763568394002505e-14
40
2.6714240276867014
210
-5.0001497027485096e-15
220
4.3833806853706413e-15
230
1
100
AcDbArc
50
-41.239421496201651
51
121.90644810014611
0
ARC
5
211
100
AcDbEntity
8
0
100
AcDbCircle
10
-143.97591759832056
20
-388.47146469147754
30
0
40
17.853995808155055
210
-5.2585682825243043e-16
220
8.4461268817108451e-16
230
1
100
AcDbArc
50
121.90644040327869
51
155.09214790105665
0
ARC
5
212
100
AcDbEntity
8
0
100
AcDbCircle
10
-167.42513772401782
20
-377.58279283745264
30
0
40
7.9999999999999716
210
-2.073921727483891e-43
220
1.6155871338926379e-27
230
1
100
AcDbArc
50
270
51
335.09214790105699
0
LINE
5
213
100
AcDbEntity
8
0
100
AcDbLine
10
-167.42513772401782
20
-385.58279283745264
30
1.2924697071141057e-26
11
-179.42809445755393
21
-385.58279283745253
31
4.1359030627651384e-24
0
ARC
5
214
100
AcDbEntity
8
0
100
AcDbCircle
10
-179.42809445755401
20
-392.58279283745259
30
2.1581341597127935e-38
40
7.0000000000000995
210
2.0679515313824999e-25
220
-5.908432946807247e-25
230
1
100
AcDbArc
50
89.999999999999304
51
180
0
LINE
5
215
100
AcDbEntity
8
0
100
AcDbLine
10
-186.42809445755398
20
-392.58279283745259
30
1.4475660719678047e-24
11
-186.42809445755387
21
-408.65214492919472
31
3.2311742677852644e-26
0
ARC
5
216
100
AcDbEntity
8
0
100
AcDbCircle
10
-179.42809445755404
20
-408.65214492919478
30
-1.7763568394002501e-14
40
6.9999999999998153
210
2.5376526277193267e-15
220
1.5896823913446119e-27
230
1
100
AcDbArc
50
180
51
270.00000000000119
0
LINE
5
217
100
AcDbEntity
8
0
100
AcDbLine
10
-179.4280944575539
20
-415.65214492919466
30
-1.7763568393991196e-14
11
-167.42513772401907
21
-415.65214492919472
31
-4.1359030627651384e-24
0
ARC
5
218
100
AcDbEntity
8
0
100
AcDbCircle
10
-167.42513772401904
20
-423.65214492919461
30
0
40
7.9999999999999885
210
3.7512074364435073e-25
220
1.7418774105433057e-25
230
1
100
AcDbArc
50
24.907852098941898
51
90.000000000000199
0
ARC
5
219
100
AcDbEntity
8
0
100
AcDbCircle
10
-143.97591759832056
20
-412.7634730751696
30
0
40
17.853995808155069
210
-1.6808371534309656e-25
220
-7.8049863089930465e-26
230
1
100
AcDbArc
50
204.9078520989425
51
238.09365124553889
0
ARC
5
220
100
AcDbEntity
8
0
100
AcDbCircle
10
-152.00041905998995
20
-425.65214492919466
30
0
40
2.6714240278127561
210
1.8339738980284421e-24
220
2.9457334839320997e-24
230
1
100
AcDbArc
50
-121.90583558128463
51
41.239402719221992
0
ARC
5
221
100
AcDbEntity
8
0
100
AcDbCircle
10
-143.97591759832065
20
-418.61746888332345
30
0
40
7.9999999999999716
210
-4.1359030627651439e-25
220
1.1147551223859061e-25
230
1
100
AcDbArc
50
90
51
221.23941551237459
0
LINE
5
222
100
AcDbEntity
8
0
100
AcDbLine
10
-143.97591759832065
20
-410.61746888332351
30
-8.918040979087291e-25
11
-90.179090182704016
21
-410.61746888332345
31
0
0
ARC
5
223
100
AcDbEntity
8
0
100
AcDbCircle
10
-90.179090182703987
20
-430.61746888332345
30
0
40
19.999999999999968
210
0
220
-0
230
1
100
AcDbArc
50
73.739795291688509
51
90.000000000000071
0
ARC
5
224
100
AcDbEntity
8
0
100
AcDbCircle
10
-83.179090182704201
20
-406.6174688833234
30
0
40
5.0000000000000249
210
0
220
0
230
1
100
AcDbArc
50
-106.26020470831135
51
2.1514418276737845e-05
0
LINE
5
225
100
AcDbEntity
8
0
100
AcDbLine
10
-78.17909018270457
20
-406.6174670046143
30
0
11
-78.17909469160567
21
-394.61746872239672
31
-1.6155871338926322e-26
0
ARC
5
226
100
AcDbEntity
8
0
100
AcDbCircle
10
-83.179094691605329
20
-394.61747060110588
30
0
40
5.000000000000016
210
3.2311736607413533e-27
220
1.615588347979867e-27
230
1
100
AcDbArc
50
2.1514418276737845e-05
51
106.26020470831089
0
ARC
5
227
100
AcDbEntity
8
0
100
AcDbCircle
10
-90.179094691604931
20
-370.61747060110577
30
-1.7763568394002505e-14
40
20
210
-1.6255062188999491e-43
220
8.8817841970012523e-16
230
1
100
AcDbArc
50
270
51
286.26020470831105
0
CIRCLE
5
228
100
AcDbEntity
8
0
100
AcDbCircle
10
-83.179094025454077
20
-394.61747060110582
30
0
40
1.2499999999999982
210
-2.073921727483891e-43
220
1.6155871338926354e-27
230
1
0
CIRCLE
5
229
100
AcDbEntity
8
0
100
AcDbCircle
10
-83.179090848855424
20
-406.6174688833234
30
0
40
1.2499999999999982
210
-2.073921727483891e-43
220
1.6155871338926354e-27
230
1
0
CIRCLE
5
230
100
AcDbEntity
8
0
100
AcDbCircle
10
-179.8126909352568
20
-410.61481799145906
30
-1.7763568394002505e-14
40
1.2499999999999982
210
-2.073921727483891e-43
220
1.6155871338926354e-27
230
1
0
CIRCLE
5
231
100
AcDbEntity
8
0
100
AcDbCircle
10
-179.81269093525682
20
-390.62011977519006
30
0
40
1.2499999999999982
210
-2.073921727483891e-43
220
1.6155871338926354e-27
230
1
0
CIRCLE
5
232
100
AcDbEntity
8
0
100
AcDbCircle
10
-137.00998269370285
20
-405.86746888332323
30
0
40
1.2499999999999982
210
-2.0739217280832994e-43
220
1.6155871338926354e-27
230
1
0
CIRCLE
5
233
100
AcDbEntity
8
0
100
AcDbCircle
10
-137.00998269370285
20
-395.36747442995397
30
0
40
1.2499999999999982
210
-2.0739217278020271e-43
220
1.6155871338926354e-27
230
1
0
LWPOLYLINE
5
234
100
AcDbEntity
8
0
100
AcDbPolyline
90
8
70
1
43
0.0
10
-179.51739655805977
20
-405.37997850712247
10
-145.59186784663285
20
-405.37997850712247
42
0.41421356237307422
10
-144.59186784663282
20
-404.37997850712242
10
-144.59186784663285
20
-396.85496480615507
42
0.41421356237309509
10
-145.59186784663285
20
-395.85496480615518
10
-179.51739655805977
20
-395.85496480615512
42
0.41421356237307422
10
-180.51739655805974
20
-396.85496480615507
10
-180.51739655805977
20
-404.37997850712242
42
0.41421356237309509
0
LINE
5
235
100
AcDbEntity
8
0
100
AcDbLine
10
-134.96682633914421
20
-443.61746790519101
30
-1.7763568394002505e-14
11
-81.170003432428501
21
-443.61746790518885
31
-1.7763568377458892e-14
0
ARC
5
236
100
AcDbEntity
8
0
100
AcDbCircle
10
-81.170003432428132
20
-451.61746962297082
30
-1.7763568394002508e-14
40
7.9999999999999822
210
-2.0679563032721739e-25
220
1.6156612016931839e-27
230
1
100
AcDbArc
50
-41.239409242212531
51
90.000000000002643
0
ARC
5
237
100
AcDbEntity
8
0
100
AcDbCircle
10
-73.145501970758531
20
-458.65214566884174
30
-1.7763568394002505e-14
40
2.671424027686728
210
4.888887943218676e-25
220
-1.5357668418481957e-25
230
1
100
AcDbArc
50
138.76057850379894
51
301.90644810014788
0
ARC
5
238
100
AcDbEntity
8
0
100
AcDbCircle
10
-81.170003432428473
20
-445.76347381481702
30
-1.7763568394002505e-14
40
17.853995808155002
210
-1.8029254302475681e-25
220
-1.0168243332221665e-25
230
1
100
AcDbArc
50
301.90644040328101
51
335.09214790105915
0
ARC
5
239
100
AcDbEntity
8
0
100
AcDbCircle
10
-57.720783306730752
20
-456.65214566884094
30
-1.7763568394002505e-14
40
7.9999999999999716
210
-4.1359030627651439e-25
220
1.615685741488801e-27
230
1
100
AcDbArc
50
90.000000000002331
51
155.09214790105904
0
LINE
5
240
100
AcDbEntity
8
0
100
AcDbLine
10
-57.720783306731079
20
-448.652145668841
30
-1.7763568394015429e-14
11
-45.717826573194969
21
-448.6521456688406
31
-1.7763568394002505e-14
0
ARC
5
241
100
AcDbEntity
8
0
100
AcDbCircle
10
-45.717826573195175
20
-441.6521456688406
30
-1.7763568394002505e-14
40
7.0000000000000284
210
-2.0679513186886544e-25
220
-6.0349034125346364e-39
230
1
100
AcDbArc
50
-89.999999999998323
51
0
0
LINE
5
242
100
AcDbEntity
8
0
100
AcDbLine
10
-38.717826573195218
20
-441.65214566884032
30
-1.7763568392554939e-14
11
-38.717826573195943
21
-425.5827935770983
31
-1.7763568394034816e-14
0
ARC
5
243
100
AcDbEntity
8
0
100
AcDbCircle
10
-45.717826573195794
20
-425.58279357709853
30
-1.7763568394002501e-14
40
6.9999999999998463
210
4.6162449757309647e-27
220
-1.6154411147811582e-27
230
1
100
AcDbArc
50
0
51
90.000000000003311
0
LINE
5
244
100
AcDbEntity
8
0
100
AcDbLine
10
-45.717826573196199
20
-418.58279357709864
30
-1.7763568393991196e-14
11
-57.720783306731022
21
-418.58279357709898
31
-1.7763568394002505e-14
0
ARC
5
245
100
AcDbEntity
8
0
100
AcDbCircle
10
-57.720783306731356
20
-410.5827935770991
30
-1.7763568394002505e-14
40
7.9999999999999876
210
-1.4401325768707612e-25
220
-1.808739733790715e-25
230
1
100
AcDbArc
50
204.90785209894418
51
270.00000000000239
0
ARC
5
246
100
AcDbEntity
8
0
100
AcDbCircle
10
-81.170003432429425
20
-421.47146543112501
30
-1.7763568394002505e-14
40
17.853995808155076
210
8.4041777522986656e-26
220
3.9024894327891156e-26
230
1
100
AcDbArc
50
24.907852098944705
51
58.093651245541182
0
ARC
5
247
100
AcDbEntity
8
0
100
AcDbCircle
10
-73.145501970760591
20
-408.58279357709961
30
-1.7763568394002505e-14
40
2.6714240278127788
210
-1.8339740345811973e-24
220
-2.945733703263717e-24
230
1
100
AcDbArc
50
58.094164418716808
51
221.23940271922481
0
ARC
5
248
100
AcDbEntity
8
0
100
AcDbCircle
10
-81.17000343242961
20
-415.61746962297104
30
-1.7763568394002505e-14
40
7.9999999999999716
210
-2.0679515313824183e-25
220
-3.8127866220628445e-25
230
1
100
AcDbArc
50
-89.999999999997556
51
41.239415512376219
0
LINE
5
249
100
AcDbEntity
8
0
100
AcDbLine
10
-81.170003432429269
20
-423.61746962297104
30
-1.7763568397052733e-14
11
-134.96683084804587
21
-423.61746962297326
31
-1.7763568410546117e-14
0
ARC
5
250
100
AcDbEntity
8
0
100
AcDbCircle
10
-134.96683084804673
20
-403.61746962297337
30
-1.7763568394002505e-14
40
19.999999999999957
210
-2.1299900773240523e-25
220
8.2718061255199569e-27
230
1
100
AcDbArc
50
253.7397952916908
51
270.00000000000244
0
ARC
5
251
100
AcDbEntity
8
0
100
AcDbCircle
10
-141.96683084804556
20
-427.61746962297366
30
-1.7763568394002505e-14
40
4.9999999999999698
210
5.7902642878702564e-26
220
1.9852334701273065e-25
230
1
100
AcDbArc
50
73.739795291690697
51
180.00002151441828
0
LINE
5
252
100
AcDbEntity
8
0
100
AcDbLine
10
-146.96683084804519
20
-427.61747150168299
30
-1.7763568394074884e-14
11
-146.96682633914364
21
-439.61746978390039
31
-1.7763568394002505e-14
0
ARC
5
253
100
AcDbEntity
8
0
100
AcDbCircle
10
-141.96682633914392
20
-439.61746790519112
30
-1.7763568394002505e-14
40
5.0000000000000693
210
9.9573935441338191e-46
220
-2.650062426938495e-39
230
1
100
AcDbArc
50
180.00002151441828
51
286.26020470831281
0
ARC
5
254
100
AcDbEntity
8
0
100
AcDbCircle
10
-134.96682633914338
20
-463.61746790519089
30
-1.7763568394002505e-14
40
19.999999999999929
210
-2.0679515313825715e-25
220
-8.4488656465352306e-39
230
1
100
AcDbArc
50
90.000000000002373
51
106.26020470831341
0
CIRCLE
5
255
100
AcDbEntity
8
0
100
AcDbCircle
10
-141.96682700529519
20
-439.61746790519123
30
-1.7763568394002505e-14
40
1.2499999999999987
210
-2.0679515313825715e-25
220
-8.5148721967779672e-39
230
1
0
CIRCLE
5
256
100
AcDbEntity
8
0
100
AcDbCircle
10
-141.96683018189432
20
-427.61746962297366
30
-1.7763568394002505e-14
40
1.2499999999999987
210
-2.0679515313825715e-25
220
-8.5148721967779672e-39
230
1
0
CIRCLE
5
257
100
AcDbEntity
8
0
100
AcDbCircle
10
-45.3332300954931
20
-423.62012051483413
30
-1.7763568394002505e-14
40
1.2499999999999987
210
-2.0679515313825715e-25
220
-8.5148721967779672e-39
230
1
0
CIRCLE
5
258
100
AcDbEntity
8
0
100
AcDbCircle
10
-45.333230095492283
20
-443.61481873110313
30
-1.7763568394002505e-14
40
1.2499999999999987
210
-2.0679515313825715e-25
220
-8.5148721967779672e-39
230
1
0
CIRCLE
5
259
100
AcDbEntity
8
0
100
AcDbCircle
10
-88.135938337046866
20
-428.36746962297156
30
-1.7763568394002505e-14
40
1.2499999999999987
210
-2.0679515313825715e-25
220
-8.5148721967856396e-39
230
1
0
CIRCLE
5
260
100
AcDbEntity
8
0
100
AcDbCircle
10
-88.13593833704644
20
-438.86746407634087
30
-1.7763568394002505e-14
40
1.2499999999999987
210
-2.0679515313825715e-25
220
-8.5148721967820402e-39
230
1
0
LWPOLYLINE
5
261
100
AcDbEntity
8
0
100
AcDbPolyline
90
8
70
1
43
0.0
10
-45.628524472689911
20
-428.8549599991706
10
-79.55405318411681
20
-428.85495999917197
42
0.41421356237310542
10
-80.554053184116782
20
-429.85495999917214
10
-80.554053184116455
20
-437.37997370013949
42
0.41421356237308465
10
-79.554053184116427
20
-438.37997370013937
10
-45.628524472689513
20
-438.37997370013807
42
0.41421356237308204
10
-44.628524472689584
20
-437.37997370013807
10
-44.628524472689875
20
-429.85495999917066
42
0.41421356237308465
0
LINE
5
262
100
AcDbEntity
8
0
100
AcDbLine
10
-90.179094691604718
20
-448.61747060110559
30
0
11
-143.97591759832042
21
-448.61747060110559
31
1.6543612251060553e-23
0
ARC
5
263
100
AcDbEntity
8
0
100
AcDbCircle
10
-143.97591759832036
20
-440.61746888332334
30
-5.9190847133080273e-41
40
7.9999999999999707
210
-2.2420775429197064e-42
220
1.6155871338926343e-27
230
1
100
AcDbArc
50
138.76059075778619
51
269.9999999999996
0
ARC
5
264
100
AcDbEntity
8
0
100
AcDbCircle
10
-152.00041905998978
20
-433.58279283745225
30
0
40
2.6714240276867014
210
2.3982522839138531e-27
220
-2.1024276001563023e-27
230
1
100
AcDbArc
50
-41.23942149620256
51
121.9064481001466
0
ARC
5
265
100
AcDbEntity
8
0
100
AcDbCircle
10
-143.97591759832036
20
-446.47146469147737
30
0
40
17.853995808155055
210
1.565140408893787e-26
220
-2.5138733127976566e-26
230
1
100
AcDbArc
50
121.90644040327869
51
155.09214790105682
0
ARC
5
266
100
AcDbEntity
8
0
100
AcDbCircle
10
-167.42513772401762
20
-435.58279283745253
30
0
40
7.9999999999999716
210
-2.073921727479966e-43
220
1.6155871338926379e-27
230
1
100
AcDbArc
50
270
51
335.09214790105699
0
LINE
5
267
100
AcDbEntity
8
0
100
AcDbLine
10
-167.42513772401762
20
-443.58279283745247
30
1.2924697071141057e-26
11
-179.42809445755373
21
-443.5827928374523
31
0
0
ARC
5
268
100
AcDbEntity
8
0
100
AcDbCircle
10
-179.42809445755381
20
-450.58279283745242
30
2.1581341597127935e-38
40
7.0000000000000995
210
2.0679515313825598e-25
220
9.8395174454990169e-40
230
1
100
AcDbArc
50
89.999999999999304
51
180
0
LINE
5
269
100
AcDbEntity
8
0
100
AcDbLine
10
-186.42809445755375
20
-450.58279283745242
30
1.4475660719678047e-24
11
-186.42809445755364
21
-466.65214492919455
31
1.7763568394034816e-14
0
ARC
5
270
100
AcDbEntity
8
0
100
AcDbCircle
10
-179.42809445755384
20
-466.65214492919461
30
2.7206265736804896e-38
40
6.9999999999998153
210
2.5376526277193267e-15
220
1.5898284104587833e-27
230
1
100
AcDbArc
50
180
51
270.00000000000119
0
LINE
5
271
100
AcDbEntity
8
0
100
AcDbLine
10
-179.4280944575537
20
-473.65214492919449
30
1.1309109937245266e-26
11
-167.42513772401884
21
-473.65214492919455
31
0
0
ARC
5
272
100
AcDbEntity
8
0
100
AcDbCircle
10
-167.42513772401881
20
-481.65214492919449
30
0
40
7.9999999999999885
210
1.8756037182217536e-25
220
8.7093870527165287e-26
230
1
100
AcDbArc
50
24.90785209894235
51
90.000000000000199
0
ARC
5
273
100
AcDbEntity
8
0
100
AcDbCircle
10
-143.97591759832036
20
-470.76347307516937
30
1.7763568394002505e-14
40
17.853995808155069
210
-9.0239257548291933e-16
220
-4.1902701201223451e-16
230
1
100
AcDbArc
50
204.90785209894267
51
238.09365124553892
0
ARC
5
274
100
AcDbEntity
8
0
100
AcDbCircle
10
-152.00041905998972
20
-483.65214492919449
30
0
40
2.6714240278127561
210
3.5144126621296414e-15
220
5.6448584495132715e-15
230
1
100
AcDbArc
50
-121.90583558128515
51
41.239402719222902
0
ARC
5
275
100
AcDbEntity
8
0
100
AcDbCircle
10
-143.97591759832042
20
-476.61746888332334
30
0
40
7.9999999999999716
210
-2.0679515313825715e-25
220
1.1147551223859109e-25
230
1
100
AcDbArc
50
90.000000000000199
51
221.23941551237397
0
LINE
5
276
100
AcDbEntity
8
0
100
AcDbLine
10
-143.97591759832045
20
-468.61746888332334
30
-8.9180409790872929e-25
11
-90.179090182703803
21
-468.61746888332328
31
1.7763568394002505e-14
0
ARC
5
277
100
AcDbEntity
8
0
100
AcDbCircle
10
-90.17909018270376
20
-488.61746888332328
30
0
40
19.999999999999968
210
0
220
-0
230
1
100
AcDbArc
50
73.739795291688566
51
90.000000000000128
0
ARC
5
278
100
AcDbEntity
8
0
100
AcDbCircle
10
-83.179090182703987
20
-464.61746888332323
30
0
40
5.0000000000000249
210
1.9852334701272755e-25
220
-5.790264287870975e-26
230
1
100
AcDbArc
50
-106.26020470831135
51
2.1514418276737845e-05
0
LINE
5
279
100
AcDbEntity
8
0
100
AcDbLine
10
-78.179090182704357
20
-464.61746700461413
30
-9.9261662628134353e-25
11
-78.179094691605457
21
-452.61746872239655
31
-1.6155871338926322e-26
0
ARC
5
280
100
AcDbEntity
8
0
100
AcDbCircle
10
-83.179094691605115
20
-452.61747060110571
30
1.7763568394002505e-14
40
5.000000000000016
210
3.5527136788034702e-15
220
1.3349047692612333e-21
230
1
100
AcDbArc
50
2.1514418276737845e-05
51
106.26020470831074
0
ARC
5
281
100
AcDbEntity
8
0
100
AcDbCircle
10
-90.179094691604718
20
-428.61747060110559
30
0
40
20
210
-1.6255062188960244e-43
220
0
230
1
100
AcDbArc
50
270
51
286.26020470831105
0
CIRCLE
5
282
100
AcDbEntity
8
0
100
AcDbCircle
10
-83.17909402545385
20
-452.61747060110565
30
0
40
1.2499999999999982
210
-2.073921727479966e-43
220
1.6155871338926354e-27
230
1
0
CIRCLE
5
283
100
AcDbEntity
8
0
100
AcDbCircle
10
-83.179090848855211
20
-464.61746888332323
30
0
40
1.2499999999999982
210
-2.073921727479966e-43
220
1.6155871338926354e-27
230
1
0
CIRCLE
5
284
100
AcDbEntity
8
0
100
AcDbCircle
10
-179.81269093525657
20
-468.61481799145895
30
0
40
1.2499999999999982
210
-2.073921727479966e-43
220
1.6155871338926354e-27
230
1
0
CIRCLE
5
285
100
AcDbEntity
8
0
100
AcDbCircle
10
-179.81269093525663
20
-448.62011977518989
30
0
40
1.2499999999999982
210
-2.073921727479966e-43
220
1.6155871338926354e-27
230
1
0
CIRCLE
5
286
100
AcDbEntity
8
0
100
AcDbCircle
10
-137.00998269370263
20
-463.86746888332306
30
0
40
1.2499999999999982
210
-2.0739217280793744e-43
220
1.6155871338926354e-27
230
1
0
CIRCLE
5
287
100
AcDbEntity
8
0
100
AcDbCircle
10
-137.00998269370263
20
-453.3674744299538
30
0
40
1.2499999999999982
210
-2.0739217277981017e-43
220
1.6155871338926354e-27
230
1
0
LWPOLYLINE
5
288
100
AcDbEntity
8
0
100
AcDbPolyline
90
8
70
1
43
0.0
10
-179.51739655805954
20
-463.37997850712225
10
-145.59186784663265
20
-463.37997850712225
42
0.41421356237307422
10
-144.59186784663262
20
-462.37997850712225
10
-144.59186784663265
20
-454.8549648061549
42
0.41421356237309509
10
-145.59186784663265
20
-453.85496480615501
10
-179.51739655805954
20
-453.85496480615495
42
0.41421356237307422
10
-180.51739655805954
20
-454.8549648061549
10
-180.51739655805957
20
-462.37997850712225
42
0.41421356237309509
0
LINE
5
289
100
AcDbEntity
8
0
100
AcDbLine
10
-134.96682633914406
20
-501.61746790519095
30
0
11
-81.170003432428359
21
-501.61746790518885
31
1.6543612251060553e-23
0
ARC
5
290
100
AcDbEntity
8
0
100
AcDbCircle
10
-81.17000343242799
20
-509.61746962297076
30
-1.7763568394002508e-14
40
7.9999999999999822
210
-2.0679563032721739e-25
220
1.6156612016931839e-27
230
1
100
AcDbArc
50
-41.239409242212837
51
90.000000000002643
0
ARC
5
291
100
AcDbEntity
8
0
100
AcDbCircle
10
-73.145501970758389
20
-516.65214566884174
30
0
40
2.671424027686728
210
-5.0001497026121771e-15
220
4.3833806855260548e-15
230
1
100
AcDbArc
50
138.76057850379894
51
301.90644810014788
0
ARC
5
292
100
AcDbEntity
8
0
100
AcDbCircle
10
-81.170003432428331
20
-503.76347381481702
30
0
40
17.853995808155002
210
-1.8029252216094999e-25
220
-1.0168246683292719e-25
230
1
100
AcDbArc
50
301.90644040328101
51
335.09214790105915
0
ARC
5
293
100
AcDbEntity
8
0
100
AcDbCircle
10
-57.72078330673061
20
-514.65214566884094
30
0
40
7.9999999999999716
210
-4.1359030627651439e-25
220
1.6155871338755725e-27
230
1
100
AcDbArc
50
90.000000000002331
51
155.09214790105904
0
LINE
5
294
100
AcDbEntity
8
0
100
AcDbLine
10
-57.720783306730937
20
-506.65214566884094
30
-1.292469707114045e-26
11
-45.717826573194827
21
-506.6521456688406
31
-1.7763568394002505e-14
0
ARC
5
295
100
AcDbEntity
8
0
100
AcDbCircle
10
-45.717826573195033
20
-499.6521456688406
30
-1.7763568394002505e-14
40
7.0000000000000284
210
-2.0679513186886544e-25
220
-6.0349034125346364e-39
230
1
100
AcDbArc
50
-89.999999999998323
51
0
0
LINE
5
296
100
AcDbEntity
8
0
100
AcDbLine
10
-38.717826573195076
20
-499.65214566884026
30
-1.7763568392554939e-14
11
-38.717826573195801
21
-483.58279357709824
31
-1.7763568394034816e-14
0
ARC
5
297
100
AcDbEntity
8
0
100
AcDbCircle
10
-45.717826573195651
20
-483.58279357709847
30
2.1925724707720402e-38
40
6.9999999999998463
210
2.5376526277193152e-15
220
-1.538310963587736e-27
230
1
100
AcDbArc
50
0
51
90.000000000003311
0
LINE
5
298
100
AcDbEntity
8
0
100
AcDbLine
10
-45.717826573196056
20
-476.58279357709858
30
1.1309109937248013e-26
11
-57.72078330673088
21
-476.58279357709893
31
-1.7763568394002505e-14
0
ARC
5
299
100
AcDbEntity
8
0
100
AcDbCircle
10
-57.720783306731214
20
-468.58279357709904
30
0
40
7.9999999999999876
210
-1.4401343655858559e-25
220
-1.80874056438259e-25
230
1
100
AcDbArc
50
204.90785209894457
51
270.00000000000239
0
ARC
5
300
100
AcDbEntity
8
0
100
AcDbCircle
10
-81.170003432429283
20
-479.47146543112495
30
-1.7763568394002505e-14
40
17.853995808155076
210
-9.0239257540191456e-16
220
-4.190270117466558e-16
230
1
100
AcDbArc
50
24.907852098944538
51
58.093651245541182
0
ARC
5
301
100
AcDbEntity
8
0
100
AcDbCircle
10
-73.145501970760449
20
-466.58279357709955
30
0
40
2.6714240278127788
210
3.5144126605197017e-15
220
5.6448584473191117e-15
230
1
100
AcDbArc
50
58.094164418716808
51
221.23940271922481
0
ARC
5
302
100
AcDbEntity
8
0
100
AcDbCircle
10
-81.170003432429468
20
-473.61746962297104
30
0
40
7.9999999999999716
210
-2.0679515313824183e-25
220
-3.8127856359866996e-25
230
1
100
AcDbArc
50
-89.999999999997556
51
41.239415512376524
0
LINE
5
303
100
AcDbEntity
8
0
100
AcDbLine
10
-81.170003432429127
20
-481.61746962297104
30
-3.0502285087892793e-24
11
-134.96683084804573
21
-481.6174696229732
31
-1.7763568410546117e-14
0
ARC
5
304
100
AcDbEntity
8
0
100
AcDbCircle
10
-134.96683084804658
20
-461.61746962297337
30
0
40
19.999999999999957
210
-2.1299900773240523e-25
220
8.2718061255199225e-27
230
1
100
AcDbArc
50
253.7397952916908
51
270.00000000000244
0
ARC
5
305
100
AcDbEntity
8
0
100
AcDbCircle
10
-141.96683084804539
20
-485.61746962297366
30
-1.7763568394002505e-14
40
4.9999999999999698
210
-9.9475983000607664e-16
220
-3.4106051314500262e-15
230
1
100
AcDbArc
50
73.73979529169101
51
180.00002151441828
0
LINE
5
306
100
AcDbEntity
8
0
100
AcDbLine
10
-146.96683084804505
20
-485.61747150168293
30
-1.7763568394074884e-14
11
-146.96682633914349
21
-497.61746978390033
31
0
0
ARC
5
307
100
AcDbEntity
8
0
100
AcDbCircle
10
-141.96682633914378
20
-497.61746790519112
30
-1.7763568394002505e-14
40
5.0000000000000693
210
3.5527136788002012e-15
220
1.3349032041599547e-21
230
1
100
AcDbArc
50
180.00002151441828
51
286.26020470831332
0
ARC
5
308
100
AcDbEntity
8
0
100
AcDbCircle
10
-134.96682633914327
20
-521.61746790519089
30
-1.7763568394002505e-14
40
19.999999999999929
210
-2.0675886553661698e-25
220
-8.8817841970012839e-16
230
1
100
AcDbArc
50
90.000000000002288
51
106.26020470831321
0
CIRCLE
5
309
100
AcDbEntity
8
0
100
AcDbCircle
10
-141.96682700529504
20
-497.61746790519118
30
-1.7763568394002505e-14
40
1.2499999999999987
210
-2.0679515313825715e-25
220
-8.5148721967779672e-39
230
1
0
CIRCLE
5
310
100
AcDbEntity
8
0
100
AcDbCircle
10
-141.96683018189418
20
-485.61746962297366
30
-1.7763568394002505e-14
40
1.2499999999999987
210
-2.0679515313825715e-25
220
-8.5148721967779672e-39
230
1
0
CIRCLE
5
311
100
AcDbEntity
8
0
100
AcDbCircle
10
-45.333230095492958
20
-481.62012051483407
30
0
40
1.2499999999999987
210
-2.0679515313825715e-25
220
-8.5148721967779672e-39
230
1
0
CIRCLE
5
312
100
AcDbEntity
8
0
100
AcDbCircle
10
-45.333230095492141
20
-501.61481873110313
30
0
40
1.2499999999999987
210
-2.0679515313825715e-25
220
-8.5148721967779672e-39
230
1
0
CIRCLE
5
313
100
AcDbEntity
8
0
100
AcDbCircle
10
-88.135938337046724
20
-486.3674696229715
30
0
40
1.2499999999999987
210
-2.0679515313825715e-25
220
-8.5148721967856396e-39
230
1
0
CIRCLE
5
314
100
AcDbEntity
8
0
100
AcDbCircle
10
-88.135938337046298
20
-496.86746407634081
30
-1.7763568394002505e-14
40
1.2499999999999987
210
-2.0679515313825715e-25
220
-8.5148721967820402e-39
230
1
0
LWPOLYLINE
5
315
100
AcDbEntity
8
0
100
AcDbPolyline
90
8
70
1
43
0.0
10
-45.628524472689769
20
-486.8549599991706
10
-79.554053184116668
20
-486.85495999917191
42
0.41421356237310542
10
-80.55405318411664
20
-487.85495999917208
10
-80.554053184116313
20
-495.37997370013949
42
0.41421356237308465
10
-79.554053184116285
20
-496.37997370013932
10
-45.628524472689371
20
-496.37997370013807
42
0.41421356237308204
10
-44.628524472689442
20
-495.37997370013807
10
-44.628524472689733
20
-487.8549599991706
42
0.41421356237308465
0
LINE
5
316
100
AcDbEntity
8
0
100
AcDbLine
10
-90.179094691604647
20
-506.61747060110554
30
1.7763568394002505e-14
11
-143.97591759832036
21
-506.61747060110554
31
1.7763568410546117e-14
0
ARC
5
317
100
AcDbEntity
8
0
100
AcDbCircle
10
-143.97591759832031
20
-498.61746888332334
30
-5.9190847133080273e-41
40
7.9999999999999707
210
-2.2420775429197064e-42
220
1.6155871338926343e-27
230
1
100
AcDbArc
50
138.76059075778591
51
269.9999999999996
0
ARC
5
318
100
AcDbEntity
8
0
100
AcDbCircle
10
-152.00041905998972
20
-491.58279283745225
30
0
40
2.6714240276867014
210
2.3982522839138531e-27
220
-2.1024276001563023e-27
230
1
100
AcDbArc
50
-41.239421496201651
51
121.90644810014547
0
ARC
5
319
100
AcDbEntity
8
0
100
AcDbCircle
10
-143.97591759832028
20
-504.47146469147731
30
1.7763568394002505e-14
40
17.853995808155055
210
-5.258568286035323e-16
220
8.4461268795248809e-16
230
1
100
AcDbArc
50
121.90644040327869
51
155.09214790105682
0
ARC
5
320
100
AcDbEntity
8
0
100
AcDbCircle
10
-167.42513772401753
20
-493.58279283745247
30
1.7763568394002505e-14
40
7.9999999999999716
210
-2.0739217274799652e-43
220
1.6156857415057905e-27
230
1
100
AcDbArc
50
270
51
335.09214790105699
0
LINE
5
321
100
AcDbEntity
8
0
100
AcDbLine
10
-167.42513772401753
20
-501.58279283745242
30
1.7763568394015429e-14
11
-179.42809445755364
21
-501.5827928374523
31
0
0
ARC
5
322
100
AcDbEntity
8
0
100
AcDbCircle
10
-179.42809445755373
20
-508.58279283745242
30
2.1581341597127935e-38
40
7.0000000000000995
210
2.0679515313825598e-25
220
9.8395174454990169e-40
230
1
100
AcDbArc
50
89.999999999999304
51
180
0
LINE
5
323
100
AcDbEntity
8
0
100
AcDbLine
10
-186.4280944575537
20
-508.58279283745242
30
1.4475660719678047e-24
11
-186.42809445755358
21
-524.65214492919449
31
1.7763568394034816e-14
0
ARC
5
324
100
AcDbEntity
8
0
100
AcDbCircle
10
-179.42809445755375
20
-524.65214492919461
30
2.7206265736804896e-38
40
6.9999999999998153
210
2.5376526277193267e-15
220
1.5898284104587833e-27
230
1
100
AcDbArc
50
180
51
270.00000000000119
0
LINE
5
325
100
AcDbEntity
8
0
100
AcDbLine
10
-179.42809445755361
20
-531.65214492919449
30
1.1309109937245266e-26
11
-167.42513772401878
21
-531.65214492919449
31
0
0
ARC
5
326
100
AcDbEntity
8
0
100
AcDbCircle
10
-167.42513772401875
20
-539.65214492919449
30
1.7763568394002505e-14
40
7.9999999999999885
210
1.8756041654005258e-25
220
8.7093891291962085e-26
230
1
100
AcDbArc
50
24.907852098942637
51
90.000000000000199
0
ARC
5
327
100
AcDbEntity
8
0
100
AcDbCircle
10
-143.97591759832028
20
-528.76347307516937
30
1.7763568394002505e-14
40
17.853995808155069
210
3.0519928184771224e-27
220
-2.2658531267140768e-25
230
1
100
AcDbArc
50
204.9078520989425
51
238.09365124553892
0
ARC
5
328
100
AcDbEntity
8
0
100
AcDbCircle
10
-152.00041905998967
20
-541.65214492919449
30
1.7763568394002505e-14
40
2.6714240278127561
210
-2.2427129110825403e-25
220
-7.5149370124795854e-25
230
1
100
AcDbArc
50
-121.90583558128463
51
41.239402719222902
0
ARC
5
329
100
AcDbEntity
8
0
100
AcDbCircle
10
-143.97591759832036
20
-534.61746888332323
30
1.7763568394002505e-14
40
7.9999999999999716
210
-2.0679515313825715e-25
220
1.114754136309784e-25
230
1
100
AcDbArc
50
90
51
221.23941551237459
0
LINE
5
330
100
AcDbEntity
8
0
100
AcDbLine
10
-143.97591759832036
20
-526.61746888332334
30
1.7763568393110701e-14
11
-90.179090182703732
21
-526.61746888332323
31
1.7763568394002505e-14
0
ARC
5
331
100
AcDbEntity
8
0
100
AcDbCircle
10
-90.179090182703703
20
-546.61746888332323
30
1.7763568394002505e-14
40
19.999999999999968
210
0
220
-0
230
1
100
AcDbArc
50
73.739795291688509
51
90.000000000000071
0
ARC
5
332
100
AcDbEntity
8
0
100
AcDbCircle
10
-83.179090182703916
20
-522.61746888332323
30
0
40
5.0000000000000249
210
9.9475983026261973e-16
220
3.4106051315905725e-15
230
1
100
AcDbArc
50
-106.26020470831156
51
2.1514418276737845e-05
0
LINE
5
333
100
AcDbEntity
8
0
100
AcDbLine
10
-78.179090182704286
20
-522.61746700461413
30
-9.9261662628134353e-25
11
-78.179094691605385
21
-510.61746872239655
31
1.7763568393986349e-14
0
ARC
5
334
100
AcDbEntity
8
0
100
AcDbCircle
10
-83.179094691605044
20
-510.61747060110571
30
1.7763568394002505e-14
40
5.000000000000016
210
3.2311736607413533e-27
220
1.615588347979867e-27
230
1
100
AcDbArc
50
2.1514418276737845e-05
51
106.26020470831071
0
ARC
5
335
100
AcDbEntity
8
0
100
AcDbCircle
10
-90.179094691604647
20
-486.61747060110554
30
0
40
20
210
-1.6255062188960236e-43
220
8.8817841970012523e-16
230
1
100
AcDbArc
50
270
51
286.26020470831105
0
CIRCLE
5
336
100
AcDbEntity
8
0
100
AcDbCircle
10
-83.179094025453793
20
-510.61747060110565
30
0
40
1.2499999999999982
210
-2.0739217274799652e-43
220
1.6155871338926354e-27
230
1
0
CIRCLE
5
337
100
AcDbEntity
8
0
100
AcDbCircle
10
-83.179090848855139
20
-522.61746888332323
30
0
40
1.2499999999999982
210
-2.0739217274799652e-43
220
1.6155871338926354e-27
230
1
0
CIRCLE
5
338
100
AcDbEntity
8
0
100
AcDbCircle
10
-179.81269093525651
20
-526.61481799145895
30
0
40
1.2499999999999982
210
-2.0739217274799652e-43
220
1.6155871338926354e-27
230
1
0
CIRCLE
5
339
100
AcDbEntity
8
0
100
AcDbCircle
10
-179.81269093525654
20
-506.62011977518989
30
1.7763568394002505e-14
40
1.2499999999999982
210
-2.0739217274799652e-43
220
1.6155871338926354e-27
230
1
0
CIRCLE
5
340
100
AcDbEntity
8
0
100
AcDbCircle
10
-137.00998269370257
20
-521.867468883323
30
1.7763568394002505e-14
40
1.2499999999999982
210
-2.0739217280793736e-43
220
1.6155871338926354e-27
230
1
0
CIRCLE
5
341
100
AcDbEntity
8
0
100
AcDbCircle
10
-137.00998269370257
20
-511.3674744299538
30
0
40
1.2499999999999982
210
-2.0739217277981009e-43
220
1.6155871338926354e-27
230
1
0
LWPOLYLINE
5
342
100
AcDbEntity
8
0
100
AcDbPolyline
90
8
70
1
43
0.0
10
-179.51739655805949
20
-521.37997850712225
10
-145.59186784663257
20
-521.37997850712225
42
0.41421356237307422
10
-144.59186784663254
20
-520.37997850712225
10
-144.59186784663257
20
-512.85496480615484
42
0.41421356237309509
10
-145.59186784663257
20
-511.85496480615495
10
-179.51739655805949
20
-511.8549648061549
42
0.41421356237307422
10
-180.51739655805946
20
-512.85496480615484
10
-180.51739655805949
20
-520.37997850712225
42
0.41421356237309509
0
LINE
5
343
100
AcDbEntity
8
0
100
AcDbLine
10
354.82090530839457
20
-274.61747060110628
30
0
11
301.02408240167887
21
-274.61747060110628
31
1.6543612251060553e-23
0
ARC
5
344
100
AcDbEntity
8
0
100
AcDbCircle
10
301.02408240167887
20
-266.61746888332419
30
0
40
7.9999999999999396
210
0
220
0
230
1
100
AcDbArc
50
138.76059075778562
51
270
0
ARC
5
345
100
AcDbEntity
8
0
100
AcDbCircle
10
292.99958094000948
20
-259.58279283745304
30
1.7763568394002505e-14
40
2.6714240276867378
210
5.0001497031009837e-15
220
-4.383380685679687e-15
230
1
100
AcDbArc
50
-41.239421496202155
51
121.90644810014547
0
ARC
5
346
100
AcDbEntity
8
0
100
AcDbCircle
10
301.02408240167892
20
-272.4714646914781
30
0
40
17.853995808155094
210
5.2585682881038455e-16
220
-8.4461268789346542e-16
230
1
100
AcDbArc
50
121.90644040327869
51
155.09214790105693
0
ARC
5
347
100
AcDbEntity
8
0
100
AcDbCircle
10
277.57486227598167
20
-261.58279283745327
30
1.7763568394002505e-14
40
7.9999999999999716
210
-0
220
0
230
1
100
AcDbArc
50
270
51
335.09214790105682
0
LINE
5
348
100
AcDbEntity
8
0
100
AcDbLine
10
277.57486227598167
20
-269.58279283745321
30
1.7763568394002505e-14
11
265.57190554244556
21
-269.5827928374531
31
0
0
ARC
5
349
100
AcDbEntity
8
0
100
AcDbCircle
10
265.57190554244562
20
-276.5827928374531
30
-2.5254761443447583e-39
40
7.0000000000000284
210
2.0679515313825664e-25
220
6.8876622118492985e-40
230
1
100
AcDbArc
50
90.000000000000469
51
180
0
LINE
5
350
100
AcDbEntity
8
0
100
AcDbLine
10
258.57190554244562
20
-276.5827928374531
30
1.4475660719677924e-24
11
258.57190554244562
21
-292.65214492919517
31
-3.2311742677852644e-26
0
ARC
5
351
100
AcDbEntity
8
0
100
AcDbCircle
10
265.57190554244562
20
-292.65214492919523
30
1.7763568394002508e-14
40
6.9999999999999574
210
-2.5376526277192754e-15
220
-1.6030409534447991e-27
230
1
100
AcDbArc
50
180
51
270
0
LINE
5
352
100
AcDbEntity
8
0
100
AcDbLine
10
265.57190554244562
20
-299.65214492919523
30
1.7763568393991196e-14
11
277.57486227598042
21
-299.65214492919534
31
0
0
ARC
5
353
100
AcDbEntity
8
0
100
AcDbCircle
10
277.57486227598048
20
-307.65214492919517
30
0
40
7.9999999999999885
210
4.3546935263582511e-26
220
-9.3780185911087682e-26
230
1
100
AcDbArc
50
24.907852098942271
51
90.000000000000398
0
ARC
5
354
100
AcDbEntity
8
0
100
AcDbCircle
10
301.02408240167892
20
-296.76347307517017
30
0
40
17.853995808155037
210
4.354693526358281e-26
220
-9.3780185911087717e-26
230
1
100
AcDbArc
50
204.90785209894239
51
238.09365124553881
0
ARC
5
355
100
AcDbEntity
8
0
100
AcDbCircle
10
292.99958094000954
20
-309.65214492919517
30
0
40
2.6714240278128258
210
1.6340622654532643e-24
220
2.6246349172964395e-24
230
1
100
AcDbArc
50
-121.90583558128452
51
41.239402719221594
0
ARC
5
356
100
AcDbEntity
8
0
100
AcDbCircle
10
301.02408240167887
20
-302.61746888332408
30
0
40
7.9999999999999361
210
-2.0679515313825719e-25
220
6.9470246757383448e-26
230
1
100
AcDbArc
50
90
51
221.23941551237397
0
LINE
5
357
100
AcDbEntity
8
0
100
AcDbLine
10
301.02408240167887
20
-294.61746888332414
30
-5.5576197405906317e-25
11
354.8209098172955
21
-294.61746888332402
31
0
0
ARC
5
358
100
AcDbEntity
8
0
100
AcDbCircle
10
354.82090981729556
20
-314.61746888332397
30
0
40
19.999999999999961
210
0
220
-0
230
1
100
AcDbArc
50
73.739795291688637
51
90.000000000000171
0
ARC
5
359
100
AcDbEntity
8
0
100
AcDbCircle
10
361.82090981729527
20
-290.61746888332397
30
1.7763568394002505e-14
40
4.999999999999952
210
-9.9475982986558978e-16
220
-3.4106051317064277e-15
230
1
100
AcDbArc
50
-106.26020470831126
51
2.1514418276737845e-05
0
LINE
5
360
100
AcDbEntity
8
0
100
AcDbLine
10
366.82090981729493
20
-290.61746700461487
30
1.776356839300989e-14
11
366.82090530839389
21
-278.61746872239735
31
0
0
ARC
5
361
100
AcDbEntity
8
0
100
AcDbCircle
10
361.82090530839417
20
-278.61747060110639
30
0
40
5.0000000000000693
210
0
220
-0
230
1
100
AcDbArc
50
2.1514418276737845e-05
51
106.26020470831106
0
ARC
5
362
100
AcDbEntity
8
0
100
AcDbCircle
10
354.82090530839457
20
-254.61747060110636
30
1.7763568394002505e-14
40
19.999999999999929
210
0
220
-8.8817841970012839e-16
230
1
100
AcDbArc
50
270
51
286.26020470831105
0
CIRCLE
5
363
100
AcDbEntity
8
0
100
AcDbCircle
10
361.82090597454544
20
-278.61747060110633
30
0
40
1.2499999999999982
210
0
220
-0
230
1
0
CIRCLE
5
364
100
AcDbEntity
8
0
100
AcDbCircle
10
361.82090915114406
20
-290.61746888332397
30
1.7763568394002505e-14
40
1.2499999999999982
210
0
220
-0
230
1
0
CIRCLE
5
365
100
AcDbEntity
8
0
100
AcDbCircle
10
265.18730906474269
20
-294.61481799145969
30
1.7763568394002505e-14
40
1.2499999999999982
210
0
220
-0
230
1
0
CIRCLE
5
366
100
AcDbEntity
8
0
100
AcDbCircle
10
265.18730906474269
20
-274.62011977519057
30
0
40
1.2499999999999982
210
0
220
-0
230
1
0
CIRCLE
5
367
100
AcDbEntity
8
0
100
AcDbCircle
10
307.99001730629664
20
-289.8674688833238
30
0
40
1.2499999999999982
210
0
220
-0
230
1
0
CIRCLE
5
368
100
AcDbEntity
8
0
100
AcDbCircle
10
307.99001730629664
20
-279.36747442995448
30
0
40
1.2499999999999982
210
0
220
-0
230
1
0
LWPOLYLINE
5
369
100
AcDbEntity
8
0
100
AcDbPolyline
90
8
70
1
43
0.0
10
265.48260344193972
20
-289.37997850712304
10
299.40813215336664
20
-289.37997850712304
42
0.41421356237309509
10
300.40813215336664
20
-288.37997850712293
10
300.40813215336664
20
-280.85496480615558
42
0.41421356237309509
10
299.40813215336664
20
-279.85496480615569
10
265.48260344193972
20
-279.85496480615564
42
0.41421356237309509
10
264.48260344193977
20
-280.85496480615564
10
264.48260344193972
20
-288.37997850712304
42
0.41421356237309509
0
LINE
5
370
100
AcDbEntity
8
0
100
AcDbLine
10
310.03317366085491
20
-327.61746790519146
30
0
11
363.82999656757067
21
-327.61746790518936
31
0
0
ARC
5
371
100
AcDbEntity
8
0
100
AcDbCircle
10
363.8299965675709
20
-335.61746962297144
30
-5.7397185098744507e-39
40
7.9999999999999636
210
-2.0679515313825834e-25
220
-9.2639056749373635e-39
230
1
100
AcDbArc
50
-41.239409242212076
51
90.000000000001634
0
ARC
5
372
100
AcDbEntity
8
0
100
AcDbCircle
10
371.85449802924052
20
-342.65214566884225
30
0
40
2.6714240276866672
210
4.8649073431196394e-25
220
-1.5147442514164699e-25
230
1
100
AcDbArc
50
138.76057850379965
51
301.90644810014879
0
ARC
5
373
100
AcDbEntity
8
0
100
AcDbCircle
10
363.82999656757067
20
-329.76347381481753
30
0
40
17.853995808154984
210
-4.74157670077326e-27
220
7.6157532326959583e-27
230
1
100
AcDbArc
50
301.9064404032809
51
335.09214790105926
0
ARC
5
374
100
AcDbEntity
8
0
100
AcDbCircle
10
387.27921669326832
20
-340.65214566884146
30
0
40
7.9999999999999716
210
-6.4706017440019566e-41
220
1.6155871338926379e-27
230
1
100
AcDbArc
50
90.000000000002444
51
155.09214790105864
0
LINE
5
375
100
AcDbEntity
8
0
100
AcDbLine
10
387.27921669326798
20
-332.65214566884146
30
-1.2924697071141057e-26
11
399.28217342680409
21
-332.65214566884117
31
0
0
ARC
5
376
100
AcDbEntity
8
0
100
AcDbCircle
10
399.28217342680392
20
-325.65214566884117
30
-1.6759978048833396e-38
40
7.0000000000000284
210
2.0679515313825715e-25
220
8.6915737435241405e-39
230
1
100
AcDbArc
50
-89.999999999998579
51
0
0
LINE
5
377
100
AcDbEntity
8
0
100
AcDbLine
10
406.28217342680381
20
-325.65214566884083
30
-1.4475660719677931e-24
11
406.28217342680318
21
-309.58279357709876
31
-3.2311742677852644e-26
0
ARC
5
378
100
AcDbEntity
8
0
100
AcDbCircle
10
399.28217342680335
20
-309.58279357709893
30
-4.8615415778636598e-38
40
6.9999999999998153
210
4.6159632396864448e-27
220
-1.6155871338912181e-27
230
1
100
AcDbArc
50
0
51
90.000000000003723
0
LINE
5
379
100
AcDbEntity
8
0
100
AcDbLine
10
399.2821734268029
20
-302.5827935770991
30
1.1309109937248996e-26
11
387.2792166932681
21
-302.58279357709944
31
0
0
ARC
5
380
100
AcDbEntity
8
0
100
AcDbCircle
10
387.27921669326776
20
-294.58279357709961
30
0
40
8.0000000000000107
210
1.8756037182217126e-25
220
8.7093870527172668e-26
230
1
100
AcDbArc
50
204.90785209894446
51
270.00000000000244
0
ARC
5
381
100
AcDbEntity
8
0
100
AcDbCircle
10
363.82999656756965
20
-305.47146543112547
30
0
40
17.853995808155055
210
-1.2758879293513321e-25
220
5.4755254366118323e-26
230
1
100
AcDbArc
50
24.907852098944357
51
58.093651245541338
0
ARC
5
382
100
AcDbEntity
8
0
100
AcDbCircle
10
371.85449802923847
20
-292.58279357710018
30
0
40
2.6714240278128107
210
-2.3586090088378704e-25
220
-7.7010896159511238e-25
230
1
100
AcDbArc
50
58.094164418718861
51
221.23940271922504
0
ARC
5
383
100
AcDbEntity
8
0
100
AcDbCircle
10
363.82999656756954
20
-299.61746962297161
30
0
40
7.9999999999999361
210
-4.1359030627649735e-25
220
-4.2328382907988993e-25
230
1
100
AcDbArc
50
-89.999999999997556
51
41.23941551237656
0
LINE
5
384
100
AcDbEntity
8
0
100
AcDbLine
10
363.82999656756988
20
-307.61746962297156
30
-3.3862706326389453e-24
11
310.03316915195325
21
-307.61746962297377
31
-1.6543612251060553e-23
0
ARC
5
385
100
AcDbEntity
8
0
100
AcDbCircle
10
310.03316915195234
20
-287.61746962297389
30
0
40
19.999999999999925
210
1.8404768629305399e-25
220
-1.0753347963188504e-25
230
1
100
AcDbArc
50
253.7397952916908
51
270.00000000000261
0
ARC
5
386
100
AcDbEntity
8
0
100
AcDbCircle
10
303.03316915195353
20
-311.61746962297411
30
0
40
5.0000000000000044
210
2.5642598989143151e-25
220
1.4062070413402739e-25
230
1
100
AcDbArc
50
73.73979529169101
51
180.00002151441828
0
LINE
5
387
100
AcDbEntity
8
0
100
AcDbLine
10
298.03316915195387
20
-311.61747150168344
30
9.9261662628134353e-25
11
298.03317366085543
21
-323.6174697839009
31
1.6155871338926322e-26
0
ARC
5
388
100
AcDbEntity
8
0
100
AcDbCircle
10
303.03317366085514
20
-323.61746790519163
30
0
40
5.0000000000000693
210
3.2311742677849917e-27
220
1.2140873915631844e-33
230
1
100
AcDbArc
50
180.00002151441828
51
286.26020470831389
0
ARC
5
389
100
AcDbEntity
8
0
100
AcDbCircle
10
310.03317366085571
20
-347.6174679051914
30
0
40
19.999999999999929
210
0
220
0
230
1
100
AcDbArc
50
90.000000000002288
51
106.26020470831321
0
CIRCLE
5
390
100
AcDbEntity
8
0
100
AcDbCircle
10
303.03317299470393
20
-323.61746790519169
30
0
40
1.2499999999999987
210
0
220
-0
230
1
0
CIRCLE
5
391
100
AcDbEntity
8
0
100
AcDbCircle
10
303.03316981810474
20
-311.61746962297411
30
0
40
1.2499999999999987
210
0
220
-0
230
1
0
CIRCLE
5
392
100
AcDbEntity
8
0
100
AcDbCircle
10
399.666769904506
20
-307.62012051483458
30
0
40
1.2499999999999987
210
0
220
-0
230
1
0
CIRCLE
5
393
100
AcDbEntity
8
0
100
AcDbCircle
10
399.66676990450679
20
-327.61481873110364
30
0
40
1.2499999999999987
210
0
220
-0
230
1
0
CIRCLE
5
394
100
AcDbEntity
8
0
100
AcDbCircle
10
356.86406166295222
20
-312.36746962297212
30
0
40
1.2499999999999987
210
0
220
-0
230
1
0
CIRCLE
5
395
100
AcDbEntity
8
0
100
AcDbCircle
10
356.86406166295262
20
-322.86746407634132
30
0
40
1.2499999999999987
210
0
220
-0
230
1
0
LWPOLYLINE
5
396
100
AcDbEntity
8
0
100
AcDbPolyline
90
8
70
1
43
0.0
10
399.3714755273092
20
-312.85495999917117
10
365.44594681588228
20
-312.85495999917254
42
0.41421356237310542
10
364.44594681588234
20
-313.85495999917265
10
364.44594681588262
20
-321.37997370014
42
0.41421356237307422
10
365.44594681588262
20
-322.37997370013989
10
399.3714755273096
20
-322.37997370013858
42
0.4142135623730534
10
400.37147552730949
20
-321.37997370013863
10
400.3714755273092
20
-313.85495999917123
42
0.41421356237308465
0
LINE
5
397
100
AcDbEntity
8
0
100
AcDbLine
10
354.82090530839463
20
-332.61747060110616
30
-1.7763568394002505e-14
11
301.02408240167892
21
-332.61747060110616
31
-1.7763568377458892e-14
0
ARC
5
398
100
AcDbEntity
8
0
100
AcDbCircle
10
301.02408240167892
20
-324.61746888332414
30
-1.7763568394002505e-14
40
7.9999999999999876
210
0
220
0
230
1
100
AcDbArc
50
138.76059075778502
51
270
0
ARC
5
399
100
AcDbEntity
8
0
100
AcDbCircle
10
292.99958094000954
20
-317.58279283745287
30
0
40
2.6714240276867378
210
5.0001497031009837e-15
220
-4.383380685679687e-15
230
1
100
AcDbArc
50
-41.239421496202155
51
121.90644810014547
0
ARC
5
400
100
AcDbEntity
8
0
100
AcDbCircle
10
301.02408240167898
20
-330.47146469147799
30
-1.7763568394002505e-14
40
17.853995808155094
210
5.2585682881038455e-16
220
-8.4461268789346542e-16
230
1
100
AcDbArc
50
121.90644040327862
51
155.09214790105656
0
ARC
5
401
100
AcDbEntity
8
0
100
AcDbCircle
10
277.57486227598173
20
-319.5827928374531
30
0
40
7.9999999999999716
210
-0
220
0
230
1
100
AcDbArc
50
270
51
335.09214790105722
0
LINE
5
402
100
AcDbEntity
8
0
100
AcDbLine
10
277.57486227598173
20
-327.5827928374531
30
0
11
265.57190554244562
21
-327.58279283745298
31
-1.7763568394002505e-14
0
ARC
5
403
100
AcDbEntity
8
0
100
AcDbCircle
10
265.57190554244551
20
-334.58279283745293
30
3.0994479953322034e-38
40
6.9999999999999574
210
2.0683379122340942e-25
220
2.537652627714659e-15
230
1
100
AcDbArc
50
89.999999999999076
51
180
0
LINE
5
404
100
AcDbEntity
8
0
100
AcDbLine
10
258.57190554244562
20
-334.58279283745298
30
1.4475660719677973e-24
11
258.57190554244573
21
-350.65214492919506
31
-1.7763568394034816e-14
0
ARC
5
405
100
AcDbEntity
8
0
100
AcDbCircle
10
265.57190554244551
20
-350.65214492919523
30
2.6115719219928751e-38
40
6.9999999999998153
210
-2.5376526277193267e-15
220
-1.5640696870168193e-27
230
1
100
AcDbArc
50
180
51
270.00000000000142
0
LINE
5
406
100
AcDbEntity
8
0
100
AcDbLine
10
265.57190554244568
20
-357.65214492919512
30
-1.130910993725182e-26
11
277.57486227598054
21
-357.65214492919517
31
-1.7763568394002505e-14
0
ARC
5
407
100
AcDbEntity
8
0
100
AcDbCircle
10
277.57486227598054
20
-365.652144929195
30
-1.7763568394002505e-14
40
7.9999999999999885
210
4.3546935263582494e-26
220
-9.3780185911087694e-26
230
1
100
AcDbArc
50
24.907852098942271
51
90
0
ARC
5
408
100
AcDbEntity
8
0
100
AcDbCircle
10
301.02408240167898
20
-354.76347307517005
30
-1.7763568394002505e-14
40
17.853995808155037
210
4.3546935263582816e-26
220
-9.3780185911087717e-26
230
1
100
AcDbArc
50
204.90785209894224
51
238.09365124553881
0
ARC
5
409
100
AcDbEntity
8
0
100
AcDbCircle
10
292.99958094000965
20
-367.65214492919506
30
-1.7763568394002505e-14
40
2.6714240278128258
210
1.6340623394185381e-24
220
2.624635036099648e-24
230
1
100
AcDbArc
50
-121.90583558128556
51
41.239402719223314
0
ARC
5
410
100
AcDbEntity
8
0
100
AcDbCircle
10
301.02408240167892
20
-360.61746888332391
30
0
40
7.9999999999999716
210
-2.0679515313825719e-25
220
6.9470246757383138e-26
230
1
100
AcDbArc
50
90
51
221.23941551237397
0
LINE
5
411
100
AcDbEntity
8
0
100
AcDbLine
10
301.02408240167892
20
-352.61746888332397
30
-5.5576197405906317e-25
11
354.82090981729556
21
-352.61746888332391
31
-1.7763568394002505e-14
0
ARC
5
412
100
AcDbEntity
8
0
100
AcDbCircle
10
354.82090981729556
20
-372.6174688833238
30
-1.7763568394002505e-14
40
19.999999999999961
210
0
220
-0
230
1
100
AcDbArc
50
73.739795291688594
51
90
0
ARC
5
413
100
AcDbEntity
8
0
100
AcDbCircle
10
361.82090981729539
20
-348.61746888332385
30
0
40
4.9999999999999716
210
-9.9475982986563219e-16
220
-3.4106051317064001e-15
230
1
100
AcDbArc
50
-106.26020470831247
51
2.1514418276737845e-05
0
LINE
5
414
100
AcDbEntity
8
0
100
AcDbLine
10
366.82090981729505
20
-348.61746700461475
30
-9.9261662628134353e-25
11
366.82090530839389
21
-336.61746872239718
31
-1.7763568394002505e-14
0
ARC
5
415
100
AcDbEntity
8
0
100
AcDbCircle
10
361.82090530839423
20
-336.61747060110628
30
-1.7763568394002505e-14
40
4.9999999999999982
210
0
220
-0
230
1
100
AcDbArc
50
2.1514418276737845e-05
51
106.26020470831106
0
ARC
5
416
100
AcDbEntity
8
0
100
AcDbCircle
10
354.82090530839463
20
-312.61747060110622
30
0
40
19.999999999999929
210
0
220
-8.8817841970012839e-16
230
1
100
AcDbArc
50
270
51
286.26020470831105
0
CIRCLE
5
417
100
AcDbEntity
8
0
100
AcDbCircle
10
361.82090597454544
20
-336.61747060110622
30
-1.7763568394002505e-14
40
1.2499999999999982
210
0
220
-0
230
1
0
CIRCLE
5
418
100
AcDbEntity
8
0
100
AcDbCircle
10
361.82090915114418
20
-348.61746888332385
30
0
40
1.2499999999999982
210
0
220
-0
230
1
0
CIRCLE
5
419
100
AcDbEntity
8
0
100
AcDbCircle
10
265.18730906474281
20
-352.61481799145952
30
0
40
1.2499999999999982
210
0
220
-0
230
1
0
CIRCLE
5
420
100
AcDbEntity
8
0
100
AcDbCircle
10
265.18730906474275
20
-332.62011977519046
30
-1.7763568394002505e-14
40
1.2499999999999982
210
0
220
-0
230
1
0
CIRCLE
5
421
100
AcDbEntity
8
0
100
AcDbCircle
10
307.99001730629675
20
-347.86746888332368
30
-1.7763568394002505e-14
40
1.2499999999999982
210
0
220
-0
230
1
0
CIRCLE
5
422
100
AcDbEntity
8
0
100
AcDbCircle
10
307.99001730629675
20
-337.36747442995437
30
-1.7763568394002505e-14
40
1.2499999999999982
210
0
220
-0
230
1
0
LWPOLYLINE
5
423
100
AcDbEntity
8
0
100
AcDbPolyline
90
8
70
1
43
0.0
10
265.48260344193983
20
-347.37997850712293
10
299.40813215336669
20
-347.37997850712293
42
0.41421356237309509
10
300.40813215336675
20
-346.37997850712281
10
300.40813215336675
20
-338.85496480615541
42
0.41421356237309509
10
299.40813215336669
20
-337.85496480615558
10
265.48260344193983
20
-337.85496480615552
42
0.41421356237309509
10
264.48260344193983
20
-338.85496480615552
10
264.48260344193977
20
-346.37997850712287
42
0.41421356237309509
0
LINE
5
424
100
AcDbEntity
8
0
100
AcDbLine
10
310.03317366085503
20
-385.61746790519101
30
0
11
363.82999656757079
21
-385.6174679051889
31
0
0
ARC
5
425
100
AcDbEntity
8
0
100
AcDbCircle
10
363.82999656757107
20
-393.61746962297099
30
-5.7397185098744507e-39
40
7.9999999999999636
210
-2.0679515313825834e-25
220
-9.2639056749373635e-39
230
1
100
AcDbArc
50
-41.239409242212076
51
90.000000000002032
0
ARC
5
426
100
AcDbEntity
8
0
100
AcDbCircle
10
371.85449802924069
20
-400.6521456688418
30
0
40
2.6714240276866672
210
4.8649073431196394e-25
220
-1.5147442514164699e-25
230
1
100
AcDbArc
50
138.76057850379965
51
301.90644810014879
0
ARC
5
427
100
AcDbEntity
8
0
100
AcDbCircle
10
363.82999656757079
20
-387.76347381481708
30
0
40
17.853995808154984
210
-4.74157670077326e-27
220
7.6157532326959583e-27
230
1
100
AcDbArc
50
301.90644040328101
51
335.09214790105938
0
ARC
5
428
100
AcDbEntity
8
0
100
AcDbCircle
10
387.27921669326849
20
-398.652145668841
30
0
40
7.9999999999999716
210
-6.4706017440019556e-41
220
1.6155871338926379e-27
230
1
100
AcDbArc
50
90.000000000002842
51
155.09214790105864
0
LINE
5
429
100
AcDbEntity
8
0
100
AcDbLine
10
387.2792166932681
20
-390.652145668841
30
-1.2924697071141057e-26
11
399.28217342680426
21
-390.65214566884072
31
0
0
ARC
5
430
100
AcDbEntity
8
0
100
AcDbCircle
10
399.28217342680404
20
-383.65214566884072
30
-1.6759978048833396e-38
40
7.0000000000000284
210
2.0679515313825715e-25
220
8.6915737435241405e-39
230
1
100
AcDbArc
50
-89.999999999998181
51
0
0
LINE
5
431
100
AcDbEntity
8
0
100
AcDbLine
10
406.28217342680392
20
-383.65214566884038
30
-1.4475660719677931e-24
11
406.2821734268033
21
-367.5827935770983
31
1.7763568393970193e-14
0
ARC
5
432
100
AcDbEntity
8
0
100
AcDbCircle
10
399.28217342680341
20
-367.58279357709853
30
-3.6332418167505273e-38
40
6.9999999999998863
210
-2.5376526277100686e-15
220
-1.6928633042006567e-27
230
1
100
AcDbArc
50
0
51
90.000000000002785
0
LINE
5
433
100
AcDbEntity
8
0
100
AcDbLine
10
399.28217342680307
20
-360.58279357709864
30
1.1309109937246657e-26
11
387.27921669326827
21
-360.58279357709898
31
0
0
ARC
5
434
100
AcDbEntity
8
0
100
AcDbCircle
10
387.27921669326793
20
-352.58279357709915
30
0
40
8.0000000000000107
210
1.8756037182217126e-25
220
8.7093870527172668e-26
230
1
100
AcDbArc
50
204.90785209894446
51
270.00000000000244
0
ARC
5
435
100
AcDbEntity
8
0
100
AcDbCircle
10
363.82999656756976
20
-363.47146543112501
30
0
40
17.853995808155055
210
-1.2758879293513321e-25
220
5.4755254366118323e-26
230
1
100
AcDbArc
50
24.907852098944268
51
58.093651245541182
0
ARC
5
436
100
AcDbEntity
8
0
100
AcDbCircle
10
371.85449802923864
20
-350.58279357709972
30
0
40
2.6714240278128107
210
-2.3586090088378704e-25
220
-7.7010896159511238e-25
230
1
100
AcDbArc
50
58.094164418718861
51
221.23940271922424
0
ARC
5
437
100
AcDbEntity
8
0
100
AcDbCircle
10
363.82999656756965
20
-357.61746962297116
30
0
40
7.9999999999999716
210
-4.1359030627649735e-25
220
-4.2328382907988809e-25
230
1
100
AcDbArc
50
-89.999999999997556
51
41.23941551237656
0
LINE
5
438
100
AcDbEntity
8
0
100
AcDbLine
10
363.82999656756999
20
-365.61746962297116
30
-3.3862706326389453e-24
11
310.03316915195336
21
-365.61746962297326
31
1.7763568377458892e-14
0
ARC
5
439
100
AcDbEntity
8
0
100
AcDbCircle
10
310.03316915195251
20
-345.61746962297343
30
0
40
19.999999999999957
210
1.8404768629305403e-25
220
-1.0753347963188485e-25
230
1
100
AcDbArc
50
253.7397952916908
51
270.00000000000244
0
ARC
5
440
100
AcDbEntity
8
0
100
AcDbCircle
10
303.03316915195364
20
-369.61746962297366
30
0
40
4.9999999999999698
210
2.5642598989143219e-25
220
1.4062070413402819e-25
230
1
100
AcDbArc
50
73.7397952916902
51
180.00002151441828
0
LINE
5
441
100
AcDbEntity
8
0
100
AcDbLine
10
298.03316915195404
20
-369.61747150168299
30
9.9261662628134353e-25
11
298.0331736608556
21
-381.61746978390045
31
1.6155871338926322e-26
0
ARC
5
442
100
AcDbEntity
8
0
100
AcDbCircle
10
303.03317366085531
20
-381.61746790519118
30
0
40
5.0000000000000693
210
3.2311742677849917e-27
220
1.2140873915631844e-33
230
1
100
AcDbArc
50
180.00002151441828
51
286.26020470831332
0
ARC
5
443
100
AcDbEntity
8
0
100
AcDbCircle
10
310.03317366085582
20
-405.61746790519095
30
0
40
19.999999999999929
210
0
220
0
230
1
100
AcDbArc
50
90.000000000002288
51
106.26020470831321
0
CIRCLE
5
444
100
AcDbEntity
8
0
100
AcDbCircle
10
303.03317299470405
20
-381.61746790519123
30
0
40
1.2499999999999987
210
0
220
-0
230
1
0
CIRCLE
5
445
100
AcDbEntity
8
0
100
AcDbCircle
10
303.03316981810491
20
-369.61746962297366
30
0
40
1.2499999999999987
210
0
220
-0
230
1
0
CIRCLE
5
446
100
AcDbEntity
8
0
100
AcDbCircle
10
399.66676990450617
20
-365.62012051483413
30
0
40
1.2499999999999987
210
0
220
-0
230
1
0
CIRCLE
5
447
100
AcDbEntity
8
0
100
AcDbCircle
10
399.66676990450696
20
-385.61481873110318
30
0
40
1.2499999999999987
210
0
220
-0
230
1
0
CIRCLE
5
448
100
AcDbEntity
8
0
100
AcDbCircle
10
356.86406166295234
20
-370.36746962297167
30
0
40
1.2499999999999987
210
0
220
-0
230
1
0
CIRCLE
5
449
100
AcDbEntity
8
0
100
AcDbCircle
10
356.86406166295279
20
-380.86746407634087
30
0
40
1.2499999999999987
210
0
220
-0
230
1
0
LWPOLYLINE
5
450
100
AcDbEntity
8
0
100
AcDbPolyline
90
8
70
1
43
0.0
10
399.37147552730937
20
-370.85495999917072
10
365.44594681588245
20
-370.85495999917208
42
0.41421356237309509
10
364.44594681588251
20
-371.85495999917214
10
364.44594681588279
20
-379.37997370013954
42
0.41421356237307422
10
365.44594681588279
20
-380.37997370013943
10
399.37147552730977
20
-380.37997370013812
42
0.4142135623730534
10
400.37147552730966
20
-379.37997370013818
10
400.37147552730937
20
-371.85495999917072
42
0.41421356237307422
0
LINE
5
451
100
AcDbEntity
8
0
100
AcDbLine
10
354.82090530839457
20
-390.61747060110565
30
0
11
301.02408240167887
21
-390.61747060110565
31
0
0
ARC
5
452
100
AcDbEntity
8
0
100
AcDbCircle
10
301.02408240167887
20
-382.61746888332357
30
1.7763568394002505e-14
40
7.9999999999999636
210
-2.0679516022715715e-25
220
-7.1088521805650505e-32
230
1
100
AcDbArc
50
138.76059075778502
51
270
0
ARC
5
453
100
AcDbEntity
8
0
100
AcDbCircle
10
292.99958094000948
20
-375.58279283745236
30
0
40
2.6714240276867147
210
-5.0001497027509014e-15
220
4.3833806853726994e-15
230
1
100
AcDbArc
50
-41.239421496201246
51
121.90644810014547
0
ARC
5
454
100
AcDbEntity
8
0
100
AcDbCircle
10
301.02408240167892
20
-388.47146469147742
30
0
40
17.853995808155062
210
1.9120234954911872e-25
220
8.4159486937639492e-26
230
1
100
AcDbArc
50
121.90644040327869
51
155.09214790105676
0
ARC
5
455
100
AcDbEntity
8
0
100
AcDbCircle
10
277.57486227598167
20
-377.58279283745259
30
0
40
7.9999999999999716
210
-0
220
0
230
1
100
AcDbArc
50
270
51
335.09214790105722
0
LINE
5
456
100
AcDbEntity
8
0
100
AcDbLine
10
277.57486227598167
20
-385.58279283745259
30
0
11
265.57190554244556
21
-385.58279283745242
31
4.1359030627651384e-24
0
ARC
5
457
100
AcDbEntity
8
0
100
AcDbCircle
10
265.57190554244551
20
-392.58279283745247
30
2.3647640260682737e-38
40
7.0000000000000284
210
2.0679515313824976e-25
220
-5.9084329468073039e-25
230
1
100
AcDbArc
50
89.999999999999531
51
180
0
LINE
5
458
100
AcDbEntity
8
0
100
AcDbLine
10
258.57190554244551
20
-392.58279283745247
30
1.4475660719678047e-24
11
258.57190554244562
21
-408.65214492919449
31
-3.2311742677852644e-26
0
ARC
5
459
100
AcDbEntity
8
0
100
AcDbCircle
10
265.57190554244551
20
-408.65214492919461
30
1.8768879527289454e-38
40
6.9999999999998508
210
-4.6159632396960474e-27
220
-1.6155871338883984e-27
230
1
100
AcDbArc
50
180
51
270.00000000000091
0
LINE
5
460
100
AcDbEntity
8
0
100
AcDbLine
10
265.57190554244562
20
-415.65214492919449
30
-1.130910993725174e-26
11
277.57486227598042
21
-415.65214492919466
31
-4.1359030627651384e-24
0
ARC
5
461
100
AcDbEntity
8
0
100
AcDbCircle
10
277.57486227598048
20
-423.65214492919449
30
0
40
7.9999999999999885
210
1.8756037182217534e-25
220
8.7093870527165275e-26
230
1
100
AcDbArc
50
24.907852098942271
51
90.000000000000398
0
ARC
5
462
100
AcDbEntity
8
0
100
AcDbCircle
10
301.02408240167892
20
-412.76347307516949
30
0
40
17.853995808155037
210
-8.404185767154907e-26
220
-3.902493154496397e-26
230
1
100
AcDbArc
50
204.90785209894239
51
238.09365124553889
0
ARC
5
463
100
AcDbEntity
8
0
100
AcDbCircle
10
292.99958094000954
20
-425.65214492919449
30
1.7763568394002505e-14
40
2.6714240278128258
210
-3.5144126617424487e-15
220
-5.6448584492827372e-15
230
1
100
AcDbArc
50
-121.90583558128382
51
41.239402719221594
0
ARC
5
464
100
AcDbEntity
8
0
100
AcDbCircle
10
301.02408240167887
20
-418.6174688833234
30
0
40
7.9999999999999716
210
-4.1359030627651439e-25
220
6.9470246757383115e-26
230
1
100
AcDbArc
50
90
51
221.23941551237397
0
LINE
5
465
100
AcDbEntity
8
0
100
AcDbLine
10
301.02408240167887
20
-410.61746888332345
30
-5.557619740590629e-25
11
354.8209098172955
21
-410.61746888332334
31
0
0
ARC
5
466
100
AcDbEntity
8
0
100
AcDbCircle
10
354.82090981729556
20
-430.61746888332328
30
1.7763568394002505e-14
40
19.999999999999961
210
0
220
-0
230
1
100
AcDbArc
50
73.739795291688594
51
90.000000000000171
0
ARC
5
467
100
AcDbEntity
8
0
100
AcDbCircle
10
361.82090981729527
20
-406.61746888332334
30
0
40
4.999999999999952
210
9.9475983006411314e-16
220
3.4106051316485249e-15
230
1
100
AcDbArc
50
-106.26020470831126
51
2.1514418276737845e-05
0
LINE
5
468
100
AcDbEntity
8
0
100
AcDbLine
10
366.82090981729493
20
-406.61746700461424
30
0
11
366.82090530839389
21
-394.61746872239667
31
0
0
ARC
5
469
100
AcDbEntity
8
0
100
AcDbCircle
10
361.82090530839417
20
-394.61747060110577
30
0
40
5.0000000000000693
210
0
220
-0
230
1
100
AcDbArc
50
2.1514418276737845e-05
51
106.26020470831087
0
ARC
5
470
100
AcDbEntity
8
0
100
AcDbCircle
10
354.82090530839457
20
-370.61747060110571
30
0
40
19.999999999999929
210
-0
220
0
230
1
100
AcDbArc
50
270
51
286.26020470831111
0
CIRCLE
5
471
100
AcDbEntity
8
0
100
AcDbCircle
10
361.82090597454544
20
-394.61747060110565
30
0
40
1.2499999999999982
210
0
220
-0
230
1
0
CIRCLE
5
472
100
AcDbEntity
8
0
100
AcDbCircle
10
361.82090915114406
20
-406.61746888332334
30
0
40
1.2499999999999982
210
0
220
-0
230
1
0
CIRCLE
5
473
100
AcDbEntity
8
0
100
AcDbCircle
10
265.18730906474269
20
-410.61481799145901
30
0
40
1.2499999999999982
210
0
220
-0
230
1
0
CIRCLE
5
474
100
AcDbEntity
8
0
100
AcDbCircle
10
265.18730906474269
20
-390.62011977518989
30
1.7763568394002505e-14
40
1.2499999999999982
210
0
220
-0
230
1
0
CIRCLE
5
475
100
AcDbEntity
8
0
100
AcDbCircle
10
307.99001730629664
20
-405.86746888332311
30
0
40
1.2499999999999982
210
0
220
-0
230
1
0
CIRCLE
5
476
100
AcDbEntity
8
0
100
AcDbCircle
10
307.99001730629664
20
-395.36747442995386
30
0
40
1.2499999999999982
210
0
220
-0
230
1
0
LWPOLYLINE
5
477
100
AcDbEntity
8
0
100
AcDbPolyline
90
8
70
1
43
0.0
10
265.48260344193972
20
-405.37997850712236
10
299.40813215336664
20
-405.37997850712236
42
0.41421356237309509
10
300.40813215336664
20
-404.3799785071223
10
300.40813215336664
20
-396.8549648061549
42
0.41421356237309509
10
299.40813215336664
20
-395.85496480615507
10
265.48260344193972
20
-395.85496480615495
42
0.41421356237309509
10
264.48260344193977
20
-396.85496480615495
10
264.48260344193972
20
-404.37997850712236
42
0.41421356237309509
0
LINE
5
478
100
AcDbEntity
8
0
100
AcDbLine
10
310.0331736608552
20
-443.61746790519084
30
0
11
363.8299965675709
21
-443.61746790518873
31
0
0
ARC
5
479
100
AcDbEntity
8
0
100
AcDbCircle
10
363.82999656757124
20
-451.61746962297082
30
-5.7397185098744507e-39
40
7.9999999999999636
210
-2.0679515313825834e-25
220
-9.2639056749373635e-39
230
1
100
AcDbArc
50
-41.239409242212076
51
90.000000000002444
0
ARC
5
480
100
AcDbEntity
8
0
100
AcDbCircle
10
371.85449802924086
20
-458.65214566884163
30
0
40
2.6714240276866672
210
4.8649073431196394e-25
220
-1.5147442514164699e-25
230
1
100
AcDbArc
50
138.76057850379965
51
301.90644810014777
0
ARC
5
481
100
AcDbEntity
8
0
100
AcDbCircle
10
363.8299965675709
20
-445.7634738148169
30
0
40
17.853995808154984
210
-4.74157670077326e-27
220
7.6157532326959583e-27
230
1
100
AcDbArc
50
301.90644040328101
51
335.09214790105926
0
ARC
5
482
100
AcDbEntity
8
0
100
AcDbCircle
10
387.27921669326861
20
-456.65214566884083
30
0
40
7.9999999999999716
210
-6.4706017440019168e-41
220
1.6155871338926379e-27
230
1
100
AcDbArc
50
90.000000000002444
51
155.09214790105887
0
LINE
5
483
100
AcDbEntity
8
0
100
AcDbLine
10
387.27921669326827
20
-448.65214566884083
30
-1.2924697071141057e-26
11
399.28217342680443
21
-448.65214566884055
31
0
0
ARC
5
484
100
AcDbEntity
8
0
100
AcDbCircle
10
399.28217342680421
20
-441.65214566884055
30
1.7763568394002505e-14
40
7.0000000000000284
210
2.0687233963665871e-25
220
-2.5376526277146333e-15
230
1
100
AcDbArc
50
-89.999999999998181
51
0
0
LINE
5
485
100
AcDbEntity
8
0
100
AcDbLine
10
406.28217342680409
20
-441.65214566884015
30
1.7763568392554939e-14
11
406.28217342680352
21
-425.58279357709813
31
1.7763568393970193e-14
0
ARC
5
486
100
AcDbEntity
8
0
100
AcDbCircle
10
399.28217342680352
20
-425.58279357709836
30
-3.6332418167505273e-38
40
6.9999999999999574
210
-2.5376526277100429e-15
220
-1.6928633042006552e-27
230
1
100
AcDbArc
50
0
51
90.000000000002785
0
LINE
5
487
100
AcDbEntity
8
0
100
AcDbLine
10
399.28217342680318
20
-418.58279357709847
30
1.1309109937246657e-26
11
387.27921669326838
21
-418.58279357709881
31
0
0
ARC
5
488
100
AcDbEntity
8
0
100
AcDbCircle
10
387.27921669326804
20
-410.58279357709898
30
0
40
8.0000000000000107
210
1.8756037182217126e-25
220
8.7093870527172668e-26
230
1
100
AcDbArc
50
204.90785209894446
51
270.00000000000244
0
ARC
5
489
100
AcDbEntity
8
0
100
AcDbCircle
10
363.82999656756994
20
-421.47146543112484
30
0
40
17.853995808155055
210
-1.2758879293513321e-25
220
5.4755254366118323e-26
230
1
100
AcDbArc
50
24.907852098944357
51
58.093651245541338
0
ARC
5
490
100
AcDbEntity
8
0
100
AcDbCircle
10
371.85449802923881
20
-408.58279357709955
30
0
40
2.6714240278127734
210
-2.3586090088377543e-25
220
-7.7010896159512707e-25
230
1
100
AcDbArc
50
58.094164418719913
51
221.2394027192241
0
ARC
5
491
100
AcDbEntity
8
0
100
AcDbCircle
10
363.82999656756976
20
-415.61746962297099
30
1.7763568394002505e-14
40
7.9999999999999716
210
-4.1359030627649735e-25
220
-4.2328377977608289e-25
230
1
100
AcDbArc
50
-89.999999999997144
51
41.239415512376318
0
LINE
5
492
100
AcDbEntity
8
0
100
AcDbLine
10
363.82999656757016
20
-423.61746962297099
30
1.7763568390616234e-14
11
310.03316915195353
21
-423.61746962297309
31
1.7763568377458892e-14
0
ARC
5
493
100
AcDbEntity
8
0
100
AcDbCircle
10
310.03316915195268
20
-403.61746962297326
30
0
40
19.999999999999957
210
1.8404768629305403e-25
220
-1.0753347963188485e-25
230
1
100
AcDbArc
50
253.7397952916908
51
270.00000000000244
0
ARC
5
494
100
AcDbEntity
8
0
100
AcDbCircle
10
303.03316915195387
20
-427.61746962297354
30
0
40
4.9999999999999698
210
2.5642598989143219e-25
220
1.4062070413402819e-25
230
1
100
AcDbArc
50
73.73979529169101
51
180.00002151441828
0
LINE
5
495
100
AcDbEntity
8
0
100
AcDbLine
10
298.03316915195421
20
-427.61747150168281
30
9.9261662628134353e-25
11
298.03317366085577
21
-439.61746978390022
31
1.6155871338926322e-26
0
ARC
5
496
100
AcDbEntity
8
0
100
AcDbCircle
10
303.03317366085548
20
-439.61746790519101
30
0
40
5.0000000000000693
210
3.2311742677849917e-27
220
1.2140873915631844e-33
230
1
100
AcDbArc
50
180.00002151441828
51
286.26020470831332
0
ARC
5
497
100
AcDbEntity
8
0
100
AcDbCircle
10
310.03317366085599
20
-463.61746790519078
30
0
40
19.999999999999929
210
0
220
0
230
1
100
AcDbArc
50
90.000000000002288
51
106.26020470831321
0
CIRCLE
5
498
100
AcDbEntity
8
0
100
AcDbCircle
10
303.03317299470422
20
-439.61746790519106
30
0
40
1.2499999999999987
210
0
220
-0
230
1
0
CIRCLE
5
499
100
AcDbEntity
8
0
100
AcDbCircle
10
303.03316981810508
20
-427.61746962297354
30
0
40
1.2499999999999987
210
0
220
-0
230
1
0
CIRCLE
5
500
100
AcDbEntity
8
0
100
AcDbCircle
10
399.66676990450628
20
-423.62012051483396
30
0
40
1.2499999999999987
210
0
220
-0
230
1
0
CIRCLE
5
501
100
AcDbEntity
8
0
100
AcDbCircle
10
399.66676990450708
20
-443.61481873110301
30
0
40
1.2499999999999987
210
0
220
-0
230
1
0
CIRCLE
5
502
100
AcDbEntity
8
0
100
AcDbCircle
10
356.86406166295257
20
-428.3674696229715
30
0
40
1.2499999999999987
210
0
220
-0
230
1
0
CIRCLE
5
503
100
AcDbEntity
8
0
100
AcDbCircle
10
356.86406166295296
20
-438.8674640763407
30
0
40
1.2499999999999987
210
0
220
-0
230
1
0
LWPOLYLINE
5
504
100
AcDbEntity
8
0
100
AcDbPolyline
90
8
70
1
43
0.0
10
399.37147552730949
20
-428.85495999917055
10
365.44594681588256
20
-428.85495999917191
42
0.41421356237307422
10
364.44594681588262
20
-429.85495999917197
10
364.44594681588291
20
-437.37997370013937
42
0.41421356237309509
10
365.44594681588302
20
-438.3799737001392
10
399.37147552730994
20
-438.37997370013795
42
0.4142135623730534
10
400.37147552730977
20
-437.37997370013801
10
400.37147552730949
20
-429.85495999917055
42
0.41421356237307422
0
LINE
5
505
100
AcDbEntity
8
0
100
AcDbLine
10
354.82090530839463
20
-448.61747060110537
30
0
11
301.02408240167892
21
-448.61747060110537
31
1.6543612251060553e-23
0
ARC
5
506
100
AcDbEntity
8
0
100
AcDbCircle
10
301.02408240167898
20
-440.61746888332328
30
-1.7763568394002505e-14
40
7.9999999999999893
210
0
220
0
230
1
100
AcDbArc
50
138.76059075778559
51
269.9999999999996
0
ARC
5
507
100
AcDbEntity
8
0
100
AcDbCircle
10
292.99958094000954
20
-433.58279283745213
30
0
40
2.6714240276867147
210
5.0001497031010705e-15
220
-4.3833806856796752e-15
230
1
100
AcDbArc
50
-41.239421496201246
51
121.90644810014547
0
ARC
5
508
100
AcDbEntity
8
0
100
AcDbCircle
10
301.02408240167898
20
-446.47146469147719
30
0
40
17.853995808155062
210
1.9120234954911872e-25
220
8.4159486937639492e-26
230
1
100
AcDbArc
50
121.90644040327869
51
155.09214790105676
0
ARC
5
509
100
AcDbEntity
8
0
100
AcDbCircle
10
277.57486227598173
20
-435.58279283745236
30
0
40
7.9999999999999716
210
-0
220
0
230
1
100
AcDbArc
50
270
51
335.09214790105722
0
LINE
5
510
100
AcDbEntity
8
0
100
AcDbLine
10
277.57486227598173
20
-443.5827928374523
30
0
11
265.57190554244562
21
-443.58279283745219
31
-1.7763568394002505e-14
0
ARC
5
511
100
AcDbEntity
8
0
100
AcDbCircle
10
265.57190554244551
20
-450.58279283745213
30
3.0994479953322034e-38
40
6.9999999999999574
210
2.0683379122340942e-25
220
2.537652627714659e-15
230
1
100
AcDbArc
50
89.999999999999076
51
180
0
LINE
5
512
100
AcDbEntity
8
0
100
AcDbLine
10
258.57190554244562
20
-450.58279283745219
30
1.4475660719677973e-24
11
258.57190554244573
21
-466.65214492919432
31
-3.2311742677852644e-26
0
ARC
5
513
100
AcDbEntity
8
0
100
AcDbCircle
10
265.57190554244551
20
-466.65214492919449
30
2.6115719219928751e-38
40
6.9999999999998153
210
-4.6159632396971207e-27
220
-1.6155871338883984e-27
230
1
100
AcDbArc
50
180
51
270.00000000000142
0
LINE
5
514
100
AcDbEntity
8
0
100
AcDbLine
10
265.57190554244568
20
-473.65214492919438
30
-1.130910993725182e-26
11
277.57486227598054
21
-473.65214492919444
31
0
0
ARC
5
515
100
AcDbEntity
8
0
100
AcDbCircle
10
277.57486227598054
20
-481.65214492919426
30
0
40
7.9999999999999885
210
4.3546935263582511e-26
220
-9.3780185911087682e-26
230
1
100
AcDbArc
50
24.907852098942271
51
90
0
ARC
5
516
100
AcDbEntity
8
0
100
AcDbCircle
10
301.02408240167898
20
-470.76347307516926
30
0
40
17.853995808155037
210
4.354693526358281e-26
220
-9.3780185911087717e-26
230
1
100
AcDbArc
50
204.90785209894239
51
238.09365124553889
0
ARC
5
517
100
AcDbEntity
8
0
100
AcDbCircle
10
292.99958094000965
20
-483.65214492919426
30
0
40
2.6714240278128258
210
1.6340622654532643e-24
220
2.6246349172964395e-24
230
1
100
AcDbArc
50
-121.90583558128489
51
41.23940271922239
0
ARC
5
518
100
AcDbEntity
8
0
100
AcDbCircle
10
301.02408240167892
20
-476.61746888332317
30
0
40
7.9999999999999716
210
-2.0679515313825719e-25
220
6.9470246757383138e-26
230
1
100
AcDbArc
50
90
51
221.23941551237397
0
LINE
5
519
100
AcDbEntity
8
0
100
AcDbLine
10
301.02408240167892
20
-468.61746888332323
30
-5.5576197405906317e-25
11
354.82090981729556
21
-468.61746888332311
31
0
0
ARC
5
520
100
AcDbEntity
8
0
100
AcDbCircle
10
354.82090981729556
20
-488.61746888332306
30
-1.7763568394002505e-14
40
19.999999999999961
210
0
220
-0
230
1
100
AcDbArc
50
73.739795291688594
51
90
0
ARC
5
521
100
AcDbEntity
8
0
100
AcDbCircle
10
361.82090981729539
20
-464.61746888332306
30
0
40
4.9999999999999716
210
-9.9475982986563219e-16
220
-3.4106051317064001e-15
230
1
100
AcDbArc
50
-106.26020470831227
51
2.1514418276737845e-05
0
LINE
5
522
100
AcDbEntity
8
0
100
AcDbLine
10
366.82090981729505
20
-464.61746700461396
30
-9.9261662628134353e-25
11
366.82090530839389
21
-452.61746872239644
31
0
0
ARC
5
523
100
AcDbEntity
8
0
100
AcDbCircle
10
361.82090530839423
20
-452.61747060110554
30
0
40
4.9999999999999982
210
0
220
-0
230
1
100
AcDbArc
50
2.1514418276737845e-05
51
106.26020470831087
0
ARC
5
524
100
AcDbEntity
8
0
100
AcDbCircle
10
354.82090530839463
20
-428.61747060110542
30
0
40
19.999999999999929
210
-0
220
0
230
1
100
AcDbArc
50
270
51
286.26020470831105
0
CIRCLE
5
525
100
AcDbEntity
8
0
100
AcDbCircle
10
361.82090597454544
20
-452.61747060110542
30
0
40
1.2499999999999982
210
0
220
-0
230
1
0
CIRCLE
5
526
100
AcDbEntity
8
0
100
AcDbCircle
10
361.82090915114418
20
-464.61746888332306
30
0
40
1.2499999999999982
210
0
220
-0
230
1
0
CIRCLE
5
527
100
AcDbEntity
8
0
100
AcDbCircle
10
265.18730906474281
20
-468.61481799145878
30
0
40
1.2499999999999982
210
0
220
-0
230
1
0
CIRCLE
5
528
100
AcDbEntity
8
0
100
AcDbCircle
10
265.18730906474275
20
-448.62011977518966
30
0
40
1.2499999999999982
210
0
220
-0
230
1
0
CIRCLE
5
529
100
AcDbEntity
8
0
100
AcDbCircle
10
307.99001730629675
20
-463.86746888332289
30
0
40
1.2499999999999982
210
0
220
-0
230
1
0
CIRCLE
5
530
100
AcDbEntity
8
0
100
AcDbCircle
10
307.99001730629675
20
-453.36747442995363
30
0
40
1.2499999999999982
210
0
220
-0
230
1
0
LWPOLYLINE
5
531
100
AcDbEntity
8
0
100
AcDbPolyline
90
8
70
1
43
0.0
10
265.48260344193983
20
-463.37997850712213
10
299.40813215336669
20
-463.37997850712213
42
0.41421356237309509
10
300.40813215336675
20
-462.37997850712202
10
300.40813215336675
20
-454.85496480615467
42
0.41421356237309509
10
299.40813215336669
20
-453.85496480615478
10
265.48260344193983
20
-453.85496480615473
42
0.41421356237309509
10
264.48260344193983
20
-454.85496480615473
10
264.48260344193977
20
-462.37997850712213
42
0.41421356237309509
0
LINE
5
532
100
AcDbEntity
8
0
100
AcDbLine
10
310.03317366085531
20
-501.61746790519084
30
0
11
363.82999656757102
21
-501.61746790518868
31
0
0
ARC
5
533
100
AcDbEntity
8
0
100
AcDbCircle
10
363.82999656757136
20
-509.61746962297076
30
-5.7397185098744507e-39
40
7.9999999999999636
210
-2.0679515313825834e-25
220
-9.2639056749373635e-39
230
1
100
AcDbArc
50
-41.239409242212076
51
90.000000000002444
0
ARC
5
534
100
AcDbEntity
8
0
100
AcDbCircle
10
371.85449802924097
20
-516.65214566884163
30
0
40
2.6714240276866672
210
4.8649073431196394e-25
220
-1.5147442514164699e-25
230
1
100
AcDbArc
50
138.76057850379877
51
301.90644810014948
0
ARC
5
535
100
AcDbEntity
8
0
100
AcDbCircle
10
363.82999656757107
20
-503.76347381481685
30
0
40
17.853995808154984
210
-4.74157670077326e-27
220
7.6157532326959583e-27
230
1
100
AcDbArc
50
301.90644040328101
51
335.09214790105915
0
ARC
5
536
100
AcDbEntity
8
0
100
AcDbCircle
10
387.27921669326872
20
-514.65214566884083
30
0
40
7.9999999999999716
210
-6.4706017440019158e-41
220
1.6155871338926379e-27
230
1
100
AcDbArc
50
90.000000000002444
51
155.0921479010585
0
LINE
5
537
100
AcDbEntity
8
0
100
AcDbLine
10
387.27921669326838
20
-506.65214566884083
30
-1.2924697071141057e-26
11
399.28217342680455
21
-506.65214566884055
31
0
0
ARC
5
538
100
AcDbEntity
8
0
100
AcDbCircle
10
399.28217342680432
20
-499.65214566884049
30
1.7763568394002505e-14
40
7.0000000000000284
210
2.0687233963665871e-25
220
-2.5376526277146333e-15
230
1
100
AcDbArc
50
-89.999999999998181
51
0
0
LINE
5
539
100
AcDbEntity
8
0
100
AcDbLine
10
406.28217342680421
20
-499.65214566884015
30
1.7763568392554939e-14
11
406.28217342680358
21
-483.58279357709813
31
1.7763568393970193e-14
0
ARC
5
540
100
AcDbEntity
8
0
100
AcDbCircle
10
399.28217342680364
20
-483.58279357709824
30
-3.9374468977738732e-38
40
6.9999999999999574
210
-2.5376526277100429e-15
220
-1.6671045807628145e-27
230
1
100
AcDbArc
50
0
51
90.000000000002785
0
LINE
5
541
100
AcDbEntity
8
0
100
AcDbLine
10
399.2821734268033
20
-476.58279357709836
30
1.1309109937243709e-26
11
387.27921669326849
21
-476.58279357709881
31
0
0
ARC
5
542
100
AcDbEntity
8
0
100
AcDbCircle
10
387.27921669326815
20
-468.58279357709898
30
0
40
8.0000000000000107
210
1.8756037182217126e-25
220
8.7093870527172668e-26
230
1
100
AcDbArc
50
204.90785209894446
51
270.00000000000244
0
ARC
5
543
100
AcDbEntity
8
0
100
AcDbCircle
10
363.82999656757011
20
-479.47146543112478
30
0
40
17.853995808155055
210
-1.2758879293513321e-25
220
5.4755254366118323e-26
230
1
100
AcDbArc
50
24.907852098944268
51
58.093651245541402
0
ARC
5
544
100
AcDbEntity
8
0
100
AcDbCircle
10
371.85449802923893
20
-466.58279357709949
30
0
40
2.6714240278128107
210
-2.3586090088378704e-25
220
-7.7010896159511238e-25
230
1
100
AcDbArc
50
58.094164418719252
51
221.23940271922424
0
ARC
5
545
100
AcDbEntity
8
0
100
AcDbCircle
10
363.82999656756994
20
-473.61746962297099
30
1.7763568394002505e-14
40
7.9999999999999716
210
-4.1359030627649735e-25
220
-4.2328377977608289e-25
230
1
100
AcDbArc
50
-89.999999999997556
51
41.239415512376858
0
LINE
5
546
100
AcDbEntity
8
0
100
AcDbLine
10
363.82999656757028
20
-481.61746962297093
30
1.7763568390616234e-14
11
310.03316915195359
21
-481.61746962297309
31
1.7763568377458892e-14
0
ARC
5
547
100
AcDbEntity
8
0
100
AcDbCircle
10
310.03316915195279
20
-461.6174696229732
30
0
40
19.999999999999957
210
1.8404768629305403e-25
220
-1.0753347963188485e-25
230
1
100
AcDbArc
50
253.73979529169085
51
270.00000000000233
0
ARC
5
548
100
AcDbEntity
8
0
100
AcDbCircle
10
303.03316915195398
20
-485.61746962297349
30
0
40
4.9999999999999698
210
2.5642598989143219e-25
220
1.4062070413402819e-25
230
1
100
AcDbArc
50
73.739795291690825
51
180.00002151441828
0
LINE
5
549
100
AcDbEntity
8
0
100
AcDbLine
10
298.03316915195433
20
-485.61747150168281
30
9.9261662628134353e-25
11
298.03317366085588
21
-497.61746978390022
31
1.6155871338926322e-26
0
ARC
5
550
100
AcDbEntity
8
0
100
AcDbCircle
10
303.0331736608556
20
-497.61746790519101
30
0
40
5.0000000000000693
210
3.2311742677849917e-27
220
1.2140873915631844e-33
230
1
100
AcDbArc
50
180.00002151441828
51
286.26020470831349
0
ARC
5
551
100
AcDbEntity
8
0
100
AcDbCircle
10
310.03317366085611
20
-521.61746790519078
30
0
40
19.999999999999929
210
0
220
0
230
1
100
AcDbArc
50
90.000000000002288
51
106.26020470831315
0
CIRCLE
5
552
100
AcDbEntity
8
0
100
AcDbCircle
10
303.03317299470433
20
-497.61746790519106
30
0
40
1.2499999999999987
210
0
220
-0
230
1
0
CIRCLE
5
553
100
AcDbEntity
8
0
100
AcDbCircle
10
303.03316981810519
20
-485.61746962297349
30
0
40
1.2499999999999987
210
0
220
-0
230
1
0
CIRCLE
5
554
100
AcDbEntity
8
0
100
AcDbCircle
10
399.6667699045064
20
-481.62012051483396
30
0
40
1.2499999999999987
210
0
220
-0
230
1
0
CIRCLE
5
555
100
AcDbEntity
8
0
100
AcDbCircle
10
399.66676990450719
20
-501.61481873110296
30
0
40
1.2499999999999987
210
0
220
-0
230
1
0
CIRCLE
5
556
100
AcDbEntity
8
0
100
AcDbCircle
10
356.86406166295262
20
-486.36746962297144
30
0
40
1.2499999999999987
210
0
220
-0
230
1
0
CIRCLE
5
557
100
AcDbEntity
8
0
100
AcDbCircle
10
356.86406166295308
20
-496.8674640763407
30
0
40
1.2499999999999987
210
0
220
-0
230
1
0
LWPOLYLINE
5
558
100
AcDbEntity
8
0
100
AcDbPolyline
90
8
70
1
43
0.0
10
399.37147552730954
20
-486.85495999917055
10
365.44594681588262
20
-486.85495999917185
42
0.41421356237307422
10
364.44594681588273
20
-487.85495999917197
10
364.44594681588308
20
-495.37997370013932
42
0.41421356237307422
10
365.44594681588308
20
-496.3799737001392
10
399.37147552731
20
-496.37997370013795
42
0.4142135623730534
10
400.37147552730983
20
-495.37997370013795
10
400.37147552730966
20
-487.85495999917055
42
0.41421356237309509
0
LINE
5
559
100
AcDbEntity
8
0
100
AcDbLine
10
354.82090530839486
20
-506.61747060110548
30
0
11
301.02408240167915
21
-506.61747060110548
31
1.6543612251060553e-23
0
ARC
5
560
100
AcDbEntity
8
0
100
AcDbCircle
10
301.02408240167915
20
-498.6174688833234
30
0
40
7.9999999999999893
210
0
220
0
230
1
100
AcDbArc
50
138.76059075778534
51
270
0
ARC
5
561
100
AcDbEntity
8
0
100
AcDbCircle
10
292.99958094000976
20
-491.58279283745225
30
0
40
2.6714240276867147
210
-2.3610054456663069e-39
220
-2.6932136459733216e-39
230
1
100
AcDbArc
50
-41.239421496201246
51
121.90644810014547
0
ARC
5
562
100
AcDbEntity
8
0
100
AcDbCircle
10
301.02408240167921
20
-504.47146469147731
30
0
40
17.853995808155062
210
1.9120234954911872e-25
220
8.4159486937639492e-26
230
1
100
AcDbArc
50
121.90644040327869
51
155.09214790105676
0
ARC
5
563
100
AcDbEntity
8
0
100
AcDbCircle
10
277.57486227598196
20
-493.58279283745247
30
1.7763568394002505e-14
40
7.9999999999999716
210
-0
220
0
230
1
100
AcDbArc
50
270
51
335.09214790105722
0
LINE
5
564
100
AcDbEntity
8
0
100
AcDbLine
10
277.57486227598196
20
-501.58279283745242
30
1.7763568394002505e-14
11
265.57190554244585
21
-501.5827928374523
31
0
0
ARC
5
565
100
AcDbEntity
8
0
100
AcDbCircle
10
265.57190554244573
20
-508.58279283745225
30
3.0994479953322034e-38
40
6.9999999999999574
210
2.0679515313825575e-25
220
1.2791372679149032e-39
230
1
100
AcDbArc
50
89.999999999999076
51
180
0
LINE
5
566
100
AcDbEntity
8
0
100
AcDbLine
10
258.57190554244585
20
-508.5827928374523
30
1.4475660719677973e-24
11
258.5719055424459
21
-524.65214492919449
31
-3.2311742677852644e-26
0
ARC
5
567
100
AcDbEntity
8
0
100
AcDbCircle
10
265.57190554244573
20
-524.65214492919461
30
1.7763568394002508e-14
40
6.9999999999998153
210
-2.537652627719327e-15
220
-1.56440286828787e-27
230
1
100
AcDbArc
50
180
51
270.00000000000142
0
LINE
5
568
100
AcDbEntity
8
0
100
AcDbLine
10
265.5719055424459
20
-531.65214492919449
30
1.7763568393991196e-14
11
277.57486227598071
21
-531.65214492919449
31
0
0
ARC
5
569
100
AcDbEntity
8
0
100
AcDbCircle
10
277.57486227598076
20
-539.65214492919438
30
0
40
7.9999999999999885
210
4.3546935263582511e-26
220
-9.3780185911087682e-26
230
1
100
AcDbArc
50
24.907852098941898
51
90.000000000000398
0
ARC
5
570
100
AcDbEntity
8
0
100
AcDbCircle
10
301.02408240167921
20
-528.76347307516937
30
0
40
17.853995808155037
210
4.354693526358281e-26
220
-9.3780185911087717e-26
230
1
100
AcDbArc
50
204.90785209894258
51
238.09365124553889
0
ARC
5
571
100
AcDbEntity
8
0
100
AcDbCircle
10
292.99958094000988
20
-541.65214492919438
30
0
40
2.6714240278128258
210
1.6340622654532643e-24
220
2.6246349172964395e-24
230
1
100
AcDbArc
50
-121.90583558128489
51
41.239402719223314
0
ARC
5
572
100
AcDbEntity
8
0
100
AcDbCircle
10
301.02408240167915
20
-534.61746888332323
30
0
40
7.9999999999999716
210
-2.0679515313825719e-25
220
6.9470246757383138e-26
230
1
100
AcDbArc
50
90
51
221.23941551237397
0
LINE
5
573
100
AcDbEntity
8
0
100
AcDbLine
10
301.02408240167915
20
-526.61746888332334
30
-5.5576197405906317e-25
11
354.82090981729579
21
-526.61746888332323
31
0
0
ARC
5
574
100
AcDbEntity
8
0
100
AcDbCircle
10
354.82090981729584
20
-546.61746888332323
30
0
40
19.999999999999961
210
0
220
-0
230
1
100
AcDbArc
50
73.739795291688637
51
90.000000000000171
0
ARC
5
575
100
AcDbEntity
8
0
100
AcDbCircle
10
361.82090981729561
20
-522.61746888332323
30
0
40
4.999999999999952
210
1.9852334701272755e-25
220
-5.7902642878709876e-26
230
1
100
AcDbArc
50
-106.26020470831187
51
2.1514418276737845e-05
0
LINE
5
576
100
AcDbEntity
8
0
100
AcDbLine
10
366.82090981729522
20
-522.61746700461413
30
-9.9261662628134353e-25
11
366.82090530839417
21
-510.61746872239655
31
0
0
ARC
5
577
100
AcDbEntity
8
0
100
AcDbCircle
10
361.82090530839446
20
-510.61747060110565
30
0
40
5.0000000000000693
210
0
220
-0
230
1
100
AcDbArc
50
2.1514418276737845e-05
51
106.26020470831087
0
ARC
5
578
100
AcDbEntity
8
0
100
AcDbCircle
10
354.82090530839486
20
-486.61747060110554
30
0
40
19.999999999999929
210
-0
220
0
230
1
100
AcDbArc
50
270
51
286.26020470831105
0
CIRCLE
5
579
100
AcDbEntity
8
0
100
AcDbCircle
10
361.82090597454578
20
-510.61747060110554
30
0
40
1.2499999999999982
210
0
220
-0
230
1
0
CIRCLE
5
580
100
AcDbEntity
8
0
100
AcDbCircle
10
361.82090915114435
20
-522.61746888332323
30
0
40
1.2499999999999982
210
0
220
-0
230
1
0
CIRCLE
5
581
100
AcDbEntity
8
0
100
AcDbCircle
10
265.18730906474298
20
-526.61481799145895
30
0
40
1.2499999999999982
210
0
220
-0
230
1
0
CIRCLE
5
582
100
AcDbEntity
8
0
100
AcDbCircle
10
265.18730906474298
20
-506.62011977518978
30
0
40
1.2499999999999982
210
0
220
-0
230
1
0
CIRCLE
5
583
100
AcDbEntity
8
0
100
AcDbCircle
10
307.99001730629692
20
-521.867468883323
30
0
40
1.2499999999999982
210
0
220
-0
230
1
0
CIRCLE
5
584
100
AcDbEntity
8
0
100
AcDbCircle
10
307.99001730629692
20
-511.36747442995375
30
0
40
1.2499999999999982
210
0
220
-0
230
1
0
LWPOLYLINE
5
585
100
AcDbEntity
8
0
100
AcDbPolyline
90
8
70
1
43
0.0
10
265.48260344194
20
-521.37997850712225
10
299.40813215336692
20
-521.37997850712225
42
0.41421356237309509
10
300.40813215336692
20
-520.37997850712213
10
300.40813215336692
20
-512.85496480615484
42
0.41421356237309509
10
299.40813215336692
20
-511.8549648061549
10
265.48260344194
20
-511.85496480615484
42
0.41421356237309509
10
264.48260344194006
20
-512.85496480615484
10
264.48260344194
20
-520.37997850712225
42
0.41421356237309509
0
CIRCLE
5
586
100
AcDbEntity
8
0
100
AcDbCircle
10
11.931308095912954
20
-278.08649249903306
30
0
40
2.000000000000028
210
6.1629758220391561e-33
220
1.7288154708124235e-46
230
1
0
CIRCLE
5
587
100
AcDbEntity
8
0
100
AcDbCircle
10
65.762196098010463
20
-277.33648867018235
30
0
40
2.000000000000028
210
6.1629758220391561e-33
220
1.7288154708124235e-46
230
1
0
CIRCLE
5
588
100
AcDbEntity
8
0
100
AcDbCircle
10
-30.871400145641275
20
-273.33913784427119
30
0
40
2.000000000000028
210
6.1629758220391561e-33
220
1.7288154708124235e-46
230
1
0
CIRCLE
5
589
100
AcDbEntity
8
0
100
AcDbCircle
10
11.931308095913487
20
-288.58648695240231
30
0
40
2.000000000000028
210
6.1629758220391561e-33
220
1.7288154708124235e-46
230
1
0
CIRCLE
5
590
100
AcDbEntity
8
0
100
AcDbCircle
10
65.762200606912202
20
-289.33648695239987
30
0
40
2.000000000000028
210
6.1629758220391561e-33
220
1.7288154708124235e-46
230
1
0
CIRCLE
5
591
100
AcDbEntity
8
0
100
AcDbCircle
10
-30.871400145640244
20
-293.33383606054031
30
0
40
2.000000000000028
210
6.1629758220391561e-33
220
1.7288154708124235e-46
230
1
0
LINE
5
592
100
AcDbEntity
8
0
100
AcDbLine
10
58.762196098010691
20
-273.33648867018258
30
0
11
4.9653731912949173
21
-273.33648867018519
31
3.3049436092608757e-24
0
ARC
5
593
100
AcDbEntity
8
0
100
AcDbCircle
10
4.9653731912945656
20
-265.33648695240299
30
7.5265054236196229e-47
40
7.9999999999999858
210
-6.1629758220391561e-33
220
-3.1816591108937497e-46
230
1
100
AcDbArc
50
138.76059075778852
51
270.00000000000256
0
ARC
5
594
100
AcDbEntity
8
0
100
AcDbCircle
10
-3.0591282703752043
20
-258.3018109065323
30
0
40
2.6714240276867147
210
7.3888693853142592e-33
220
-1.2624350921010463e-32
230
1
100
AcDbArc
50
-41.239421496198084
51
121.90644810014837
0
ARC
5
595
100
AcDbEntity
8
0
100
AcDbCircle
10
4.9653731912949084
20
-271.19048276055696
30
0
40
17.85399580815508
210
-2.3831451850256153e-25
220
-1.4837489237134631e-25
230
1
100
AcDbArc
50
121.90644040328164
51
155.09214790105949
0
ARC
5
596
100
AcDbEntity
8
0
100
AcDbCircle
10
-18.483846934402948
20
-260.30181090653315
30
0
40
8.0000000000000071
210
6.1048618743215802e-47
220
-1.2518544638517023e-33
230
1
100
AcDbArc
50
270.00000000000296
51
335.0921479010596
0
LINE
5
597
100
AcDbEntity
8
0
100
AcDbLine
10
-18.483846934402536
20
-268.30181090653315
30
-1.0014835710813626e-32
11
-30.486803667938638
21
-268.30181090653355
31
1.2325951644078309e-31
0
ARC
5
598
100
AcDbEntity
8
0
100
AcDbCircle
10
-30.486803667938297
20
-275.30181090653366
30
-1.3684555315672042e-46
40
7.0000000000000995
210
-6.1629758220382878e-33
220
-1.7608502348683371e-32
230
1
100
AcDbArc
50
90.000000000002785
51
180
0
LINE
5
599
100
AcDbEntity
8
0
100
AcDbLine
10
-37.48680366793829
20
-275.301810906534
30
-4.3140830754274121e-32
11
-37.486803667937444
21
-291.37116299827608
31
9.6296497219361793e-34
0
ARC
5
600
100
AcDbEntity
8
0
100
AcDbCircle
10
-30.486803667937444
20
-291.37116299827574
30
2.4974313451101476e-46
40
7.0000000000000018
210
1.3756642459911706e-34
220
-1.1555579666323179e-33
230
1
100
AcDbArc
50
180
51
270.00000000000273
0
LINE
5
601
100
AcDbEntity
8
0
100
AcDbLine
10
-30.486803667937107
20
-298.37116299827574
30
-8.088905766426381e-33
11
-18.483846934402241
21
-298.37116299827528
31
1.2325951644078309e-31
0
ARC
5
602
100
AcDbEntity
8
0
100
AcDbCircle
10
-18.483846934401846
20
-306.37116299827517
30
0
40
7.9999999999999902
210
4.4171170887520676e-33
220
-2.1957843639036827e-33
230
1
100
AcDbArc
50
24.907852098945011
51
90.000000000002828
0
ARC
5
603
100
AcDbEntity
8
0
100
AcDbCircle
10
4.9653731912961163
20
-295.48249114424902
30
0
40
17.853995808155066
210
-9.1158384796981297e-26
220
1.9631347370608879e-25
230
1
100
AcDbArc
50
204.90785209894514
51
238.09365124554191
0
ARC
5
604
100
AcDbEntity
8
0
100
AcDbCircle
10
-3.0591282703726108
20
-308.3711629982746
30
0
40
2.6714240278127575
210
1.7396280263804627e-24
220
2.7941949165384511e-24
230
1
100
AcDbArc
50
-121.90583558128239
51
41.239402719225879
0
ARC
5
605
100
AcDbEntity
8
0
100
AcDbCircle
10
4.965373191296365
20
-301.33648695240299
30
0
40
7.9999999999999716
210
2.5201578485428954e-25
220
-4.5867050206986107e-25
230
1
100
AcDbArc
50
90.000000000002956
51
221.23941551237698
0
LINE
5
606
100
AcDbEntity
8
0
100
AcDbLine
10
4.965373191295952
20
-293.33648695240299
30
3.6693640165589797e-24
11
58.762200606912629
21
-293.33648695240026
31
-4.0289472058234941e-24
0
ARC
5
607
100
AcDbEntity
8
0
100
AcDbCircle
10
58.76220060691363
20
-313.33648695240026
30
0
40
19.999999999999968
210
3.1739325483501723e-33
220
-1.2325951644059442e-34
230
1
100
AcDbArc
50
73.739795291691394
51
90.000000000002885
0
ARC
5
608
100
AcDbEntity
8
0
100
AcDbCircle
10
65.762200606912202
20
-289.33648695239987
30
0
40
5.0000000000000258
210
-9.7375017988218293e-33
220
-3.6977854932293625e-34
230
1
100
AcDbArc
50
-106.26020470830831
51
2.1531352099333316e-05
0
LINE
5
609
100
AcDbEntity
8
0
100
AcDbLine
10
70.762200606911847
20
-289.33648507369054
30
4.3294898897465218e-32
11
70.762196098010165
21
-277.33648679147302
31
0
0
ARC
5
610
100
AcDbEntity
8
0
100
AcDbCircle
10
65.762196098010463
20
-277.33648867018235
30
0
40
5.0000000000000515
210
-2.1223410685721449e-53
220
5.6484019490905016e-47
230
1
100
AcDbArc
50
2.1514418276737845e-05
51
106.26020470831372
0
ARC
5
611
100
AcDbEntity
8
0
100
AcDbCircle
10
58.76219609800966
20
-253.33648867018255
30
0
40
20
210
-3.0814879110195763e-33
220
-1.5874084166179563e-46
230
1
100
AcDbArc
50
270.00000000000296
51
286.26020470831389
0
LWPOLYLINE
5
612
100
AcDbEntity
8
0
100
AcDbPolyline
90
8
70
1
43
0.0
10
-30.576105768443462
20
-288.09899657620366
10
3.3494229429834732
20
-288.09899657620201
42
0.41421356237307422
10
4.3494229429834146
20
-287.0989965762019
10
4.3494229429830114
20
-279.57398287523449
42
0.4142135623730977
10
3.3494229429829669
20
-278.57398287523461
10
-30.576105768443984
20
-278.5739828752362
42
0.41421356237307944
10
-31.576105768443909
20
-279.57398287523625
10
-31.57610576844354
20
-287.09899657620366
42
0.41421356237310802
0
CIRCLE
5
613
100
AcDbEntity
8
0
100
AcDbCircle
10
61.006486183699451
20
-321.89510858370465
30
-1.7763568394002505e-14
40
2.0000000000000209
210
-1.5407439555097945e-33
220
-4.4610224419558519e-47
230
1
0
CIRCLE
5
614
100
AcDbEntity
8
0
100
AcDbCircle
10
7.1755981816020764
20
-322.64511241255548
30
-1.7763568394002505e-14
40
2.0000000000000209
210
-1.5407439555097945e-33
220
-4.4610224419558519e-47
230
1
0
CIRCLE
5
615
100
AcDbEntity
8
0
100
AcDbCircle
10
103.80919442525351
20
-326.64246323846658
30
-1.7763568394002505e-14
40
2.0000000000000209
210
-1.5407439555097945e-33
220
-4.4610224419558519e-47
230
1
0
CIRCLE
5
616
100
AcDbEntity
8
0
100
AcDbCircle
10
61.006486183698883
20
-311.3951141303354
30
-1.7763568394002505e-14
40
2.0000000000000209
210
-1.5407439555097945e-33
220
-4.4610224419558519e-47
230
1
0
CIRCLE
5
617
100
AcDbEntity
8
0
100
AcDbCircle
10
7.1755936727003089
20
-310.6451141303379
30
-1.7763568394002505e-14
40
2.0000000000000209
210
-1.5407439555097945e-33
220
-4.4610224419558519e-47
230
1
0
CIRCLE
5
618
100
AcDbEntity
8
0
100
AcDbCircle
10
103.80919442525243
20
-306.64776502219746
30
-1.7763568394002505e-14
40
2.0000000000000209
210
-1.5407439555097945e-33
220
-4.4610224419558519e-47
230
1
0
LINE
5
619
100
AcDbEntity
8
0
100
AcDbLine
10
14.175598181601856
20
-326.64511241255525
30
-1.7763568394002505e-14
11
67.972421088317432
21
-326.64511241255252
31
-1.776356839890188e-14
0
ARC
5
620
100
AcDbEntity
8
0
100
AcDbCircle
10
67.972421088317788
20
-334.6451141303346
30
-1.7763568394002505e-14
40
8.0000000000000373
210
-0
220
0
230
1
100
AcDbArc
50
-41.23940924221197
51
90.000000000002558
0
ARC
5
621
100
AcDbEntity
8
0
100
AcDbCircle
10
75.996922549987545
20
-341.67979017620542
30
-1.7763568394002505e-14
40
2.6714240276866548
210
1.0013259544928281e-46
220
1.1422187651695804e-46
230
1
100
AcDbArc
50
138.76057850380138
51
301.90644810014879
0
ARC
5
622
100
AcDbEntity
8
0
100
AcDbCircle
10
67.972421088317461
20
-328.79111832218075
30
-1.7763568394002505e-14
40
17.853995808155027
210
-3.3187618210522875e-25
220
-2.0662649176392752e-25
230
1
100
AcDbArc
50
301.90644040328164
51
335.0921479010596
0
ARC
5
623
100
AcDbEntity
8
0
100
AcDbCircle
10
91.42164121401521
20
-339.67979017620451
30
-1.7763568394002505e-14
40
7.9999999999999716
210
1.0049595309947223e-47
220
5.3555002086088478e-61
230
1
100
AcDbArc
50
90.000000000003055
51
155.09214790105938
0
LINE
5
624
100
AcDbEntity
8
0
100
AcDbLine
10
91.421641214014784
20
-331.67979017620451
30
-1.7763568394002505e-14
11
103.42459794755086
21
-331.67979017620411
31
-1.7763568394002505e-14
0
ARC
5
625
100
AcDbEntity
8
0
100
AcDbCircle
10
103.42459794755057
20
-324.67979017620405
30
-1.7763568394002505e-14
40
7.0000000000000284
210
0
220
0
230
1
100
AcDbArc
50
-89.999999999997556
51
0
0
LINE
5
626
100
AcDbEntity
8
0
100
AcDbLine
10
110.42459794755045
20
-324.67979017620365
30
-1.7763568394002505e-14
11
110.42459794754961
21
-308.61043808446158
31
-1.7763568394002505e-14
0
ARC
5
627
100
AcDbEntity
8
0
100
AcDbCircle
10
103.42459794754961
20
-308.61043808446192
30
-1.7763568394002505e-14
40
6.9999999999999929
210
0
220
-0
230
1
100
AcDbArc
50
0
51
90.000000000002686
0
LINE
5
628
100
AcDbEntity
8
0
100
AcDbLine
10
103.42459794754929
20
-301.61043808446198
30
-1.7763568394002505e-14
11
91.4216412140145
21
-301.61043808446243
31
-1.7763568394002505e-14
0
ARC
5
629
100
AcDbEntity
8
0
100
AcDbCircle
10
91.421641214014073
20
-293.6104380844626
30
-1.7763568394002505e-14
40
7.9999999999999591
210
1.2977998037215243e-33
220
-2.7948673341001716e-33
230
1
100
AcDbArc
50
204.90785209894506
51
270.00000000000307
0
ARC
5
630
100
AcDbEntity
8
0
100
AcDbCircle
10
67.972421088316224
20
-304.49910993848869
30
-1.7763568394002505e-14
40
17.85399580815497
210
-2.6343942178557943e-26
220
5.6732805194717386e-26
230
1
100
AcDbArc
50
24.907852098945071
51
58.093651245541906
0
ARC
5
631
100
AcDbEntity
8
0
100
AcDbCircle
10
75.996922549984902
20
-291.61043808446323
30
-1.7763568394002505e-14
40
2.671424027812781
210
6.4624744663446419e-25
220
1.0380042728544307e-24
230
1
100
AcDbArc
50
58.094164418718222
51
221.23940271922521
0
ARC
5
632
100
AcDbEntity
8
0
100
AcDbCircle
10
67.972421088315969
20
-298.64511413033478
30
-1.7763568394002505e-14
40
7.9999999999999716
210
-4.3497576612701854e-25
220
3.4476130482744024e-25
230
1
100
AcDbArc
50
-89.999999999996945
51
41.2394155123771
0
LINE
5
633
100
AcDbEntity
8
0
100
AcDbLine
10
67.972421088316395
20
-306.64511413033472
30
-1.7763568391244413e-14
11
14.175593672699902
21
-306.6451141303375
31
-1.7763568395366126e-14
0
ARC
5
634
100
AcDbEntity
8
0
100
AcDbCircle
10
14.175593672698881
20
-286.64511413033756
30
-1.7763568394002505e-14
40
19.999999999999925
210
1.4791141972894315e-33
220
-4.3140830754265432e-34
230
1
100
AcDbArc
50
253.73979529169148
51
270.00000000000296
0
ARC
5
635
100
AcDbEntity
8
0
100
AcDbCircle
10
7.1755936727003089
20
-310.6451141303379
30
-1.7763568394002505e-14
40
5.0000000000000009
210
-2.9582283945788564e-33
220
8.6281661508533036e-34
230
1
100
AcDbArc
50
73.739795291691038
51
180.0000215313521
0
LINE
5
636
100
AcDbEntity
8
0
100
AcDbLine
10
2.1755936727006806
20
-310.64511600904729
30
-1.7763568394002505e-14
11
2.1755981816023882
21
-322.6451142912648
31
-1.7763568394002505e-14
0
ARC
5
637
100
AcDbEntity
8
0
100
AcDbCircle
10
7.1755981816020764
20
-322.64511241255548
30
-1.7763568394002505e-14
40
5.0000000000000409
210
-1.1656144123008798e-53
220
3.1021680802500336e-47
230
1
100
AcDbArc
50
180.00002151441828
51
286.26020470831372
0
ARC
5
638
100
AcDbEntity
8
0
100
AcDbCircle
10
14.175598181602886
20
-346.64511241255519
30
-1.7763568394002505e-14
40
19.999999999999929
210
3.081487911019589e-33
220
1.5874084166179685e-46
230
1
100
AcDbArc
50
90.000000000002956
51
106.26020470831398
0
LWPOLYLINE
5
639
100
AcDbEntity
8
0
100
AcDbPolyline
90
8
70
1
43
0.0
10
103.51390004805572
20
-311.88260450653399
10
69.588371336628896
20
-311.8826045065357
42
0.41421356237310542
10
68.588371336628938
20
-312.88260450653587
10
68.588371336629365
20
-320.40761820750328
42
0.41421356237307944
10
69.588371336629379
20
-321.40761820750311
10
103.51390004805621
20
-321.40761820750151
42
0.4142135623731002
10
104.5139000480561
20
-320.4076182075014
10
104.51390004805573
20
-312.88260450653405
42
0.41421356237308982
0
CIRCLE
5
640
100
AcDbEntity
8
0
100
AcDbCircle
10
11.931308095912918
20
-336.33649249903323
30
0
40
2.000000000000028
210
6.1629758220391561e-33
220
1.7288154708124235e-46
230
1
0
CIRCLE
5
641
100
AcDbEntity
8
0
100
AcDbCircle
10
65.762196098010435
20
-335.58648867018246
30
0
40
2.000000000000028
210
6.1629758220391561e-33
220
1.7288154708124235e-46
230
1
0
CIRCLE
5
642
100
AcDbEntity
8
0
100
AcDbCircle
10
-30.87140014564131
20
-331.58913784427136
30
0
40
2.000000000000028
210
6.1629758220391561e-33
220
1.7288154708124235e-46
230
1
0
CIRCLE
5
643
100
AcDbEntity
8
0
100
AcDbCircle
10
11.931308095913451
20
-346.83648695240254
30
0
40
2.000000000000028
210
6.1629758220391561e-33
220
1.7288154708124235e-46
230
1
0
CIRCLE
5
644
100
AcDbEntity
8
0
100
AcDbCircle
10
65.76220060691216
20
-347.58648695240004
30
0
40
2.000000000000028
210
6.1629758220391561e-33
220
1.7288154708124235e-46
230
1
0
CIRCLE
5
645
100
AcDbEntity
8
0
100
AcDbCircle
10
-30.87140014564028
20
-351.58383606054042
30
0
40
2.000000000000028
210
6.1629758220391561e-33
220
1.7288154708124235e-46
230
1
0
LINE
5
646
100
AcDbEntity
8
0
100
AcDbLine
10
58.762196098010655
20
-331.58648867018269
30
0
11
4.9653731912948817
21
-331.58648867018536
31
3.3049436092608757e-24
0
ARC
5
647
100
AcDbEntity
8
0
100
AcDbCircle
10
4.9653731912945744
20
-323.58648695240322
30
3.4211388289180104e-46
40
8.0000000000000195
210
-6.1629758220391534e-33
220
-3.1885013885515849e-46
230
1
100
AcDbArc
50
138.76059075778844
51
270.00000000000222
0
ARC
5
648
100
AcDbEntity
8
0
100
AcDbCircle
10
-3.0591282703752398
20
-316.55181090653241
30
0
40
2.6714240276867147
210
7.3888693853142537e-33
220
-1.262435092101046e-32
230
1
100
AcDbArc
50
-41.239421496199
51
121.90644810014899
0
ARC
5
649
100
AcDbEntity
8
0
100
AcDbCircle
10
4.9653731912948729
20
-329.44048276055707
30
0
40
17.85399580815508
210
-2.3831451850256153e-25
220
-1.4837489237134631e-25
230
1
100
AcDbArc
50
121.90644040328174
51
155.09214790105963
0
ARC
5
650
100
AcDbEntity
8
0
100
AcDbCircle
10
-18.483846934402983
20
-318.55181090653332
30
0
40
7.9999999999999716
210
6.1048618743216084e-47
220
-1.2518544638517078e-33
230
1
100
AcDbArc
50
270.00000000000296
51
335.0921479010596
0
LINE
5
651
100
AcDbEntity
8
0
100
AcDbLine
10
-18.483846934402571
20
-326.55181090653332
30
-1.0014835710813626e-32
11
-30.486803667938673
21
-326.55181090653372
31
1.2325951644078309e-31
0
ARC
5
652
100
AcDbEntity
8
0
100
AcDbCircle
10
-30.486803667938254
20
-333.55181090653383
30
3.6264071586530911e-46
40
7.0000000000000995
210
-6.1629758220381044e-33
220
-1.7608502348683365e-32
230
1
100
AcDbArc
50
90.000000000003439
51
180
0
LINE
5
653
100
AcDbEntity
8
0
100
AcDbLine
10
-37.486803667938283
20
-333.55181090653417
30
-4.3140830754273897e-32
11
-37.48680366793748
21
-349.6211629982763
31
9.6296497219361793e-34
0
ARC
5
654
100
AcDbEntity
8
0
100
AcDbCircle
10
-30.486803667937437
20
-349.62116299827585
30
5.7817246208714376e-46
40
7.0000000000000417
210
1.3756642459907524e-34
220
-1.1555579666322832e-33
230
1
100
AcDbArc
50
180
51
270.00000000000244
0
LINE
5
655
100
AcDbEntity
8
0
100
AcDbLine
10
-30.486803667937142
20
-356.62116299827585
30
-8.088905766426329e-33
11
-18.483846934402276
21
-356.62116299827545
31
1.2325951644078309e-31
0
ARC
5
656
100
AcDbEntity
8
0
100
AcDbCircle
10
-18.483846934401882
20
-364.62116299827534
30
0
40
7.9999999999999902
210
4.4171170887520676e-33
220
-2.1957843639036827e-33
230
1
100
AcDbArc
50
24.907852098945011
51
90.000000000002828
0
ARC
5
657
100
AcDbEntity
8
0
100
AcDbCircle
10
4.9653731912960808
20
-353.73249114424925
30
0
40
17.853995808155066
210
-9.1158384796981297e-26
220
1.9631347370608879e-25
230
1
100
AcDbArc
50
204.90785209894497
51
238.09365124554179
0
ARC
5
658
100
AcDbEntity
8
0
100
AcDbCircle
10
-3.0591282703726463
20
-366.62116299827471
30
0
40
2.6714240278127575
210
1.7396280263804627e-24
220
2.7941949165384511e-24
230
1
100
AcDbArc
50
-121.90583558128178
51
41.239402719224046
0
ARC
5
659
100
AcDbEntity
8
0
100
AcDbCircle
10
4.9653731912963295
20
-359.58648695240311
30
0
40
7.9999999999999716
210
2.5201578485428954e-25
220
-4.5867050206986107e-25
230
1
100
AcDbArc
50
90.00000000000297
51
221.23941551237758
0
LINE
5
660
100
AcDbEntity
8
0
100
AcDbLine
10
4.9653731912959165
20
-351.58648695240316
30
3.6693640165589797e-24
11
58.762200606912593
21
-351.58648695240049
31
-4.0289472058234941e-24
0
ARC
5
661
100
AcDbEntity
8
0
100
AcDbCircle
10
58.762200606913595
20
-371.58648695240049
30
0
40
19.999999999999968
210
3.1739325483501723e-33
220
-1.2325951644059442e-34
230
1
100
AcDbArc
50
73.739795291691451
51
90.000000000002885
0
ARC
5
662
100
AcDbEntity
8
0
100
AcDbCircle
10
65.76220060691216
20
-347.58648695240004
30
0
40
5.0000000000000258
210
-9.7375017988218293e-33
220
-3.6977854932293625e-34
230
1
100
AcDbArc
50
-106.26020470830831
51
2.1514418276737845e-05
0
LINE
5
663
100
AcDbEntity
8
0
100
AcDbLine
10
70.762200606911819
20
-347.58648507369065
30
4.3294898897465218e-32
11
70.762196098010136
21
-335.58648679147319
31
0
0
ARC
5
664
100
AcDbEntity
8
0
100
AcDbCircle
10
65.762196098010435
20
-335.58648867018246
30
0
40
5.0000000000000515
210
-2.1223410685721449e-53
220
5.6484019490905016e-47
230
1
100
AcDbArc
50
2.1514418276737845e-05
51
106.26020470831372
0
ARC
5
665
100
AcDbEntity
8
0
100
AcDbCircle
10
58.762196098009625
20
-311.58648867018269
30
0
40
20
210
-3.0814879110195763e-33
220
-1.5874084166179563e-46
230
1
100
AcDbArc
50
270.00000000000296
51
286.26020470831389
0
LWPOLYLINE
5
666
100
AcDbEntity
8
0
100
AcDbPolyline
90
8
70
1
43
0.0
10
-30.576105768443497
20
-346.34899657620383
10
3.3494229429834377
20
-346.34899657620218
42
0.41421356237307422
10
4.3494229429833791
20
-345.34899657620207
10
4.3494229429829758
20
-337.82398287523461
42
0.41421356237308726
10
3.3494229429829314
20
-336.82398287523483
10
-30.57610576844402
20
-336.82398287523642
42
0.41421356237307944
10
-31.576105768443945
20
-337.82398287523642
10
-31.576105768443576
20
-345.34899657620383
42
0.4142135623730977
0
CIRCLE
5
667
100
AcDbEntity
8
0
100
AcDbCircle
10
61.006486183699593
20
-380.14510858370443
30
-1.7763568394002505e-14
40
2.0000000000000209
210
-1.5407439555097945e-33
220
-4.4610224419558519e-47
230
1
0
CIRCLE
5
668
100
AcDbEntity
8
0
100
AcDbCircle
10
7.1755981816022185
20
-380.89511241255525
30
-1.7763568394002505e-14
40
2.0000000000000209
210
-1.5407439555097945e-33
220
-4.4610224419558519e-47
230
1
0
CIRCLE
5
669
100
AcDbEntity
8
0
100
AcDbCircle
10
103.80919442525365
20
-384.89246323846629
30
-1.7763568394002505e-14
40
2.0000000000000209
210
-1.5407439555097945e-33
220
-4.4610224419558519e-47
230
1
0
CIRCLE
5
670
100
AcDbEntity
8
0
100
AcDbCircle
10
61.006486183699025
20
-369.64511413033512
30
-1.7763568394002505e-14
40
2.0000000000000209
210
-1.5407439555097945e-33
220
-4.4610224419558519e-47
230
1
0
CIRCLE
5
671
100
AcDbEntity
8
0
100
AcDbCircle
10
7.175593672700451
20
-368.89511413033767
30
-1.7763568394002505e-14
40
2.0000000000000209
210
-1.5407439555097945e-33
220
-4.4610224419558519e-47
230
1
0
CIRCLE
5
672
100
AcDbEntity
8
0
100
AcDbCircle
10
103.80919442525257
20
-364.89776502219718
30
-1.7763568394002505e-14
40
2.0000000000000209
210
-1.5407439555097945e-33
220
-4.4610224419558519e-47
230
1
0
LINE
5
673
100
AcDbEntity
8
0
100
AcDbLine
10
14.175598181601998
20
-384.89511241255502
30
-1.7763568394002505e-14
11
67.972421088317574
21
-384.89511241255229
31
-1.776356839890188e-14
0
ARC
5
674
100
AcDbEntity
8
0
100
AcDbCircle
10
67.97242108831793
20
-392.89511413033438
30
-1.7763568394002505e-14
40
8.0000000000000373
210
-0
220
0
230
1
100
AcDbArc
50
-41.239409242211657
51
90.000000000002558
0
ARC
5
675
100
AcDbEntity
8
0
100
AcDbCircle
10
75.996922549987687
20
-399.92979017620513
30
-1.7763568394002505e-14
40
2.6714240276866548
210
1.0013259544928281e-46
220
1.1422187651695804e-46
230
1
100
AcDbArc
50
138.76057850380138
51
301.90644810014879
0
ARC
5
676
100
AcDbEntity
8
0
100
AcDbCircle
10
67.972421088317603
20
-387.04111832218047
30
-1.7763568394002505e-14
40
17.853995808155027
210
-3.3187618210522875e-25
220
-2.0662649176392752e-25
230
1
100
AcDbArc
50
301.90644040328164
51
335.0921479010596
0
ARC
5
677
100
AcDbEntity
8
0
100
AcDbCircle
10
91.421641214015352
20
-397.92979017620428
30
-1.7763568394002505e-14
40
7.9999999999999716
210
1.0049595309947223e-47
220
5.3555002086088478e-61
230
1
100
AcDbArc
50
90.000000000003055
51
155.09214790105901
0
LINE
5
678
100
AcDbEntity
8
0
100
AcDbLine
10
91.421641214014926
20
-389.92979017620428
30
-1.7763568394002505e-14
11
103.42459794755101
21
-389.92979017620382
31
-1.7763568394002505e-14
0
ARC
5
679
100
AcDbEntity
8
0
100
AcDbCircle
10
103.42459794755071
20
-382.92979017620382
30
-1.7763568394002505e-14
40
7.0000000000000284
210
0
220
0
230
1
100
AcDbArc
50
-89.999999999997556
51
0
0
LINE
5
680
100
AcDbEntity
8
0
100
AcDbLine
10
110.42459794755059
20
-382.92979017620337
30
-1.7763568394002505e-14
11
110.42459794754976
21
-366.86043808446129
31
-1.7763568394002505e-14
0
ARC
5
681
100
AcDbEntity
8
0
100
AcDbCircle
10
103.42459794754984
20
-366.86043808446163
30
-1.7763568394002505e-14
40
6.9999999999999218
210
0
220
-0
230
1
100
AcDbArc
50
0
51
90.000000000003368
0
LINE
5
682
100
AcDbEntity
8
0
100
AcDbLine
10
103.42459794754943
20
-359.86043808446169
30
-1.7763568394002505e-14
11
91.421641214014642
21
-359.86043808446209
31
-1.7763568394002505e-14
0
ARC
5
683
100
AcDbEntity
8
0
100
AcDbCircle
10
91.421641214014215
20
-351.86043808446237
30
-1.7763568394002505e-14
40
7.9999999999999591
210
1.2977998037215243e-33
220
-2.7948673341001716e-33
230
1
100
AcDbArc
50
204.90785209894506
51
270.00000000000307
0
ARC
5
684
100
AcDbEntity
8
0
100
AcDbCircle
10
67.972421088316366
20
-362.7491099384884
30
-1.7763568394002505e-14
40
17.85399580815497
210
-2.6343942178557943e-26
220
5.6732805194717386e-26
230
1
100
AcDbArc
50
24.907852098944918
51
58.093651245541906
0
ARC
5
685
100
AcDbEntity
8
0
100
AcDbCircle
10
75.996922549985044
20
-349.860438084463
30
-1.7763568394002505e-14
40
2.6714240278128107
210
6.4624744663444978e-25
220
1.0380042728544235e-24
230
1
100
AcDbArc
50
58.094164418718861
51
221.2394027192243
0
ARC
5
686
100
AcDbEntity
8
0
100
AcDbCircle
10
67.972421088316111
20
-356.89511413033449
30
-1.7763568394002505e-14
40
7.9999999999999716
210
-4.3497576612701854e-25
220
3.4476130482744024e-25
230
1
100
AcDbArc
50
-89.999999999996945
51
41.2394155123771
0
LINE
5
687
100
AcDbEntity
8
0
100
AcDbLine
10
67.972421088316537
20
-364.89511413033449
30
-1.7763568391244413e-14
11
14.175593672700044
21
-364.89511413033722
31
-1.7763568395366126e-14
0
ARC
5
688
100
AcDbEntity
8
0
100
AcDbCircle
10
14.175593672699023
20
-344.89511413033733
30
-1.7763568394002505e-14
40
19.999999999999961
210
1.4791141972894321e-33
220
-4.3140830754265372e-34
230
1
100
AcDbArc
50
253.73979529169148
51
270.00000000000296
0
ARC
5
689
100
AcDbEntity
8
0
100
AcDbCircle
10
7.175593672700451
20
-368.89511413033767
30
-1.7763568394002505e-14
40
4.9999999999999671
210
-2.9582283945788585e-33
220
8.6281661508533737e-34
230
1
100
AcDbArc
50
73.739795291691038
51
180.0000215313521
0
LINE
5
690
100
AcDbEntity
8
0
100
AcDbLine
10
2.1755936727008227
20
-368.89511600904706
30
-1.7763568394002505e-14
11
2.1755981816025303
21
-380.89511429126452
31
-1.7763568394002505e-14
0
ARC
5
691
100
AcDbEntity
8
0
100
AcDbCircle
10
7.1755981816022185
20
-380.89511241255525
30
-1.7763568394002505e-14
40
5.0000000000000409
210
-1.1656144123008798e-53
220
3.1021680802500336e-47
230
1
100
AcDbArc
50
180.00002151441828
51
286.26020470831372
0
ARC
5
692
100
AcDbEntity
8
0
100
AcDbCircle
10
14.175598181603029
20
-404.89511241255491
30
-1.7763568394002505e-14
40
19.999999999999929
210
3.081487911019589e-33
220
1.5874084166179685e-46
230
1
100
AcDbArc
50
90.000000000002956
51
106.26020470831402
0
LWPOLYLINE
5
693
100
AcDbEntity
8
0
100
AcDbPolyline
90
8
70
1
43
0.0
10
103.51390004805586
20
-370.13260450653377
10
69.588371336629038
20
-370.13260450653547
42
0.41421356237310542
10
68.588371336629081
20
-371.13260450653564
10
68.588371336629507
20
-378.65761820750299
42
0.41421356237307944
10
69.588371336629521
20
-379.65761820750288
10
103.51390004805636
20
-379.65761820750123
42
0.4142135623731002
10
104.51390004805624
20
-378.65761820750117
10
104.51390004805587
20
-371.13260450653377
42
0.41421356237307944
0
CIRCLE
5
694
100
AcDbEntity
8
0
100
AcDbCircle
10
11.931308095912598
20
-394.58649249903272
30
0
40
2.000000000000028
210
6.1629758220391561e-33
220
1.7288154708124235e-46
230
1
0
CIRCLE
5
695
100
AcDbEntity
8
0
100
AcDbCircle
10
65.762196098010122
20
-393.83648867018201
30
0
40
2.000000000000028
210
6.1629758220391561e-33
220
1.7288154708124235e-46
230
1
0
CIRCLE
5
696
100
AcDbEntity
8
0
100
AcDbCircle
10
-30.87140014564163
20
-389.83913784427091
30
0
40
2.000000000000028
210
6.1629758220391561e-33
220
1.7288154708124235e-46
230
1
0
CIRCLE
5
697
100
AcDbEntity
8
0
100
AcDbCircle
10
11.931308095913131
20
-405.08648695240203
30
0
40
2.000000000000028
210
6.1629758220391561e-33
220
1.7288154708124235e-46
230
1
0
CIRCLE
5
698
100
AcDbEntity
8
0
100
AcDbCircle
10
65.762200606911847
20
-405.83648695239958
30
0
40
2.000000000000028
210
6.1629758220391561e-33
220
1.7288154708124235e-46
230
1
0
CIRCLE
5
699
100
AcDbEntity
8
0
100
AcDbCircle
10
-30.8714001456406
20
-409.83383606053997
30
0
40
2.000000000000028
210
6.1629758220391561e-33
220
1.7288154708124235e-46
230
1
0
LINE
5
700
100
AcDbEntity
8
0
100
AcDbLine
10
58.762196098010335
20
-389.83648867018223
30
0
11
4.965373191294562
21
-389.83648867018485
31
3.3049436092608757e-24
0
ARC
5
701
100
AcDbEntity
8
0
100
AcDbCircle
10
4.9653731912942103
20
-381.83648695240271
30
7.5265054236196229e-47
40
8.0000000000000089
210
-6.1629758220391561e-33
220
-3.1850802497226662e-46
230
1
100
AcDbArc
50
138.76059075778824
51
270.00000000000256
0
ARC
5
702
100
AcDbEntity
8
0
100
AcDbCircle
10
-3.0591282703755596
20
-374.80181090653195
30
0
40
2.6714240276866921
210
7.3888693853144946e-33
220
-1.2624350921010441e-32
230
1
100
AcDbArc
50
-41.239421496198084
51
121.90644810014899
0
ARC
5
703
100
AcDbEntity
8
0
100
AcDbCircle
10
4.9653731912945531
20
-387.69048276055662
30
0
40
17.853995808155048
210
-2.3831451850256121e-25
220
-1.4837489237134643e-25
230
1
100
AcDbArc
50
121.90644040328174
51
155.09214790105963
0
ARC
5
704
100
AcDbEntity
8
0
100
AcDbCircle
10
-18.483846934403303
20
-376.80181090653286
30
0
40
7.9999999999999716
210
6.1048618743216084e-47
220
-1.2518544638517078e-33
230
1
100
AcDbArc
50
270.00000000000296
51
335.0921479010596
0
LINE
5
705
100
AcDbEntity
8
0
100
AcDbLine
10
-18.483846934402891
20
-384.80181090653281
30
-1.0014835710813626e-32
11
-30.486803667938993
21
-384.80181090653326
31
1.2325951644078309e-31
0
ARC
5
706
100
AcDbEntity
8
0
100
AcDbCircle
10
-30.486803667938609
20
-391.80181090653332
30
1.4368783081455644e-46
40
7.0000000000000995
210
-6.1629758220381941e-33
220
-1.7608502348683368e-32
230
1
100
AcDbArc
50
90.000000000003155
51
180
0
LINE
5
707
100
AcDbEntity
8
0
100
AcDbLine
10
-37.486803667938638
20
-391.80181090653372
30
-4.3140830754274116e-32
11
-37.486803667937799
21
-407.87116299827579
31
9.6296497219361793e-34
0
ARC
5
708
100
AcDbEntity
8
0
100
AcDbCircle
10
-30.486803667937792
20
-407.87116299827545
30
2.634276898266868e-46
40
7.0000000000000062
210
1.3756642459910917e-34
220
-1.155557966632347e-33
230
1
100
AcDbArc
50
180
51
270.00000000000273
0
LINE
5
709
100
AcDbEntity
8
0
100
AcDbLine
10
-30.486803667937462
20
-414.87116299827551
30
-8.0889057664263796e-33
11
-18.483846934402596
21
-414.871162998275
31
1.2325951644078309e-31
0
ARC
5
710
100
AcDbEntity
8
0
100
AcDbCircle
10
-18.483846934402202
20
-422.87116299827488
30
0
40
7.9999999999999902
210
4.4171170887520676e-33
220
-2.1957843639036827e-33
230
1
100
AcDbArc
50
24.907852098945011
51
90.000000000002828
0
ARC
5
711
100
AcDbEntity
8
0
100
AcDbCircle
10
4.965373191295761
20
-411.98249114424874
30
0
40
17.853995808155066
210
-9.1158384796981297e-26
220
1.9631347370608879e-25
230
1
100
AcDbArc
50
204.90785209894514
51
238.09365124554191
0
ARC
5
712
100
AcDbEntity
8
0
100
AcDbCircle
10
-3.0591282703729661
20
-424.87116299827426
30
0
40
2.6714240278127575
210
1.7396280263804627e-24
220
2.7941949165384511e-24
230
1
100
AcDbArc
50
-121.90583558128178
51
41.239402719224046
0
ARC
5
713
100
AcDbEntity
8
0
100
AcDbCircle
10
4.9653731912960097
20
-417.83648695240265
30
0
40
7.9999999999999716
210
2.5201578485428954e-25
220
-4.5867050206986107e-25
230
1
100
AcDbArc
50
90.00000000000297
51
221.23941551237758
0
LINE
5
714
100
AcDbEntity
8
0
100
AcDbLine
10
4.9653731912955967
20
-409.83648695240271
30
3.6693640165589797e-24
11
58.762200606912273
21
-409.83648695239998
31
-4.0289472058234941e-24
0
ARC
5
715
100
AcDbEntity
8
0
100
AcDbCircle
10
58.762200606913275
20
-429.83648695239998
30
0
40
19.999999999999968
210
3.1739325483501723e-33
220
-1.2325951644059442e-34
230
1
100
AcDbArc
50
73.739795291691394
51
90.000000000002885
0
ARC
5
716
100
AcDbEntity
8
0
100
AcDbCircle
10
65.762200606911847
20
-405.83648695239958
30
0
40
5.0000000000000258
210
-9.7375017988218293e-33
220
-3.6977854932293625e-34
230
1
100
AcDbArc
50
-106.26020470830831
51
2.1531352099333316e-05
0
LINE
5
717
100
AcDbEntity
8
0
100
AcDbLine
10
70.762200606911492
20
-405.8364850736902
30
4.3294898897465218e-32
11
70.762196098009809
21
-393.83648679147268
31
0
0
ARC
5
718
100
AcDbEntity
8
0
100
AcDbCircle
10
65.762196098010122
20
-393.83648867018201
30
0
40
5.0000000000000515
210
-2.1223410685721449e-53
220
5.6484019490905016e-47
230
1
100
AcDbArc
50
2.1514418276737845e-05
51
106.26020470831372
0
ARC
5
719
100
AcDbEntity
8
0
100
AcDbCircle
10
58.762196098009305
20
-369.83648867018223
30
0
40
20
210
-3.0814879110195763e-33
220
-1.5874084166179563e-46
230
1
100
AcDbArc
50
270.00000000000296
51
286.26020470831395
0
LWPOLYLINE
5
720
100
AcDbEntity
8
0
100
AcDbPolyline
90
8
70
1
43
0.0
10
-30.576105768443817
20
-404.59899657620332
10
3.3494229429831179
20
-404.59899657620167
42
0.41421356237307422
10
4.3494229429830593
20
-403.59899657620161
10
4.3494229429826561
20
-396.07398287523415
42
0.41421356237308726
10
3.3494229429826117
20
-395.07398287523438
10
-30.576105768444339
20
-395.07398287523591
42
0.41421356237307944
10
-31.576105768444265
20
-396.07398287523597
10
-31.576105768443895
20
-403.59899657620338
42
0.4142135623730977
0
CIRCLE
5
721
100
AcDbEntity
8
0
100
AcDbCircle
10
61.006486183699984
20
-438.3951085837046
30
-1.7763568394002505e-14
40
2.0000000000000209
210
-1.5407439555097945e-33
220
-4.4610224419558519e-47
230
1
0
CIRCLE
5
722
100
AcDbEntity
8
0
100
AcDbCircle
10
7.1755981816026093
20
-439.14511241255536
30
-1.7763568394002505e-14
40
2.0000000000000209
210
-1.5407439555097945e-33
220
-4.4610224419558519e-47
230
1
0
CIRCLE
5
723
100
AcDbEntity
8
0
100
AcDbCircle
10
103.80919442525403
20
-443.14246323846646
30
-1.7763568394002505e-14
40
2.0000000000000209
210
-1.5407439555097945e-33
220
-4.4610224419558519e-47
230
1
0
CIRCLE
5
724
100
AcDbEntity
8
0
100
AcDbCircle
10
61.006486183699415
20
-427.89511413033529
30
-1.7763568394002505e-14
40
2.0000000000000209
210
-1.5407439555097945e-33
220
-4.4610224419558519e-47
230
1
0
CIRCLE
5
725
100
AcDbEntity
8
0
100
AcDbCircle
10
7.1755936727008418
20
-427.14511413033784
30
-1.7763568394002505e-14
40
2.0000000000000209
210
-1.5407439555097945e-33
220
-4.4610224419558519e-47
230
1
0
CIRCLE
5
726
100
AcDbEntity
8
0
100
AcDbCircle
10
103.80919442525297
20
-423.14776502219735
30
-1.7763568394002505e-14
40
2.0000000000000209
210
-1.5407439555097945e-33
220
-4.4610224419558519e-47
230
1
0
LINE
5
727
100
AcDbEntity
8
0
100
AcDbLine
10
14.175598181602389
20
-443.14511241255514
30
-1.7763568394002505e-14
11
67.972421088317972
21
-443.14511241255246
31
-1.776356839890188e-14
0
ARC
5
728
100
AcDbEntity
8
0
100
AcDbCircle
10
67.972421088318313
20
-451.14511413033455
30
-1.7763568394002505e-14
40
8.0000000000000373
210
-0
220
0
230
1
100
AcDbArc
50
-41.239409242211615
51
90.000000000002444
0
ARC
5
729
100
AcDbEntity
8
0
100
AcDbCircle
10
75.996922549988071
20
-458.1797901762053
30
-1.7763568394002505e-14
40
2.6714240276866548
210
1.0013259544928281e-46
220
1.1422187651695804e-46
230
1
100
AcDbArc
50
138.76057850380116
51
301.90644810014879
0
ARC
5
730
100
AcDbEntity
8
0
100
AcDbCircle
10
67.972421088317986
20
-445.29111832218064
30
-1.7763568394002505e-14
40
17.853995808155027
210
-3.3187618210522875e-25
220
-2.0662649176392752e-25
230
1
100
AcDbArc
50
301.90644040328164
51
335.09214790105943
0
ARC
5
731
100
AcDbEntity
8
0
100
AcDbCircle
10
91.42164121401575
20
-456.17979017620439
30
-1.7763568394002505e-14
40
7.9999999999999716
210
1.0049595309947223e-47
220
5.3555002086088478e-61
230
1
100
AcDbArc
50
90.000000000003055
51
155.09214790105977
0
LINE
5
732
100
AcDbEntity
8
0
100
AcDbLine
10
91.421641214015324
20
-448.17979017620445
30
-1.7763568394002505e-14
11
103.4245979475514
21
-448.17979017620405
31
-1.7763568394002505e-14
0
ARC
5
733
100
AcDbEntity
8
0
100
AcDbCircle
10
103.42459794755109
20
-441.17979017620399
30
-1.7763568394002505e-14
40
7.0000000000000284
210
0
220
0
230
1
100
AcDbArc
50
-89.999999999997456
51
0
0
LINE
5
734
100
AcDbEntity
8
0
100
AcDbLine
10
110.42459794755098
20
-441.1797901762036
30
-1.7763568394002505e-14
11
110.42459794755015
21
-425.11043808446146
31
-1.7763568394002505e-14
0
ARC
5
735
100
AcDbEntity
8
0
100
AcDbCircle
10
103.42459794755023
20
-425.1104380844618
30
-1.7763568394002505e-14
40
6.9999999999999218
210
0
220
-0
230
1
100
AcDbArc
50
0
51
90.000000000003368
0
LINE
5
736
100
AcDbEntity
8
0
100
AcDbLine
10
103.42459794754981
20
-418.11043808446186
30
-1.7763568394002505e-14
11
91.42164121401504
21
-418.11043808446232
31
-1.7763568394002505e-14
0
ARC
5
737
100
AcDbEntity
8
0
100
AcDbCircle
10
91.421641214014613
20
-410.11043808446254
30
-1.7763568394002505e-14
40
7.9999999999999591
210
1.2977998037215243e-33
220
-2.7948673341001716e-33
230
1
100
AcDbArc
50
204.90785209894506
51
270.00000000000307
0
ARC
5
738
100
AcDbEntity
8
0
100
AcDbCircle
10
67.97242108831675
20
-420.99910993848857
30
-1.7763568394002505e-14
40
17.85399580815497
210
-2.6343942178557943e-26
220
5.6732805194717386e-26
230
1
100
AcDbArc
50
24.907852098944886
51
58.093651245541906
0
ARC
5
739
100
AcDbEntity
8
0
100
AcDbCircle
10
75.996922549985442
20
-408.11043808446311
30
-1.7763568394002505e-14
40
2.6714240278128107
210
6.4624744663444978e-25
220
1.0380042728544235e-24
230
1
100
AcDbArc
50
58.094164418718485
51
221.23940271922504
0
ARC
5
740
100
AcDbEntity
8
0
100
AcDbCircle
10
67.972421088316509
20
-415.14511413033466
30
-1.7763568394002505e-14
40
7.9999999999999716
210
-4.3497576612701854e-25
220
3.4476130482744024e-25
230
1
100
AcDbArc
50
-89.999999999996945
51
41.239415512377164
0
LINE
5
741
100
AcDbEntity
8
0
100
AcDbLine
10
67.972421088316935
20
-423.14511413033466
30
-1.7763568391244413e-14
11
14.175593672700435
21
-423.14511413033745
31
-1.7763568395366126e-14
0
ARC
5
742
100
AcDbEntity
8
0
100
AcDbCircle
10
14.175593672699414
20
-403.1451141303375
30
-1.7763568394002505e-14
40
19.999999999999961
210
1.4791141972894321e-33
220
-4.3140830754265372e-34
230
1
100
AcDbArc
50
253.73979529169148
51
270.00000000000296
0
ARC
5
743
100
AcDbEntity
8
0
100
AcDbCircle
10
7.1755936727008418
20
-427.14511413033784
30
-1.7763568394002505e-14
40
4.9999999999999671
210
-2.9582283945788585e-33
220
8.6281661508533737e-34
230
1
100
AcDbArc
50
73.739795291691038
51
180.0000215313521
0
LINE
5
744
100
AcDbEntity
8
0
100
AcDbLine
10
2.1755936727012135
20
-427.14511600904723
30
-1.7763568394002505e-14
11
2.1755981816029211
21
-439.14511429126469
31
-1.7763568394002505e-14
0
ARC
5
745
100
AcDbEntity
8
0
100
AcDbCircle
10
7.1755981816026093
20
-439.14511241255536
30
-1.7763568394002505e-14
40
5.0000000000000409
210
-1.1656144123008798e-53
220
3.1021680802500336e-47
230
1
100
AcDbArc
50
180.00002151441828
51
286.26020470831349
0
ARC
5
746
100
AcDbEntity
8
0
100
AcDbCircle
10
14.175598181603419
20
-463.14511241255508
30
-1.7763568394002505e-14
40
19.999999999999929
210
3.081487911019589e-33
220
1.5874084166179685e-46
230
1
100
AcDbArc
50
90.000000000002956
51
106.26020470831402
0
LWPOLYLINE
5
747
100
AcDbEntity
8
0
100
AcDbPolyline
90
8
70
1
43
0.0
10
103.51390004805624
20
-428.38260450653394
10
69.588371336629422
20
-428.38260450653564
42
0.41421356237310542
10
68.588371336629478
20
-429.38260450653581
10
68.588371336629891
20
-436.90761820750316
42
0.41421356237307944
10
69.588371336629905
20
-437.90761820750305
10
103.51390004805674
20
-437.9076182075014
42
0.4142135623731002
10
104.51390004805663
20
-436.90761820750134
10
104.51390004805626
20
-429.38260450653394
42
0.41421356237307944
0
CIRCLE
5
748
100
AcDbEntity
8
0
100
AcDbCircle
10
11.931308095912527
20
-452.83649249903294
30
0
40
2.000000000000028
210
6.1629758220391561e-33
220
1.7288154708124235e-46
230
1
0
CIRCLE
5
749
100
AcDbEntity
8
0
100
AcDbCircle
10
65.762196098010037
20
-452.08648867018218
30
0
40
2.000000000000028
210
6.1629758220391561e-33
220
1.7288154708124235e-46
230
1
0
CIRCLE
5
750
100
AcDbEntity
8
0
100
AcDbCircle
10
-30.871400145641701
20
-448.08913784427102
30
0
40
2.000000000000028
210
6.1629758220391561e-33
220
1.7288154708124235e-46
230
1
0
CIRCLE
5
751
100
AcDbEntity
8
0
100
AcDbCircle
10
11.93130809591306
20
-463.3364869524022
30
0
40
2.000000000000028
210
6.1629758220391561e-33
220
1.7288154708124235e-46
230
1
0
CIRCLE
5
752
100
AcDbEntity
8
0
100
AcDbCircle
10
65.762200606911776
20
-464.08648695239975
30
0
40
2.000000000000028
210
6.1629758220391561e-33
220
1.7288154708124235e-46
230
1
0
CIRCLE
5
753
100
AcDbEntity
8
0
100
AcDbCircle
10
-30.871400145640671
20
-468.08383606054014
30
0
40
2.000000000000028
210
6.1629758220391561e-33
220
1.7288154708124235e-46
230
1
0
LINE
5
754
100
AcDbEntity
8
0
100
AcDbLine
10
58.762196098010264
20
-448.0864886701824
30
0
11
4.965373191294491
21
-448.08648867018508
31
3.3049436092608757e-24
0
ARC
5
755
100
AcDbEntity
8
0
100
AcDbCircle
10
4.9653731912941392
20
-440.08648695240288
30
7.5265054236196229e-47
40
8.0000000000000089
210
-6.1629758220391561e-33
220
-3.1850802497226662e-46
230
1
100
AcDbArc
50
138.76059075778824
51
270.00000000000256
0
ARC
5
756
100
AcDbEntity
8
0
100
AcDbCircle
10
-3.0591282703756306
20
-433.05181090653213
30
0
40
2.6714240276866921
210
7.3888693853144946e-33
220
-1.2624350921010441e-32
230
1
100
AcDbArc
50
-41.239421496198084
51
121.90644810014899
0
ARC
5
757
100
AcDbEntity
8
0
100
AcDbCircle
10
4.9653731912944821
20
-445.94048276055679
30
0
40
17.853995808155048
210
-2.3831451850256121e-25
220
-1.4837489237134643e-25
230
1
100
AcDbArc
50
121.90644040328174
51
155.09214790105963
0
ARC
5
758
100
AcDbEntity
8
0
100
AcDbCircle
10
-18.483846934403374
20
-435.05181090653303
30
0
40
7.9999999999999716
210
6.1048618743216084e-47
220
-1.2518544638517078e-33
230
1
100
AcDbArc
50
270.00000000000296
51
335.0921479010596
0
LINE
5
759
100
AcDbEntity
8
0
100
AcDbLine
10
-18.483846934402962
20
-443.05181090653298
30
-1.0014835710813626e-32
11
-30.486803667939064
21
-443.05181090653343
31
1.2325951644078309e-31
0
ARC
5
760
100
AcDbEntity
8
0
100
AcDbCircle
10
-30.48680366793868
20
-450.05181090653355
30
1.4368783081455644e-46
40
7.0000000000000995
210
-6.1629758220381941e-33
220
-1.7608502348683368e-32
230
1
100
AcDbArc
50
90.000000000003155
51
180
0
LINE
5
761
100
AcDbEntity
8
0
100
AcDbLine
10
-37.486803667938709
20
-450.05181090653389
30
-4.3140830754274116e-32
11
-37.48680366793787
21
-466.12116299827596
31
9.6296497219361793e-34
0
ARC
5
762
100
AcDbEntity
8
0
100
AcDbCircle
10
-30.486803667937863
20
-466.12116299827562
30
2.634276898266868e-46
40
7.0000000000000062
210
1.3756642459910917e-34
220
-1.155557966632347e-33
230
1
100
AcDbArc
50
180
51
270.00000000000273
0
LINE
5
763
100
AcDbEntity
8
0
100
AcDbLine
10
-30.486803667937533
20
-473.12116299827562
30
-8.0889057664263796e-33
11
-18.483846934402667
21
-473.12116299827517
31
1.2325951644078309e-31
0
ARC
5
764
100
AcDbEntity
8
0
100
AcDbCircle
10
-18.483846934402273
20
-481.12116299827505
30
0
40
7.9999999999999902
210
4.4171170887520676e-33
220
-2.1957843639036827e-33
230
1
100
AcDbArc
50
24.907852098945011
51
90.000000000002828
0
ARC
5
765
100
AcDbEntity
8
0
100
AcDbCircle
10
4.96537319129569
20
-470.23249114424891
30
0
40
17.853995808155066
210
-9.1158384796981297e-26
220
1.9631347370608879e-25
230
1
100
AcDbArc
50
204.90785209894514
51
238.09365124554179
0
ARC
5
766
100
AcDbEntity
8
0
100
AcDbCircle
10
-3.0591282703730371
20
-483.12116299827443
30
0
40
2.6714240278127575
210
1.7396280263804627e-24
220
2.7941949165384511e-24
230
1
100
AcDbArc
50
-121.90583558128239
51
41.239402719224969
0
ARC
5
767
100
AcDbEntity
8
0
100
AcDbCircle
10
4.9653731912959387
20
-476.08648695240282
30
0
40
7.9999999999999716
210
2.5201578485428954e-25
220
-4.5867050206986107e-25
230
1
100
AcDbArc
50
90.00000000000297
51
221.23941551237726
0
LINE
5
768
100
AcDbEntity
8
0
100
AcDbLine
10
4.9653731912955257
20
-468.08648695240288
30
3.6693640165589797e-24
11
58.762200606912202
21
-468.08648695240015
31
-4.0289472058234941e-24
0
ARC
5
769
100
AcDbEntity
8
0
100
AcDbCircle
10
58.762200606913204
20
-488.08648695240015
30
0
40
19.999999999999968
210
3.1739325483501723e-33
220
-1.2325951644059442e-34
230
1
100
AcDbArc
50
73.739795291691394
51
90.000000000002885
0
ARC
5
770
100
AcDbEntity
8
0
100
AcDbCircle
10
65.762200606911776
20
-464.08648695239975
30
0
40
5.0000000000000258
210
-9.7375017988218293e-33
220
-3.6977854932293625e-34
230
1
100
AcDbArc
50
-106.26020470830831
51
2.1531352099333316e-05
0
LINE
5
771
100
AcDbEntity
8
0
100
AcDbLine
10
70.762200606911421
20
-464.08648507369037
30
4.3294898897465218e-32
11
70.762196098009738
21
-452.08648679147291
31
0
0
ARC
5
772
100
AcDbEntity
8
0
100
AcDbCircle
10
65.762196098010037
20
-452.08648867018218
30
0
40
5.0000000000000515
210
-2.1223410685721449e-53
220
5.6484019490905016e-47
230
1
100
AcDbArc
50
2.1514418276737845e-05
51
106.26020470831372
0
ARC
5
773
100
AcDbEntity
8
0
100
AcDbCircle
10
58.762196098009234
20
-428.0864886701824
30
0
40
20
210
-3.0814879110195763e-33
220
-1.5874084166179563e-46
230
1
100
AcDbArc
50
270.00000000000296
51
286.26020470831389
0
LWPOLYLINE
5
774
100
AcDbEntity
8
0
100
AcDbPolyline
90
8
70
1
43
0.0
10
-30.576105768443888
20
-462.84899657620349
10
3.3494229429830469
20
-462.8489965762019
42
0.41421356237307422
10
4.3494229429829883
20
-461.84899657620178
10
4.349422942982585
20
-454.32398287523432
42
0.41421356237308726
10
3.3494229429825406
20
-453.32398287523455
10
-30.57610576844441
20
-453.32398287523608
42
0.41421356237307944
10
-31.576105768444336
20
-454.32398287523608
10
-31.576105768443966
20
-461.84899657620355
42
0.4142135623730977
0
CIRCLE
5
775
100
AcDbEntity
8
0
100
AcDbCircle
10
61.006486183699593
20
-496.64510858370465
30
-1.7763568394002505e-14
40
2.0000000000000209
210
-1.5407439555097945e-33
220
-4.4610224419558519e-47
230
1
0
CIRCLE
5
776
100
AcDbEntity
8
0
100
AcDbCircle
10
7.1755981816022185
20
-497.39511241255542
30
-1.7763568394002505e-14
40
2.0000000000000209
210
-1.5407439555097945e-33
220
-4.4610224419558519e-47
230
1
0
CIRCLE
5
777
100
AcDbEntity
8
0
100
AcDbCircle
10
103.80919442525365
20
-501.39246323846646
30
-1.7763568394002505e-14
40
2.0000000000000209
210
-1.5407439555097945e-33
220
-4.4610224419558519e-47
230
1
0
CIRCLE
5
778
100
AcDbEntity
8
0
100
AcDbCircle
10
61.006486183699025
20
-486.14511413033534
30
-1.7763568394002505e-14
40
2.0000000000000209
210
-1.5407439555097945e-33
220
-4.4610224419558519e-47
230
1
0
CIRCLE
5
779
100
AcDbEntity
8
0
100
AcDbCircle
10
7.175593672700451
20
-485.39511413033784
30
-1.7763568394002505e-14
40
2.0000000000000209
210
-1.5407439555097945e-33
220
-4.4610224419558519e-47
230
1
0
CIRCLE
5
780
100
AcDbEntity
8
0
100
AcDbCircle
10
103.80919442525257
20
-481.3977650221974
30
-1.7763568394002505e-14
40
2.0000000000000209
210
-1.5407439555097945e-33
220
-4.4610224419558519e-47
230
1
0
LINE
5
781
100
AcDbEntity
8
0
100
AcDbLine
10
14.175598181601998
20
-501.39511241255519
30
-1.7763568394002505e-14
11
67.972421088317574
21
-501.39511241255252
31
-1.776356839890188e-14
0
ARC
5
782
100
AcDbEntity
8
0
100
AcDbCircle
10
67.97242108831793
20
-509.3951141303346
30
-1.7763568394002505e-14
40
8.0000000000000373
210
-0
220
0
230
1
100
AcDbArc
50
-41.239409242211359
51
90.000000000002558
0
ARC
5
783
100
AcDbEntity
8
0
100
AcDbCircle
10
75.996922549987687
20
-516.4297901762053
30
-1.7763568394002505e-14
40
2.6714240276866548
210
1.0013259544928281e-46
220
1.1422187651695804e-46
230
1
100
AcDbArc
50
138.76057850380138
51
301.90644810014817
0
ARC
5
784
100
AcDbEntity
8
0
100
AcDbCircle
10
67.972421088317603
20
-503.54111832218064
30
-1.7763568394002505e-14
40
17.853995808155027
210
-3.3187618210522875e-25
220
-2.0662649176392752e-25
230
1
100
AcDbArc
50
301.90644040328152
51
335.09214790105943
0
ARC
5
785
100
AcDbEntity
8
0
100
AcDbCircle
10
91.421641214015352
20
-514.42979017620451
30
-1.7763568394002505e-14
40
7.9999999999999716
210
1.0049595309947223e-47
220
5.3555002086088478e-61
230
1
100
AcDbArc
50
90.000000000003055
51
155.09214790105901
0
LINE
5
786
100
AcDbEntity
8
0
100
AcDbLine
10
91.421641214014926
20
-506.42979017620451
30
-1.7763568394002505e-14
11
103.42459794755101
21
-506.42979017620405
31
-1.7763568394002505e-14
0
ARC
5
787
100
AcDbEntity
8
0
100
AcDbCircle
10
103.42459794755071
20
-499.42979017620405
30
-1.7763568394002505e-14
40
7.0000000000000284
210
0
220
0
230
1
100
AcDbArc
50
-89.999999999997556
51
0
0
LINE
5
788
100
AcDbEntity
8
0
100
AcDbLine
10
110.42459794755059
20
-499.4297901762036
30
-1.7763568394002505e-14
11
110.42459794754976
21
-483.36043808446152
31
-1.7763568394002505e-14
0
ARC
5
789
100
AcDbEntity
8
0
100
AcDbCircle
10
103.42459794754984
20
-483.36043808446186
30
-1.7763568394002505e-14
40
6.9999999999999218
210
0
220
-0
230
1
100
AcDbArc
50
0
51
90.000000000003368
0
LINE
5
790
100
AcDbEntity
8
0
100
AcDbLine
10
103.42459794754943
20
-476.36043808446186
30
-1.7763568394002505e-14
11
91.421641214014642
21
-476.36043808446232
31
-1.7763568394002505e-14
0
ARC
5
791
100
AcDbEntity
8
0
100
AcDbCircle
10
91.421641214014215
20
-468.36043808446254
30
-1.7763568394002505e-14
40
7.9999999999999591
210
1.2977998037215243e-33
220
-2.7948673341001716e-33
230
1
100
AcDbArc
50
204.90785209894506
51
270.00000000000307
0
ARC
5
792
100
AcDbEntity
8
0
100
AcDbCircle
10
67.972421088316366
20
-479.24910993848863
30
-1.7763568394002505e-14
40
17.85399580815497
210
-2.6343942178557943e-26
220
5.6732805194717386e-26
230
1
100
AcDbArc
50
24.907852098945071
51
58.093651245542027
0
ARC
5
793
100
AcDbEntity
8
0
100
AcDbCircle
10
75.996922549985044
20
-466.36043808446317
30
-1.7763568394002505e-14
40
2.6714240278128107
210
6.4624744663444978e-25
220
1.0380042728544235e-24
230
1
100
AcDbArc
50
58.094164418718861
51
221.23940271922521
0
ARC
5
794
100
AcDbEntity
8
0
100
AcDbCircle
10
67.972421088316111
20
-473.39511413033472
30
-1.7763568394002505e-14
40
7.9999999999999716
210
-4.3497576612701854e-25
220
3.4476130482744024e-25
230
1
100
AcDbArc
50
-89.999999999996945
51
41.2394155123771
0
LINE
5
795
100
AcDbEntity
8
0
100
AcDbLine
10
67.972421088316537
20
-481.39511413033466
30
-1.7763568391244413e-14
11
14.175593672700044
21
-481.39511413033745
31
-1.7763568395366126e-14
0
ARC
5
796
100
AcDbEntity
8
0
100
AcDbCircle
10
14.175593672699023
20
-461.3951141303375
30
-1.7763568394002505e-14
40
19.999999999999961
210
1.4791141972894321e-33
220
-4.3140830754265372e-34
230
1
100
AcDbArc
50
253.73979529169156
51
270.00000000000296
0
ARC
5
797
100
AcDbEntity
8
0
100
AcDbCircle
10
7.175593672700451
20
-485.39511413033784
30
-1.7763568394002505e-14
40
4.9999999999999671
210
-2.9582283945788585e-33
220
8.6281661508533737e-34
230
1
100
AcDbArc
50
73.739795291690868
51
180.0000215313521
0
LINE
5
798
100
AcDbEntity
8
0
100
AcDbLine
10
2.1755936727008227
20
-485.39511600904723
30
-1.7763568394002505e-14
11
2.1755981816025303
21
-497.39511429126475
31
-1.7763568394002505e-14
0
ARC
5
799
100
AcDbEntity
8
0
100
AcDbCircle
10
7.1755981816022185
20
-497.39511241255542
30
-1.7763568394002505e-14
40
5.0000000000000409
210
-1.1656144123008798e-53
220
3.1021680802500336e-47
230
1
100
AcDbArc
50
180.00002151441828
51
286.26020470831372
0
ARC
5
800
100
AcDbEntity
8
0
100
AcDbCircle
10
14.175598181603029
20
-521.39511241255514
30
-1.7763568394002505e-14
40
19.999999999999929
210
3.081487911019589e-33
220
1.5874084166179685e-46
230
1
100
AcDbArc
50
90.000000000002956
51
106.26020470831398
0
LWPOLYLINE
5
801
100
AcDbEntity
8
0
100
AcDbPolyline
90
8
70
1
43
0.0
10
103.51390004805586
20
-486.63260450653399
10
69.588371336629038
20
-486.6326045065357
42
0.41421356237310542
10
68.588371336629081
20
-487.63260450653581
10
68.588371336629507
20
-495.15761820750322
42
0.41421356237307944
10
69.588371336629521
20
-496.15761820750311
10
103.51390004805636
20
-496.15761820750146
42
0.4142135623731002
10
104.51390004805624
20
-495.15761820750134
10
104.51390004805587
20
-487.63260450653399
42
0.41421356237307944
0
CIRCLE
5
802
100
AcDbEntity
8
0
100
AcDbCircle
10
11.931308095912563
20
-511.0864924990326
30
0
40
2.000000000000028
210
6.1629758220391561e-33
220
1.7288154708124235e-46
230
1
0
CIRCLE
5
803
100
AcDbEntity
8
0
100
AcDbCircle
10
65.762196098010079
20
-510.33648867018189
30
0
40
2.000000000000028
210
6.1629758220391561e-33
220
1.7288154708124235e-46
230
1
0
CIRCLE
5
804
100
AcDbEntity
8
0
100
AcDbCircle
10
-30.871400145641665
20
-506.33913784427074
30
0
40
2.000000000000028
210
6.1629758220391561e-33
220
1.7288154708124235e-46
230
1
0
CIRCLE
5
805
100
AcDbEntity
8
0
100
AcDbCircle
10
11.931308095913096
20
-521.58648695240186
30
0
40
2.000000000000028
210
6.1629758220391561e-33
220
1.7288154708124235e-46
230
1
0
CIRCLE
5
806
100
AcDbEntity
8
0
100
AcDbCircle
10
65.762200606911819
20
-522.33648695239947
30
0
40
2.000000000000028
210
6.1629758220391561e-33
220
1.7288154708124235e-46
230
1
0
CIRCLE
5
807
100
AcDbEntity
8
0
100
AcDbCircle
10
-30.871400145640635
20
-526.33383606053985
30
0
40
2.000000000000028
210
6.1629758220391561e-33
220
1.7288154708124235e-46
230
1
0
LINE
5
808
100
AcDbEntity
8
0
100
AcDbLine
10
58.7621960980103
20
-506.33648867018212
30
0
11
4.9653731912945265
21
-506.33648867018474
31
3.3049436092608757e-24
0
ARC
5
809
100
AcDbEntity
8
0
100
AcDbCircle
10
4.9653731912942165
20
-498.33648695240254
30
3.3527160523396502e-46
40
8.0000000000000391
210
-6.1629758220391561e-33
220
-3.1885013885515849e-46
230
1
100
AcDbArc
50
138.76059075778838
51
270.00000000000222
0
ARC
5
810
100
AcDbEntity
8
0
100
AcDbCircle
10
-3.0591282703755951
20
-491.30181090653184
30
0
40
2.6714240276866925
210
7.3888693853144932e-33
220
-1.2624350921010436e-32
230
1
100
AcDbArc
50
-41.239421496197174
51
121.90644810014837
0
ARC
5
811
100
AcDbEntity
8
0
100
AcDbCircle
10
4.9653731912945176
20
-504.19048276055651
30
0
40
17.853995808155048
210
-2.3831451850256121e-25
220
-1.4837489237134643e-25
230
1
100
AcDbArc
50
121.90644040328164
51
155.09214790105949
0
ARC
5
812
100
AcDbEntity
8
0
100
AcDbCircle
10
-18.483846934403338
20
-493.30181090653269
30
0
40
7.9999999999999716
210
6.1048618743216084e-47
220
-1.2518544638517078e-33
230
1
100
AcDbArc
50
270.00000000000296
51
335.0921479010596
0
LINE
5
813
100
AcDbEntity
8
0
100
AcDbLine
10
-18.483846934402926
20
-501.30181090653264
30
-1.0014835710813626e-32
11
-30.486803667939029
21
-501.30181090653309
31
1.2325951644078309e-31
0
ARC
5
814
100
AcDbEntity
8
0
100
AcDbCircle
10
-30.486803667938609
20
-508.30181090653321
30
3.6264071586530911e-46
40
7.0000000000000995
210
-6.1629758220381044e-33
220
-1.7608502348683365e-32
230
1
100
AcDbArc
50
90.000000000003439
51
180
0
LINE
5
815
100
AcDbEntity
8
0
100
AcDbLine
10
-37.486803667938638
20
-508.30181090653355
30
-4.3140830754273897e-32
11
-37.486803667937835
21
-524.37116299827562
31
9.6296497219361793e-34
0
ARC
5
816
100
AcDbEntity
8
0
100
AcDbCircle
10
-30.486803667937792
20
-524.37116299827517
30
5.7817246208714376e-46
40
7.0000000000000417
210
1.3756642459907524e-34
220
-1.1555579666322832e-33
230
1
100
AcDbArc
50
180
51
270.00000000000244
0
LINE
5
817
100
AcDbEntity
8
0
100
AcDbLine
10
-30.486803667937497
20
-531.37116299827528
30
-8.088905766426329e-33
11
-18.483846934402631
21
-531.37116299827483
31
1.2325951644078309e-31
0
ARC
5
818
100
AcDbEntity
8
0
100
AcDbCircle
10
-18.483846934402237
20
-539.37116299827471
30
0
40
7.9999999999999902
210
4.4171170887520676e-33
220
-2.1957843639036827e-33
230
1
100
AcDbArc
50
24.90785209894463
51
90.000000000002828
0
ARC
5
819
100
AcDbEntity
8
0
100
AcDbCircle
10
4.9653731912957255
20
-528.48249114424857
30
0
40
17.853995808155066
210
-9.1158384796981297e-26
220
1.9631347370608879e-25
230
1
100
AcDbArc
50
204.90785209894526
51
238.09365124554179
0
ARC
5
820
100
AcDbEntity
8
0
100
AcDbCircle
10
-3.0591282703730016
20
-541.37116299827414
30
0
40
2.6714240278127575
210
1.7396280263804627e-24
220
2.7941949165384511e-24
230
1
100
AcDbArc
50
-121.90583558128306
51
41.239402719225879
0
ARC
5
821
100
AcDbEntity
8
0
100
AcDbCircle
10
4.9653731912959742
20
-534.33648695240254
30
0
40
7.9999999999999716
210
2.5201578485428954e-25
220
-4.5867050206986107e-25
230
1
100
AcDbArc
50
90.000000000002956
51
221.23941551237698
0
LINE
5
822
100
AcDbEntity
8
0
100
AcDbLine
10
4.9653731912955612
20
-526.33648695240254
30
3.6693640165589797e-24
11
58.762200606912238
21
-526.33648695239981
31
-4.0289472058234941e-24
0
ARC
5
823
100
AcDbEntity
8
0
100
AcDbCircle
10
58.76220060691324
20
-546.33648695239981
30
0
40
19.999999999999968
210
3.1739325483501723e-33
220
-1.2325951644059442e-34
230
1
100
AcDbArc
50
73.739795291691408
51
90.000000000002885
0
ARC
5
824
100
AcDbEntity
8
0
100
AcDbCircle
10
65.762200606911819
20
-522.33648695239947
30
0
40
5.0000000000000258
210
-9.7375017988218293e-33
220
-3.6977854932293625e-34
230
1
100
AcDbArc
50
-106.26020470830865
51
2.1514418276737845e-05
0
LINE
5
825
100
AcDbEntity
8
0
100
AcDbLine
10
70.762200606911449
20
-522.33648507369003
30
4.3294898897465218e-32
11
70.762196098009781
21
-510.33648679147257
31
0
0
ARC
5
826
100
AcDbEntity
8
0
100
AcDbCircle
10
65.762196098010079
20
-510.33648867018189
30
0
40
5.0000000000000515
210
-2.1223410685721449e-53
220
5.6484019490905016e-47
230
1
100
AcDbArc
50
2.1514418276737845e-05
51
106.26020470831354
0
ARC
5
827
100
AcDbEntity
8
0
100
AcDbCircle
10
58.762196098009269
20
-486.33648867018212
30
0
40
20
210
-3.0814879110195763e-33
220
-1.5874084166179563e-46
230
1
100
AcDbArc
50
270.00000000000296
51
286.26020470831401
0
LWPOLYLINE
5
828
100
AcDbEntity
8
0
100
AcDbPolyline
90
8
70
1
43
0.0
10
-30.576105768443853
20
-521.09899657620315
10
3.3494229429830824
20
-521.09899657620156
42
0.41421356237307422
10
4.3494229429830238
20
-520.09899657620144
10
4.3494229429826206
20
-512.57398287523404
42
0.41421356237308726
10
3.3494229429825761
20
-511.57398287523421
10
-30.576105768444375
20
-511.57398287523574
42
0.41421356237307944
10
-31.5761057684443
20
-512.57398287523574
10
-31.576105768443931
20
-520.09899657620326
42
0.4142135623730977
0
CIRCLE
5
829
100
AcDbEntity
8
0
100
AcDbCircle
10
-30.871400145641275
20
-273.33913784427119
30
0
40
1.2499999999999998
210
-3.081487911019578e-33
220
-1.5942506942757938e-46
230
1
0
CIRCLE
5
830
100
AcDbEntity
8
0
100
AcDbCircle
10
-30.871400145640244
20
-293.33383606054031
30
0
40
1.2499999999999998
210
-3.081487911019578e-33
220
-1.5942506942757938e-46
230
1
0
CIRCLE
5
831
100
AcDbEntity
8
0
100
AcDbCircle
10
11.931308095913487
20
-288.58648695240231
30
0
40
1.2499999999999998
210
-3.081487911019578e-33
220
-1.5942506942769371e-46
230
1
0
CIRCLE
5
832
100
AcDbEntity
8
0
100
AcDbCircle
10
11.931308095912954
20
-278.08649249903306
30
0
40
1.2499999999999998
210
-3.081487911019578e-33
220
-1.5942506942764006e-46
230
1
0
CIRCLE
5
833
100
AcDbEntity
8
0
100
AcDbCircle
10
65.762196764161729
20
-277.33648867018223
30
0
40
1.2499999999999998
210
-3.081487911019578e-33
220
-1.5942506942757938e-46
230
1
0
CIRCLE
5
834
100
AcDbEntity
8
0
100
AcDbCircle
10
65.762199940760979
20
-289.33648695239987
30
0
40
1.2499999999999998
210
-3.081487911019578e-33
220
-1.5942506942757938e-46
230
1
0
CIRCLE
5
835
100
AcDbEntity
8
0
100
AcDbCircle
10
103.80919442525243
20
-306.64776502219746
30
-1.7763568394002505e-14
40
1.2499999999999953
210
3.081487911019589e-33
220
1.6220474472607538e-46
230
1
0
CIRCLE
5
836
100
AcDbEntity
8
0
100
AcDbCircle
10
103.80919442525351
20
-326.64246323846658
30
-1.7763568394002505e-14
40
1.2499999999999953
210
3.081487911019589e-33
220
1.6220474472607538e-46
230
1
0
CIRCLE
5
837
100
AcDbEntity
8
0
100
AcDbCircle
10
61.006486183699451
20
-321.89510858370465
30
-1.7763568394002505e-14
40
1.2499999999999953
210
3.081487911019589e-33
220
1.6220474472613606e-46
230
1
0
CIRCLE
5
838
100
AcDbEntity
8
0
100
AcDbCircle
10
61.006486183698883
20
-311.3951141303354
30
-1.7763568394002505e-14
40
1.2499999999999953
210
3.081487911019589e-33
220
1.6220474472618971e-46
230
1
0
CIRCLE
5
839
100
AcDbEntity
8
0
100
AcDbCircle
10
7.175594338851532
20
-310.6451141303379
30
-1.7763568394002505e-14
40
1.2499999999999953
210
3.081487911019589e-33
220
1.6220474472607538e-46
230
1
0
CIRCLE
5
840
100
AcDbEntity
8
0
100
AcDbCircle
10
7.1755975154508178
20
-322.64511241255553
30
-1.7763568394002505e-14
40
1.2499999999999953
210
3.081487911019589e-33
220
1.6220474472607538e-46
230
1
0
CIRCLE
5
841
100
AcDbEntity
8
0
100
AcDbCircle
10
-30.871400145638216
20
-331.58913784427125
30
1.598724134239962e-31
40
1.2499999999999998
210
-3.081487911019578e-33
220
-1.5942506942757938e-46
230
1
0
CIRCLE
5
842
100
AcDbEntity
8
0
100
AcDbCircle
10
-30.871400145637185
20
-351.58383606054042
30
1.598724134239962e-31
40
1.2499999999999998
210
-3.081487911019578e-33
220
-1.5942506942757938e-46
230
1
0
CIRCLE
5
843
100
AcDbEntity
8
0
100
AcDbCircle
10
11.931308095916011
20
-336.33649249903317
30
1.598724134239962e-31
40
1.2499999999999998
210
-3.081487911019578e-33
220
-1.5942506942764006e-46
230
1
0
CIRCLE
5
844
100
AcDbEntity
8
0
100
AcDbCircle
10
11.931308095916544
20
-346.83648695240254
30
1.598724134239962e-31
40
1.2499999999999998
210
-3.081487911019578e-33
220
-1.5942506942769371e-46
230
1
0
CIRCLE
5
845
100
AcDbEntity
8
0
100
AcDbCircle
10
65.762196764164784
20
-335.58648867018235
30
1.598724134239962e-31
40
1.2499999999999998
210
-3.081487911019578e-33
220
-1.5942506942757938e-46
230
1
0
CIRCLE
5
846
100
AcDbEntity
8
0
100
AcDbCircle
10
65.762199940764035
20
-347.58648695239998
30
1.598724134239962e-31
40
1.2499999999999998
210
-3.081487911019578e-33
220
-1.5942506942757938e-46
230
1
0
CIRCLE
5
847
100
AcDbEntity
8
0
100
AcDbCircle
10
103.8091944252555
20
-364.89776502219752
30
-1.7763568394002505e-14
40
1.2499999999999953
210
3.081487911019589e-33
220
1.6220474472607538e-46
230
1
0
CIRCLE
5
848
100
AcDbEntity
8
0
100
AcDbCircle
10
103.80919442525655
20
-384.89246323846669
30
-1.7763568394002505e-14
40
1.2499999999999953
210
3.081487911019589e-33
220
1.6220474472607538e-46
230
1
0
CIRCLE
5
849
100
AcDbEntity
8
0
100
AcDbCircle
10
61.006486183701938
20
-369.64511413033551
30
-1.7763568394002505e-14
40
1.2499999999999953
210
3.081487911019589e-33
220
1.6220474472618971e-46
230
1
0
CIRCLE
5
850
100
AcDbEntity
8
0
100
AcDbCircle
10
61.006486183702506
20
-380.14510858370488
30
-1.7763568394002505e-14
40
1.2499999999999953
210
3.081487911019589e-33
220
1.6220474472613606e-46
230
1
0
CIRCLE
5
851
100
AcDbEntity
8
0
100
AcDbCircle
10
7.1755943388545909
20
-368.89511413033802
30
-1.7763568394002505e-14
40
1.2499999999999953
210
3.081487911019589e-33
220
1.6220474472607538e-46
230
1
0
CIRCLE
5
852
100
AcDbEntity
8
0
100
AcDbCircle
10
7.1755975154538767
20
-380.89511241255565
30
-1.7763568394002505e-14
40
1.2499999999999953
210
3.081487911019589e-33
220
1.6220474472607538e-46
230
1
0
CIRCLE
5
853
100
AcDbEntity
8
0
100
AcDbCircle
10
-30.87140014563516
20
-389.83913784427148
30
3.197448268479924e-31
40
1.2499999999999998
210
-3.081487911019578e-33
220
-1.5942506942757938e-46
230
1
0
CIRCLE
5
854
100
AcDbEntity
8
0
100
AcDbCircle
10
-30.87140014563413
20
-409.83383606054053
30
3.197448268479924e-31
40
1.2499999999999998
210
-3.081487911019578e-33
220
-1.5942506942757938e-46
230
1
0
CIRCLE
5
855
100
AcDbEntity
8
0
100
AcDbCircle
10
11.931308095919071
20
-394.58649249903328
30
3.197448268479924e-31
40
1.2499999999999998
210
-3.081487911019578e-33
220
-1.5942506942764006e-46
230
1
0
CIRCLE
5
856
100
AcDbEntity
8
0
100
AcDbCircle
10
11.931308095919604
20
-405.08648695240259
30
3.197448268479924e-31
40
1.2499999999999998
210
-3.081487911019578e-33
220
-1.5942506942769371e-46
230
1
0
CIRCLE
5
857
100
AcDbEntity
8
0
100
AcDbCircle
10
65.762196764167854
20
-393.83648867018252
30
3.197448268479924e-31
40
1.2499999999999998
210
-3.081487911019578e-33
220
-1.5942506942757938e-46
230
1
0
CIRCLE
5
858
100
AcDbEntity
8
0
100
AcDbCircle
10
65.762199940767104
20
-405.83648695240015
30
3.197448268479924e-31
40
1.2499999999999998
210
-3.081487911019578e-33
220
-1.5942506942757938e-46
230
1
0
CIRCLE
5
859
100
AcDbEntity
8
0
100
AcDbCircle
10
103.80919442525854
20
-423.14776502219775
30
-1.7763568394002505e-14
40
1.2499999999999953
210
3.081487911019589e-33
220
1.6220474472607538e-46
230
1
0
CIRCLE
5
860
100
AcDbEntity
8
0
100
AcDbCircle
10
103.80919442525962
20
-443.1424632384668
30
-1.7763568394002505e-14
40
1.2499999999999953
210
3.081487911019589e-33
220
1.6220474472607538e-46
230
1
0
CIRCLE
5
861
100
AcDbEntity
8
0
100
AcDbCircle
10
61.006486183705
20
-427.89511413033563
30
-1.7763568394002505e-14
40
1.2499999999999953
210
3.081487911019589e-33
220
1.6220474472618971e-46
230
1
0
CIRCLE
5
862
100
AcDbEntity
8
0
100
AcDbCircle
10
61.006486183705569
20
-438.39510858370494
30
-1.7763568394002505e-14
40
1.2499999999999953
210
3.081487911019589e-33
220
1.6220474472613606e-46
230
1
0
CIRCLE
5
863
100
AcDbEntity
8
0
100
AcDbCircle
10
7.1755943388576497
20
-427.14511413033819
30
-1.7763568394002505e-14
40
1.2499999999999953
210
3.081487911019589e-33
220
1.6220474472607538e-46
230
1
0
CIRCLE
5
864
100
AcDbEntity
8
0
100
AcDbCircle
10
7.1755975154569356
20
-439.14511241255582
30
-1.7763568394002505e-14
40
1.2499999999999953
210
3.081487911019589e-33
220
1.6220474472607538e-46
230
1
0
CIRCLE
5
865
100
AcDbEntity
8
0
100
AcDbCircle
10
-30.871400145632101
20
-448.08913784427159
30
4.7961724027198863e-31
40
1.2499999999999998
210
-3.081487911019578e-33
220
-1.5942506942757938e-46
230
1
0
CIRCLE
5
866
100
AcDbEntity
8
0
100
AcDbCircle
10
-30.871400145631071
20
-468.08383606054065
30
4.7961724027198863e-31
40
1.2499999999999998
210
-3.081487911019578e-33
220
-1.5942506942757938e-46
230
1
0
CIRCLE
5
867
100
AcDbEntity
8
0
100
AcDbCircle
10
11.931308095922128
20
-452.83649249903351
30
4.7961724027198863e-31
40
1.2499999999999998
210
-3.081487911019578e-33
220
-1.5942506942764006e-46
230
1
0
CIRCLE
5
868
100
AcDbEntity
8
0
100
AcDbCircle
10
11.931308095922661
20
-463.33648695240271
30
4.7961724027198863e-31
40
1.2499999999999998
210
-3.081487911019578e-33
220
-1.5942506942769371e-46
230
1
0
CIRCLE
5
869
100
AcDbEntity
8
0
100
AcDbCircle
10
65.762196764170909
20
-452.08648867018269
30
4.7961724027198863e-31
40
1.2499999999999998
210
-3.081487911019578e-33
220
-1.5942506942757938e-46
230
1
0
CIRCLE
5
870
100
AcDbEntity
8
0
100
AcDbCircle
10
65.762199940770159
20
-464.08648695240032
30
4.7961724027198863e-31
40
1.2499999999999998
210
-3.081487911019578e-33
220
-1.5942506942757938e-46
230
1
0
CIRCLE
5
871
100
AcDbEntity
8
0
100
AcDbCircle
10
103.80919442526162
20
-481.39776502219786
30
-1.7763568394002505e-14
40
1.2499999999999953
210
3.081487911019589e-33
220
1.6220474472607538e-46
230
1
0
CIRCLE
5
872
100
AcDbEntity
8
0
100
AcDbCircle
10
103.80919442526269
20
-501.39246323846692
30
-1.7763568394002505e-14
40
1.2499999999999953
210
3.081487911019589e-33
220
1.6220474472607538e-46
230
1
0
CIRCLE
5
873
100
AcDbEntity
8
0
100
AcDbCircle
10
61.006486183708056
20
-486.14511413033586
30
-1.7763568394002505e-14
40
1.2499999999999953
210
3.081487911019589e-33
220
1.6220474472618971e-46
230
1
0
CIRCLE
5
874
100
AcDbEntity
8
0
100
AcDbCircle
10
61.006486183708624
20
-496.64510858370505
30
-1.7763568394002505e-14
40
1.2499999999999953
210
3.081487911019589e-33
220
1.6220474472613606e-46
230
1
0
CIRCLE
5
875
100
AcDbEntity
8
0
100
AcDbCircle
10
7.1755943388607077
20
-485.39511413033836
30
-1.7763568394002505e-14
40
1.2499999999999953
210
3.081487911019589e-33
220
1.6220474472607538e-46
230
1
0
CIRCLE
5
876
100
AcDbEntity
8
0
100
AcDbCircle
10
7.1755975154599936
20
-497.39511241255599
30
-1.7763568394002505e-14
40
1.2499999999999953
210
3.081487911019589e-33
220
1.6220474472607538e-46
230
1
0
CIRCLE
5
877
100
AcDbEntity
8
0
100
AcDbCircle
10
-30.871400145629039
20
-506.3391378442717
30
6.3948965369598481e-31
40
1.2499999999999998
210
-3.081487911019578e-33
220
-1.5942506942757938e-46
230
1
0
CIRCLE
5
878
100
AcDbEntity
8
0
100
AcDbCircle
10
-30.871400145628009
20
-526.33383606054076
30
6.3948965369598481e-31
40
1.2499999999999998
210
-3.081487911019578e-33
220
-1.5942506942757938e-46
230
1
0
CIRCLE
5
879
100
AcDbEntity
8
0
100
AcDbCircle
10
11.931308095925189
20
-511.08649249903357
30
6.3948965369598481e-31
40
1.2499999999999998
210
-3.081487911019578e-33
220
-1.5942506942764006e-46
230
1
0
CIRCLE
5
880
100
AcDbEntity
8
0
100
AcDbCircle
10
11.931308095925722
20
-521.58648695240288
30
6.3948965369598481e-31
40
1.2499999999999998
210
-3.081487911019578e-33
220
-1.5942506942769371e-46
230
1
0
CIRCLE
5
881
100
AcDbEntity
8
0
100
AcDbCircle
10
65.762196764173964
20
-510.3364886701828
30
6.3948965369598481e-31
40
1.2499999999999998
210
-3.081487911019578e-33
220
-1.5942506942757938e-46
230
1
0
CIRCLE
5
882
100
AcDbEntity
8
0
100
AcDbCircle
10
65.762199940773215
20
-522.33648695240038
30
6.3948965369598481e-31
40
1.2499999999999998
210
-3.081487911019578e-33
220
-1.5942506942757938e-46
230
1
0
ENDSEC
0
SECTION
2
OBJECTS
0
DICTIONARY
5
C
100
AcDbDictionary
3
ACAD_GROUP
350
D
3
ACAD_MLINESTYLE
350
17
0
DICTIONARY
5
D
100
AcDbDictionary
0
DICTIONARY
5
1A
330
C
100
AcDbDictionary
0
DICTIONARY
5
17
100
AcDbDictionary
0
ENDSEC
0
EOF
