0
SECTION
2
HEADER
9
$INSUNITS
70
4
9
$ACADVER
1
AC1014
9
$HANDSEED
5
FFFF
0
ENDSEC
0
SECTION
2
TABLES
0
TABLE
2
VPORT
5
8
100
AcDbSymbolTable
0
ENDTAB
0
TABLE
2
LTYPE
5
5
100
AcDbSymbolTable
0
LTYPE
5
14
100
AcDbSymbolTableRecord
100
AcDbLinetypeTableRecord
2
BYBLOCK
70
0
0
LTYPE
5
15
100
AcDbSymbolTableRecord
100
AcDbLinetypeTableRecord
2
BYLAYER
70
0
0
ENDTAB
0
TABLE
2
LAYER
5
2
100
AcDbSymbolTable
70
2
0
LAYER
5
50
100
AcDbSymbolTableRecord
100
AcDbLayerTableRecord
2
0
70
0
6
CONTINUOUS
0
ENDTAB
0
TABLE
2
STYLE
5
3
100
AcDbSymbolTable
70
1
0
STYLE
5
11
100
AcDbSymbolTableRecord
100
AcDbTextStyleTableRecord
2
STANDARD
70
0
0
ENDTAB
0
TABLE
2
VIEW
5
6
100
AcDbSymbolTable
70
0
0
ENDTAB
0
TABLE
2
UCS
5
7
100
AcDbSymbolTable
70
0
0
ENDTAB
0
TABLE
2
APPID
5
9
100
AcDbSymbolTable
70
2
0
APPID
5
12
100
AcDbSymbolTableRecord
100
AcDbRegAppTableRecord
2
ACAD
70
0
0
ENDTAB
0
TABLE
2
DIMSTYLE
5
A
100
AcDbSymbolTable
70
1
0
ENDTAB
0
TABLE
2
BLOCK_RECORD
5
1
100
AcDbSymbolTable
70
1
0
BLOCK_RECORD
5
1F
100
AcDbSymbolTableRecord
100
AcDbBlockTableRecord
2
*MODEL_SPACE
0
BLOCK_RECORD
5
1B
100
AcDbSymbolTableRecord
100
AcDbBlockTableRecord
2
*PAPER_SPACE
0
ENDTAB
0
ENDSEC
0
SECTION
2
BLOCKS
0
BLOCK
5
20
100
AcDbEntity
100
AcDbBlockBegin
2
*MODEL_SPACE
0
ENDBLK
5
21
100
AcDbEntity
100
AcDbBlockEnd
0
BLOCK
5
1C
100
AcDbEntity
100
AcDbBlockBegin
2
*PAPER_SPACE
0
ENDBLK
5
1D
100
AcDbEntity
100
AcDbBlockEnd
0
ENDSEC
0
SECTION
2
ENTITIES
0
CIRCLE
5
100
100
AcDbEntity
8
0
100
AcDbCircle
10
103.04138494114788
20
-190.51122373677566
30
-1.7763568394002505e-14
40
1.1499999999999986
210
4.3191877714632388e-47
220
-1.2325951644078326e-32
230
1
0
CIRCLE
5
101
100
AcDbEntity
8
0
100
AcDbCircle
10
98.294035833014135
20
-233.31393197832966
30
-1.7763568394002505e-14
40
1.1499999999999986
210
4.3191877715089736e-47
220
-1.2325951644078326e-32
230
1
0
LWPOLYLINE
5
102
100
AcDbEntity
8
0
100
AcDbPolyline
90
25
70
1
43
0.0
10
100.25670889527646
20
-239.92933550062676
42
-0.41421356237309725
10
93.256708895276446
20
-232.92933550062682
10
93.256708895276461
20
-220.92637876709193
42
0.29190970045968989
10
88.62598981726434
20
-213.67048832754253
42
-0.14582094207781976
10
80.988889321932277
20
-206.91357395258024
42
-0.86275995793934923
10
85.017729634300423
20
-203.49285142814412
42
0.64361592075951068
10
98.291347409798249
20
-197.50166374657255
10
98.291347409798504
20
-186.21581084453106
42
-0.49477924554314368
10
98.923292353466366
20
-185.73353443847279
42
0.04861441908226781
10
105.71110208703182
20
-186.89801287576591
42
-0.39306312936047028
10
106.17476009735775
20
-187.39669038657473
10
106.17476009735776
20
-199.5931093592236
42
-0.41421356237310542
10
105.67476009735778
20
-200.09310935922358
10
104.67476009735776
20
-200.09310935922358
10
104.67476009735776
20
-199.09310935922355
10
103.52888474473268
20
-199.09310935922355
10
103.52888474473268
20
-200.09310935922358
10
103.02888474473271
20
-200.09310935922358
42
0.41421356237309509
10
102.02888474473269
20
-201.0931093592236
10
102.02888474473271
20
-233.01863725105804
42
0.41421356237309509
10
103.02888474473271
20
-234.01863725105807
10
103.79138474473507
20
-234.01863725105807
42
-0.41421356237308465
10
104.29138474473504
20
-234.51863725105807
10
104.29138474473453
20
-239.42933550062676
42
-0.41421356237304296
10
103.7913847447345
20
-239.92933550062673
0
CIRCLE
5
103
100
AcDbEntity
8
0
100
AcDbCircle
10
74.041384941147328
20
-190.51122373677515
30
0
40
1.1500000000000008
210
0
220
-0
230
1
0
CIRCLE
5
104
100
AcDbEntity
8
0
100
AcDbCircle
10
69.294035833013581
20
-233.31393197832915
30
1.7763568394002505e-14
40
1.1500000000000008
210
0
220
-0
230
1
0
LWPOLYLINE
5
105
100
AcDbEntity
8
0
100
AcDbPolyline
90
25
70
1
43
0.0
10
71.256708895275906
20
-239.92933550062631
42
-0.41421356237309875
10
64.256708895275906
20
-232.92933550062631
10
64.256708895275921
20
-220.92637876709145
42
0.29190970045968989
10
59.625989817263793
20
-213.67048832754205
42
-0.14582094207781568
10
51.988889321931765
20
-206.91357395257972
42
-0.86275995793934523
10
56.017729634299862
20
-203.49285142814364
42
0.64361592075951335
10
69.291347409797694
20
-197.50166374657204
10
69.291347409797922
20
-186.21581084453055
42
-0.49477924554317648
10
69.923292353465811
20
-185.73353443847225
42
0.048614419082247208
10
76.711102087031264
20
-186.89801287576529
42
-0.39306312936043741
10
77.174760097357193
20
-187.39669038657416
10
77.174760097357279
20
-199.59310935922304
42
-0.4142135623730222
10
76.674760097357222
20
-200.09310935922309
10
75.674760097357208
20
-200.09310935922309
10
75.674760097357208
20
-199.09310935922306
10
74.528884744732125
20
-199.09310935922306
10
74.528884744732125
20
-200.09310935922309
10
74.028884744732153
20
-200.09310935922309
42
0.41421356237309509
10
73.028884744732139
20
-201.09310935922309
10
73.028884744732153
20
-233.01863725105761
42
0.41421356237309509
10
74.028884744732153
20
-234.01863725105761
10
74.791384744734515
20
-234.01863725105758
42
-0.41421356237314189
10
75.291384744734486
20
-234.51863725105764
10
75.291384744733961
20
-239.42933550062631
42
-0.41421356237309509
10
74.791384744733946
20
-239.92933550062631
0
CIRCLE
5
106
100
AcDbEntity
8
0
100
AcDbCircle
10
45.041384941147342
20
-190.51122373677737
30
1.7763568394002505e-14
40
1.1500000000000008
210
0
220
-0
230
1
0
CIRCLE
5
107
100
AcDbEntity
8
0
100
AcDbCircle
10
40.294035833013595
20
-233.31393197833142
30
1.7763568394002505e-14
40
1.1500000000000008
210
0
220
-0
230
1
0
LWPOLYLINE
5
108
100
AcDbEntity
8
0
100
AcDbPolyline
90
25
70
1
43
0.0
10
42.256708895275921
20
-239.92933550062855
42
-0.41421356237309725
10
35.256708895275921
20
-232.92933550062858
10
35.256708895275928
20
-220.92637876709364
42
0.29190970045968889
10
30.625989817263818
20
-213.67048832754426
42
-0.14582094207781546
10
22.988889321931762
20
-206.91357395258194
42
-0.8627599579393469
10
27.017729634299879
20
-203.49285142814583
42
0.64361592075951046
10
40.291347409797709
20
-197.50166374657425
10
40.291347409797986
20
-186.21581084453277
42
-0.49477924554318231
10
40.923292353465825
20
-185.73353443847449
42
0.048614419082247638
10
47.711102087031279
20
-186.89801287576756
42
-0.39306312936043741
10
48.174760097357208
20
-187.39669038657644
10
48.174760097357222
20
-199.59310935922531
42
-0.4142135623730222
10
47.674760097357236
20
-200.09310935922528
10
46.674760097357222
20
-200.09310935922528
10
46.674760097357222
20
-199.09310935922525
10
45.528884744732139
20
-199.09310935922525
10
45.528884744732139
20
-200.09310935922528
10
45.028884744732167
20
-200.09310935922528
42
0.41421356237309509
10
44.028884744732153
20
-201.09310935922531
10
44.028884744732167
20
-233.01863725105983
42
0.41421356237309509
10
45.028884744732167
20
-234.01863725105983
10
45.791384744734529
20
-234.0186372510598
42
-0.41421356237318346
10
46.291384744734501
20
-234.51863725105991
10
46.291384744733968
20
-239.4293355006285
42
-0.41421356237309509
10
45.791384744733961
20
-239.9293355006285
0
LWPOLYLINE
5
109
100
AcDbEntity
8
0
100
AcDbPolyline
90
25
70
1
43
0.0
10
61.975501870427969
20
-193.27117735708913
42
-0.41421356237309431
10
54.975501870427991
20
-200.27117735708916
10
51.440826020969936
20
-200.27117735708924
42
-0.41421356237309509
10
50.940826020969901
20
-199.77117735708919
10
50.940826020969396
20
-194.86047910752049
42
-0.4142135623730534
10
51.440826020969368
20
-194.36047910752052
10
52.20332602097173
20
-194.36047910752052
42
0.41421356237310542
10
53.203326020971751
20
-193.36047910752046
10
53.203326020971659
20
-161.434951215686
42
0.41421356237309509
10
52.203326020971659
20
-160.43495121568597
10
51.703326020971687
20
-160.43495121568597
10
51.703326020971687
20
-159.43495121568597
10
50.557450668346604
20
-159.43495121568594
10
50.557450668346604
20
-160.43495121568597
10
49.55745066834659
20
-160.43495121568597
42
-0.41421356237311063
10
49.057450668346583
20
-159.93495121568597
10
49.05745066834654
20
-147.73853224303713
42
-0.39306312936046067
10
49.521108678672512
20
-147.23985473222828
42
0.048614419082237119
10
56.308918412237887
20
-146.07537629493498
42
-0.49477924554316305
10
56.940863355905947
20
-146.55765270099343
10
56.940863355905975
20
-157.84350560298418
42
0.64361592076175467
10
70.214481131320795
20
-163.83469328451156
42
-0.8627599579393469
10
74.243321443879182
20
-167.25541580910925
42
-0.14582094207782653
10
66.606220948493132
20
-174.01233018411918
42
0.29190970045969089
10
61.97550187042804
20
-181.26822062355433
0
CIRCLE
5
110
100
AcDbEntity
8
0
100
AcDbCircle
10
56.938174932690302
20
-193.65577383479206
30
0
40
1.1499999999999999
210
-1.9259299443872367e-34
220
-5.0782529491693969e-49
230
1
0
CIRCLE
5
111
100
AcDbEntity
8
0
100
AcDbCircle
10
52.190825824556484
20
-150.85306559323806
30
0
40
1.1499999999999999
210
-1.9259299443872367e-34
220
-5.0782529492408583e-49
230
1
0
LWPOLYLINE
5
112
100
AcDbEntity
8
0
100
AcDbPolyline
90
25
70
1
43
0.0
10
90.975501870428104
20
-193.27117735708913
42
-0.41421356237309431
10
83.975501870428118
20
-200.27117735708916
10
80.440826020970064
20
-200.27117735708919
42
-0.41421356237306384
10
79.940826020970036
20
-199.77117735708919
10
79.940826020969524
20
-194.86047910752049
42
-0.41421356237309509
10
80.440826020969496
20
-194.36047910752052
10
81.203326020971858
20
-194.36047910752052
42
0.41421356237310542
10
82.203326020971886
20
-193.36047910752046
10
82.203326020971787
20
-161.434951215686
42
0.41421356237309509
10
81.203326020971787
20
-160.43495121568597
10
80.703326020971815
20
-160.43495121568597
10
80.703326020971815
20
-159.43495121568597
10
79.557450668346732
20
-159.43495121568594
10
79.557450668346732
20
-160.43495121568597
10
78.557450668346718
20
-160.43495121568597
42
-0.41421356237311063
10
78.057450668346718
20
-159.93495121568597
10
78.057450668346661
20
-147.73853224303713
42
-0.39306312936046067
10
78.521108678672647
20
-147.23985473222828
42
0.048614419082236827
10
85.308918412238
20
-146.07537629493498
42
-0.49477924554316832
10
85.94086335590606
20
-146.55765270099343
10
85.940863355906117
20
-157.84350560298418
42
0.64361592076175766
10
99.214481131320923
20
-163.83469328451156
42
-0.86275995793934668
10
103.24332144387931
20
-167.25541580910925
42
-0.14582094207782634
10
95.606220948493274
20
-174.01233018411918
42
0.29190970045969122
10
90.975501870428161
20
-181.26822062355433
0
CIRCLE
5
113
100
AcDbEntity
8
0
100
AcDbCircle
10
85.93817493269043
20
-193.65577383479206
30
0
40
1.1499999999999999
210
-1.9259299443872367e-34
220
-5.0782529491693954e-49
230
1
0
CIRCLE
5
114
100
AcDbEntity
8
0
100
AcDbCircle
10
81.190825824556612
20
-150.85306559323806
30
0
40
1.1499999999999999
210
-1.9259299443872367e-34
220
-5.0782529492408567e-49
230
1
0
CIRCLE
5
115
100
AcDbEntity
8
0
100
AcDbCircle
10
103.0413849411471
20
-111.51122373677458
30
1.7763568394002505e-14
40
1.1500000000000015
210
0
220
-0
230
1
0
CIRCLE
5
116
100
AcDbEntity
8
0
100
AcDbCircle
10
98.294035833013353
20
-154.31393197832864
30
1.7763568394002505e-14
40
1.1500000000000015
210
0
220
-0
230
1
0
LWPOLYLINE
5
117
100
AcDbEntity
8
0
100
AcDbPolyline
90
25
70
1
43
0.0
10
100.25670889527568
20
-160.92933550062577
42
-0.41421356237309059
10
93.256708895275693
20
-153.92933550062577
10
93.256708895275693
20
-141.92637876709091
42
0.29190970045968989
10
88.625989817263573
20
-134.67048832754151
42
-0.14582094207781487
10
80.988889321931495
20
-127.91357395257918
42
-0.86275995793934346
10
85.017729634299641
20
-124.49285142814306
42
0.64361592075951102
10
98.291347409797467
20
-118.5016637465715
10
98.291347409797666
20
-107.21581084452998
42
-0.49477924554314567
10
98.923292353465584
20
-106.73353443847165
42
0.048614419082230492
10
105.71110208703104
20
-107.89801287576481
42
-0.39306312936047094
10
106.17476009735697
20
-108.39669038657362
10
106.17476009735699
20
-120.5931093592225
42
-0.41421356237307422
10
105.67476009735699
20
-121.09310935922251
10
104.67476009735698
20
-121.09310935922251
10
104.67476009735698
20
-120.0931093592225
10
103.5288847447319
20
-120.0931093592225
10
103.5288847447319
20
-121.09310935922251
10
103.02888474473193
20
-121.09310935922252
42
0.41421356237308982
10
102.02888474473191
20
-122.0931093592225
10
102.02888474473193
20
-154.01863725105704
42
0.41421356237309509
10
103.02888474473193
20
-155.01863725105704
10
103.79138474473429
20
-155.01863725105707
42
-0.41421356237313667
10
104.29138474473426
20
-155.51863725105716
10
104.29138474473375
20
-160.42933550062577
42
-0.41421356237304296
10
103.79138474473372
20
-160.92933550062577
0
CIRCLE
5
118
100
AcDbEntity
8
0
100
AcDbCircle
10
74.041384941147399
20
-111.51122373677468
30
0
40
1.1500000000000015
210
0
220
-0
230
1
0
CIRCLE
5
119
100
AcDbEntity
8
0
100
AcDbCircle
10
69.294035833013652
20
-154.31393197832872
30
0
40
1.1500000000000015
210
0
220
-0
230
1
0
LWPOLYLINE
5
120
100
AcDbEntity
8
0
100
AcDbPolyline
90
25
70
1
43
0.0
10
71.256708895275978
20
-160.92933550062585
42
-0.41421356237309392
10
64.256708895275978
20
-153.92933550062588
10
64.256708895275978
20
-141.92637876709102
42
0.29190970045968956
10
59.625989817263871
20
-134.67048832754162
42
-0.14582094207781443
10
51.988889321931808
20
-127.91357395257931
42
-0.86275995793934812
10
56.01772963429994
20
-124.49285142814317
42
0.64361592075951102
10
69.291347409797766
20
-118.50166374657161
10
69.29134740979795
20
-107.21581084453008
42
-0.49477924554317032
10
69.923292353465897
20
-106.73353443847176
42
0.048614419082230922
10
76.711102087031335
20
-107.89801287576492
42
-0.39306312936043081
10
77.174760097357264
20
-108.39669038657374
10
77.174760097357307
20
-120.59310935922261
42
-0.41421356237307422
10
76.674760097357293
20
-121.09310935922261
10
75.674760097357279
20
-121.09310935922261
10
75.674760097357279
20
-120.09310935922259
10
74.528884744732196
20
-120.09310935922259
10
74.528884744732196
20
-121.09310935922261
10
74.028884744732224
20
-121.09310935922264
42
0.41421356237308982
10
73.02888474473221
20
-122.09310935922261
10
73.028884744732224
20
-154.01863725105716
42
0.41421356237309509
10
74.028884744732224
20
-155.01863725105716
10
74.791384744734586
20
-155.01863725105716
42
-0.41421356237314189
10
75.291384744734557
20
-155.51863725105721
10
75.291384744734017
20
-160.42933550062588
42
-0.41421356237309509
10
74.791384744734017
20
-160.92933550062588
0
LWPOLYLINE
5
121
100
AcDbEntity
8
0
100
AcDbPolyline
90
25
70
1
43
0.0
10
90.975501870428019
20
-114.27117735708897
42
-0.41421356237309576
10
83.975501870428047
20
-121.27117735708896
10
80.440826020969993
20
-121.271177357089
42
-0.41421356237306384
10
79.940826020969965
20
-120.77117735708899
10
79.940826020969439
20
-115.86047910752032
42
-0.4142135623731471
10
80.440826020969425
20
-115.36047910752032
10
81.203326020971787
20
-115.36047910752031
42
0.41421356237309509
10
82.203326020971815
20
-114.36047910752031
10
82.203326020971716
20
-82.434951215685828
42
0.41421356237309509
10
81.203326020971716
20
-81.4349512156858
10
80.703326020971744
20
-81.4349512156858
10
80.703326020971744
20
-80.4349512156858
10
79.557450668346661
20
-80.4349512156858
10
79.557450668346661
20
-81.4349512156858
10
78.557450668346647
20
-81.434951215685828
42
-0.41421356237310542
10
78.057450668346632
20
-80.9349512156858
10
78.05745066834659
20
-68.738532243036943
42
-0.39306312936047061
10
78.521108678672562
20
-68.239854732228082
42
0.048614419082236827
10
85.308918412237915
20
-67.075376294934799
42
-0.49477924554314634
10
85.940863355906004
20
-67.557652700993245
10
85.940863355906046
20
-78.843505602984024
42
0.64361592076175345
10
99.214481131320852
20
-84.834693284511417
42
-0.86275995793934268
10
103.24332144387924
20
-88.255415809109067
42
-0.14582094207782634
10
95.606220948493203
20
-95.012330184119008
42
0.29190970045969028
10
90.975501870428104
20
-102.26822062355413
0
CIRCLE
5
122
100
AcDbEntity
8
0
100
AcDbCircle
10
85.938174932690359
20
-114.65577383479186
30
0
40
1.1499999999999999
210
-3.4211388292901516e-49
220
-1.2325951644078309e-32
230
1
0
CIRCLE
5
123
100
AcDbEntity
8
0
100
AcDbCircle
10
81.190825824556541
20
-71.853065593237886
30
0
40
1.1499999999999999
210
-3.4211388247166406e-49
220
-1.2325951644078309e-32
230
1
0
LWPOLYLINE
5
124
100
AcDbEntity
8
0
100
AcDbPolyline
90
25
70
1
43
0.0
10
61.975501870427827
20
-114.27117735708897
42
-0.41421356237309576
10
54.975501870427848
20
-121.27117735708896
10
51.440826020969794
20
-121.271177357089
42
-0.41421356237307422
10
50.940826020969759
20
-120.77117735708899
10
50.940826020969254
20
-115.86047910752032
42
-0.41421356237311585
10
51.440826020969226
20
-115.36047910752032
10
52.203326020971588
20
-115.36047910752031
42
0.41421356237309509
10
53.203326020971609
20
-114.36047910752031
10
53.203326020971517
20
-82.434951215685828
42
0.41421356237309509
10
52.203326020971517
20
-81.4349512156858
10
51.703326020971545
20
-81.4349512156858
10
51.703326020971545
20
-80.4349512156858
10
50.557450668346462
20
-80.4349512156858
10
50.557450668346462
20
-81.4349512156858
10
49.557450668346448
20
-81.434951215685828
42
-0.41421356237310542
10
49.057450668346441
20
-80.9349512156858
10
49.057450668346398
20
-68.738532243036943
42
-0.39306312936047061
10
49.52110867867237
20
-68.239854732228082
42
0.048614419082237119
10
56.308918412237745
20
-67.075376294934827
42
-0.49477924554312441
10
56.940863355905805
20
-67.557652700993245
10
56.940863355905833
20
-78.843505602984024
42
0.643615920761752
10
70.214481131320682
20
-84.834693284511417
42
-0.86275995793934268
10
74.24332144387904
20
-88.255415809109067
42
-0.14582094207782653
10
66.606220948492989
20
-95.012330184119008
42
0.29190970045969
10
61.975501870427898
20
-102.26822062355413
0
CIRCLE
5
125
100
AcDbEntity
8
0
100
AcDbCircle
10
56.93817493269016
20
-114.65577383479186
30
0
40
1.1499999999999999
210
-3.4211388292901516e-49
220
-1.2325951644078309e-32
230
1
0
CIRCLE
5
126
100
AcDbEntity
8
0
100
AcDbCircle
10
52.190825824556342
20
-71.853065593237886
30
0
40
1.1499999999999999
210
-3.4211388247166406e-49
220
-1.2325951644078309e-32
230
1
0
LWPOLYLINE
5
127
100
AcDbEntity
8
0
100
AcDbPolyline
90
25
70
1
43
0.0
10
32.975501870427706
20
-114.27117735709125
42
-0.41421356237309442
10
25.975501870427724
20
-121.27117735709123
10
22.440826020969666
20
-121.27117735709128
42
-0.41421356237308465
10
21.940826020969638
20
-120.77117735709126
10
21.940826020969126
20
-115.86047910752259
42
-0.41421356237311585
10
22.440826020969098
20
-115.36047910752259
10
23.203326020971463
20
-115.36047910752258
42
0.4142135623730937
10
24.203326020971488
20
-114.36047910752258
10
24.203326020971389
20
-82.434951215688102
42
0.41421356237309509
10
23.203326020971389
20
-81.434951215688073
10
22.703326020971421
20
-81.434951215688073
10
22.703326020971417
20
-80.434951215688073
10
21.557450668346331
20
-80.434951215688073
10
21.557450668346334
20
-81.434951215688073
10
20.55745066834632
20
-81.434951215688102
42
-0.41421356237310542
10
20.057450668346309
20
-80.934951215688073
10
20.057450668346274
20
-68.738532243039216
42
-0.39306312936048043
10
20.521108678672245
20
-68.23985473223037
42
0.048614419082237834
10
27.308918412237617
20
-67.075376294937101
42
-0.49477924554313674
10
27.940863355905673
20
-67.557652700995519
10
27.940863355905709
20
-78.843505602986298
42
0.643615920761753
10
41.214481131320547
20
-84.834693284513691
42
-0.86275995793934268
10
45.243321443878912
20
-88.255415809111341
42
-0.14582094207782653
10
37.606220948492862
20
-95.012330184121282
42
0.29190970045969
10
32.975501870427777
20
-102.2682206235564
0
CIRCLE
5
128
100
AcDbEntity
8
0
100
AcDbCircle
10
27.938174932690032
20
-114.65577383479413
30
0
40
1.1499999999999999
210
-3.4211388292906758e-49
220
-1.2325951644078309e-32
230
1
0
CIRCLE
5
129
100
AcDbEntity
8
0
100
AcDbCircle
10
23.190825824556214
20
-71.85306559324016
30
0
40
1.1499999999999999
210
-3.4211388247171648e-49
220
-1.2325951644078309e-32
230
1
0
CIRCLE
5
130
100
AcDbEntity
8
0
100
AcDbCircle
10
45.041384941147271
20
-111.51122373677691
30
0
40
1.1500000000000015
210
-4.3191877714632349e-47
220
1.2325951644078293e-32
230
1
0
CIRCLE
5
131
100
AcDbEntity
8
0
100
AcDbCircle
10
40.294035833013524
20
-154.31393197833097
30
0
40
1.1500000000000015
210
-4.3191877715089697e-47
220
1.2325951644078293e-32
230
1
0
LWPOLYLINE
5
132
100
AcDbEntity
8
0
100
AcDbPolyline
90
25
70
1
43
0.0
10
42.25670889527585
20
-160.92933550062807
42
-0.41421356237309509
10
35.25670889527585
20
-153.9293355006281
10
35.25670889527585
20
-141.92637876709324
42
0.29190970045968956
10
30.625989817263758
20
-134.67048832754381
42
-0.14582094207781443
10
22.988889321931708
20
-127.91357395258153
42
-0.862759957939359
10
27.017729634299812
20
-124.49285142814539
42
0.64361592075951102
10
40.291347409797638
20
-118.50166374657383
10
40.291347409797822
20
-107.21581084453231
42
-0.49477924554317032
10
40.923292353465762
20
-106.73353443847398
42
0.048614419082234232
10
47.711102087031207
20
-107.89801287576711
42
-0.39306312936042564
10
48.174760097357137
20
-108.39669038657595
10
48.174760097357151
20
-120.59310935922483
42
-0.41421356237310542
10
47.674760097357165
20
-121.09310935922483
10
46.674760097357151
20
-121.09310935922483
10
46.674760097357151
20
-120.09310935922483
10
45.528884744732068
20
-120.09310935922483
10
45.528884744732068
20
-121.09310935922483
10
45.028884744732096
20
-121.09310935922485
42
0.41421356237309509
10
44.028884744732082
20
-122.09310935922485
10
44.028884744732096
20
-154.01863725105937
42
0.41421356237309509
10
45.028884744732096
20
-155.01863725105937
10
45.791384744734458
20
-155.01863725105937
42
-0.41421356237316787
10
46.29138474473443
20
-155.51863725105946
10
46.291384744733897
20
-160.4293355006281
42
-0.41421356237309509
10
45.79138474473389
20
-160.9293355006281
0
CIRCLE
5
133
100
AcDbEntity
8
0
100
AcDbCircle
10
16.041384941147285
20
-111.51122373677687
30
0
40
1.1500000000000015
210
-4.3191877714632349e-47
220
1.2325951644078293e-32
230
1
0
CIRCLE
5
134
100
AcDbEntity
8
0
100
AcDbCircle
10
11.294035833013538
20
-154.31393197833091
30
0
40
1.1500000000000015
210
-4.3191877715089697e-47
220
1.2325951644078293e-32
230
1
0
LWPOLYLINE
5
135
100
AcDbEntity
8
0
100
AcDbPolyline
90
25
70
1
43
0.0
10
13.256708895275866
20
-160.92933550062804
42
-0.41421356237309509
10
6.2567088952758656
20
-153.92933550062804
10
6.2567088952758656
20
-141.92637876709318
42
0.29190970045968967
10
1.6259898172637699
20
-134.67048832754381
42
-0.14582094207781512
10
-6.0111106780682997
20
-127.91357395258147
42
-0.86275995793935156
10
-1.9822703657001772
20
-124.49285142814534
42
0.64361592075951102
10
11.291347409797652
20
-118.50166374657378
10
11.291347409797851
20
-107.21581084453227
42
-0.4947792455431676
10
11.923292353465779
20
-106.73353443847395
42
0.048614419082234524
10
18.711102087031222
20
-107.89801287576709
42
-0.39306312936042948
10
19.174760097357151
20
-108.39669038657591
10
19.174760097357172
20
-120.5931093592248
42
-0.41421356237310675
10
18.674760097357179
20
-121.0931093592248
10
17.674760097357165
20
-121.0931093592248
10
17.674760097357165
20
-120.09310935922478
10
16.528884744732082
20
-120.09310935922478
10
16.528884744732082
20
-121.0931093592248
10
16.02888474473211
20
-121.09310935922481
42
0.41421356237309509
10
15.028884744732096
20
-122.09310935922481
10
15.02888474473211
20
-154.01863725105932
42
0.41421356237309509
10
16.02888474473211
20
-155.01863725105935
10
16.791384744734472
20
-155.01863725105932
42
-0.41421356237316659
10
17.291384744734444
20
-155.51863725105943
10
17.291384744733946
20
-160.42933550062804
42
-0.41421356237307422
10
16.791384744733904
20
-160.92933550062807
0
LWPOLYLINE
5
136
100
AcDbEntity
8
0
100
AcDbPolyline
90
25
70
1
43
0.0
10
3.9755018704277214
20
-114.27117735709125
42
-0.41421356237309448
10
-3.0244981295722599
20
-121.27117735709123
10
-6.5591739790303185
20
-121.27117735709126
42
-0.41421356237307422
10
-7.0591739790303487
20
-120.77117735709126
10
-7.059173979030863
20
-115.86047910752259
42
-0.41421356237311779
10
-6.5591739790308878
20
-115.36047910752259
10
-5.7966739790285242
20
-115.36047910752258
42
0.41421356237309437
10
-4.7966739790284985
20
-114.36047910752258
10
-4.7966739790285979
20
-82.434951215688102
42
0.41421356237309509
10
-5.796673979028597
20
-81.434951215688073
10
-6.2966739790285668
20
-81.434951215688073
10
-6.2966739790285686
20
-80.434951215688073
10
-7.4425493316536535
20
-80.434951215688073
10
-7.4425493316536517
20
-81.434951215688073
10
-8.4425493316536642
20
-81.434951215688102
42
-0.41421356237310675
10
-8.9425493316536766
20
-80.934951215688073
10
-8.9425493316537139
20
-68.738532243039216
42
-0.39306312936048043
10
-8.4788913213277404
20
-68.23985473223037
42
0.048614419082237695
10
-1.6910815877623706
20
-67.075376294937101
42
-0.49477924554314434
10
-1.0591366440943104
20
-67.557652700995519
10
-1.0591366440942762
20
-78.843505602986298
42
0.643615920761752
10
12.214481131320555
20
-84.834693284513691
42
-0.86275995793934268
10
16.243321443878923
20
-88.255415809111341
42
-0.14582094207782645
10
8.6062209484928811
20
-95.012330184121282
42
0.29190970045969017
10
3.9755018704277885
20
-102.2682206235564
0
CIRCLE
5
137
100
AcDbEntity
8
0
100
AcDbCircle
10
-1.0618250673099539
20
-114.65577383479413
30
0
40
1.1499999999999999
210
-3.4211388292906758e-49
220
-1.2325951644078309e-32
230
1
0
CIRCLE
5
138
100
AcDbEntity
8
0
100
AcDbCircle
10
-5.809174175443772
20
-71.85306559324016
30
0
40
1.1499999999999999
210
-3.4211388247171648e-49
220
-1.2325951644078309e-32
230
1
0
LWPOLYLINE
5
139
100
AcDbEntity
8
0
100
AcDbPolyline
90
25
70
1
43
0.0
10
32.975501870427799
20
-193.27117735709146
42
-0.41421356237309259
10
25.975501870427795
20
-200.27117735709143
10
22.440826020969737
20
-200.27117735709152
42
-0.41421356237309509
10
21.940826020969709
20
-199.77117735709146
10
21.94082602096919
20
-194.86047910752279
42
-0.41421356237307944
10
22.440826020969169
20
-194.36047910752279
10
23.203326020971534
20
-194.36047910752279
42
0.41421356237310414
10
24.203326020971559
20
-193.36047910752274
10
24.20332602097146
20
-161.43495121568827
42
0.41421356237309509
10
23.20332602097146
20
-160.43495121568824
10
22.703326020971492
20
-160.43495121568824
10
22.703326020971488
20
-159.43495121568824
10
21.557450668346402
20
-159.43495121568822
10
21.557450668346405
20
-160.43495121568824
10
20.557450668346391
20
-160.43495121568824
42
-0.41421356237310542
10
20.05745066834638
20
-159.93495121568824
10
20.057450668346348
20
-147.7385322430394
42
-0.39306312936047794
10
20.521108678672316
20
-147.23985473223055
42
0.048614419082237986
10
27.308918412237691
20
-146.07537629493729
42
-0.49477924554315461
10
27.940863355905744
20
-146.5576527009957
10
27.94086335590578
20
-157.84350560298645
42
0.643615920761756
10
41.214481131320603
20
-163.83469328451383
42
-0.8627599579393469
10
45.243321443878983
20
-167.25541580911153
42
-0.14582094207782653
10
37.606220948492933
20
-174.01233018412145
42
0.29190970045969089
10
32.975501870427848
20
-181.2682206235566
0
CIRCLE
5
140
100
AcDbEntity
8
0
100
AcDbCircle
10
27.938174932690103
20
-193.65577383479433
30
0
40
1.1499999999999999
210
-1.9259299443872401e-34
220
-1.2325951644078309e-32
230
1
0
CIRCLE
5
141
100
AcDbEntity
8
0
100
AcDbCircle
10
23.190825824556285
20
-150.85306559324033
30
0
40
1.1499999999999999
210
-1.9259299443872401e-34
220
-1.2325951644078309e-32
230
1
0
LWPOLYLINE
5
142
100
AcDbEntity
8
0
100
AcDbPolyline
90
25
70
1
43
0.0
10
3.9755018704277836
20
-193.27117735709146
42
-0.4142135623730942
10
-3.0244981295721889
20
-200.27117735709143
10
-6.5591739790302475
20
-200.27117735709152
42
-0.41421356237309509
10
-7.0591739790302777
20
-199.77117735709146
10
-7.0591739790307964
20
-194.86047910752279
42
-0.41421356237307883
10
-6.5591739790308168
20
-194.36047910752279
10
-5.7966739790284532
20
-194.36047910752279
42
0.4142135623731048
10
-4.7966739790284274
20
-193.36047910752274
10
-4.7966739790285269
20
-161.43495121568827
42
0.41421356237309509
10
-5.796673979028526
20
-160.43495121568824
10
-6.2966739790284958
20
-160.43495121568824
10
-6.2966739790284976
20
-159.43495121568824
10
-7.4425493316535825
20
-159.43495121568822
10
-7.4425493316535807
20
-160.43495121568824
10
-8.4425493316535931
20
-160.43495121568824
42
-0.4142135623731048
10
-8.9425493316536055
20
-159.93495121568824
10
-8.9425493316536535
20
-147.7385322430394
42
-0.39306312936046711
10
-8.4788913213276693
20
-147.23985473223055
42
0.048614419082237695
10
-1.6910815877623016
20
-146.07537629493729
42
-0.49477924554316793
10
-1.0591366440942394
20
-146.5576527009957
10
-1.0591366440942085
20
-157.84350560298645
42
0.643615920761756
10
12.214481131320611
20
-163.83469328451386
42
-0.86275995793934712
10
16.243321443878994
20
-167.25541580911153
42
-0.14582094207782645
10
8.6062209484929539
20
-174.01233018412145
42
0.29190970045969111
10
3.9755018704278595
20
-181.2682206235566
0
CIRCLE
5
143
100
AcDbEntity
8
0
100
AcDbCircle
10
-1.0618250673098828
20
-193.65577383479433
30
0
40
1.1499999999999999
210
-1.9259299443872401e-34
220
-1.2325951644078309e-32
230
1
0
CIRCLE
5
144
100
AcDbEntity
8
0
100
AcDbCircle
10
-5.809174175443701
20
-150.85306559324033
30
0
40
1.1499999999999999
210
-1.9259299443872401e-34
220
-1.2325951644078309e-32
230
1
0
CIRCLE
5
145
100
AcDbEntity
8
0
100
AcDbCircle
10
16.041384941147285
20
-190.51122373677731
30
0
40
1.1500000000000008
210
4.319187771463232e-47
220
-1.2325951644078301e-32
230
1
0
CIRCLE
5
146
100
AcDbEntity
8
0
100
AcDbCircle
10
11.294035833013538
20
-233.31393197833137
30
0
40
1.1500000000000008
210
4.3191877715089668e-47
220
-1.2325951644078301e-32
230
1
0
LWPOLYLINE
5
147
100
AcDbEntity
8
0
100
AcDbPolyline
90
25
70
1
43
0.0
10
13.256708895275866
20
-239.92933550062847
42
-0.41421356237309703
10
6.2567088952758612
20
-232.92933550062853
10
6.25670889527587
20
-220.92637876709361
42
0.29190970045968934
10
1.6259898172637599
20
-213.67048832754423
42
-0.14582094207781546
10
-6.0111106780682935
20
-206.91357395258191
42
-0.86275995793934568
10
-1.9822703657001806
20
-203.4928514281458
42
0.64361592075951091
10
11.291347409797652
20
-197.50166374657422
10
11.291347409797881
20
-186.21581084453271
42
-0.4947792455431832
10
11.923292353465772
20
-185.73353443847441
42
0.048614419082241588
10
18.711102087031225
20
-186.89801287576751
42
-0.39306312936043719
10
19.174760097357151
20
-187.39669038657638
10
19.174760097357208
20
-199.59310935922525
42
-0.41421356237302348
10
18.674760097357179
20
-200.09310935922525
10
17.674760097357165
20
-200.09310935922525
10
17.674760097357165
20
-199.09310935922522
10
16.528884744732082
20
-199.09310935922522
10
16.528884744732082
20
-200.09310935922525
10
16.02888474473211
20
-200.09310935922525
42
0.41421356237309509
10
15.028884744732096
20
-201.09310935922525
10
15.02888474473211
20
-233.01863725105977
42
0.41421356237309509
10
16.02888474473211
20
-234.0186372510598
10
16.791384744734472
20
-234.0186372510598
42
-0.41421356237313273
10
17.291384744734444
20
-234.51863725105983
10
17.291384744733946
20
-239.42933550062847
42
-0.41421356237307289
10
16.791384744733907
20
-239.92933550062847
0
CIRCLE
5
148
100
AcDbEntity
8
0
100
AcDbCircle
10
-12.958615058852629
20
-190.51122373677771
30
0
40
1.1500000000000015
210
1.2957563314389693e-46
220
-3.6977854932234879e-32
230
1
0
CIRCLE
5
149
100
AcDbEntity
8
0
100
AcDbCircle
10
-17.705964166986377
20
-233.31393197833177
30
0
40
1.1500000000000015
210
1.2957563314526898e-46
220
-3.6977854932234879e-32
230
1
0
LWPOLYLINE
5
150
100
AcDbEntity
8
0
100
AcDbPolyline
90
25
70
1
43
0.0
10
-15.743291104724049
20
-239.92933550062887
42
-0.41421356237309415
10
-22.743291104724051
20
-232.92933550062889
10
-22.743291104724044
20
-220.92637876709404
42
0.29190970045968956
10
-27.374010182736139
20
-213.67048832754463
42
-0.14582094207781646
10
-35.011110678068206
20
-206.91357395258228
42
-0.8627599579393469
10
-30.982270365700092
20
-203.4928514281462
42
0.64361592075951046
10
-17.708652590202263
20
-197.50166374657459
10
-17.708652590202057
20
-186.21581084453311
42
-0.49477924554314995
10
-17.076707646534143
20
-185.73353443847481
42
0.048614419082237834
10
-10.288897912968689
20
-186.89801287576788
42
-0.39306312936043847
10
-9.8252399026427639
20
-187.39669038657678
10
-9.8252399026427568
20
-199.59310935922562
42
-0.4142135623730781
10
-10.325239902642736
20
-200.09310935922565
10
-11.32523990264275
20
-200.09310935922565
10
-11.32523990264275
20
-199.09310935922562
10
-12.471115255267833
20
-199.09310935922562
10
-12.471115255267833
20
-200.09310935922565
10
-12.971115255267804
20
-200.09310935922565
42
0.41421356237309509
10
-13.971115255267819
20
-201.09310935922565
10
-13.971115255267804
20
-233.01863725106017
42
0.41421356237309509
10
-12.971115255267804
20
-234.01863725106017
10
-12.208615255265443
20
-234.01863725106014
42
-0.4142135623731848
10
-11.708615255265471
20
-234.51863725106026
10
-11.708615255265968
20
-239.42933550062889
42
-0.41421356237307289
10
-12.208615255266009
20
-239.92933550062889
0
LWPOLYLINE
5
151
100
AcDbEntity
8
0
100
AcDbPolyline
90
25
70
1
43
0.0
10
-25.02449812957224
20
-193.27117735709203
42
-0.41421356237309259
10
-32.024498129572251
20
-200.271177357092
10
-35.559173979030305
20
-200.27117735709209
42
-0.41421356237309509
10
-36.059173979030334
20
-199.77117735709203
10
-36.059173979030852
20
-194.86047910752336
42
-0.41421356237307944
10
-35.559173979030874
20
-194.36047910752336
10
-34.796673979028505
20
-194.36047910752336
42
0.41421356237310414
10
-33.796673979028483
20
-193.3604791075233
10
-33.796673979028583
20
-161.43495121568884
42
0.41421356237309509
10
-34.796673979028583
20
-160.43495121568881
10
-35.296673979028547
20
-160.43495121568881
10
-35.296673979028554
20
-159.43495121568881
10
-36.442549331653645
20
-159.43495121568878
10
-36.442549331653638
20
-160.43495121568881
10
-37.442549331653652
20
-160.43495121568881
42
-0.41421356237310542
10
-37.942549331653666
20
-159.93495121568881
10
-37.942549331653694
20
-147.73853224303997
42
-0.39306312936047533
10
-37.47889132132773
20
-147.23985473223112
42
0.048614419082237258
10
-30.691081587762351
20
-146.07537629493785
42
-0.49477924554315461
10
-30.059136644094298
20
-146.55765270099627
10
-30.059136644094263
20
-157.84350560298702
42
0.643615920761756
10
-16.785518868679446
20
-163.83469328451443
42
-0.86275995793934712
10
-12.756678556121063
20
-167.25541580911209
42
-0.14582094207782645
10
-20.393779051507103
20
-174.01233018412202
42
0.29190970045969111
10
-25.024498129572198
20
-181.26822062355717
0
CIRCLE
5
152
100
AcDbEntity
8
0
100
AcDbCircle
10
-30.06182506730994
20
-193.6557738347949
30
0
40
1.1499999999999999
210
-1.9259299443872367e-34
220
-5.078252949169387e-49
230
1
0
CIRCLE
5
153
100
AcDbEntity
8
0
100
AcDbCircle
10
-34.809174175443758
20
-150.8530655932409
30
0
40
1.1499999999999999
210
-1.9259299443872367e-34
220
-5.0782529492408484e-49
230
1
0
CIRCLE
5
154
100
AcDbEntity
8
0
100
AcDbCircle
10
-12.958615058852416
20
-111.51122373677754
30
0
40
1.1500000000000015
210
8.6383755429264669e-47
220
-2.4651903288156586e-32
230
1
0
CIRCLE
5
155
100
AcDbEntity
8
0
100
AcDbCircle
10
-17.705964166986163
20
-154.3139319783316
30
1.7763568394002505e-14
40
1.1500000000000015
210
8.6383755430179374e-47
220
-2.4651903288156586e-32
230
1
0
LWPOLYLINE
5
156
100
AcDbEntity
8
0
100
AcDbPolyline
90
25
70
1
43
0.0
10
-15.743291104723836
20
-160.9293355006287
42
-0.41421356237309587
10
-22.743291104723834
20
-153.92933550062872
10
-22.743291104723834
20
-141.92637876709387
42
0.29190970045968984
10
-27.374010182735937
20
-134.67048832754443
42
-0.14582094207781432
10
-35.011110678067979
20
-127.91357395258217
42
-0.862759957939359
10
-30.982270365699875
20
-124.49285142814603
42
0.64361592075951102
10
-17.70865259020205
20
-118.50166374657447
10
-17.708652590201851
20
-107.21581084453294
42
-0.4947792455431676
10
-17.076707646533926
20
-106.73353443847463
42
0.048614419082234669
10
-10.28889791296848
20
-107.89801287576778
42
-0.39306312936042692
10
-9.8252399026425508
20
-108.39669038657659
10
-9.825239902642533
20
-120.59310935922547
42
-0.41421356237310542
10
-10.325239902642522
20
-121.09310935922548
10
-11.325239902642537
20
-121.09310935922548
10
-11.325239902642537
20
-120.09310935922545
10
-12.47111525526762
20
-120.09310935922545
10
-12.47111525526762
20
-121.09310935922548
10
-12.971115255267591
20
-121.09310935922549
42
0.41421356237309509
10
-13.971115255267605
20
-122.09310935922548
10
-13.971115255267591
20
-154.01863725106
42
0.41421356237309509
10
-12.971115255267591
20
-155.01863725106003
10
-12.208615255265229
20
-155.01863725106
42
-0.41421356237316659
10
-11.708615255265258
20
-155.51863725106011
10
-11.708615255265791
20
-160.42933550062872
42
-0.41421356237309509
10
-12.208615255265798
20
-160.92933550062872
0
LWPOLYLINE
5
157
100
AcDbEntity
8
0
100
AcDbPolyline
90
25
70
1
43
0.0
10
-25.02449812957234
20
-114.27117735709182
42
-0.41421356237309442
10
-32.024498129572322
20
-121.2711773570918
10
-35.559173979030376
20
-121.27117735709184
42
-0.41421356237308465
10
-36.059173979030405
20
-120.77117735709183
10
-36.059173979030916
20
-115.86047910752316
42
-0.41421356237311585
10
-35.559173979030945
20
-115.36047910752316
10
-34.796673979028576
20
-115.36047910752315
42
0.4142135623730937
10
-33.796673979028554
20
-114.36047910752315
10
-33.796673979028654
20
-82.43495121568867
42
0.41421356237309509
10
-34.796673979028654
20
-81.434951215688642
10
-35.296673979028618
20
-81.434951215688642
10
-35.296673979028625
20
-80.434951215688642
10
-36.442549331653716
20
-80.434951215688642
10
-36.442549331653709
20
-81.434951215688642
10
-37.442549331653723
20
-81.43495121568867
42
-0.41421356237310542
10
-37.942549331653737
20
-80.934951215688642
10
-37.942549331653773
20
-68.738532243039785
42
-0.39306312936047794
10
-37.478891321327801
20
-68.239854732230924
42
0.048614419082237119
10
-30.691081587762426
20
-67.075376294937669
42
-0.49477924554313674
10
-30.059136644094369
20
-67.557652700996087
10
-30.059136644094334
20
-78.843505602986866
42
0.64361592076175278
10
-16.7855188686795
20
-84.834693284514259
42
-0.86275995793934268
10
-12.756678556121134
20
-88.255415809111909
42
-0.14582094207782645
10
-20.393779051507174
20
-95.012330184121851
42
0.29190970045969017
10
-25.024498129572269
20
-102.26822062355697
0
CIRCLE
5
158
100
AcDbEntity
8
0
100
AcDbCircle
10
-30.061825067310011
20
-114.6557738347947
30
0
40
1.1499999999999999
210
-3.4211388292907624e-49
220
-1.2325951644078309e-32
230
1
0
CIRCLE
5
159
100
AcDbEntity
8
0
100
AcDbCircle
10
-34.809174175443829
20
-71.853065593240729
30
0
40
1.1499999999999999
210
-3.4211388247172514e-49
220
-1.2325951644078309e-32
230
1
0
LWPOLYLINE
5
160
100
AcDbEntity
8
0
100
AcDbPolyline
90
10
70
1
43
0.0
10
-50.645973025290317
20
-89.718386233217714
10
-54.932006321252743
20
-89.713960335927084
42
-0.068152317659188499
10
-52.365596549101269
20
-75.287619169344666
42
-0.72886901935488446
10
-42.845680033870721
20
-75.297449744563934
42
-0.15682563433658298
10
-42.879820106162121
20
-108.35865224300591
42
-0.72886901935480564
10
-52.39973662139257
20
-108.34882166778577
42
-0.068152334264006589
10
-54.936346869723863
20
-93.917207389510168
10
-50.650316520128186
20
-93.921633283758283
42
-0.2177808528740911
10
-50.260975300847541
20
-94.100145231416818
42
2.6849239026400835
10
-50.256264359963787
20
-89.540679217088567
42
-0.21778054411333927
0
CIRCLE
5
161
100
AcDbEntity
8
0
100
AcDbCircle
10
-47.638197804874665
20
-106.82312572861598
30
3.5527136788005009e-14
40
1.1500000000000146
210
-1.2631542989775741e-29
220
-9.4532921679116318e-30
230
1
0
CIRCLE
5
162
100
AcDbEntity
8
0
100
AcDbCircle
10
-47.607218850388335
20
-76.823145683733642
30
1.7763568394002505e-14
40
1.1500000000000146
210
-1.2631542989775741e-29
220
-9.4532921679116318e-30
230
1
0
LWPOLYLINE
5
163
100
AcDbEntity
8
0
100
AcDbPolyline
90
10
70
1
43
0.0
10
-44.550103397231887
20
-138.01561500865341
10
-40.279994009583632
20
-137.64647164871829
42
-0.068152317659188388
10
-41.57929933822858
20
-152.24159358161697
42
-0.72886901935489889
10
-51.063846488062261
20
-153.06151580948389
42
-0.15682563433658253
10
-53.911309988932501
20
-120.12314566464025
42
-0.72886901935480375
10
-44.426762839098821
20
-119.30322343677391
42
-0.068152334264006922
10
-40.642007097116462
20
-133.45884091544301
10
-44.912113549344603
20
-133.82798402161629
42
-0.21778085287409385
10
-45.315531549128053
20
-133.68408468896146
42
2.6849239026400085
10
-44.922840916448436
20
-138.22661114411667
42
-0.21778054411333647
0
CIRCLE
5
164
100
AcDbEntity
8
0
100
AcDbCircle
10
-49.037209400086823
20
-121.23810909445005
30
0
40
1.1500000000000159
210
1.1487798581646785e-29
220
1.3661949567101083e-29
230
1
0
CIRCLE
5
165
100
AcDbEntity
8
0
100
AcDbCircle
10
-46.453399927074557
20
-151.12663015180814
30
0
40
1.1500000000000159
210
1.1487798581646785e-29
220
1.3661949567101083e-29
230
1
0
LWPOLYLINE
5
166
100
AcDbEntity
8
0
100
AcDbPolyline
90
10
70
1
43
0.0
10
-43.207462303132317
20
-178.31546636053253
10
-39.066326543716706
20
-177.2104344040919
42
-0.068152317659188499
10
-37.811476178421927
20
-191.80944564232112
42
-0.72886901935488813
10
-47.009553744690187
20
-194.26388573775625
42
-0.15682563433658286
10
-55.533445827737289
20
-162.32038029542753
42
-0.72886901935480308
10
-46.335368261468808
20
-159.86594019999319
42
-0.068152334264007255
10
-40.150014284586163
20
-173.14928610415197
10
-44.291147197242566
20
-174.25431730095562
42
-0.21778085287412668
10
-44.713424228016983
20
-174.18265692300426
42
2.6849239026400578
10
-43.537898007477324
20
-178.58798218155243
42
-0.21778054411333123
0
CIRCLE
5
167
100
AcDbEntity
8
0
100
AcDbCircle
10
-50.539782411128904
20
-162.57202624041099
30
0
40
1.1500000000000126
210
0
220
-0
230
1
0
CIRCLE
5
168
100
AcDbEntity
8
0
100
AcDbCircle
10
-42.805139595030361
20
-191.55779969733871
30
-1.7763568394002505e-14
40
1.1500000000000126
210
0
220
-0
230
1
0
LWPOLYLINE
5
169
100
AcDbEntity
8
0
100
AcDbPolyline
90
10
70
1
43
0.0
10
-41.697487840338837
20
-207.92170704909955
10
-38.663675050384974
20
-204.89415342312049
42
-0.068152317659188277
10
-30.277437136977014
20
-216.90984284291434
42
-0.72886901935488979
10
-37.015985927627746
20
-223.63448910076258
42
-0.15682563433658264
10
-60.369645731827923
20
-200.23254794330242
42
-0.72886901935480508
10
-53.631096941176594
20
-193.50790168545484
42
-0.0681523342640067
10
-41.632750313717786
20
-201.91893969727118
10
-44.666561018124341
20
-204.94649124200566
42
-0.21778085287410226
10
-45.06809384318526
20
-205.09557004964222
42
2.6849239026400196
10
-41.847395644109071
20
-208.32293052520842
42
-0.21778054411333683
0
CIRCLE
5
170
100
AcDbEntity
8
0
100
AcDbCircle
10
-55.91918338260426
20
-197.95364801611328
30
-1.7763568394002505e-14
40
1.1500000000000241
210
-2.6765596527736386e-29
220
8.9525861113223712e-30
230
1
0
CIRCLE
5
171
100
AcDbEntity
8
0
100
AcDbCircle
10
-34.727899486200172
20
-219.1887427701044
30
-1.7763568394002505e-14
40
1.1500000000000241
210
-2.6765596527736386e-29
220
8.9525861113223712e-30
230
1
0
LWPOLYLINE
5
172
100
AcDbEntity
8
0
100
AcDbPolyline
90
10
70
1
43
0.0
10
-43.214081069219603
20
-229.30976879331934
10
-42.83611959845306
20
-225.0404308904026
42
-0.068152317659188721
10
-28.688352365328107
20
-228.854413178057
42
-0.72886901935489368
10
-29.527860927022502
20
-238.33724674572068
42
-0.15682563433658264
10
-62.460280065149561
20
-235.42176292682547
42
-0.72886901935481108
10
-61.620771503454328
20
-225.93892935916182
42
-0.068152334264006353
10
-47.022993724276326
20
-224.66976974012144
10
-47.400954935219133
20
-228.93910470814845
42
-0.21778085287411619
10
-47.612720914171334
20
-229.31140602515686
42
2.6849239026400396
10
-43.071015630119788
20
-229.71348268650033
42
-0.21778054411333708
0
CIRCLE
5
173
100
AcDbEntity
8
0
100
AcDbCircle
10
-60.515876750129323
20
-230.81532224572061
30
0
40
1.1500000000000141
210
-2.5145204319788094e-29
220
2.2260871881185629e-30
230
1
0
CIRCLE
5
174
100
AcDbEntity
8
0
100
AcDbCircle
10
-30.632755680347401
20
-233.46085385916223
30
1.7763568394002505e-14
40
1.1500000000000141
210
-2.5145204319788094e-29
220
2.2260871881185629e-30
230
1
0
LWPOLYLINE
5
175
100
AcDbEntity
8
0
100
AcDbPolyline
90
30
70
1
43
0.0
10
-140.33375852133386
20
-230.05690338745222
10
-162.87865000447681
20
-230.05690338745364
42
0.29411054721289626
10
-164.56283625153611
20
-231.14138612101473
42
-4.6167297970738925
10
-164.56283609576462
20
-220.67242060377316
42
0.29411055529617197
10
-162.87864982592424
20
-221.75690338745343
10
-140.33375852133423
20
-221.75690338745233
42
0.41421356237319912
10
-139.98375852133424
20
-221.40690338745227
10
-139.98375852133444
20
-220.84440338745316
42
-0.41421356237309509
10
-138.8337585213344
20
-219.69440338745295
10
-136.83375852133435
20
-219.69440338745287
42
-0.41421356237308599
10
-135.68375852133425
20
-220.84440338745284
10
-135.68375852133425
20
-221.29440338745286
10
-136.68375834128688
20
-221.29440338745295
10
-136.68375732596971
20
-222.14027874007795
10
-135.68375861486635
20
-222.14027874007786
10
-135.68375861486624
20
-223.64027854366316
10
-87.461787328430944
20
-223.64027854366043
42
0.2177805441132144
10
-87.197061633165504
20
-223.51923335637767
42
-2.6849239026401381
10
-87.197064448513842
20
-228.29457333783668
42
0.21778085287414631
10
-87.461790413744126
20
-228.17352783841034
10
-135.68375861486604
20
-228.17352783841312
10
-135.68375861486595
20
-229.67352803482794
10
-136.68375775879272
20
-229.673528034828
10
-136.68375840647883
20
-230.51940338745314
10
-135.68375852133374
20
-230.51940338745308
10
-135.6837585213336
20
-230.96940338745299
42
-0.41421356237308599
10
-136.83375852133366
20
-232.11940338745313
10
-138.83375852133364
20
-232.11940338745319
42
-0.41421356237310863
10
-139.9837585213337
20
-230.96940338745316
10
-139.98375852133375
20
-230.40690338745213
42
0.41421356237316936
0
CIRCLE
5
176
100
AcDbEntity
8
0
100
AcDbCircle
10
-176.07902869764459
20
-225.90690319103498
30
0
40
8.9999999999999609
210
1.2621774483536223e-29
220
7.0618221446578441e-43
230
1
0
LWPOLYLINE
5
177
100
AcDbEntity
8
0
100
AcDbPolyline
90
30
70
1
43
0.0
10
-105.76989034816759
20
-208.18410073769311
10
-83.22499886502456
20
-208.18410073769442
42
0.29411054721287938
10
-81.54081261796513
20
-207.09961800413365
42
-4.6167297970739369
10
-81.540812773737855
20
-217.56858352137516
42
0.29411055529616409
10
-83.224999043578052
20
-216.48410073769472
10
-105.76989034816813
20
-216.4841007376931
42
0.41421356237315449
10
-106.11989034816816
20
-216.83410073769309
10
-106.11989034816808
20
-217.39660073769227
42
-0.41421356237310403
10
-107.26989034816825
20
-218.5466007376923
10
-109.2698903481683
20
-218.5466007376921
42
-0.41421356237308599
10
-110.41989034816822
20
-217.39660073769201
10
-110.4198903481682
20
-216.94660073769199
10
-109.4198905282156
20
-216.94660073769199
10
-109.41989154353266
20
-216.10072538506699
10
-110.41989025463599
20
-216.10072538506694
10
-110.4198902546359
20
-214.60072558148158
10
-158.64186154107134
20
-214.60072558147846
42
0.21778054411323994
10
-158.9065872363368
20
-214.72177076876142
42
-2.684923902640127
10
-158.90658442098788
20
-209.94643078730223
42
0.21778085287411059
10
-158.64185845575764
20
-210.06747628672866
10
-110.41989025463563
20
-210.06747628673168
10
-110.41989025463553
20
-208.56747609031686
10
-109.4198911107088
20
-208.56747609031692
10
-109.41989046302257
20
-207.7216007376918
10
-110.41989034816766
20
-207.72160073769172
10
-110.41989034816768
20
-207.27160073769181
42
-0.41421356237309509
10
-109.26989034816749
20
-206.12160073769184
10
-107.26989034816752
20
-206.12160073769203
42
-0.41421356237309048
10
-106.11989034816759
20
-207.27160073769213
10
-106.11989034816762
20
-207.83410073769315
42
0.41421356237319912
0
CIRCLE
5
178
100
AcDbEntity
8
0
100
AcDbCircle
10
-70.024620171857208
20
-212.33410093411479
30
0
40
8.9999999999999876
210
-4.0518652427484556e-43
220
-6.3108872417680328e-30
230
1
0
LWPOLYLINE
5
179
100
AcDbEntity
8
0
100
AcDbPolyline
90
30
70
1
43
0.0
10
-140.33375852133557
20
-202.05690338745205
10
-162.87865000447854
20
-202.05690338745347
42
0.29411054721289626
10
-164.56283625153785
20
-203.14138612101459
42
-4.6167297970738925
10
-164.56283609576639
20
-192.67242060377302
42
0.2941105552961667
10
-162.878649825926
20
-193.75690338745329
10
-140.33375852133597
20
-193.75690338745218
42
0.41421356237315449
10
-139.98375852133597
20
-193.40690338745213
10
-139.98375852133617
20
-192.84440338745301
42
-0.41421356237310403
10
-138.83375852133611
20
-191.69440338745278
10
-136.83375852133605
20
-191.69440338745275
42
-0.41421356237308599
10
-135.68375852133602
20
-192.8444033874527
10
-135.68375852133596
20
-193.29440338745272
10
-136.68375834128858
20
-193.2944033874528
10
-136.68375732597144
20
-194.1402787400778
10
-135.68375861486808
20
-194.14027874007772
10
-135.683758614868
20
-195.64027854366302
10
-87.461787328432692
20
-195.64027854366029
42
0.21778054411322723
10
-87.197061633167223
20
-195.5192333563775
42
-2.6849239026401506
10
-87.19706444851559
20
-200.29457333783654
42
0.21778085287415772
10
-87.461790413745859
20
-200.17352783841019
10
-135.68375861486777
20
-200.17352783841295
10
-135.68375861486766
20
-201.67352803482777
10
-136.68375775879443
20
-201.67352803482785
10
-136.68375840648056
20
-202.519403387453
10
-135.68375852133548
20
-202.51940338745294
10
-135.68375852133531
20
-202.96940338745284
42
-0.41421356237309509
10
-136.8337585213354
20
-204.11940338745299
10
-138.83375852133537
20
-204.11940338745302
42
-0.41421356237310863
10
-139.98375852133546
20
-202.96940338745301
10
-139.98375852133549
20
-202.40690338745199
42
0.41421356237318419
0
CIRCLE
5
180
100
AcDbEntity
8
0
100
AcDbCircle
10
-176.07902869764632
20
-197.90690319103481
30
0
40
8.9999999999999645
210
0
220
-0
230
1
0
LWPOLYLINE
5
181
100
AcDbEntity
8
0
100
AcDbPolyline
90
30
70
1
43
0.0
10
-105.76989034816958
20
-180.18410073769286
10
-83.224998865026549
20
-180.18410073769417
42
0.29411054721287938
10
-81.54081261796712
20
-179.09961800413339
42
-4.6167297970739369
10
-81.540812773739844
20
-189.5685835213749
42
0.29411055529616409
10
-83.224999043580041
20
-188.48410073769446
10
-105.76989034817012
20
-188.48410073769284
42
0.41421356237315449
10
-106.11989034817014
20
-188.83410073769284
10
-106.11989034817007
20
-189.39660073769201
42
-0.41421356237310403
10
-107.26989034817024
20
-190.54660073769207
10
-109.26989034817029
20
-190.54660073769185
42
-0.41421356237308599
10
-110.41989034817021
20
-189.39660073769176
10
-110.41989034817018
20
-188.94660073769174
10
-109.41989052821759
20
-188.94660073769174
10
-109.41989154353465
20
-188.10072538506674
10
-110.41989025463798
20
-188.10072538506665
10
-110.41989025463789
20
-186.60072558148133
10
-158.64186154107333
20
-186.6007255814782
42
0.21778054411323994
10
-158.90658723633879
20
-186.72177076876119
42
-2.684923902640127
10
-158.90658442098987
20
-181.94643078730198
42
0.21778085287411059
10
-158.64185845575963
20
-182.06747628672841
10
-110.41989025463762
20
-182.06747628673142
10
-110.41989025463752
20
-180.5674760903166
10
-109.41989111071079
20
-180.56747609031669
10
-109.41989046302456
20
-179.72160073769152
10
-110.41989034816964
20
-179.72160073769146
10
-110.41989034816967
20
-179.27160073769156
42
-0.41421356237309509
10
-109.26989034816948
20
-178.12160073769155
10
-107.26989034816951
20
-178.12160073769178
42
-0.41421356237309048
10
-106.11989034816958
20
-179.27160073769187
10
-106.1198903481696
20
-179.83410073769289
42
0.41421356237319912
0
CIRCLE
5
182
100
AcDbEntity
8
0
100
AcDbCircle
10
-70.024620171859198
20
-184.33410093411453
30
0
40
8.9999999999999876
210
0
220
0
230
1
0
LWPOLYLINE
5
183
100
AcDbEntity
8
0
100
AcDbPolyline
90
30
70
1
43
0.0
10
-140.3337585213375
20
-174.05690338745219
10
-162.87865000448048
20
-174.05690338745362
42
0.29411054721289626
10
-164.56283625153975
20
-175.14138612101473
42
-4.6167297970738925
10
-164.56283609576829
20
-164.67242060377316
42
0.2941105552961667
10
-162.87864982592794
20
-165.75690338745343
10
-140.3337585213379
20
-165.75690338745233
42
0.41421356237319912
10
-139.9837585213379
20
-165.40690338745225
10
-139.98375852133807
20
-164.84440338745316
42
-0.41421356237310403
10
-138.83375852133804
20
-163.69440338745292
10
-136.83375852133796
20
-163.69440338745292
42
-0.41421356237308599
10
-135.68375852133792
20
-164.84440338745284
10
-135.68375852133786
20
-165.29440338745286
10
-136.68375834129048
20
-165.29440338745292
10
-136.68375732597337
20
-166.14027874007792
10
-135.68375861487002
20
-166.14027874007786
10
-135.68375861486993
20
-167.64027854366316
10
-87.46178732843461
20
-167.64027854366043
42
0.21778054411323183
10
-87.197061633169142
20
-167.51923335637764
42
-2.6849239026401506
10
-87.197064448517509
20
-172.29457333783668
42
0.21778085287413304
10
-87.461790413747764
20
-172.17352783841034
10
-135.68375861486967
20
-172.17352783841309
10
-135.68375861486956
20
-173.67352803482791
10
-136.68375775879633
20
-173.673528034828
10
-136.6837584064825
20
-174.51940338745314
10
-135.68375852133738
20
-174.51940338745305
10
-135.68375852133724
20
-174.96940338745299
42
-0.41421356237309509
10
-136.83375852133733
20
-176.11940338745313
10
-138.8337585213373
20
-176.11940338745316
42
-0.41421356237310863
10
-139.98375852133736
20
-174.96940338745316
10
-139.98375852133739
20
-174.40690338745213
42
0.41421356237315449
0
CIRCLE
5
184
100
AcDbEntity
8
0
100
AcDbCircle
10
-176.07902869764825
20
-169.90690319103496
30
0
40
8.9999999999999645
210
1.262177448353622e-29
220
7.0618221446578592e-43
230
1
0
LWPOLYLINE
5
185
100
AcDbEntity
8
0
100
AcDbPolyline
90
30
70
1
43
0.0
10
-105.76989034817149
20
-152.18410073769275
10
-83.224998865028468
20
-152.18410073769405
42
0.29411054721288177
10
-81.540812617969038
20
-151.09961800413325
42
-4.6167297970739272
10
-81.540812773741763
20
-161.56858352137479
42
0.29411055529616409
10
-83.22499904358196
20
-160.48410073769435
10
-105.76989034817204
20
-160.48410073769273
42
0.41421356237315449
10
-106.11989034817206
20
-160.83410073769272
10
-106.11989034817199
20
-161.3966007376919
42
-0.41421356237310403
10
-107.26989034817215
20
-162.54660073769196
10
-109.26989034817223
20
-162.54660073769173
42
-0.41421356237308599
10
-110.41989034817213
20
-161.39660073769164
10
-110.41989034817209
20
-160.94660073769163
10
-109.41989052821951
20
-160.94660073769163
10
-109.41989154353656
20
-160.10072538506662
10
-110.4198902546399
20
-160.10072538506654
10
-110.4198902546398
20
-158.60072558148121
10
-158.64186154107526
20
-158.60072558147809
42
0.21778054411330952
10
-158.90658723634067
20
-158.72177076876105
42
-2.6849239026401199
10
-158.90658442099181
20
-153.94643078730186
42
0.21778085287409674
10
-158.64185845576156
20
-154.06747628672829
10
-110.41989025463954
20
-154.06747628673133
10
-110.41989025463945
20
-152.56747609031649
10
-109.41989111071271
20
-152.56747609031657
10
-109.41989046302649
20
-151.7216007376914
10
-110.41989034817156
20
-151.72160073769135
10
-110.41989034817158
20
-151.27160073769147
42
-0.41421356237310403
10
-109.2698903481714
20
-150.12160073769147
10
-107.26989034817143
20
-150.12160073769167
42
-0.41421356237309048
10
-106.1198903481715
20
-151.27160073769176
10
-106.11989034817154
20
-151.83410073769278
42
0.41421356237312473
0
CIRCLE
5
186
100
AcDbEntity
8
0
100
AcDbCircle
10
-70.024620171861116
20
-156.33410093411442
30
0
40
8.9999999999999876
210
0
220
0
230
1
0
LWPOLYLINE
5
187
100
AcDbEntity
8
0
100
AcDbPolyline
90
30
70
1
43
0.0
10
-140.3337585213394
20
-146.05690338745185
10
-162.87865000448238
20
-146.0569033874533
42
0.29411054721289387
10
-164.56283625154163
20
-147.14138612101439
42
-4.6167297970739023
10
-164.56283609577019
20
-136.67242060377282
42
0.2941105552961667
10
-162.87864982592987
20
-137.75690338745312
10
-140.3337585213398
20
-137.75690338745198
42
0.41421356237316936
10
-139.98375852133984
20
-137.40690338745193
10
-139.98375852134001
20
-136.84440338745281
42
-0.41421356237310403
10
-138.83375852133994
20
-135.69440338745261
10
-136.83375852133989
20
-135.69440338745258
42
-0.41421356237308599
10
-135.68375852133985
20
-136.8444033874525
10
-135.6837585213398
20
-137.29440338745255
10
-136.68375834129242
20
-137.2944033874526
10
-136.68375732597528
20
-138.14027874007758
10
-135.68375861487192
20
-138.14027874007752
10
-135.68375861487183
20
-139.64027854366282
10
-87.461787328436529
20
-139.64027854366009
42
0.2177805441132025
10
-87.197061633171074
20
-139.5192333563773
42
-2.6849239026401506
10
-87.197064448519427
20
-144.29457333783637
42
0.21778085287414306
10
-87.461790413749696
20
-144.17352783841
10
-135.68375861487161
20
-144.17352783841275
10
-135.68375861487146
20
-145.6735280348276
10
-136.68375775879827
20
-145.67352803482765
10
-136.6837584064844
20
-146.5194033874528
10
-135.68375852133931
20
-146.51940338745274
10
-135.68375852133914
20
-146.96940338745262
42
-0.41421356237310403
10
-136.83375852133923
20
-148.11940338745279
10
-138.83375852133921
20
-148.11940338745285
42
-0.41421356237310863
10
-139.9837585213393
20
-146.96940338745281
10
-139.98375852133933
20
-146.40690338745182
42
0.41421356237313961
0
CIRCLE
5
188
100
AcDbEntity
8
0
100
AcDbCircle
10
-176.07902869765016
20
-141.90690319103464
30
1.7763568394002505e-14
40
8.9999999999999645
210
0
220
-0
230
1
0
LWPOLYLINE
5
189
100
AcDbEntity
8
0
100
AcDbPolyline
90
30
70
1
43
0.0
10
-105.76989034817342
20
-124.18410073769265
10
-83.224998865030386
20
-124.18410073769394
42
0.29411054721288177
10
-81.540812617970943
20
-123.09961800413313
42
-4.6167297970739369
10
-81.540812773743681
20
-133.56858352137468
42
0.2941105552961617
10
-83.224999043583878
20
-132.48410073769423
10
-105.76989034817396
20
-132.48410073769261
42
0.41421356237313961
10
-106.11989034817398
20
-132.83410073769261
10
-106.11989034817393
20
-133.39660073769178
42
-0.41421356237310403
10
-107.26989034817407
20
-134.54660073769182
10
-109.26989034817413
20
-134.54660073769162
42
-0.41421356237308599
10
-110.41989034817405
20
-133.39660073769153
10
-110.41989034817402
20
-132.94660073769151
10
-109.41989052822143
20
-132.94660073769151
10
-109.41989154353848
20
-132.10072538506651
10
-110.41989025464181
20
-132.10072538506645
10
-110.41989025464173
20
-130.6007255814811
10
-158.64186154107716
20
-130.60072558147797
42
0.21778054411330952
10
-158.9065872363426
20
-130.72177076876093
42
-2.6849239026401199
10
-158.90658442099374
20
-125.94643078730174
42
0.21778085287409674
10
-158.64185845576347
20
-126.06747628672818
10
-110.41989025464146
20
-126.06747628673121
10
-110.41989025464136
20
-124.56747609031638
10
-109.41989111071463
20
-124.56747609031645
10
-109.41989046302839
20
-123.7216007376913
10
-110.41989034817348
20
-123.72160073769123
10
-110.4198903481735
20
-123.27160073769136
42
-0.41421356237310403
10
-109.26989034817332
20
-122.12160073769135
10
-107.26989034817335
20
-122.12160073769155
42
-0.41421356237309048
10
-106.11989034817341
20
-123.27160073769164
10
-106.11989034817344
20
-123.83410073769268
42
0.41421356237312473
0
CIRCLE
5
190
100
AcDbEntity
8
0
100
AcDbCircle
10
-70.024620171863035
20
-128.3341009341143
30
0
40
8.9999999999999876
210
0
220
0
230
1
0
LWPOLYLINE
5
191
100
AcDbEntity
8
0
100
AcDbPolyline
90
30
70
1
43
0.0
10
-140.33375852134137
20
-118.05690338745171
10
-162.87865000448434
20
-118.05690338745315
42
0.29411054721289387
10
-164.56283625154359
20
-119.14138612101425
42
-4.6167297970739023
10
-164.56283609577216
20
-108.67242060377268
42
0.29411055529617197
10
-162.87864982593177
20
-109.75690338745297
10
-140.33375852134176
20
-109.75690338745184
42
0.41421356237316936
10
-139.98375852134177
20
-109.40690338745178
10
-139.98375852134194
20
-108.84440338745267
42
-0.41421356237310403
10
-138.83375852134191
20
-107.69440338745244
10
-136.83375852134185
20
-107.69440338745243
42
-0.41421356237308599
10
-135.68375852134179
20
-108.84440338745236
10
-135.68375852134176
20
-109.29440338745239
10
-136.68375834129438
20
-109.29440338745245
10
-136.68375732597724
20
-110.14027874007743
10
-135.68375861487388
20
-110.14027874007736
10
-135.6837586148738
20
-111.64027854366267
10
-87.461787328438476
20
-111.64027854365995
42
0.2177805441132025
10
-87.197061633173035
20
-111.51923335637716
42
-2.6849239026401506
10
-87.197064448521374
20
-116.29457333783621
42
0.21778085287414306
10
-87.461790413751643
20
-116.17352783840985
10
-135.68375861487357
20
-116.17352783841261
10
-135.68375861487343
20
-117.67352803482746
10
-136.6837577588002
20
-117.67352803482751
10
-136.68375840648636
20
-118.51940338745264
10
-135.68375852134128
20
-118.51940338745258
10
-135.6837585213411
20
-118.96940338745246
42
-0.41421356237310403
10
-136.8337585213412
20
-120.11940338745265
10
-138.83375852134117
20
-120.11940338745269
42
-0.41421356237310863
10
-139.98375852134126
20
-118.96940338745267
10
-139.98375852134129
20
-118.40690338745168
42
0.41421356237313961
0
CIRCLE
5
192
100
AcDbEntity
8
0
100
AcDbCircle
10
-176.07902869765212
20
-113.90690319103449
30
0
40
8.9999999999999645
210
1.262177448353622e-29
220
7.0618221446578608e-43
230
1
0
LWPOLYLINE
5
193
100
AcDbEntity
8
0
100
AcDbPolyline
90
30
70
1
43
0.0
10
-105.76989034817527
20
-96.184100737692532
10
-83.224998865032234
20
-96.184100737693825
42
0.29411054721288177
10
-81.54081261797279
20
-95.099618004133021
42
-4.6167297970739369
10
-81.540812773745529
20
-105.56858352137455
42
0.2941105552961617
10
-83.224999043585726
20
-104.48410073769411
10
-105.76989034817581
20
-104.4841007376925
42
0.41421356237313961
10
-106.11989034817583
20
-104.83410073769249
10
-106.11989034817577
20
-105.39660073769167
42
-0.41421356237310403
10
-107.26989034817592
20
-106.5466007376917
10
-109.26989034817598
20
-106.54660073769151
42
-0.41421356237308599
10
-110.4198903481759
20
-105.39660073769141
10
-110.41989034817587
20
-104.9466007376914
10
-109.41989052822328
20
-104.9466007376914
10
-109.41989154354033
20
-104.1007253850664
10
-110.41989025464366
20
-104.10072538506634
10
-110.41989025464358
20
-102.60072558148099
10
-158.64186154107901
20
-102.60072558147786
42
0.21778054411330952
10
-158.90658723634445
20
-102.72177076876082
42
-2.6849239026401199
10
-158.90658442099556
20
-97.946430787301622
42
0.21778085287409674
10
-158.64185845576532
20
-98.067476286728066
10
-110.41989025464331
20
-98.067476286731093
10
-110.41989025464321
20
-96.567476090316262
10
-109.41989111071648
20
-96.567476090316333
10
-109.41989046303024
20
-95.72160073769119
10
-110.41989034817533
20
-95.721600737691119
10
-110.41989034817534
20
-95.271600737691244
42
-0.41421356237310403
10
-109.26989034817517
20
-94.121600737691239
10
-107.2698903481752
20
-94.121600737691438
42
-0.41421356237309048
10
-106.11989034817526
20
-95.271600737691529
10
-106.11989034817529
20
-95.834100737692566
42
0.41421356237312473
0
CIRCLE
5
194
100
AcDbEntity
8
0
100
AcDbCircle
10
-70.024620171864882
20
-100.33410093411419
30
0
40
8.9999999999999876
210
1.2621774483536186e-29
220
-7.523943245882174e-43
230
1
0
LWPOLYLINE
5
195
100
AcDbEntity
8
0
100
AcDbPolyline
90
10
70
1
43
0.0
10
-144.21964097470922
20
-83.077093544419739
10
-146.36649056217888
20
-86.786694311543698
42
-0.068152317659188277
10
-157.57686361002408
20
-77.350947669047983
42
-0.72886901935488313
10
-152.8083918245346
20
-69.111373412561207
42
-0.15682563433658309
10
-124.19362061736899
20
-85.671540831675401
42
-0.72886901935480741
10
-128.96209240285927
20
-93.911115088161736
42
-0.0681523342640067
10
-142.72854210962953
20
-88.892076863577913
10
-140.58169399797805
20
-85.182478646561151
42
-0.2177808528741027
10
-140.23242750678639
20
-84.934555233752974
42
2.6849239026400649
10
-144.17868543244452
20
-82.650742432107563
42
-0.21778054411331066
0
CIRCLE
5
196
100
AcDbEntity
8
0
100
AcDbCircle
10
-127.90261443637175
20
-89.024653542366607
30
0
40
1.1500000000000141
210
-7.7631690183740091e-30
220
1.1784298692910011e-29
230
1
0
CIRCLE
5
197
100
AcDbEntity
8
0
100
AcDbCircle
10
-153.867869791022
20
-73.997834958355995
30
0
40
1.1500000000000141
210
-7.7631690183740091e-30
220
1.1784298692910011e-29
230
1
0
LWPOLYLINE
5
198
100
AcDbEntity
8
0
100
AcDbPolyline
90
10
70
1
43
0.0
10
-173.47208505131195
20
-82.993896471530434
10
-175.61893463878181
20
-86.70349723865435
42
-0.068152317659188388
10
-186.82930768662672
20
-77.26775059615818
42
-0.7288690193548879
10
-182.06083590113678
20
-69.028176339671575
42
-0.15682563433658275
10
-153.44606469397203
20
-85.588343758786891
42
-0.72886901935480108
10
-158.21453647946248
20
-93.827918015273013
42
-0.068152334264007033
10
-171.98098618623254
20
-88.808879790688565
10
-169.83413807458101
20
-85.099281573671902
42
-0.21778085287413085
10
-169.48487158338929
20
-84.851358160863725
42
2.6849239026400706
10
-173.43112950904722
20
-82.567545359218144
42
-0.21778054411333253
0
CIRCLE
5
199
100
AcDbEntity
8
0
100
AcDbCircle
10
-157.15505851297485
20
-88.941456469477913
30
0
40
1.1500000000000128
210
-1.6386382037794331e-29
220
9.4832570204683582e-30
230
1
0
CIRCLE
5
200
100
AcDbEntity
8
0
100
AcDbCircle
10
-183.12031386762445
20
-73.914637885466306
30
1.7763568394002505e-14
40
1.1500000000000128
210
-1.6386382037794331e-29
220
9.4832570204683582e-30
230
1
0
LWPOLYLINE
5
201
100
AcDbEntity
8
0
100
AcDbPolyline
90
10
70
1
43
0.0
10
-169.74348539181915
20
-64.084073159813599
10
-169.74791128911025
20
-68.370106455775968
42
-0.068152317659187944
10
-184.17425245569223
20
-65.803696683622917
42
-0.72886901935489135
10
-184.16442188047185
20
-56.283780168392497
42
-0.15682563433658264
10
-151.10321938203006
20
-56.317920240687478
42
-0.72886901935480508
10
-151.11304995725121
20
-65.83783675591792
42
-0.068152334264006589
10
-165.54466423552708
20
-68.374447004247628
10
-165.54023834127847
20
-64.088416654651922
42
-0.21778085287413726
10
-165.36172639361985
20
-63.699075435371306
42
2.6849239026400142
10
-169.92119240794824
20
-63.694364494487026
42
-0.21778054411335451
0
CIRCLE
5
202
100
AcDbEntity
8
0
100
AcDbCircle
10
-152.63874589642052
20
-61.076297939399851
30
0
40
1.1500000000000123
210
1.2621767754054068e-29
220
-1.3033647630419742e-32
230
1
0
CIRCLE
5
203
100
AcDbEntity
8
0
100
AcDbCircle
10
-182.63872594130277
20
-61.045318984910182
30
0
40
1.1500000000000123
210
1.2621767754054068e-29
220
-1.3033647630419742e-32
230
1
0
LWPOLYLINE
5
204
100
AcDbEntity
8
0
100
AcDbPolyline
90
10
70
1
43
0.0
10
-136.30513388739629
20
-63.198233206024597
10
-139.59127078873172
20
-65.949851869347526
42
-0.068152317659188499
10
-146.89836019899741
20
-53.2489769812303
42
-0.72886901935488846
10
-139.59936208160073
20
-47.137223257510016
42
-0.15682563433658264
10
-118.37418356693392
20
-72.485518529737774
42
-0.72886901935480664
10
-125.67318168433117
20
-78.597272253457362
42
-0.068152334264006242
10
-136.89280071527381
20
-69.172515968577883
10
-133.60666607294189
20
-66.420899196812272
42
-0.21778085287410201
10
-133.19366812729891
20
-66.307383570652632
42
2.6849239026400284
10
-136.1208275980097
20
-62.811601832356203
42
-0.21778054411334311
0
CIRCLE
5
205
100
AcDbEntity
8
0
100
AcDbCircle
10
-123.00632977908916
20
-74.367863203068154
30
0
40
1.1500000000000135
210
-1.9354425835074211e-29
220
-1.6206263142612491e-29
230
1
0
CIRCLE
5
206
100
AcDbEntity
8
0
100
AcDbCircle
10
-142.26621398684256
20
-51.366632307898925
30
0
40
1.1500000000000135
210
-1.9354425835074211e-29
220
-1.6206263142612491e-29
230
1
0
LWPOLYLINE
5
207
100
AcDbEntity
8
0
100
AcDbPolyline
90
10
70
1
43
0.0
10
-169.78226174962774
20
-47.03858409586207
10
-169.78668764691889
20
-51.324617391824567
42
-0.068152317659188721
10
-184.21302881350101
20
-48.758207619671452
42
-0.72886901935489223
10
-184.20319823828055
20
-39.23829110444094
42
-0.15682563433658253
10
-151.14199573983882
20
-39.272431176736013
42
-0.72886901935480386
10
-151.15182631505991
20
-48.792347691966434
42
-0.068152334264006478
10
-165.58344059333575
20
-51.328957940296114
10
-165.57901469908717
20
-47.04292759070043
42
-0.2177808528740855
10
-165.4005027514286
20
-46.653586371419792
42
2.6849239026400795
10
-169.95996876575686
20
-46.648875430535554
42
-0.21778054411332287
0
CIRCLE
5
208
100
AcDbEntity
8
0
100
AcDbCircle
10
-152.67752225422925
20
-44.030808875448351
30
1.7763568394002505e-14
40
1.1500000000000115
210
-1.8945685278711422e-29
220
-1.2602217282608316e-29
230
1
0
CIRCLE
5
209
100
AcDbEntity
8
0
100
AcDbCircle
10
-182.6775022991115
20
-43.999829920958717
30
1.7763568394002505e-14
40
1.1500000000000115
210
-1.8945685278711422e-29
220
-1.2602217282608316e-29
230
1
0
LWPOLYLINE
5
210
100
AcDbEntity
8
0
100
AcDbPolyline
90
10
70
1
43
0.0
10
-169.67508032010261
20
-30.140776132970256
10
-169.67950621739377
20
-34.426809428932657
42
-0.068152317659187944
10
-184.10584738397574
20
-31.860399656779606
42
-0.72886901935488091
10
-184.09601680875545
20
-22.340483141549086
42
-0.15682563433658286
10
-151.03481431031361
20
-22.374623213844181
42
-0.72886901935480786
10
-151.04464488553478
20
-31.894539729074584
42
-0.068152334264006589
10
-165.47625916381062
20
-34.431149977404274
10
-165.47183326956198
20
-30.145119627808583
42
-0.21778085287411281
10
-165.29332132190342
20
-29.755778408527949
42
2.684923902640056
10
-169.85278733623173
20
-29.751067467643718
42
-0.21778054411333569
0
CIRCLE
5
211
100
AcDbEntity
8
0
100
AcDbCircle
10
-152.57034082470403
20
-27.133000912556504
30
0
40
1.1500000000000112
210
1.2647835049314636e-29
220
2.5230501860477539e-29
230
1
0
CIRCLE
5
212
100
AcDbEntity
8
0
100
AcDbCircle
10
-182.57032086958623
20
-27.102021958066871
30
0
40
1.1500000000000112
210
1.2647835049314636e-29
220
2.5230501860477539e-29
230
1
0
LWPOLYLINE
5
213
100
AcDbEntity
8
0
100
AcDbPolyline
90
6
70
1
43
0.0
10
-114.6201093696221
20
-68.98688462947166
42
-0.75020640321334009
10
-116.56688067713988
20
-69.495318041639763
10
-138.55787421958399
20
-32.727392169962954
42
-0.49992239815568207
10
-135.53035875932983
20
-25.323188654859248
10
-119.67931464065333
20
-21.183138180203862
42
-0.4999223981556935
10
-113.41774718805914
20
-26.161175202140257
0
LWPOLYLINE
5
214
100
AcDbEntity
8
0
100
AcDbPolyline
90
10
70
1
43
0.0
10
-115.29074014953295
20
-29.338826433807501
10
-135.37019927446559
20
-34.583274285861151
42
0.49517812637341752
10
-135.67680501727037
20
-35.31713790434128
10
-132.52993059691002
20
-40.76500368144675
42
0.70704025841000395
10
-131.13960354735855
20
-40.506420540013004
42
-0.29821662669861931
10
-130.77203197086999
20
-40.100352644018031
10
-116.60371150782929
20
-36.399803871400145
42
-0.2982166266985779
10
-116.08451550309624
20
-36.574261627516719
42
0.70704025841005591
10
-114.74531401822207
20
-36.119933630735879
10
-114.66442778394223
20
-29.829026100023036
42
0.49517812637344755
0
LWPOLYLINE
5
215
100
AcDbEntity
8
0
100
AcDbPolyline
90
10
70
1
43
0.0
10
-115.50141327985067
20
-45.723878771001438
10
-127.17397292326666
20
-48.772572959873727
42
0.49517812637347364
10
-127.48057866607164
20
-49.50643657835397
10
-124.22995454506299
20
-55.133913731079652
42
0.70704025840997708
10
-122.83962749551148
20
-54.875330589645927
42
-0.29821662669854082
10
-122.47205591902303
20
-54.469262693651061
10
-116.81705138663207
20
-52.992261934381318
42
-0.298216626698525
10
-116.29785538189905
20
-53.166719690497828
42
0.70704025841003237
10
-114.95865389702472
20
-52.712391693717038
10
-114.87510091425995
20
-46.214078437216969
42
0.49517812637344133
0
LWPOLYLINE
5
216
100
AcDbEntity
8
0
100
AcDbPolyline
90
10
70
1
43
0.0
10
-126.62204394494626
20
-47.284807668834368
10
-116.71038144723093
20
-44.696032902890686
42
-0.2982166266986136
10
-116.19118544249788
20
-44.870490659007345
42
0.70704025841008789
10
-114.85198395762345
20
-44.416162662226569
10
-114.76843097485856
20
-37.917849405726393
42
0.49517812637344755
10
-115.39474334044928
20
-37.427649739510862
10
-131.32396094919008
20
-41.588117935057369
42
0.49517812637346814
10
-131.63056669199491
20
-42.321981553537434
10
-128.37994257098626
20
-47.949458706263314
42
0.70704025841004547
10
-126.98961552143486
20
-47.690875564829447
42
-0.29821662669867094
0
LWPOLYLINE
5
217
100
AcDbEntity
8
0
100
AcDbPolyline
90
6
70
1
43
0.0
10
-119.18060261422468
20
-63.875346627986794
10
-116.10052813190615
20
-69.207568420693946
42
0.7621485915473446
10
-115.16761002351045
20
-68.963904468429263
10
-115.0884407930626
20
-62.806536500198035
42
0.49517812637348457
10
-115.71475315865339
20
-62.316336833982533
10
-118.87399687141981
20
-63.141483009506629
42
0.49517812637353548
0
CIRCLE
5
218
100
AcDbEntity
8
0
100
AcDbCircle
10
-134.26682185729163
20
-30.160902422455074
30
0
40
1.1499999999999886
210
1.558947098292875e-32
220
1.9096720404327629e-32
230
1
0
CIRCLE
5
219
100
AcDbEntity
8
0
100
AcDbCircle
10
-118.41577773861503
20
-26.020851947799702
30
1.7763568394002505e-14
40
1.1499999999999913
210
-6.493356433262644e-33
220
-1.6485858510395955e-32
230
1
0
LWPOLYLINE
5
220
100
AcDbEntity
8
0
100
AcDbPolyline
90
10
70
1
43
0.0
10
-118.32206789309964
20
-61.653717718467476
10
-116.92372132603333
20
-61.288490965871915
42
-0.29821662669848359
10
-116.40452532130044
20
-61.462948721988369
42
0.70704025840989448
10
-115.06532383642613
20
-61.008620725207415
10
-114.98177085366126
20
-54.51030746870758
42
0.49517812637344405
10
-115.60808321925199
20
-54.02010780249207
10
-123.02398489734315
20
-55.957027984690356
42
0.49517812637343023
10
-123.3305906401481
20
-56.690891603170535
10
-120.07996651913956
20
-62.318368755895932
42
0.70704025840986395
10
-118.68963946958817
20
-62.059785614462378
42
-0.29821662669849031
0
LWPOLYLINE
5
221
100
AcDbEntity
8
0
100
AcDbPolyline
90
6
70
1
43
0.0
10
-110.74767316464911
20
-23.718657318076367
42
-0.75020640321333931
10
-108.80090185713135
20
-23.210223905908109
10
-86.809908314684364
20
-59.978149777583162
42
-0.49992239815568107
10
-89.837423774937903
20
-67.382353292687114
10
-105.68846789361405
20
-71.522403767343718
42
-0.49992239815569356
10
-111.95003534620864
20
-66.544366745407871
0
LWPOLYLINE
5
222
100
AcDbEntity
8
0
100
AcDbPolyline
90
10
70
1
43
0.0
10
-110.07704238473508
20
-63.366715513740459
10
-89.99758325980288
20
-58.122267661685228
42
0.49517812637340386
10
-89.690977516998174
20
-57.388404043205085
10
-92.837851937358963
20
-51.940538266099864
42
0.70704025840999696
10
-94.228178986910379
20
-52.199121407533717
42
-0.29821662669861304
10
-94.595750563398894
20
-52.605189303528732
10
-108.76407102643931
20
-56.30573807614774
42
-0.29821662669859988
10
-109.28326703117239
20
-56.131280320031195
42
0.70704025841007712
10
-110.6224685160465
20
-56.585608316812142
10
-110.70335475032586
20
-62.876515847524985
42
0.49517812637345399
0
LWPOLYLINE
5
223
100
AcDbEntity
8
0
100
AcDbPolyline
90
10
70
1
43
0.0
10
-109.86636925441869
20
-46.981663176546519
10
-98.193809611002933
20
-43.932968987673313
42
0.4951781263734904
10
-97.887203868198014
20
-43.199105369193049
10
-101.13782798920712
20
-37.57162821646763
42
0.70704025840997065
10
-102.52815503875858
20
-37.830211357901447
42
-0.2982166266985608
10
-102.89572661524703
20
-38.236279253896356
10
-108.55073114763783
20
-39.713280013166525
42
-0.29821662669856158
10
-109.06992715237088
20
-39.538822257050057
42
0.70704025841003937
10
-110.40912863724516
20
-39.993150253830969
10
-110.49268162000944
20
-46.491463510331059
42
0.49517812637343922
0
LWPOLYLINE
5
224
100
AcDbEntity
8
0
100
AcDbPolyline
90
10
70
1
43
0.0
10
-98.74573858932321
20
-45.4207342787127
10
-108.65740108703831
20
-48.009509044657186
42
-0.29821662669864174
10
-109.17659709177141
20
-47.835051288540555
42
0.7070402584101152
10
-110.51579857664578
20
-48.289379285321452
10
-110.59935155941018
20
-54.787692541821627
42
0.49517812637346614
10
-109.97303919381937
20
-55.277892208037102
10
-94.043821585078945
20
-51.117424012489337
42
0.49517812637343678
10
-93.737215842274139
20
-50.383560394009251
10
-96.98783996328325
20
-44.756083241283626
42
0.70704025841004892
10
-98.378167012834666
20
-45.014666382717607
42
-0.29821662669867038
0
LWPOLYLINE
5
225
100
AcDbEntity
8
0
100
AcDbPolyline
90
6
70
1
43
0.0
10
-106.18717992004612
20
-28.830195319560879
10
-109.26725440236507
20
-23.497973526853979
42
0.76214859154736847
10
-110.20017251076072
20
-23.741637479118751
10
-110.2793417412081
20
-29.899005447349975
42
0.49517812637349795
10
-109.65302937561728
20
-30.389205113565399
10
-106.49378566285093
20
-29.564058938041072
42
0.49517812637351044
0
CIRCLE
5
226
100
AcDbEntity
8
0
100
AcDbCircle
10
-91.100960676976513
20
-62.544639525091398
30
0
40
1.1499999999999877
210
3.4296073062926274e-32
220
-3.595312206693621e-32
230
1
0
CIRCLE
5
227
100
AcDbEntity
8
0
100
AcDbCircle
10
-106.95200479565274
20
-66.684689999748016
30
0
40
1.1499999999999901
210
3.6839458208740108e-32
220
-4.1005316698321923e-32
230
1
0
LWPOLYLINE
5
228
100
AcDbEntity
8
0
100
AcDbPolyline
90
10
70
1
43
0.0
10
-107.04571464117096
20
-31.051824229080264
10
-108.44406120823727
20
-31.417050981675942
42
-0.29821662669845483
10
-108.96325721297015
20
-31.242593225559524
42
0.70704025840987461
10
-110.30245869784444
20
-31.696921222340588
10
-110.38601168060879
20
-38.195234478840405
42
0.49517812637345332
10
-109.75969931501801
20
-38.685434145055886
10
-102.34379763692701
20
-36.748513962857018
42
0.49517812637345893
10
-102.03719189412213
20
-36.014650344376811
10
-105.2878160151311
20
-30.387173191651673
42
0.70704025840986151
10
-106.67814306468244
20
-30.64575633308532
42
-0.29821662669849724
0
LWPOLYLINE
5
229
100
AcDbEntity
8
0
100
AcDbPolyline
90
6
70
1
43
0.0
10
-76.620109369622554
20
-68.986884629471888
42
-0.75020640321334009
10
-78.566880677140333
20
-69.495318041639976
10
-100.55787421958443
20
-32.727392169963181
42
-0.49992239815568207
10
-97.530358759330284
20
-25.323188654859472
10
-81.679314640653814
20
-21.183138180204068
42
-0.4999223981556935
10
-75.417747188059593
20
-26.16117520214047
0
LWPOLYLINE
5
230
100
AcDbEntity
8
0
100
AcDbPolyline
90
10
70
1
43
0.0
10
-77.29074014953342
20
-29.338826433807714
10
-97.370199274466074
20
-34.583274285861364
42
0.49517812637343372
10
-97.676805017270851
20
-35.317137904341493
10
-94.529930596910475
20
-40.765003681446963
42
0.70704025841000395
10
-93.13960354735903
20
-40.506420540013217
42
-0.29821662669860638
10
-92.772031970870472
20
-40.100352644018244
10
-78.603711507829757
20
-36.399803871400358
42
-0.29821662669857463
10
-78.084515503096711
20
-36.574261627516933
42
0.70704025841005713
10
-76.74531401822253
20
-36.119933630736092
10
-76.664427783942685
20
-29.829026100023249
42
0.49517812637345826
0
LWPOLYLINE
5
231
100
AcDbEntity
8
0
100
AcDbPolyline
90
10
70
1
43
0.0
10
-77.501413279851121
20
-45.723878771001651
10
-89.173972923267115
20
-48.772572959873941
42
0.49517812637347364
10
-89.480578666072091
20
-49.506436578354183
10
-86.22995454506345
20
-55.133913731079865
42
0.70704025840997553
10
-84.839627495511962
20
-54.87533058964614
42
-0.2982166266985502
10
-84.472055919023489
20
-54.469262693651274
10
-78.817051386632556
20
-52.992261934381531
42
-0.29821662669856264
10
-78.29785538189951
20
-53.166719690498041
42
0.70704025841002427
10
-76.958653897025187
20
-52.712391693717251
10
-76.8751009142604
20
-46.214078437217182
42
0.49517812637344133
0
LWPOLYLINE
5
232
100
AcDbEntity
8
0
100
AcDbPolyline
90
10
70
1
43
0.0
10
-88.622043944946739
20
-47.284807668834581
10
-78.710381447231413
20
-44.69603290289087
42
-0.29821662669862953
10
-78.191185442498323
20
-44.870490659007558
42
0.70704025841009588
10
-76.851983957623901
20
-44.416162662226782
10
-76.768430974859015
20
-37.917849405726606
42
0.49517812637344755
10
-77.394743340449736
20
-37.427649739511075
10
-93.32396094919055
20
-41.588117935057582
42
0.49517812637348441
10
-93.630566691995384
20
-42.321981553537647
10
-90.379942570986728
20
-47.949458706263528
42
0.70704025841004547
10
-88.989615521435326
20
-47.690875564829661
42
-0.29821662669867094
0
LWPOLYLINE
5
233
100
AcDbEntity
8
0
100
AcDbPolyline
90
6
70
1
43
0.0
10
-81.180602614225137
20
-63.875346627987007
10
-78.1005281319066
20
-69.207568420694159
42
0.76214859154735881
10
-77.167610023510917
20
-68.963904468429462
10
-77.088440793063043
20
-62.806536500198227
42
0.49517812637349262
10
-77.714753158653835
20
-62.316336833982746
10
-80.87399687142026
20
-63.141483009506828
42
0.49517812637354508
0
CIRCLE
5
234
100
AcDbEntity
8
0
100
AcDbCircle
10
-96.266821857292086
20
-30.16090242245529
30
0
40
1.149999999999989
210
-1.5589470982928741e-32
220
-1.9096720404327634e-32
230
1
0
CIRCLE
5
235
100
AcDbEntity
8
0
100
AcDbCircle
10
-80.415777738615503
20
-26.020851947799915
30
1.7763568394002505e-14
40
1.1499999999999913
210
8.2148511765207539e-32
220
-6.0507339687437529e-32
230
1
0
LWPOLYLINE
5
236
100
AcDbEntity
8
0
100
AcDbPolyline
90
10
70
1
43
0.0
10
-80.322067893100112
20
-61.653717718467689
10
-78.923721326033785
20
-61.288490965872128
42
-0.29821662669847587
10
-78.404525321300881
20
-61.462948721988582
42
0.70704025840988838
10
-77.065323836426572
20
-61.008620725207621
10
-76.981770853661715
20
-54.510307468707794
42
0.49517812637345482
10
-77.608083219252464
20
-54.020107802492284
10
-85.02398489734361
20
-55.957027984690569
42
0.49517812637342462
10
-85.330590640148571
20
-56.690891603170748
10
-82.079966519140015
20
-62.318368755896145
42
0.70704025840986273
10
-80.689639469588656
20
-62.059785614462591
42
-0.29821662669849031
0
LWPOLYLINE
5
237
100
AcDbEntity
8
0
100
AcDbPolyline
90
6
70
1
43
0.0
10
-72.747673164648802
20
-23.718657318076168
42
-0.75020640321333742
10
-70.800901857131066
20
-23.210223905907913
10
-48.809908314684058
20
-59.978149777582971
42
-0.49992239815567935
10
-51.837423774937619
20
-67.382353292686915
10
-67.688467893613776
20
-71.522403767343533
42
-0.49992239815569356
10
-73.950035346208352
20
-66.544366745407672
0
LWPOLYLINE
5
238
100
AcDbEntity
8
0
100
AcDbPolyline
90
10
70
1
43
0.0
10
-72.077042384734796
20
-63.36671551374026
10
-51.997583259802589
20
-58.122267661685036
42
0.49517812637341402
10
-51.690977516997869
20
-57.388404043204886
10
-54.837851937358657
20
-51.940538266099665
42
0.70704025840999896
10
-56.228178986910081
20
-52.199121407533518
42
-0.29821662669861221
10
-56.59575056339861
20
-52.605189303528533
10
-70.764071026439012
20
-56.305738076147549
42
-0.29821662669859317
10
-71.283267031172102
20
-56.131280320031003
42
0.70704025841006668
10
-72.622468516046212
20
-56.585608316811943
10
-72.703354750325559
20
-62.876515847524786
42
0.49517812637345399
0
LWPOLYLINE
5
239
100
AcDbEntity
8
0
100
AcDbPolyline
90
10
70
1
43
0.0
10
-71.866369254418373
20
-46.98166317654632
10
-60.193809611002642
20
-43.932968987673114
42
0.49517812637346603
10
-59.887203868197716
20
-43.19910536919285
10
-63.137827989206812
20
-37.571628216467431
42
0.70704025840997409
10
-64.528155038758285
20
-37.830211357901263
42
-0.29821662669855142
10
-64.89572661524673
20
-38.236279253896164
10
-70.550731147637549
20
-39.713280013166326
42
-0.2982166266985633
10
-71.069927152370582
20
-39.538822257049866
42
0.70704025841002338
10
-72.409128637244876
20
-39.99315025383077
10
-72.492681620009151
20
-46.49146351033086
42
0.4951781263734446
0
LWPOLYLINE
5
240
100
AcDbEntity
8
0
100
AcDbPolyline
90
10
70
1
43
0.0
10
-60.745738589322912
20
-45.420734278712509
10
-70.657401087038011
20
-48.009509044656994
42
-0.29821662669863669
10
-71.176597091771114
20
-47.835051288540356
42
0.70704025841010998
10
-72.515798576645494
20
-48.28937928532126
10
-72.599351559409882
20
-54.787692541821436
42
0.49517812637346614
10
-71.973039193819091
20
-55.277892208036903
10
-56.043821585078661
20
-51.117424012489145
42
0.49517812637345571
10
-55.737215842273862
20
-50.383560394009059
10
-58.987839963282973
20
-44.756083241283434
42
0.70704025841004736
10
-60.378167012834382
20
-45.014666382717408
42
-0.29821662669866972
0
LWPOLYLINE
5
241
100
AcDbEntity
8
0
100
AcDbPolyline
90
6
70
1
43
0.0
10
-68.187179920045821
20
-28.830195319560687
10
-71.26725440236477
20
-23.497973526853784
42
0.76214859154736847
10
-72.200172510760453
20
-23.741637479118552
10
-72.279341741207816
20
-29.899005447349779
42
0.49517812637350339
10
-71.653029375616967
20
-30.389205113565204
10
-68.493785662850641
20
-29.56405893804088
42
0.49517812637351943
0
CIRCLE
5
242
100
AcDbEntity
8
0
100
AcDbCircle
10
-53.100960676976214
20
-62.544639525091199
30
0
40
1.1499999999999877
210
-1.9486838728659076e-33
220
-2.38709005054111e-33
230
1
0
CIRCLE
5
243
100
AcDbEntity
8
0
100
AcDbCircle
10
-68.952004795652456
20
-66.684689999747818
30
0
40
1.1499999999999901
210
6.7756762781857554e-33
220
1.7202634967370239e-32
230
1
0
LWPOLYLINE
5
244
100
AcDbEntity
8
0
100
AcDbPolyline
90
10
70
1
43
0.0
10
-69.045714641170662
20
-31.051824229080069
10
-70.44406120823696
20
-31.417050981675736
42
-0.29821662669845683
10
-70.963257212969864
20
-31.242593225559329
42
0.70704025840987839
10
-72.302458697844159
20
-31.696921222340393
10
-72.386011680608505
20
-38.195234478840213
42
0.49517812637345332
10
-71.759699315017713
20
-38.685434145055694
10
-64.343797636926695
20
-36.748513962856819
42
0.49517812637348407
10
-64.037191894121833
20
-36.014650344376619
10
-67.287816015130801
20
-30.387173191651478
42
0.70704025840986151
10
-68.678143064682146
20
-30.645756333085124
42
-0.29821662669849253
0
LWPOLYLINE
5
245
100
AcDbEntity
8
0
100
AcDbPolyline
90
6
70
1
43
0.0
10
-40.624070762610074
20
-69.27515494873721
42
-0.75020640321333931
10
-42.636099696655599
20
-69.262402421653888
10
-54.361528840550307
20
-28.055625293608117
42
-0.49992239815567868
10
-49.520824584477445
20
-21.687292555725321
10
-33.138367786073857
20
-21.790862982789349
42
-0.49992239815569411
10
-28.378568859064728
20
-28.219890415426335
0
LWPOLYLINE
5
246
100
AcDbEntity
8
0
100
AcDbPolyline
90
10
70
1
43
0.0
10
-31.010177790458936
20
-30.804499557260563
10
-51.762808922305517
20
-30.673300745294981
42
0.49517812637339392
10
-52.248905208739714
20
-31.302803161783185
10
-50.619269352302425
20
-37.379508446580971
42
0.70704025841000084
10
-49.209390306406888
20
-37.48957943137227
42
-0.29821662669861049
10
-48.749245322578602
20
-37.192482487837459
10
-34.105926172503452
20
-37.285058029874428
42
-0.29821662669858923
10
-33.649574332474515
20
-37.587949096269917
42
0.70704025841004614
10
-32.238416293339739
20
-37.495712800088157
10
-30.532079510730131
20
-31.440097643294518
42
0.4951781263734536
0
LWPOLYLINE
5
247
100
AcDbEntity
8
0
100
AcDbPolyline
90
10
70
1
43
0.0
10
-35.454436007805526
20
-46.57671855643656
10
-47.518322945054059
20
-46.50045026911441
42
0.49517812637348696
10
-48.00441923148847
20
-47.129952685602667
10
-46.321055704452803
20
-53.407001635258766
42
0.70704025840997298
10
-44.911176658557238
20
-53.517072620050136
42
-0.29821662669854215
10
-44.45103167472908
20
-53.219975676515396
10
-38.606440822981043
20
-53.256925370812127
42
-0.29821662669856031
10
-38.150088982952099
20
-53.559816437207566
42
0.70704025841003892
10
-36.738930943817195
20
-53.467580141025849
10
-34.976337728076722
20
-47.212316642470505
42
0.49517812637345099
0
LWPOLYLINE
5
248
100
AcDbEntity
8
0
100
AcDbPolyline
90
10
70
1
43
0.0
10
-46.600138498653564
20
-45.206229082176328
10
-36.356183497742485
20
-45.270991700343146
42
-0.29821662669863869
10
-35.899831657713548
20
-45.573882766738748
42
0.70704025841009688
10
-34.488673618578545
20
-45.481646470557102
10
-32.726080402837944
20
-39.22638297200168
42
0.49517812637345088
10
-33.204178682566749
20
-38.590784885967715
10
-49.667429768978799
20
-38.486703674775605
42
0.49517812637344083
10
-50.153526055413032
20
-39.116206091263741
10
-48.470162528377408
20
-45.393255040920046
42
0.7070402584100467
10
-47.060283482481886
20
-45.503326025711232
42
-0.29821662669866711
0
LWPOLYLINE
5
249
100
AcDbEntity
8
0
100
AcDbPolyline
90
6
70
1
43
0.0
10
-43.706205583638898
20
-63.157445874280413
10
-42.11116264693689
20
-69.105158551715974
42
0.7621485915473426
10
-41.146968080773696
20
-69.111254221261675
10
-39.476852378554149
20
-63.184183983408118
42
0.49517812637349495
10
-39.954950658283018
20
-62.548585897374203
10
-43.220109297204615
20
-62.527943457792176
42
0.49517812637351721
0
CIRCLE
5
250
100
AcDbEntity
8
0
100
AcDbCircle
10
-49.552434116137995
20
-26.687192638477633
30
0
40
1.1499999999999861
210
4.000173516046605e-32
220
2.8822326885012369e-32
230
1
0
CIRCLE
5
251
100
AcDbEntity
8
0
100
AcDbCircle
10
-33.169977317734322
20
-26.790763065541697
30
0
40
1.1499999999999886
210
6.4605348080892774e-32
220
-7.8468635178226519e-32
230
1
0
LWPOLYLINE
5
252
100
AcDbEntity
8
0
100
AcDbPolyline
90
10
70
1
43
0.0
10
-42.301924850804397
20
-61.233722270854244
10
-40.856698148219692
20
-61.242859041281001
42
-0.29821662669846666
10
-40.400346308190876
20
-61.545750107676341
42
0.70704025840988205
10
-38.98918826905593
20
-61.453513811494524
10
-37.226595053315464
20
-55.198250312939415
42
0.49517812637344827
10
-37.704693333044268
20
-54.562652226905456
10
-45.369216121129313
20
-54.514196863453471
42
0.49517812637348241
10
-45.855312407563659
20
-55.143699279941707
10
-44.171948880528042
20
-61.4207482295975
42
0.70704025840985985
10
-42.762069834632655
20
-61.530819214388998
42
-0.29821662669848908
0
LWPOLYLINE
5
253
100
AcDbEntity
8
0
100
AcDbPolyline
90
6
70
1
43
0.0
10
76.218731890821672
20
-47.505785121812337
42
-0.75020640321333865
10
76.727165302989903
20
-49.452556429330066
10
39.959239431314913
20
-71.44354997177679
42
-0.49992239815567985
10
32.555035916210997
20
-68.416034511523165
10
28.414985441554496
20
-52.564990392847037
42
-0.49992239815569317
10
33.393022463490389
20
-46.303422940252489
0
LWPOLYLINE
5
254
100
AcDbEntity
8
0
100
AcDbPolyline
90
10
70
1
43
0.0
10
36.570673695157765
20
-48.176415901726074
10
41.81512154721284
20
-68.255875026658273
42
0.49517812637338482
10
42.548985165692983
20
-68.562480769462994
10
47.996850942798218
20
-65.415606349102248
42
0.70704025840999951
10
47.738267801364358
20
-64.025279299550817
42
-0.29821662669861038
10
47.33219990536935
20
-63.657707723062288
10
43.631651132750463
20
-49.489387260021893
42
-0.29821662669859095
10
43.806108888867001
20
-48.970191255288825
42
0.70704025841004625
10
43.351780892086069
20
-47.630989770414715
10
37.060873361373254
20
-47.550103536135296
42
0.4951781263734561
0
LWPOLYLINE
5
255
100
AcDbEntity
8
0
100
AcDbPolyline
90
10
70
1
43
0.0
10
52.955726032351635
20
-48.387089032042581
10
56.004420221224755
20
-60.05964867545832
42
0.49517812637348085
10
56.738283839705012
20
-60.366254418263246
10
62.365760992430438
20
-57.115630297254192
42
0.70704025840998042
10
62.107177850996607
20
-55.725303247702726
42
-0.29821662669854254
10
61.701109955001705
20
-55.357731671214296
10
60.224109195731586
20
-49.702727138823462
42
-0.29821662669857174
10
60.398566951848053
20
-49.183531134090437
42
0.70704025841001916
10
59.944238955067149
20
-47.844329649216142
10
53.445925698567109
20
-47.760776666451825
42
0.49517812637344338
0
LWPOLYLINE
5
256
100
AcDbEntity
8
0
100
AcDbPolyline
90
10
70
1
43
0.0
10
54.516654930185368
20
-59.507719697138043
10
51.927880164240989
20
-49.59605719942293
42
-0.29821662669865928
10
52.102337920357591
20
-49.076861194689855
42
0.70704025841010909
10
51.648009923576709
20
-47.737659709815468
10
45.149696667076569
20
-47.654106727051051
42
0.49517812637345027
10
44.659497000861094
20
-48.280419092641807
10
48.819965196408731
20
-64.209636701382252
42
0.49517812637343411
10
49.553828814888817
20
-64.516242444187043
10
55.181305967614435
20
-61.265618323177982
42
0.70704025841004903
10
54.922722826180468
20
-59.875291273626587
42
-0.29821662669866622
0
LWPOLYLINE
5
257
100
AcDbEntity
8
0
100
AcDbPolyline
90
6
70
1
43
0.0
10
71.107193889337154
20
-52.066278366415268
10
76.439415682044043
20
-48.986203884096362
42
0.76214859154736059
10
76.195751729779303
20
-48.053285775700694
10
70.03838376154809
20
-47.974116545253281
42
0.49517812637348796
10
69.548184095332658
20
-48.600428910844101
10
70.373330270856954
20
-51.759672623610456
42
0.49517812637353681
0
CIRCLE
5
258
100
AcDbEntity
8
0
100
AcDbCircle
10
37.392749683806713
20
-67.152497609484627
30
-1.7763568394002505e-14
40
1.1499999999999841
210
3.8193440808657737e-32
220
-3.1178941965854817e-32
230
1
0
CIRCLE
5
259
100
AcDbEntity
8
0
100
AcDbCircle
10
33.252699209150208
20
-51.301453490808377
30
-1.7763568394002505e-14
40
1.1499999999999853
210
-1.0981585656780346e-31
220
-9.7367530959964186e-33
230
1
0
LWPOLYLINE
5
260
100
AcDbEntity
8
0
100
AcDbPolyline
90
10
70
1
43
0.0
10
68.885564979817786
20
-51.2077436452904
10
68.520338227222126
20
-49.809397078224109
42
-0.29821662669845228
10
68.694795983338523
20
-49.290201073491211
42
0.70704025840987494
10
68.240467986557491
20
-47.950999588616945
10
61.742154730057692
20
-47.86744660585255
42
0.49517812637344616
10
61.251955063842232
20
-48.493758971443306
10
63.188875246041043
20
-55.90966064953431
42
0.49517812637347269
10
63.922738864521236
20
-56.216266392339193
10
69.55021601724637
20
-52.965642271330253
42
0.70704025840986739
10
69.291632875812724
20
-51.575315221778908
42
-0.29821662669849419
0
LWPOLYLINE
5
261
100
AcDbEntity
8
0
100
AcDbPolyline
90
6
70
1
43
0.0
10
95.6354890683794
20
-69.033644970971835
42
-0.75020640321334009
10
93.651812921757838
20
-69.370471341239892
10
74.949037637641013
20
-30.825817152095247
42
-0.49992239815567485
10
78.610351344350505
20
-23.713654225375102
10
94.761906628725711
20
-20.970867416179935
42
-0.49992239815569373
10
100.56578241267184
20
-26.475693066432662
0
LWPOLYLINE
5
262
100
AcDbEntity
8
0
100
AcDbPolyline
90
10
70
1
43
0.0
10
98.422966201599564
20
-29.478010283085911
10
77.962831732944707
20
-32.952461253716116
42
0.49517812637338754
10
77.593432288814
20
-33.656809848323597
10
80.253519113744503
20
-39.35821302883155
42
0.70704025841000118
10
81.661092554874898
20
-39.221788860985114
42
-0.29821662669860566
10
82.062656559623406
20
-38.849302149691425
10
96.499586362620761
20
-36.397685575822393
42
-0.29821662669861493
10
97.001601674493841
20
-36.616730380930839
42
0.70704025841004936
10
98.375304387412555
20
-36.280850339446069
10
99.00417154354669
20
-30.020931310991259
42
0.49517812637345154
0
LWPOLYLINE
5
263
100
AcDbEntity
8
0
100
AcDbPolyline
90
10
70
1
43
0.0
10
96.785043339739687
20
-45.782351176204358
10
84.891190103367393
20
-47.802113557774049
42
0.49517812637347824
10
84.521790659236473
20
-48.506462152381637
10
87.269578223033321
20
-54.395835615219227
42
0.70704025840997353
10
88.677151664163745
20
-54.259411447372841
42
-0.29821662669854615
10
89.078715668912167
20
-53.886924736079266
10
94.840930299977813
20
-52.908410530879053
42
-0.29821662669857635
10
95.342945611850865
20
-53.127455335987399
42
0.70704025841001628
10
96.71664832476975
20
-52.791575294502678
10
97.366248681686841
20
-46.325272204109694
42
0.49517812637345904
0
LWPOLYLINE
5
264
100
AcDbEntity
8
0
100
AcDbPolyline
90
10
70
1
43
0.0
10
85.570686114268057
20
-46.368113442885203
10
95.670258331299024
20
-44.653048053350616
42
-0.29821662669867499
10
96.172273643172133
20
-44.872092858459155
42
0.70704025841008433
10
97.545976356091089
20
-44.536212816974476
10
98.195576713008279
20
-38.069909726581393
42
0.49517812637346292
10
97.614371371061139
20
-37.52698869867605
10
81.383160548723069
20
-40.2833022645803
42
0.49517812637345149
10
81.013761104592305
20
-40.987650859187724
10
83.761548668389139
20
-46.877024322025527
42
0.70704025841005524
10
85.169122109519506
20
-46.740600154178978
42
-0.29821662669866633
0
LWPOLYLINE
5
265
100
AcDbEntity
8
0
100
AcDbPolyline
90
6
70
1
43
0.0
10
91.537849768525263
20
-63.544084738769264
10
94.14146988670015
20
-69.124461996937868
42
0.76214859154735337
10
95.092074672778182
20
-68.963034430235638
10
95.707592619044007
20
-62.835997159166226
42
0.49517812637350211
10
95.126387277096825
20
-62.293076131260918
10
91.907249212656041
20
-62.839736144161748
42
0.49517812637353215
0
CIRCLE
5
266
100
AcDbEntity
8
0
100
AcDbCircle
10
79.447445570388993
20
-28.643083528725661
30
0
40
1.1499999999999853
210
-3.4389074380263616e-32
220
-3.5330679390344012e-32
230
1
0
CIRCLE
5
267
100
AcDbEntity
8
0
100
AcDbCircle
10
95.599000854764284
20
-25.900296719530559
30
0
40
1.149999999999983
210
-5.4994674747423551e-33
220
-1.103108976603908e-32
230
1
0
LWPOLYLINE
5
268
100
AcDbEntity
8
0
100
AcDbPolyline
90
10
70
1
43
0.0
10
92.586745223556463
20
-61.405736029273079
10
94.011602268656503
20
-61.163773008407375
42
-0.29821662669848303
10
94.513617580529399
20
-61.382817813515665
42
0.70704025840986495
10
95.887320293448269
20
-61.046937772030788
10
96.536920650365431
20
-54.580634681638045
42
0.49517812637344805
10
95.955715308418291
20
-54.037713653732709
10
88.399219658011788
20
-55.320924850968098
42
0.49517812637346448
10
88.02982021388091
20
-56.025273445575607
10
90.777607777677659
20
-61.914646908412919
42
0.70704025840985396
10
92.185181218807941
20
-61.778222740566697
42
-0.29821662669849941
0
LWPOLYLINE
5
269
100
AcDbEntity
8
0
100
AcDbPolyline
90
6
70
1
43
0.0
10
-188.25539435405682
20
54.596138012649895
42
-0.75020640321333687
10
-186.30862304653908
20
55.104571424818147
10
-164.31762950409205
20
18.336645553143079
42
-0.49992239815568351
10
-167.34514496434565
20
10.932442038039126
10
-183.19618908302181
20
6.7923915633825533
42
-0.49992239815569389
10
-189.45775653561637
20
11.770428585318404
0
LWPOLYLINE
5
270
100
AcDbEntity
8
0
100
AcDbPolyline
90
10
70
1
43
0.0
10
-187.58476357414281
20
14.948079816985803
10
-167.5053044492106
20
20.19252766904102
42
0.49517812637344144
10
-167.19869870640591
20
20.926391287521167
10
-170.34557312676668
20
26.374257064626395
42
0.70704025840999774
10
-171.73590017631813
20
26.115673923192524
42
-0.29821662669861182
10
-172.10347175280663
20
25.709606027197516
10
-186.27179221584703
20
22.00905725457854
42
-0.29821662669862237
10
-186.79098822058009
20
22.183515010695075
42
0.70704025841006612
10
-188.13018970545426
20
21.729187013914121
10
-188.21107593973358
20
15.438279483201276
42
0.49517812637345654
0
LWPOLYLINE
5
271
100
AcDbEntity
8
0
100
AcDbPolyline
90
10
70
1
43
0.0
10
-187.37409044382642
20
31.33313215417974
10
-175.70153080041067
20
34.381826343052936
42
0.49517812637348529
10
-175.39492505760575
20
35.115689961533207
10
-178.64554917861483
20
40.74316711425864
42
0.70704025840997431
10
-180.03587622816633
20
40.484583972824801
42
-0.29821662669852878
10
-180.40344780465472
20
40.078516076829906
10
-186.05845233704557
20
38.601515317559766
42
-0.29821662669860488
10
-186.57764834177863
20
38.775973073676198
42
0.70704025841002205
10
-187.91684982665288
20
38.321645076895294
10
-188.00040280941718
20
31.823331820395218
42
0.49517812637345332
0
LWPOLYLINE
5
272
100
AcDbEntity
8
0
100
AcDbPolyline
90
10
70
1
43
0.0
10
-176.25345977873093
20
32.894061052013548
10
-186.16512227644603
20
30.305286286069038
42
-0.29821662669865912
10
-186.68431828117915
20
30.4797440421857
42
0.70704025841009688
10
-188.02351976605354
20
30.025416045404818
10
-188.1070727488179
20
23.527102788904642
42
0.49517812637345676
10
-187.48076038322711
20
23.036903122689161
10
-171.55154277448668
20
27.197371318236911
42
0.49517812637348796
10
-171.24493703168187
20
27.931234936717004
10
-174.49556115269101
20
33.558712089442629
42
0.70704025841003937
10
-175.88588820224237
20
33.300128948008648
42
-0.29821662669866073
0
LWPOLYLINE
5
273
100
AcDbEntity
8
0
100
AcDbPolyline
90
6
70
1
43
0.0
10
-183.69490110945381
20
49.484600011165384
10
-186.77497559177277
20
54.816821803872287
42
0.76214859154736936
10
-187.70789370016846
20
54.573157851607519
10
-187.78706293061583
20
48.415789883376277
42
0.49517812637348529
10
-187.16075056502501
20
47.925590217160867
10
-184.00150685225861
20
48.750736392685177
42
0.49517812637351943
0
CIRCLE
5
274
100
AcDbEntity
8
0
100
AcDbCircle
10
-168.60868186638425
20
15.770155805634857
30
0
40
1.1499999999999879
210
3.819344080865806e-32
220
-3.1178941965854007e-32
230
1
0
CIRCLE
5
275
100
AcDbEntity
8
0
100
AcDbCircle
10
-184.45972598506049
20
11.630105330978246
30
0
40
1.1499999999999906
210
-9.0342350375810173e-33
220
-2.293684662316031e-32
230
1
0
LWPOLYLINE
5
276
100
AcDbEntity
8
0
100
AcDbPolyline
90
10
70
1
43
0.0
10
-184.55343583057868
20
47.262971101645988
10
-185.95178239764496
20
46.897744349050321
42
-0.29821662669845828
10
-186.47097840237788
20
47.072202105166731
42
0.70704025840987539
10
-187.81017988725216
20
46.617874108385692
10
-187.89373287001649
20
40.119560851885851
42
0.49517812637342568
10
-187.26742050442573
20
39.629361185670369
10
-179.85151882633471
20
41.566281367869244
42
0.49517812637354303
10
-179.54491308352982
20
42.300144986349444
10
-182.79553720453885
20
47.927622139074586
42
0.70704025840986096
10
-184.18586425409018
20
47.669038997640939
42
-0.29821662669848908
0
LWPOLYLINE
5
277
100
AcDbEntity
8
0
100
AcDbPolyline
90
6
70
1
43
0.0
10
-154.12783055902958
20
9.327910701254801
42
-0.7502064032133382
10
-156.07460186654737
20
8.8194772890867057
10
-178.0655954089915
20
45.587403160763536
42
-0.49992239815568357
10
-175.03807994873733
20
52.991606675867253
10
-159.18703583006081
20
57.131657150522628
42
-0.4999223981556925
10
-152.92546837746659
20
52.15362012858624
0
LWPOLYLINE
5
278
100
AcDbEntity
8
0
100
AcDbPolyline
90
10
70
1
43
0.0
10
-154.7984613389404
20
48.975968896918985
10
-174.87792046387307
20
43.731521044865353
42
0.49517812637338338
10
-175.18452620667787
20
42.997657426385217
10
-172.0376517863175
20
37.549791649279733
42
0.70704025840999485
10
-170.64732473676602
20
37.808374790713493
42
-0.29821662669860727
10
-170.27975316027749
20
38.214442686708466
10
-156.11143269723675
20
41.914991459326345
42
-0.29821662669859733
10
-155.59223669250369
20
41.740533703209771
42
0.70704025841006479
10
-154.25303520762955
20
42.194861699990597
10
-154.17214897334969
20
48.48576923070344
42
0.49517812637343472
0
LWPOLYLINE
5
279
100
AcDbEntity
8
0
100
AcDbPolyline
90
10
70
1
43
0.0
10
-155.00913446925813
20
32.590916559725045
10
-166.68169411267414
20
29.542222370852762
42
0.49517812637348263
10
-166.98829985547914
20
28.80835875237252
10
-163.73767573447049
20
23.180881599646831
42
0.70704025840997542
10
-162.34734868491898
20
23.439464741080549
42
-0.29821662669854959
10
-161.97977710843051
20
23.845532637075429
10
-156.32477257603955
20
25.322533396345154
42
-0.29821662669856536
10
-155.80557657130652
20
25.148075640228647
42
0.70704025841003071
10
-154.46637508643218
20
25.602403637009445
10
-154.38282210366742
20
32.100716893509507
42
0.49517812637344338
0
LWPOLYLINE
5
280
100
AcDbEntity
8
0
100
AcDbPolyline
90
10
70
1
43
0.0
10
-166.12976513435373
20
31.029987661892111
10
-156.21810263663843
20
33.61876242783579
42
-0.29821662669862636
10
-155.69890663190537
20
33.444304671719138
42
0.70704025841008977
10
-154.35970514703092
20
33.898632668499914
10
-154.27615216426602
20
40.39694592500009
42
0.49517812637345748
10
-154.90246452985676
20
40.887145591215628
10
-170.83168213859756
20
36.726677395669128
42
0.49517812637341313
10
-171.13828788140239
20
35.992813777189056
10
-167.88766376039374
20
30.365336624463161
42
0.70704025841004259
10
-166.49733671084235
20
30.623919765897035
42
-0.29821662669867793
0
LWPOLYLINE
5
281
100
AcDbEntity
8
0
100
AcDbPolyline
90
6
70
1
43
0.0
10
-158.68832380363219
20
14.439448702739679
10
-155.60824932131365
20
9.1072269100325265
42
0.76214859154735171
10
-154.67533121291794
20
9.3508908622972164
10
-154.59616198247008
20
15.508258830528462
42
0.49517812637348557
10
-155.22247434806087
20
15.998458496743934
10
-158.3817180608273
20
15.173312321219854
42
0.49517812637352493
0
CIRCLE
5
282
100
AcDbEntity
8
0
100
AcDbCircle
10
-173.77454304669911
20
48.153892908271416
30
0
40
1.1499999999999893
210
9.197635260023984e-32
220
-4.3261163527386403e-32
230
1
0
CIRCLE
5
283
100
AcDbEntity
8
0
100
AcDbCircle
10
-157.9234989280225
20
52.293943382926784
30
1.7763568394002505e-14
40
1.1499999999999915
210
-9.8240742925901872e-32
220
1.9651081639934573e-32
230
1
0
LWPOLYLINE
5
284
100
AcDbEntity
8
0
100
AcDbPolyline
90
10
70
1
43
0.0
10
-157.82978908250715
20
16.661077612258993
10
-156.43144251544081
20
17.02630436485456
42
-0.29821662669846427
10
-155.91224651070792
20
16.8518466087381
42
0.70704025840989826
10
-154.57304502583361
20
17.306174605519065
10
-154.48949204306874
20
23.804487862018888
42
0.4951781263734561
10
-155.11580440865947
20
24.294687528234412
10
-162.53170608675066
20
22.357767346036116
42
0.49517812637346448
10
-162.83831182955561
20
21.623903727555955
10
-159.58768770854707
20
15.996426574830544
42
0.70704025840986273
10
-158.19736065899568
20
16.255009716264087
42
-0.29821662669849391
0
LWPOLYLINE
5
285
100
AcDbEntity
8
0
100
AcDbPolyline
90
6
70
1
43
0.0
10
-150.25539435405659
20
54.596138012649938
42
-0.75020640321334064
10
-148.30862304653883
20
55.104571424818189
10
-126.31762950409181
20
18.336645553143121
42
-0.49992239815568001
10
-129.34514496434542
20
10.93244203803917
10
-145.19618908302158
20
6.7923915633825596
42
-0.49992239815569284
10
-151.45775653561614
20
11.770428585318449
0
LWPOLYLINE
5
286
100
AcDbEntity
8
0
100
AcDbPolyline
90
10
70
1
43
0.0
10
-149.58476357414256
20
14.94807981698585
10
-129.50530444921037
20
20.192527669041063
42
0.49517812637339154
10
-129.19869870640565
20
20.926391287521213
10
-132.34557312676645
20
26.374257064626438
42
0.7070402584099994
10
-133.73590017631787
20
26.115673923192571
42
-0.29821662669861182
10
-134.10347175280637
20
25.709606027197562
10
-148.2717922158468
20
22.009057254578593
42
-0.29821662669859578
10
-148.79098822057986
20
22.183515010695118
42
0.70704025841006479
10
-150.130189705454
20
21.729187013914167
10
-150.21107593973335
20
15.43827948320132
42
0.49517812637345654
0
LWPOLYLINE
5
287
100
AcDbEntity
8
0
100
AcDbPolyline
90
10
70
1
43
0.0
10
-149.37409044382616
20
31.333132154179783
10
-137.70153080041041
20
34.381826343052985
42
0.49517812637348529
10
-137.39492505760549
20
35.115689961533249
10
-140.6455491786146
20
40.743167114258682
42
0.70704025840997431
10
-142.03587622816605
20
40.484583972824844
42
-0.29821662669854609
10
-142.40344780465449
20
40.078516076829949
10
-148.05845233704531
20
38.601515317559759
42
-0.29821662669856758
10
-148.57764834177837
20
38.775973073676241
42
0.70704025841002338
10
-149.91684982665265
20
38.321645076895337
10
-150.00040280941693
20
31.823331820395264
42
0.49517812637345332
0
LWPOLYLINE
5
288
100
AcDbEntity
8
0
100
AcDbPolyline
90
10
70
1
43
0.0
10
-138.25345977873067
20
32.894061052013591
10
-148.16512227644577
20
30.305286286069119
42
-0.29821662669866839
10
-148.68431828117889
20
30.479744042185747
42
0.70704025841010454
10
-150.02351976605328
20
30.02541604540486
10
-150.10707274881764
20
23.527102788904685
42
0.49517812637344616
10
-149.48076038322688
20
23.036903122689203
10
-133.55154277448642
20
27.197371318236954
42
0.49517812637344871
10
-133.24493703168164
20
27.931234936717047
10
-136.49556115269073
20
33.558712089442672
42
0.70704025841004237
10
-137.88588820224214
20
33.300128948008698
42
-0.29821662669866233
0
LWPOLYLINE
5
289
100
AcDbEntity
8
0
100
AcDbPolyline
90
6
70
1
43
0.0
10
-145.69490110945361
20
49.484600011165433
10
-148.77497559177255
20
54.81682180387233
42
0.76214859154735515
10
-149.7078937001682
20
54.573157851607561
10
-149.78706293061555
20
48.41578988337632
42
0.49517812637348529
10
-149.16075056502476
20
47.925590217160909
10
-146.00150685225836
20
48.750736392685219
42
0.49517812637353448
0
CIRCLE
5
290
100
AcDbEntity
8
0
100
AcDbCircle
10
-130.60868186638399
20
15.770155805634902
30
0
40
1.1499999999999879
210
3.6244756935792148e-32
220
-3.356603201639512e-32
230
1
0
CIRCLE
5
291
100
AcDbEntity
8
0
100
AcDbCircle
10
-146.45972598506023
20
11.63010533097829
30
0
40
1.1499999999999906
210
-3.6839458208740075e-32
220
4.1005316698321939e-32
230
1
0
LWPOLYLINE
5
292
100
AcDbEntity
8
0
100
AcDbPolyline
90
10
70
1
43
0.0
10
-146.55343583057842
20
47.262971101646031
10
-147.95178239764471
20
46.89774434905037
42
-0.29821662669845639
10
-148.4709784023776
20
47.072202105166774
42
0.70704025840988871
10
-149.81017988725191
20
46.617874108385735
10
-149.89373287001627
20
40.119560851885893
42
0.49517812637345787
10
-149.26742050442547
20
39.629361185670419
10
-141.85151882633446
20
41.566281367869287
42
0.49517812637348241
10
-141.54491308352962
20
42.300144986349494
10
-144.79553720453856
20
47.927622139074643
42
0.70704025840985985
10
-146.18586425408989
20
47.669038997640982
42
-0.29821662669848609
0
LWPOLYLINE
5
293
100
AcDbEntity
8
0
100
AcDbPolyline
90
6
70
1
43
0.0
10
-116.12783055902935
20
9.3279107012546234
42
-0.7502064032133382
10
-118.07460186654714
20
8.8194772890865281
10
-140.06559540899121
20
45.587403160763358
42
-0.49992239815568001
10
-137.03807994873705
20
52.991606675867054
10
-121.18703583006055
20
57.131657150522422
42
-0.49992239815569312
10
-114.92546837746637
20
52.153620128586041
0
LWPOLYLINE
5
294
100
AcDbEntity
8
0
100
AcDbPolyline
90
10
70
1
43
0.0
10
-116.79846133894019
20
48.975968896918793
10
-136.87792046387284
20
43.731521044865161
42
0.4951781263734385
10
-137.18452620667762
20
42.997657426385025
10
-134.03765178631727
20
37.549791649279548
42
0.70704025841000029
10
-132.64732473676582
20
37.808374790713309
42
-0.29821662669860877
10
-132.27975316027727
20
38.214442686708281
10
-118.11143269723655
20
41.914991459326146
42
-0.29821662669859733
10
-117.59223669250348
20
41.740533703209579
42
0.70704025841006934
10
-116.25303520762932
20
42.194861699990412
10
-116.17214897334946
20
48.485769230703262
42
0.49517812637344827
0
LWPOLYLINE
5
295
100
AcDbEntity
8
0
100
AcDbPolyline
90
10
70
1
43
0.0
10
-117.00913446925793
20
32.590916559724846
10
-128.68169411267391
20
29.542222370852571
42
0.49517812637347053
10
-128.98829985547889
20
28.808358752372332
10
-125.73767573447023
20
23.180881599646646
42
0.70704025840997986
10
-124.34734868491874
20
23.439464741080371
42
-0.29821662669853966
10
-123.9797771084303
20
23.845532637075245
10
-118.32477257603934
20
25.322533396344976
42
-0.29821662669855248
10
-117.80557657130629
20
25.148075640228463
42
0.70704025841002427
10
-116.46637508643197
20
25.602403637009257
10
-116.38282210366718
20
32.100716893509322
42
0.4951781263734561
0
LWPOLYLINE
5
296
100
AcDbEntity
8
0
100
AcDbPolyline
90
10
70
1
43
0.0
10
-128.12976513435353
20
31.029987661891923
10
-118.21810263663819
20
33.61876242783562
42
-0.29821662669862986
10
-117.69890663190512
20
33.444304671718953
42
0.70704025841011342
10
-116.3597051470307
20
33.898632668499729
10
-116.2761521642658
20
40.396945924999905
42
0.49517812637345887
10
-116.90246452985654
20
40.887145591215429
10
-132.83168213859733
20
36.726677395668943
42
0.49517812637346892
10
-133.13828788140216
20
35.992813777188871
10
-129.88766376039351
20
30.365336624462977
42
0.70704025841004736
10
-128.49733671084206
20
30.623919765896858
42
-0.29821662669865806
0
LWPOLYLINE
5
297
100
AcDbEntity
8
0
100
AcDbPolyline
90
6
70
1
43
0.0
10
-120.68832380363193
20
14.439448702739499
10
-117.60824932131341
20
9.1072269100323489
42
0.76214859154735337
10
-116.6753312129177
20
9.3508908622970406
10
-116.59616198246985
20
15.508258830528273
42
0.49517812637349634
10
-117.22247434806064
20
15.998458496743748
10
-120.38171806082707
20
15.173312321219676
42
0.49517812637352521
0
CIRCLE
5
298
100
AcDbEntity
8
0
100
AcDbCircle
10
-135.77454304669888
20
48.153892908271239
30
0
40
1.1499999999999888
210
1.5589470982928763e-32
220
1.9096720404327618e-32
230
1
0
CIRCLE
5
299
100
AcDbEntity
8
0
100
AcDbCircle
10
-119.92349892802227
20
52.293943382926585
30
1.7763568394002505e-14
40
1.1499999999999913
210
-1.004993016852976e-31
220
1.3916869984144675e-32
230
1
0
LWPOLYLINE
5
300
100
AcDbEntity
8
0
100
AcDbPolyline
90
10
70
1
43
0.0
10
-119.82978908250689
20
16.661077612258815
10
-118.43144251544059
20
17.026304364854383
42
-0.29821662669844984
10
-117.9122465107077
20
16.851846608737922
42
0.70704025840989615
10
-116.57304502583338
20
17.306174605518883
10
-116.48949204306851
20
23.804487862018703
42
0.4951781263734561
10
-117.11580440865924
20
24.294687528234228
10
-124.5317060867504
20
22.357767346035935
42
0.49517812637344438
10
-124.83831182955535
20
21.623903727555774
10
-121.58768770854681
20
15.996426574830359
42
0.70704025840986728
10
-120.19736065899544
20
16.25500971626391
42
-0.29821662669849391
0
LWPOLYLINE
5
301
100
AcDbEntity
8
0
100
AcDbPolyline
90
6
70
1
43
0.0
10
-112.25539435405673
20
54.596138012650073
42
-0.75020640321334064
10
-110.30862304653897
20
55.104571424818324
10
-88.317629504091968
20
18.336645553143263
42
-0.49992239815568024
10
-91.345144964345565
20
10.932442038039309
10
-107.19618908302175
20
6.7923915633827114
42
-0.49992239815569317
10
-113.4577565356163
20
11.770428585318591
0
LWPOLYLINE
5
302
100
AcDbEntity
8
0
100
AcDbPolyline
90
10
70
1
43
0.0
10
-111.58476357414273
20
14.948079816985981
10
-91.505304449210527
20
20.192527669041198
42
0.49517812637338499
10
-91.198698706405821
20
20.926391287521348
10
-94.345573126766595
20
26.37425706462658
42
0.70704025840999873
10
-95.735900176318026
20
26.115673923192716
42
-0.29821662669862115
10
-96.10347175280657
20
25.709606027197708
10
-110.27179221584696
20
22.009057254578707
42
-0.29821662669860177
10
-110.79098822058003
20
22.183515010695253
42
0.70704025841006324
10
-112.13018970545414
20
21.729187013914313
10
-112.2110759397335
20
15.438279483201461
42
0.49517812637345543
0
LWPOLYLINE
5
303
100
AcDbEntity
8
0
100
AcDbPolyline
90
10
70
1
43
0.0
10
-111.37409044382633
20
31.333132154179921
10
-99.70153080041058
20
34.38182634305312
42
0.49517812637347325
10
-99.394925057605661
20
35.115689961533391
10
-102.64554917861476
20
40.74316711425881
42
0.70704025840997431
10
-104.03587622816623
20
40.484583972824979
42
-0.29821662669854609
10
-104.40344780465466
20
40.078516076830084
10
-110.05845233704548
20
38.601515317559915
42
-0.29821662669856158
10
-110.57764834177853
20
38.775973073676383
42
0.7070402584100377
10
-111.91684982665281
20
38.321645076895472
10
-112.00040280941708
20
31.823331820395396
42
0.49517812637344338
0
LWPOLYLINE
5
304
100
AcDbEntity
8
0
100
AcDbPolyline
90
10
70
1
43
0.0
10
-100.25345977873086
20
32.894061052013733
10
-110.16512227644596
20
30.305286286069254
42
-0.2982166266986665
10
-110.68431828117906
20
30.479744042185878
42
0.70704025841010454
10
-112.02351976605344
20
30.025416045404995
10
-112.10707274881783
20
23.52710278890482
42
0.4951781263734682
10
-111.48076038322702
20
23.036903122689342
10
-95.551542774486592
20
27.197371318237096
42
0.49517812637344871
10
-95.244937031681815
20
27.931234936717189
10
-98.495561152690897
20
33.558712089442814
42
0.70704025841004681
10
-99.885888202242313
20
33.300128948008833
42
-0.29821662669867105
0
LWPOLYLINE
5
305
100
AcDbEntity
8
0
100
AcDbPolyline
90
6
70
1
43
0.0
10
-107.69490110945375
20
49.484600011165568
10
-110.77497559177269
20
54.816821803872465
42
0.76214859154734826
10
-111.70789370016836
20
54.573157851607704
10
-111.78706293061573
20
48.415789883376455
42
0.49517812637348529
10
-111.16075056502493
20
47.925590217161044
10
-108.00150685225853
20
48.750736392685354
42
0.49517812637352898
0
CIRCLE
5
306
100
AcDbEntity
8
0
100
AcDbCircle
10
-92.60868186638416
20
15.770155805635042
30
0
40
1.1499999999999879
210
-1.948683872865909e-33
220
-2.3870900505411093e-33
230
1
0
CIRCLE
5
307
100
AcDbEntity
8
0
100
AcDbCircle
10
-108.4597259850604
20
11.630105330978427
30
0
40
1.1499999999999901
210
-4.5171175187905093e-33
220
-1.1468423311580159e-32
230
1
0
LWPOLYLINE
5
308
100
AcDbEntity
8
0
100
AcDbPolyline
90
10
70
1
43
0.0
10
-108.55343583057859
20
47.262971101646173
10
-109.95178239764488
20
46.897744349050505
42
-0.29821662669846233
10
-110.4709784023778
20
47.072202105166916
42
0.70704025840987605
10
-111.81017988725205
20
46.617874108385855
10
-111.89373287001642
20
40.119560851886021
42
0.49517812637344716
10
-111.26742050442564
20
39.629361185670547
10
-103.85151882633464
20
41.566281367869422
42
0.49517812637347347
10
-103.54491308352976
20
42.300144986349622
10
-106.79553720453875
20
47.927622139074771
42
0.70704025840986817
10
-108.18586425409009
20
47.66903899764111
42
-0.29821662669848487
0
LWPOLYLINE
5
309
100
AcDbEntity
8
0
100
AcDbPolyline
90
6
70
1
43
0.0
10
-78.127830559029661
20
9.3279107012546678
42
-0.7502064032133382
10
-80.074601866547425
20
8.8194772890865725
10
-102.06559540899153
20
45.587403160763387
42
-0.49992239815568079
10
-99.038079948737376
20
52.991606675867111
10
-83.187035830060864
20
57.131657150522479
42
-0.49992239815569361
10
-76.925468377466672
20
52.153620128586084
0
LWPOLYLINE
5
310
100
AcDbEntity
8
0
100
AcDbPolyline
90
10
70
1
43
0.0
10
-78.798461338940498
20
48.975968896918829
10
-98.877920463873153
20
43.731521044865204
42
0.4951781263734345
10
-99.184526206677916
20
42.997657426385075
10
-96.037651786317554
20
37.549791649279591
42
0.70704025841000029
10
-94.647324736766109
20
37.808374790713351
42
-0.29821662669860877
10
-94.279753160277551
20
38.214442686708324
10
-80.111432697236822
20
41.914991459326188
42
-0.29821662669859961
10
-79.592236692503789
20
41.740533703209628
42
0.70704025841005447
10
-78.253035207629608
20
42.194861699990454
10
-78.172148973349763
20
48.485769230703298
42
0.49517812637345887
0
LWPOLYLINE
5
311
100
AcDbEntity
8
0
100
AcDbPolyline
90
10
70
1
43
0.0
10
-79.0091344692582
20
32.590916559724896
10
-90.681694112674194
20
29.542222370852613
42
0.49517812637346509
10
-90.988299855479198
20
28.808358752372378
10
-87.737675734470528
20
23.180881599646689
42
0.70704025840997986
10
-86.347348684919041
20
23.439464741080414
42
-0.29821662669854898
10
-85.979777108430568
20
23.845532637075291
10
-80.324772576039635
20
25.322533396345026
42
-0.29821662669859855
10
-79.805576571306588
20
25.148075640228509
42
0.70704025841002038
10
-78.466375086432279
20
25.602403637009303
10
-78.382822103667479
20
32.100716893509372
42
0.49517812637344549
0
LWPOLYLINE
5
312
100
AcDbEntity
8
0
100
AcDbPolyline
90
10
70
1
43
0.0
10
-90.129765134353832
20
31.029987661891969
10
-80.218102636638505
20
33.618762427835662
42
-0.29821662669866367
10
-79.698906631905402
20
33.444304671718996
42
0.70704025841009166
10
-78.359705147030994
20
33.898632668499772
10
-78.276152164266094
20
40.396945924999947
42
0.49517812637344827
10
-78.902464529856815
20
40.887145591215479
10
-94.831682138597628
20
36.726677395668986
42
0.49517812637349068
10
-95.138287881402448
20
35.992813777188914
10
-91.887663760393806
20
30.365336624463023
42
0.70704025841004614
10
-90.49733671084239
20
30.623919765896904
42
-0.29821662669865806
0
LWPOLYLINE
5
313
100
AcDbEntity
8
0
100
AcDbPolyline
90
6
70
1
43
0.0
10
-82.68832380363223
20
14.439448702739544
10
-79.608249321313707
20
9.1072269100323933
42
0.76214859154735337
10
-78.67533121291801
20
9.350890862297085
10
-78.596161982470136
20
15.50825883052832
42
0.49517812637349096
10
-79.222474348060928
20
15.998458496743792
10
-82.381718060827353
20
15.17331232121972
42
0.4951781263735261
0
CIRCLE
5
314
100
AcDbEntity
8
0
100
AcDbCircle
10
-97.774543046699165
20
48.153892908271274
30
0
40
1.1499999999999888
210
-1.8395270520047975e-31
220
8.6522327054772872e-32
230
1
0
CIRCLE
5
315
100
AcDbEntity
8
0
100
AcDbCircle
10
-81.923498928022568
20
52.293943382926642
30
0
40
1.1499999999999913
210
-9.4570584941883883e-32
220
2.8969175580593153e-32
230
1
0
LWPOLYLINE
5
316
100
AcDbEntity
8
0
100
AcDbPolyline
90
10
70
1
43
0.0
10
-81.82978908250719
20
16.661077612258861
10
-80.431442515440892
20
17.026304364854429
42
-0.29821662669843824
10
-79.912246510707973
20
16.851846608737969
42
0.70704025840988149
10
-78.573045025833679
20
17.306174605518926
10
-78.489492043068793
20
23.804487862018746
42
0.4951781263734561
10
-79.115804408659542
20
24.29468752823427
10
-86.531706086750702
20
22.357767346035978
42
0.49517812637344438
10
-86.83831182955565
20
21.623903727555817
10
-83.587687708547108
20
15.996426574830402
42
0.70704025840986728
10
-82.197360658995734
20
16.255009716263952
42
-0.29821662669849391
0
LWPOLYLINE
5
317
100
AcDbEntity
8
0
100
AcDbPolyline
90
6
70
1
43
0.0
10
-74.255394354056463
20
54.596138012650101
42
-0.75020640321333887
10
-72.308623046538727
20
55.104571424818346
10
-50.317629504091734
20
18.336645553143285
42
-0.49992239815567935
10
-53.345144964345309
20
10.932442038039333
10
-69.196189083021466
20
6.7923915633827292
42
-0.4999223981556945
10
-75.457756535616042
20
11.770428585318617
0
LWPOLYLINE
5
318
100
AcDbEntity
8
0
100
AcDbPolyline
90
10
70
1
43
0.0
10
-73.584763574142471
20
14.948079816986004
10
-53.505304449210271
20
20.192527669041219
42
0.49517812637341468
10
-53.198698706405551
20
20.926391287521369
10
-56.34557312676634
20
26.374257064626605
42
0.70704025840999873
10
-57.735900176317784
20
26.115673923192745
42
-0.29821662669861648
10
-58.1034717528063
20
25.709606027197729
10
-72.271792215846688
20
22.009057254578728
42
-0.2982166266985925
10
-72.790988220579777
20
22.183515010695274
42
0.70704025841005891
10
-74.130189705453887
20
21.729187013914331
10
-74.211075939733249
20
15.438279483201482
42
0.49517812637345543
0
LWPOLYLINE
5
319
100
AcDbEntity
8
0
100
AcDbPolyline
90
10
70
1
43
0.0
10
-73.374090443826049
20
31.333132154179943
10
-61.701530800410318
20
34.381826343053142
42
0.49517812637347458
10
-61.394925057605406
20
35.11568996153342
10
-64.645549178614488
20
40.743167114258839
42
0.70704025840997653
10
-66.035876228165961
20
40.484583972825007
42
-0.29821662669855192
10
-66.403447804654405
20
40.078516076830098
10
-72.058452337045239
20
38.601515317559944
42
-0.2982166266985633
10
-72.577648341778271
20
38.775973073676404
42
0.70704025841002338
10
-73.916849826652552
20
38.321645076895493
10
-74.000402809416826
20
31.823331820395421
42
0.49517812637345399
0
LWPOLYLINE
5
320
100
AcDbEntity
8
0
100
AcDbPolyline
90
10
70
1
43
0.0
10
-62.253459778730587
20
32.894061052013754
10
-72.1651222764457
20
30.305286286069272
42
-0.29821662669865223
10
-72.684318281178804
20
30.479744042185899
42
0.70704025841010076
10
-74.023519766053184
20
30.025416045405017
10
-74.107072748817572
20
23.527102788904841
42
0.49517812637346292
10
-73.48076038322678
20
23.036903122689367
10
-57.551542774486336
20
27.197371318237117
42
0.49517812637346459
10
-57.244937031681545
20
27.931234936717217
10
-60.495561152690655
20
33.558712089442835
42
0.70704025841004525
10
-61.885888202242043
20
33.300128948008854
42
-0.29821662669866561
0
LWPOLYLINE
5
321
100
AcDbEntity
8
0
100
AcDbPolyline
90
6
70
1
43
0.0
10
-69.694901109453482
20
49.48460001116559
10
-72.774975591772431
20
54.816821803872493
42
0.76214859154734826
10
-73.7078937001681
20
54.573157851607732
10
-73.787062930615477
20
48.415789883376483
42
0.49517812637348529
10
-73.160750565024671
20
47.925590217161073
10
-70.001506852258288
20
48.750736392685383
42
0.49517812637354436
0
CIRCLE
5
322
100
AcDbEntity
8
0
100
AcDbCircle
10
-54.608681866383897
20
15.770155805635063
30
0
40
1.1499999999999879
210
0
220
-0
230
1
0
CIRCLE
5
323
100
AcDbEntity
8
0
100
AcDbCircle
10
-70.459725985060146
20
11.630105330978449
30
0
40
1.1499999999999901
210
-2.2585587593952547e-33
220
-5.7342116557900794e-33
230
1
0
LWPOLYLINE
5
324
100
AcDbEntity
8
0
100
AcDbPolyline
90
10
70
1
43
0.0
10
-70.553435830578351
20
47.262971101646201
10
-71.951782397644635
20
46.897744349050534
42
-0.29821662669845828
10
-72.470978402377554
20
47.072202105166944
42
0.70704025840988372
10
-73.810179887251792
20
46.617874108385884
10
-73.893732870016166
20
40.11956085188605
42
0.49517812637344716
10
-73.267420504425388
20
39.629361185670575
10
-65.85151882633437
20
41.56628136786945
42
0.49517812637347491
10
-65.544913083529508
20
42.30014498634965
10
-68.795537204538476
20
47.927622139074799
42
0.70704025840986817
10
-70.185864254089836
20
47.669038997641138
42
-0.29821662669849419
0
LWPOLYLINE
5
325
100
AcDbEntity
8
0
100
AcDbPolyline
90
6
70
1
43
0.0
10
-40.127830559029398
20
9.3279107012545879
42
-0.7502064032133382
10
-42.074601866547177
20
8.8194772890864925
10
-64.065595408991257
20
45.58740316076333
42
-0.49992239815567957
10
-61.038079948737092
20
52.991606675867033
10
-45.187035830060594
20
57.1316571505224
42
-0.49992239815569361
10
-38.925468377466402
20
52.153620128586013
0
LWPOLYLINE
5
326
100
AcDbEntity
8
0
100
AcDbPolyline
90
10
70
1
43
0.0
10
-40.798461338940214
20
48.975968896918758
10
-60.877920463872861
20
43.731521044865133
42
0.49517812637340602
10
-61.184526206677646
20
42.997657426384997
10
-58.037651786317277
20
37.54979164927952
42
0.70704025840999718
10
-56.647324736765825
20
37.808374790713273
42
-0.2982166266986101
10
-56.279753160277281
20
38.214442686708253
10
-42.111432697236566
20
41.914991459326117
42
-0.29821662669859472
10
-41.592236692503512
20
41.74053370320955
42
0.7070402584100669
10
-40.253035207629338
20
42.194861699990383
10
-40.172148973349486
20
48.485769230703227
42
0.49517812637344827
0
LWPOLYLINE
5
327
100
AcDbEntity
8
0
100
AcDbPolyline
90
10
70
1
43
0.0
10
-41.009134469257944
20
32.590916559724825
10
-52.681694112673938
20
29.542222370852542
42
0.49517812637349395
10
-52.988299855478907
20
28.80835875237231
10
-49.737675734470265
20
23.180881599646618
42
0.70704025840997609
10
-48.347348684918778
20
23.439464741080339
42
-0.29821662669854576
10
-47.979777108430319
20
23.845532637075216
10
-42.324772576039358
20
25.322533396344934
42
-0.29821662669856641
10
-41.805576571306332
20
25.148075640228434
42
0.7070402584100165
10
-40.466375086432002
20
25.602403637009225
10
-40.382822103667202
20
32.100716893509293
42
0.49517812637345543
0
LWPOLYLINE
5
328
100
AcDbEntity
8
0
100
AcDbPolyline
90
10
70
1
43
0.0
10
-52.129765134353562
20
31.029987661891894
10
-42.218102636638228
20
33.618762427835598
42
-0.2982166266986519
10
-41.698906631905132
20
33.444304671718918
42
0.70704025841009399
10
-40.359705147030724
20
33.898632668499701
10
-40.276152164265824
20
40.396945924999869
42
0.49517812637344683
10
-40.902464529856545
20
40.887145591215408
10
-56.831682138597358
20
36.726677395668915
42
0.49517812637344477
10
-57.138287881402199
20
35.992813777188843
10
-53.887663760393536
20
30.365336624462948
42
0.70704025841004614
10
-52.49733671084212
20
30.623919765896822
42
-0.29821662669865856
0
LWPOLYLINE
5
329
100
AcDbEntity
8
0
100
AcDbPolyline
90
6
70
1
43
0.0
10
-44.688323803631953
20
14.439448702739464
10
-41.608249321313423
20
9.1072269100323133
42
0.76214859154735337
10
-40.675331212917747
20
9.3508908622970139
10
-40.596161982469887
20
15.508258830528248
42
0.49517812637349096
10
-41.222474348060672
20
15.998458496743721
10
-44.381718060827097
20
15.173312321219649
42
0.49517812637351682
0
CIRCLE
5
330
100
AcDbEntity
8
0
100
AcDbCircle
10
-59.774543046698895
20
48.153892908271203
30
0
40
1.149999999999989
210
-3.1178941965857527e-32
220
-3.8193440808655236e-32
230
1
0
CIRCLE
5
331
100
AcDbEntity
8
0
100
AcDbCircle
10
-43.923498928022298
20
52.293943382926564
30
0
40
1.1499999999999913
210
-2.0327028834561355e-32
220
-5.1607904902109058e-32
230
1
0
LWPOLYLINE
5
332
100
AcDbEntity
8
0
100
AcDbPolyline
90
10
70
1
43
0.0
10
-43.829789082506935
20
16.661077612258779
10
-42.431442515440608
20
17.026304364854358
42
-0.29821662669844407
10
-41.912246510707703
20
16.851846608737898
42
0.70704025840988727
10
-40.573045025833409
20
17.306174605518855
10
-40.489492043068545
20
23.804487862018672
42
0.49517812637345077
10
-41.11580440865928
20
24.294687528234196
10
-48.53170608675044
20
22.357767346035907
42
0.49517812637347947
10
-48.838311829555387
20
21.623903727555749
10
-45.587687708546838
20
15.99642657483033
42
0.70704025840986051
10
-44.197360658995478
20
16.255009716263874
42
-0.2982166266984892
0
LWPOLYLINE
5
333
100
AcDbEntity
8
0
100
AcDbPolyline
90
6
70
1
43
0.0
10
-36.255394354057195
20
54.596138012649888
42
-0.75020640321333887
10
-34.308623046539459
20
55.104571424818133
10
-12.317629504092453
20
18.336645553143068
42
-0.49992239815568107
10
-15.345144964346041
20
10.932442038039111
10
-31.196189083022198
20
6.792391563382508
42
-0.49992239815569378
10
-37.457756535616774
20
11.770428585318395
0
LWPOLYLINE
5
334
100
AcDbEntity
8
0
100
AcDbPolyline
90
10
70
1
43
0.0
10
-35.58476357414321
20
14.948079816985786
10
-15.505304449211001
20
20.192527669040999
42
0.49517812637340797
10
-15.198698706406281
20
20.926391287521149
10
-18.345573126767071
20
26.374257064626377
42
0.70704025840999574
10
-19.735900176318498
20
26.115673923192521
42
-0.29821662669861337
10
-20.103471752807017
20
25.709606027197509
10
-34.271792215847427
20
22.009057254578529
42
-0.29821662669857746
10
-34.790988220580495
20
22.183515010695057
42
0.70704025841006113
10
-36.13018970545464
20
21.729187013914107
10
-36.211075939733973
20
15.438279483201264
42
0.49517812637345054
0
LWPOLYLINE
5
335
100
AcDbEntity
8
0
100
AcDbPolyline
90
10
70
1
43
0.0
10
-35.37409044382678
20
31.333132154179729
10
-23.701530800411035
20
34.381826343052929
42
0.49517812637348069
10
-23.394925057606123
20
35.115689961533192
10
-26.645549178615219
20
40.743167114258625
42
0.70704025840997653
10
-28.0358762281667
20
40.48458397282478
42
-0.29821662669854371
10
-28.403447804655123
20
40.078516076829899
10
-34.058452337045949
20
38.601515317559723
42
-0.29821662669857046
10
-34.577648341779003
20
38.775973073676191
42
0.70704025841002205
10
-35.916849826653284
20
38.32164507689528
10
-36.000402809417558
20
31.823331820395204
42
0.49517812637345482
0
LWPOLYLINE
5
336
100
AcDbEntity
8
0
100
AcDbPolyline
90
10
70
1
43
0.0
10
-24.253459778731312
20
32.894061052013541
10
-34.165122276446418
20
30.305286286069052
42
-0.29821662669865401
10
-34.684318281179522
20
30.479744042185693
42
0.70704025841010243
10
-36.023519766053916
20
30.025416045404796
10
-36.107072748818275
20
23.527102788904624
42
0.49517812637345554
10
-35.480760383227505
20
23.036903122689154
10
-19.551542774487057
20
27.1973713182369
42
0.49517812637345049
10
-19.24493703168228
20
27.931234936716987
10
-22.495561152691383
20
33.558712089442622
42
0.70704025841004114
10
-23.885888202242779
20
33.300128948008641
42
-0.29821662669866117
0
LWPOLYLINE
5
337
100
AcDbEntity
8
0
100
AcDbPolyline
90
6
70
1
43
0.0
10
-31.694901109454218
20
49.484600011165377
10
-34.774975591773163
20
54.81682180387228
42
0.76214859154735515
10
-35.707893700168839
20
54.573157851607512
10
-35.787062930616202
20
48.41578988337627
42
0.49517812637349329
10
-35.160750565025381
20
47.92559021716086
10
-32.001506852259013
20
48.75073639268517
42
0.49517812637353759
0
CIRCLE
5
338
100
AcDbEntity
8
0
100
AcDbCircle
10
-16.608681866384618
20
15.770155805634845
30
0
40
1.1499999999999879
210
-3.8973677457318165e-33
220
-4.7741801010822172e-33
230
1
0
CIRCLE
5
339
100
AcDbEntity
8
0
100
AcDbCircle
10
-32.459725985060871
20
11.630105330978234
30
0
40
1.1499999999999906
210
-4.587369324632109e-32
220
1.8068470075161629e-32
230
1
0
LWPOLYLINE
5
340
100
AcDbEntity
8
0
100
AcDbPolyline
90
10
70
1
43
0.0
10
-32.553435830579062
20
47.262971101645981
10
-33.95178239764536
20
46.897744349050313
42
-0.29821662669845878
10
-34.470978402378257
20
47.072202105166724
42
0.70704025840988238
10
-35.810179887252531
20
46.617874108385671
10
-35.893732870016891
20
40.119560851885836
42
0.49517812637344721
10
-35.267420504426113
20
39.629361185670362
10
-27.851518826335099
20
41.566281367869237
42
0.49517812637347142
10
-27.544913083530233
20
42.300144986349437
10
-30.795537204539212
20
47.927622139074586
42
0.70704025840985951
10
-32.185864254090546
20
47.669038997640925
42
-0.29821662669848886
0
LWPOLYLINE
5
341
100
AcDbEntity
8
0
100
AcDbPolyline
90
6
70
1
43
0.0
10
-2.127830559029956
20
9.3279107012546945
42
-0.75020640321333865
10
-4.0746018665477379
20
8.8194772890865991
10
-26.06559540899184
20
45.587403160763422
42
-0.4999223981556809
10
-23.038079948737675
20
52.991606675867132
10
-7.1870358300611725
20
57.131657150522486
42
-0.49992239815569323
10
-0.92546837746698252
20
52.153620128586113
0
LWPOLYLINE
5
342
100
AcDbEntity
8
0
100
AcDbPolyline
90
10
70
1
43
0.0
10
-2.7984613389407942
20
48.975968896918864
10
-22.877920463873444
20
43.731521044865232
42
0.49517812637340808
10
-23.184526206678221
20
42.997657426385096
10
-20.037651786317852
20
37.549791649279619
42
0.70704025840999751
10
-18.647324736766397
20
37.80837479071338
42
-0.29821662669861143
10
-18.279753160277853
20
38.214442686708352
10
-4.1114326972371398
20
41.914991459326217
42
-0.29821662669859611
10
-3.5922366925040872
20
41.74053370320965
42
0.70704025841005735
10
-2.2530352076299214
20
42.194861699990483
10
-2.1721489733500676
20
48.485769230703333
42
0.49517812637345093
0
LWPOLYLINE
5
343
100
AcDbEntity
8
0
100
AcDbPolyline
90
10
70
1
43
0.0
10
-3.0091344692585098
20
32.590916559724917
10
-14.681694112674508
20
29.542222370852642
42
0.49517812637348646
10
-14.988299855479493
20
28.808358752372403
10
-11.737675734470841
20
23.180881599646717
42
0.70704025840998042
10
-10.347348684919346
20
23.439464741080442
42
-0.29821662669854304
10
-9.9797771084308948
20
23.845532637075316
10
-4.3247725760399378
20
25.322533396345047
42
-0.29821662669858273
10
-3.8055765713068879
20
25.148075640228534
42
0.70704025841002427
10
-2.4663750864325755
20
25.602403637009328
10
-2.3828221036677832
20
32.100716893509393
42
0.49517812637344816
0
LWPOLYLINE
5
344
100
AcDbEntity
8
0
100
AcDbPolyline
90
10
70
1
43
0.0
10
-14.129765134354123
20
31.029987661891994
10
-4.2181026366388004
20
33.618762427835698
42
-0.29821662669865018
10
-3.6989066319057118
20
33.444304671719024
42
0.70704025841010198
10
-2.3597051470312986
20
33.898632668499801
10
-2.2761521642664051
20
40.396945924999976
42
0.49517812637345093
10
-2.9024645298571317
20
40.8871455912155
10
-18.831682138597934
20
36.726677395669014
42
0.49517812637345199
10
-19.138287881402768
20
35.992813777188942
10
-15.887663760394112
20
30.365336624463048
42
0.70704025841004792
10
-14.497336710842683
20
30.623919765896929
42
-0.2982166266986605
0
LWPOLYLINE
5
345
100
AcDbEntity
8
0
100
AcDbPolyline
90
6
70
1
43
0.0
10
-6.6883238036325343
20
14.43944870273957
10
-3.6082493213140054
20
9.1072269100324199
42
0.76214859154735337
10
-2.6753312129183078
20
9.3508908622971116
10
-2.5961619824704507
20
15.508258830528344
42
0.49517812637349429
10
-3.2224743480612403
20
15.998458496743819
10
-6.3817180608276747
20
15.173312321219747
42
0.49517812637351871
0
CIRCLE
5
346
100
AcDbEntity
8
0
100
AcDbCircle
10
-21.77454304669947
20
48.15389290827131
30
0
40
1.1499999999999888
210
-0
220
0
230
1
0
CIRCLE
5
347
100
AcDbEntity
8
0
100
AcDbCircle
10
-5.9234989280228767
20
52.293943382926656
30
0
40
1.1499999999999913
210
-8.6100989594149981e-32
220
5.0472469289805267e-32
230
1
0
LWPOLYLINE
5
348
100
AcDbEntity
8
0
100
AcDbPolyline
90
10
70
1
43
0.0
10
-5.8297890825075074
20
16.661077612258886
10
-4.4314425154411783
20
17.026304364854443
42
-0.29821662669845267
10
-3.9122465107082927
20
16.851846608737993
42
0.7070402584098896
10
-2.5730450258339816
20
17.306174605518954
10
-2.4894920430691081
20
23.804487862018775
42
0.49517812637345487
10
-3.1158044086598458
20
24.294687528234299
10
-10.531706086751011
20
22.357767346036006
42
0.49517812637346859
10
-10.838311829555959
20
21.623903727555845
10
-7.5876877085474135
20
15.99642657483043
42
0.7070402584098664
10
-6.1973606589960459
20
16.255009716263981
42
-0.2982166266984897
0
LWPOLYLINE
5
349
100
AcDbEntity
8
0
100
AcDbPolyline
90
6
70
1
43
0.0
10
1.7446056459430139
20
54.596138012649782
42
-0.75020640321333909
10
3.6913769534607521
20
55.104571424818033
10
25.682370495907758
20
18.336645553142962
42
-0.4999223981556814
10
22.654855035654169
20
10.932442038039005
10
6.8038109169780148
20
6.7923915633824015
42
-0.49992239815569378
10
0.5422434643834384
20
11.770428585318289
0
LWPOLYLINE
5
350
100
AcDbEntity
8
0
100
AcDbPolyline
90
10
70
1
43
0.0
10
2.4152364258570014
20
14.948079816985679
10
22.49469555078921
20
20.192527669040892
42
0.4951781263734133
10
22.80130129359393
20
20.926391287521042
10
19.654426873233138
20
26.374257064626271
42
0.70704025840999574
10
18.264099823681711
20
26.115673923192414
42
-0.29821662669861337
10
17.896528247193192
20
25.709606027197403
10
3.7282077841527839
20
22.009057254578423
42
-0.29821662669857768
10
3.2090117794197193
20
22.183515010694951
42
0.70704025841006479
10
1.8698102945455719
20
21.729187013914
10
1.7889240602662349
20
15.438279483201157
42
0.49517812637345054
0
LWPOLYLINE
5
351
100
AcDbEntity
8
0
100
AcDbPolyline
90
10
70
1
43
0.0
10
2.6259095561734314
20
31.333132154179623
10
14.298469199589174
20
34.381826343052822
42
0.49517812637348069
10
14.605074942394086
20
35.115689961533086
10
11.354450821384996
20
40.743167114258519
42
0.70704025840997708
10
9.9641237718335098
20
40.484583972824673
42
-0.2982166266985431
10
9.5965521953450921
20
40.078516076829793
10
3.9415476629542572
20
38.601515317559617
42
-0.29821662669857563
10
3.4223516582212059
20
38.775973073676084
42
0.70704025841002716
10
2.0831501733469309
20
38.32164507689518
10
1.9995971905826537
20
31.823331820395097
42
0.4951781263734561
0
LWPOLYLINE
5
352
100
AcDbEntity
8
0
100
AcDbPolyline
90
10
70
1
43
0.0
10
13.746540221268901
20
32.894061052013434
10
3.8348777235537961
20
30.305286286068945
42
-0.29821662669865517
10
3.3156817188206866
20
30.479744042185587
42
0.7070402584101062
10
1.9764802339462935
20
30.02541604540469
10
1.8929272511819328
20
23.527102788904518
42
0.49517812637345554
10
2.5192396167727038
20
23.036903122689047
10
18.448457225513156
20
27.197371318236794
42
0.49517812637345049
10
18.75506296831793
20
27.93123493671688
10
15.50443884730883
20
33.558712089442515
42
0.70704025841004159
10
14.114111797757438
20
33.300128948008535
42
-0.29821662669866139
0
LWPOLYLINE
5
353
100
AcDbEntity
8
0
100
AcDbPolyline
90
6
70
1
43
0.0
10
6.3050988905459953
20
49.48460001116527
10
3.2250244082270463
20
54.816821803872173
42
0.76214859154735515
10
2.2921062998313753
20
54.573157851607405
10
2.2129370693840067
20
48.415789883376164
42
0.49517812637349257
10
2.8392494349748301
20
47.925590217160746
10
5.9984931477411969
20
48.750736392685063
42
0.49517812637353353
0
CIRCLE
5
354
100
AcDbEntity
8
0
100
AcDbCircle
10
21.391318133615592
20
15.770155805634738
30
0
40
1.1499999999999879
210
-3.8973677457318165e-33
220
-4.7741801010822172e-33
230
1
0
CIRCLE
5
355
100
AcDbEntity
8
0
100
AcDbCircle
10
5.540274014939337
20
11.630105330978127
30
0
40
1.1499999999999906
210
4.1356575727530583e-32
220
-2.9536893386741782e-32
230
1
0
LWPOLYLINE
5
356
100
AcDbEntity
8
0
100
AcDbPolyline
90
10
70
1
43
0.0
10
5.4465641694211486
20
47.262971101645874
10
4.0482176023548497
20
46.8977443490502
42
-0.29821662669845922
10
3.5290215976219534
20
47.07220210516661
42
0.70704025840988238
10
2.1898201127476797
20
46.617874108385564
10
2.1062671299833213
20
40.11956085188573
42
0.49517812637344716
10
2.7325794955740967
20
39.629361185670255
10
10.148481173665111
20
41.566281367869131
42
0.49517812637347286
10
10.455086916469977
20
42.300144986349331
10
7.2044627954610005
20
47.927622139074479
42
0.70704025840985985
10
5.8141357459096623
20
47.669038997640818
42
-0.29821662669848886
0
LWPOLYLINE
5
357
100
AcDbEntity
8
0
100
AcDbPolyline
90
6
70
1
43
0.0
10
35.872169440970374
20
9.3279107012548561
42
-0.75020640321333842
10
33.925398133452589
20
8.819477289086759
10
11.934404591008512
20
45.587403160763586
42
-0.49992239815568018
10
14.961920051262677
20
52.991606675867295
10
30.812964169939182
20
57.131657150522642
42
-0.49992239815569284
10
37.074531622533371
20
52.153620128586276
0
LWPOLYLINE
5
358
100
AcDbEntity
8
0
100
AcDbPolyline
90
10
70
1
43
0.0
10
35.201538661059566
20
48.975968896919028
10
15.122079536126911
20
43.731521044865396
42
0.49517812637341541
10
14.815473793322123
20
42.99765742638526
10
17.962348213682489
20
37.549791649279783
42
0.70704025840999751
10
19.352675263233948
20
37.808374790713536
42
-0.29821662669861143
10
19.720246839722492
20
38.214442686708516
10
33.888567302763207
20
41.91499145932638
42
-0.2982166266985955
10
34.407763307496261
20
41.740533703209806
42
0.70704025841006568
10
35.746964792370441
20
42.194861699990646
10
35.827851026650293
20
48.485769230703497
42
0.49517812637345365
0
LWPOLYLINE
5
359
100
AcDbEntity
8
0
100
AcDbPolyline
90
10
70
1
43
0.0
10
34.990865530741829
20
32.590916559725081
10
23.318305887325828
20
29.542222370852798
42
0.49517812637347297
10
23.011700144520852
20
28.808358752372566
10
26.262324265529497
20
23.180881599646877
42
0.70704025840998075
10
27.652651315080998
20
23.439464741080602
42
-0.29821662669854265
10
28.02022289156945
20
23.845532637075479
10
33.675227423960401
20
25.322533396345218
42
-0.29821662669859417
10
34.194423428693455
20
25.148075640228697
42
0.70704025841002038
10
35.53362491356777
20
25.602403637009488
10
35.617177896332578
20
32.100716893509556
42
0.4951781263734642
0
LWPOLYLINE
5
360
100
AcDbEntity
8
0
100
AcDbPolyline
90
10
70
1
43
0.0
10
23.870234865646221
20
31.029987661892157
10
33.781897363361544
20
33.618762427835861
42
-0.29821662669864746
10
34.301093368094634
20
33.444304671719181
42
0.70704025841010665
10
35.640294852969049
20
33.898632668499964
10
35.723847835733935
20
40.396945925000132
42
0.49517812637344144
10
35.097535470143228
20
40.88714559121567
10
19.168317861402411
20
36.726677395669171
42
0.49517812637345199
10
18.861712118597577
20
35.992813777189099
10
22.112336239606233
20
30.365336624463207
42
0.70704025841004792
10
23.50266328915766
20
30.623919765897089
42
-0.29821662669866034
0
LWPOLYLINE
5
361
100
AcDbEntity
8
0
100
AcDbPolyline
90
6
70
1
43
0.0
10
31.311676196367809
20
14.439448702739721
10
34.391750678686336
20
9.1072269100325709
42
0.76214859154734038
10
35.324668787082032
20
9.3508908622972715
10
35.403838017529871
20
15.508258830528504
42
0.49517812637348296
10
34.777525651939108
20
15.998458496743979
10
31.618281939172668
20
15.173312321219907
42
0.49517812637351777
0
CIRCLE
5
362
100
AcDbEntity
8
0
100
AcDbCircle
10
16.225456953300885
20
48.153892908271473
30
0
40
1.149999999999989
210
1.5589470982928758e-32
220
1.9096720404327612e-32
230
1
0
CIRCLE
5
363
100
AcDbEntity
8
0
100
AcDbCircle
10
32.076501071977475
20
52.29394338292682
30
0
40
1.1499999999999915
210
1.1292793796978524e-33
220
2.867105827894947e-33
230
1
0
LWPOLYLINE
5
364
100
AcDbEntity
8
0
100
AcDbPolyline
90
10
70
1
43
0.0
10
32.170210917492838
20
16.661077612259039
10
33.568557484559165
20
17.02630436485461
42
-0.29821662669844984
10
34.087753489292048
20
16.851846608738153
42
0.70704025840988438
10
35.426954974166364
20
17.306174605519111
10
35.510507956931235
20
23.804487862018931
42
0.49517812637345615
10
34.8841955913405
20
24.294687528234459
10
27.468293913249326
20
22.357767346036166
42
0.49517812637347675
10
27.161688170444386
20
21.623903727556009
10
30.412312291452924
20
15.99642657483059
42
0.70704025840986684
10
31.802639341004305
20
16.255009716264141
42
-0.29821662669848792
0
LWPOLYLINE
5
365
100
AcDbEntity
8
0
100
AcDbPolyline
90
6
70
1
43
0.0
10
39.744605645942826
20
54.596138012650009
42
-0.75020640321333887
10
41.691376953460562
20
55.104571424818261
10
63.682370495907534
20
18.336645553143217
42
-0.49992239815568335
10
60.654855035653952
20
10.932442038039266
10
44.803810916977831
20
6.7923915633826493
42
-0.49992239815569484
10
38.542243464383262
20
11.770428585318555
0
LWPOLYLINE
5
366
100
AcDbEntity
8
0
100
AcDbPolyline
90
10
70
1
43
0.0
10
40.415236425856818
20
14.948079816985935
10
60.494695550789004
20
20.192527669041148
42
0.49517812637340869
10
60.801301293593717
20
20.926391287521295
10
57.654426873232936
20
26.374257064626526
42
0.7070402584099994
10
56.264099823681505
20
26.115673923192663
42
-0.29821662669861104
10
55.896528247192983
20
25.709606027197655
10
41.728207784152602
20
22.009057254578664
42
-0.29821662669858656
10
41.209011779419527
20
22.183515010695199
42
0.70704025841006446
10
39.869810294545402
20
21.72918701391426
10
39.788924060266048
20
15.438279483201407
42
0.49517812637345654
0
LWPOLYLINE
5
367
100
AcDbEntity
8
0
100
AcDbPolyline
90
10
70
1
43
0.0
10
40.625909556173241
20
31.333132154179879
10
52.298469199588958
20
34.381826343053078
42
0.49517812637347675
10
52.605074942393884
20
35.115689961533327
10
49.354450821384795
20
40.74316711425876
42
0.70704025840998097
10
47.964123771833307
20
40.484583972824915
42
-0.29821662669853549
10
47.596552195344906
20
40.078516076830027
10
41.941547662954058
20
38.601515317559866
42
-0.2982166266985633
10
41.422351658221018
20
38.775973073676326
42
0.70704025841002571
10
40.083150173346752
20
38.321645076895415
10
39.99959719058247
20
31.823331820395346
42
0.49517812637345548
0
LWPOLYLINE
5
368
100
AcDbEntity
8
0
100
AcDbPolyline
90
10
70
1
43
0.0
10
51.746540221268688
20
32.894061052013676
10
41.834877723553596
20
30.305286286069197
42
-0.29821662669863797
10
41.3156817188205
20
30.479744042185825
42
0.70704025841010443
10
39.97648023394612
20
30.025416045404938
10
39.892927251181746
20
23.527102788904767
42
0.49517812637345687
10
40.519239616772524
20
23.036903122689285
10
56.448457225512939
20
27.197371318237042
42
0.49517812637345687
10
56.755062968317716
20
27.931234936717139
10
53.504438847308634
20
33.558712089442764
42
0.70704025841004792
10
52.114111797757225
20
33.300128948008776
42
-0.298216626698665
0
LWPOLYLINE
5
369
100
AcDbEntity
8
0
100
AcDbPolyline
90
6
70
1
43
0.0
10
44.3050988905458
20
49.484600011165504
10
41.225024408226858
20
54.816821803872401
42
0.76214859154734127
10
40.29210629983119
20
54.573157851607654
10
40.212937069383813
20
48.415789883376412
42
0.49517812637348774
10
40.83924943497464
20
47.92559021716098
10
43.998493147741002
20
48.750736392685312
42
0.49517812637352659
0
CIRCLE
5
370
100
AcDbEntity
8
0
100
AcDbCircle
10
59.391318133615378
20
15.770155805634992
30
0
40
1.1499999999999868
210
-3.8973677457318234e-33
220
-4.7741801010822206e-33
230
1
0
CIRCLE
5
371
100
AcDbEntity
8
0
100
AcDbCircle
10
43.540274014939158
20
11.630105330978374
30
-1.7763568394002505e-14
40
1.1499999999999897
210
-5.0390810765111696e-32
220
6.600046763581472e-33
230
1
0
LWPOLYLINE
5
372
100
AcDbEntity
8
0
100
AcDbPolyline
90
10
70
1
43
0.0
10
43.446564169420952
20
47.262971101646116
10
42.048217602354669
20
46.897744349050441
42
-0.29821662669845028
10
41.529021597621764
20
47.072202105166852
42
0.7070402584098795
10
40.189820112747498
20
46.617874108385806
10
40.106267129983131
20
40.119560851885971
42
0.49517812637344849
10
40.732579495573908
20
39.629361185670504
10
48.148481173664919
20
41.566281367869365
42
0.49517812637348302
10
48.455086916469781
20
42.300144986349572
10
45.204462795460799
20
47.927622139074721
42
0.70704025840986817
10
43.814135745909468
20
47.66903899764106
42
-0.29821662669848609
0
LWPOLYLINE
5
373
100
AcDbEntity
8
0
100
AcDbPolyline
90
6
70
1
43
0.0
10
73.87216944097031
20
9.3279107012545808
42
-0.75020640321333842
10
71.925398133452532
20
8.8194772890864837
10
49.934404591008466
20
45.58740316076333
42
-0.4999223981556789
10
52.961920051262624
20
52.991606675867033
10
68.812964169939136
20
57.1316571505224
42
-0.49992239815569361
10
75.074531622533328
20
52.15362012858602
0
LWPOLYLINE
5
374
100
AcDbEntity
8
0
100
AcDbPolyline
90
10
70
1
43
0.0
10
73.201538661059516
20
48.975968896918758
10
53.122079536126854
20
43.731521044865133
42
0.49517812637340125
10
52.81547379332207
20
42.997657426385004
10
55.962348213682446
20
37.549791649279513
42
0.70704025840999718
10
57.352675263233905
20
37.808374790713273
42
-0.29821662669860949
10
57.720246839722442
20
38.214442686708246
10
71.888567302763164
20
41.91499145932611
42
-0.29821662669859472
10
72.407763307496225
20
41.740533703209543
42
0.70704025841005624
10
73.746964792370392
20
42.194861699990376
10
73.827851026650237
20
48.485769230703227
42
0.4951781263734536
0
LWPOLYLINE
5
375
100
AcDbEntity
8
0
100
AcDbPolyline
90
10
70
1
43
0.0
10
72.990865530741786
20
32.590916559724825
10
61.318305887325778
20
29.542222370852542
42
0.49517812637349601
10
61.011700144520802
20
28.8083587523723
10
64.262324265529458
20
23.180881599646611
42
0.7070402584099782
10
65.652651315080945
20
23.439464741080336
42
-0.29821662669854576
10
66.020222891569404
20
23.845532637075209
10
71.675227423960365
20
25.32253339634493
42
-0.2982166266985643
10
72.194423428693398
20
25.148075640228427
42
0.70704025841002427
10
73.533624913567706
20
25.602403637009221
10
73.617177896332521
20
32.100716893509286
42
0.49517812637345476
0
LWPOLYLINE
5
376
100
AcDbEntity
8
0
100
AcDbPolyline
90
10
70
1
43
0.0
10
61.870234865646168
20
31.029987661891887
10
71.781897363361495
20
33.618762427835591
42
-0.29821662669865062
10
72.301093368094598
20
33.444304671718925
42
0.70704025841009843
10
73.640294852969006
20
33.898632668499701
10
73.723847835733906
20
40.396945924999869
42
0.49517812637345215
10
73.097535470143171
20
40.887145591215408
10
57.168317861402365
20
36.726677395668915
42
0.49517812637344993
10
56.861712118597524
20
35.992813777188836
10
60.112336239606179
20
30.365336624462952
42
0.70704025841004381
10
61.50266328915761
20
30.623919765896822
42
-0.29821662669866272
0
LWPOLYLINE
5
377
100
AcDbEntity
8
0
100
AcDbPolyline
90
6
70
1
43
0.0
10
69.311676196367756
20
14.439448702739456
10
72.391750678686279
20
9.1072269100323044
42
0.76214859154735271
10
73.324668787081976
20
9.3508908622970051
10
73.403838017529836
20
15.508258830528238
42
0.49517812637349096
10
72.777525651939058
20
15.998458496743712
10
69.618281939172618
20
15.17331232121964
42
0.49517812637352376
0
CIRCLE
5
378
100
AcDbEntity
8
0
100
AcDbCircle
10
54.225456953300835
20
48.15389290827121
30
0
40
1.149999999999989
210
-9.0415879302907106e-32
220
2.0110264948073851e-31
230
1
0
CIRCLE
5
379
100
AcDbEntity
8
0
100
AcDbCircle
10
70.076501071977432
20
52.293943382926571
30
1.7763568394002505e-14
40
1.1499999999999917
210
-8.1583872075358533e-32
220
6.1940892601385057e-32
230
1
0
LWPOLYLINE
5
380
100
AcDbEntity
8
0
100
AcDbPolyline
90
10
70
1
43
0.0
10
70.170210917492781
20
16.661077612258772
10
71.568557484559122
20
17.02630436485434
42
-0.29821662669844368
10
72.087753489291998
20
16.851846608737887
42
0.70704025840989038
10
73.426954974166307
20
17.306174605518844
10
73.510507956931178
20
23.804487862018668
42
0.49517812637345149
10
72.884195591340443
20
24.294687528234185
10
65.468293913249283
20
22.357767346035899
42
0.49517812637347947
10
65.161688170444336
20
21.623903727555742
10
68.412312291452878
20
15.996426574830323
42
0.70704025840986473
10
69.802639341004252
20
16.255009716263874
42
-0.29821662669848792
0
LWPOLYLINE
5
381
100
AcDbEntity
8
0
100
AcDbPolyline
90
6
70
1
43
0.0
10
77.744605645943281
20
54.59613801265013
42
-0.75020640321333887
10
79.691376953461017
20
55.104571424818374
10
101.68237049590803
20
18.336645553143317
42
-0.49992239815568024
10
98.654855035654435
20
10.932442038039362
10
82.80381091697825
20
6.7923915633827647
42
-0.49992239815569317
10
76.542243464383702
20
11.770428585318644
0
LWPOLYLINE
5
382
100
AcDbEntity
8
0
100
AcDbPolyline
90
10
70
1
43
0.0
10
78.415236425857273
20
14.948079816986034
10
98.494695550789473
20
20.192527669041247
42
0.49517812637338499
10
98.801301293594179
20
20.926391287521401
10
95.654426873233405
20
26.374257064626633
42
0.70704025840999873
10
94.26409982368196
20
26.115673923192769
42
-0.29821662669861182
10
93.896528247193459
20
25.709606027197761
10
79.728207784153057
20
22.00905725457876
42
-0.2982166266985925
10
79.209011779419967
20
22.183515010695306
42
0.70704025841006057
10
77.869810294545857
20
21.729187013914366
10
77.788924060266496
20
15.438279483201514
42
0.49517812637345543
0
LWPOLYLINE
5
383
100
AcDbEntity
8
0
100
AcDbPolyline
90
10
70
1
43
0.0
10
78.625909556173667
20
31.333132154179975
10
90.29846919958942
20
34.381826343053177
42
0.4951781263734894
10
90.605074942394339
20
35.115689961533441
10
87.354450821385257
20
40.743167114258867
42
0.70704025840997575
10
85.964123771833769
20
40.484583972825028
42
-0.29821662669854609
10
85.596552195345339
20
40.078516076830141
10
79.941547662954505
20
38.601515317559972
42
-0.2982166266985633
10
79.422351658221473
20
38.775973073676433
42
0.70704025841002571
10
78.083150173347192
20
38.321645076895521
10
77.999597190582918
20
31.823331820395452
42
0.49517812637344338
0
LWPOLYLINE
5
384
100
AcDbEntity
8
0
100
AcDbPolyline
90
10
70
1
43
0.0
10
89.746540221269143
20
32.894061052013782
10
79.834877723554044
20
30.305286286069304
42
-0.29821662669863797
10
79.31568171882094
20
30.479744042185931
42
0.70704025841010076
10
77.97648023394656
20
30.025416045405045
10
77.892927251182172
20
23.527102788904873
42
0.49517812637346292
10
78.519239616772964
20
23.036903122689395
10
94.448457225513408
20
27.197371318237149
42
0.49517812637344871
10
94.755062968318185
20
27.931234936717246
10
91.504438847309103
20
33.558712089442871
42
0.70704025841004681
10
90.114111797757687
20
33.300128948008883
42
-0.29821662669867105
0
LWPOLYLINE
5
385
100
AcDbEntity
8
0
100
AcDbPolyline
90
6
70
1
43
0.0
10
82.305098890546248
20
49.484600011165618
10
79.225024408227313
20
54.816821803872521
42
0.76214859154734826
10
78.292106299831644
20
54.57315785160776
10
78.212937069384267
20
48.415789883376512
42
0.49517812637348529
10
78.839249434975073
20
47.925590217161094
10
81.99849314774147
20
48.750736392685411
42
0.49517812637352898
0
CIRCLE
5
386
100
AcDbEntity
8
0
100
AcDbCircle
10
97.39131813361584
20
15.770155805635095
30
0
40
1.1499999999999879
210
0
220
-0
230
1
0
CIRCLE
5
387
100
AcDbEntity
8
0
100
AcDbCircle
10
81.540274014939598
20
11.630105330978481
30
0
40
1.1499999999999901
210
-4.5873693246321101e-32
220
1.8068470075161638e-32
230
1
0
LWPOLYLINE
5
388
100
AcDbEntity
8
0
100
AcDbPolyline
90
10
70
1
43
0.0
10
81.446564169421407
20
47.262971101646229
10
80.048217602355123
20
46.897744349050555
42
-0.29821662669845828
10
79.52902159762219
20
47.072202105166966
42
0.70704025840988372
10
78.189820112747952
20
46.617874108385912
10
78.106267129983578
20
40.119560851886078
42
0.49517812637344716
10
78.732579495574356
20
39.629361185670604
10
86.14848117366536
20
41.566281367869479
42
0.49517812637347347
10
86.455086916470236
20
42.300144986349679
10
83.204462795461254
20
47.927622139074828
42
0.70704025840986817
10
81.814135745909908
20
47.669038997641167
42
-0.29821662669848487
0
CIRCLE
5
389
100
AcDbEntity
8
0
100
AcDbCircle
10
99.359430789026703
20
-8.466597947176524e-06
30
0
40
2.000000000000028
210
0
220
-0
230
1
0
CIRCLE
5
390
100
AcDbEntity
8
0
100
AcDbCircle
10
68.640557033721763
20
-8.4665985866649862e-06
30
1.7763568394002505e-14
40
2.000000000000028
210
0
220
-0
230
1
0
LWPOLYLINE
5
391
100
AcDbEntity
8
0
100
AcDbPolyline
90
4
70
1
43
0.0
10
68.640563377915129
20
-4.9999999289446606
42
-0.9999999925494194
10
68.640563452420736
20
4.9999999289423878
10
99.359436622101896
20
4.9999999289431054
42
-0.9999999925494194
10
99.359436547596289
20
-4.9999999289441011
0
CIRCLE
5
392
100
AcDbEntity
8
0
100
AcDbCircle
10
99.359430789027243
20
-13.000008466598061
30
-1.7763568394002505e-14
40
2.0000000000000284
210
1.227921708659166e-29
220
-3.3195217976005722e-30
230
1
0
CIRCLE
5
393
100
AcDbEntity
8
0
100
AcDbCircle
10
68.640557033722303
20
-13.0000084665987
30
-1.7763568394002505e-14
40
2.0000000000000284
210
1.227921708659166e-29
220
-3.3195217976005722e-30
230
1
0
LWPOLYLINE
5
394
100
AcDbEntity
8
0
100
AcDbPolyline
90
4
70
1
43
0.0
10
68.64056337791564
20
-17.999999928944778
42
-0.9999999925494194
10
68.640563452421219
20
-8.0000000710577233
10
99.359436622102351
20
-8.0000000710570784
42
-0.9999999925494194
10
99.359436547596829
20
-17.999999928944142
0
CIRCLE
5
395
100
AcDbEntity
8
0
100
AcDbCircle
10
57.359430789029169
20
-13.000008466597563
30
0
40
2.0000000000000315
210
-2.196454968340393e-31
220
-1.5623578229282136e-30
230
1
0
CIRCLE
5
396
100
AcDbEntity
8
0
100
AcDbCircle
10
26.640557033724193
20
-13.000008466598203
30
1.7763568394002505e-14
40
2.0000000000000315
210
-2.196454968340393e-31
220
-1.5623578229282136e-30
230
1
0
LWPOLYLINE
5
397
100
AcDbEntity
8
0
100
AcDbPolyline
90
4
70
1
43
0.0
10
26.640563377917559
20
-17.999999928944284
42
-0.9999999925494194
10
26.640563452423152
20
-8.0000000710572206
10
57.359436622104326
20
-8.0000000710565278
42
-0.9999999925494194
10
57.359436547598776
20
-17.999999928943701
0
CIRCLE
5
398
100
AcDbEntity
8
0
100
AcDbCircle
10
57.359430789028742
20
-8.4665973076880618e-06
30
0
40
2.0000000000000311
210
0
220
-0
230
1
0
CIRCLE
5
399
100
AcDbEntity
8
0
100
AcDbCircle
10
26.640557033723766
20
-8.466597947176524e-06
30
0
40
2.0000000000000311
210
0
220
-0
230
1
0
LWPOLYLINE
5
400
100
AcDbEntity
8
0
100
AcDbPolyline
90
4
70
1
43
0.0
10
26.640563377917132
20
-4.9999999289440282
42
-0.9999999925494194
10
26.640563452422725
20
4.9999999289430344
10
57.3594366221039
20
4.9999999289438675
42
-0.9999999925494194
10
57.359436547598349
20
-4.999999928943442
0
CIRCLE
5
401
100
AcDbEntity
8
0
100
AcDbCircle
10
15.35943078902843
20
-8.4665973787423354e-06
30
0
40
2.000000000000028
210
2.1964549683404062e-31
220
1.5623578229282159e-30
230
1
0
CIRCLE
5
402
100
AcDbEntity
8
0
100
AcDbCircle
10
-15.359442966276511
20
-8.4665980182307976e-06
30
1.7763568394002505e-14
40
2.000000000000028
210
2.1964549683404062e-31
220
1.5623578229282159e-30
230
1
0
LWPOLYLINE
5
403
100
AcDbEntity
8
0
100
AcDbPolyline
90
4
70
1
43
0.0
10
-15.359436622083146
20
-4.9999999289440922
42
-0.9999999925494194
10
-15.359436547577548
20
4.9999999289429562
10
15.359436622103608
20
4.9999999289436738
42
-0.9999999925494194
10
15.359436547598015
20
-4.9999999289435326
0
CIRCLE
5
404
100
AcDbEntity
8
0
100
AcDbCircle
10
15.359430789028927
20
-13.000008466597492
30
-1.7763568394002505e-14
40
2.0000000000000284
210
2.1964549683404062e-31
220
1.5623578229282152e-30
230
1
0
CIRCLE
5
405
100
AcDbEntity
8
0
100
AcDbCircle
10
-15.359442966276013
20
-13.000008466598132
30
-1.7763568394002505e-14
40
2.0000000000000284
210
2.1964549683404062e-31
220
1.5623578229282152e-30
230
1
0
LWPOLYLINE
5
406
100
AcDbEntity
8
0
100
AcDbPolyline
90
4
70
1
43
0.0
10
-15.359436622082685
20
-17.999999928944209
42
-0.9999999925494194
10
-15.359436547577086
20
-8.0000000710571548
10
15.359436622104026
20
-8.00000007105651
42
-0.9999999925494194
10
15.359436547598522
20
-17.999999928943573
0
CIRCLE
5
407
100
AcDbEntity
8
0
100
AcDbCircle
10
24.819873491488629
20
-25.652913361487677
30
0
40
2.0000000000000302
210
-1.2938153577093756e-29
220
-1.3675516711840639e-30
230
1
0
CIRCLE
5
408
100
AcDbEntity
8
0
100
AcDbCircle
10
-5.899000263816383
20
-25.652913361488388
30
0
40
2.0000000000000302
210
-1.2938153577093756e-29
220
-1.3675516711840639e-30
230
1
0
LWPOLYLINE
5
409
100
AcDbEntity
8
0
100
AcDbPolyline
90
4
70
1
43
0.0
10
-5.8989939196229813
20
-30.652904823834582
42
-0.9999999925494194
10
-5.8989938451173884
20
-20.652904965947435
10
24.819879324563757
20
-20.652904965946508
42
-0.9999999925494194
10
24.819879250058193
20
-30.652904823833804
0
CIRCLE
5
410
100
AcDbEntity
8
0
100
AcDbCircle
10
24.819873491488949
20
-38.152913361488174
30
0
40
2.0000000000000302
210
0
220
-0
230
1
0
CIRCLE
5
411
100
AcDbEntity
8
0
100
AcDbCircle
10
-5.8990002638160632
20
-38.152913361488885
30
-1.7763568394002505e-14
40
2.0000000000000302
210
0
220
-0
230
1
0
LWPOLYLINE
5
412
100
AcDbEntity
8
0
100
AcDbPolyline
90
4
70
1
43
0.0
10
-5.8989939196227335
20
-43.152904823835073
42
-0.9999999925494194
10
-5.8989938451171398
20
-33.152904965947933
10
24.819879324564077
20
-33.152904965947002
42
-0.9999999925494194
10
24.819879250058506
20
-43.152904823834305
0
CIRCLE
5
413
100
AcDbEntity
8
0
100
AcDbCircle
10
20.832767901758231
20
-50.276473405118338
30
-1.7763568394002505e-14
40
2.0000000000000147
210
-4.3929099366807362e-31
220
-3.1247156458564255e-30
230
1
0
CIRCLE
5
414
100
AcDbEntity
8
0
100
AcDbCircle
10
-9.8861058535464963
20
-50.276473405119049
30
0
40
2.0000000000000147
210
-4.3929099366807362e-31
220
-3.1247156458564255e-30
230
1
0
LWPOLYLINE
5
415
100
AcDbEntity
8
0
100
AcDbPolyline
90
4
70
1
43
0.0
10
-9.886099509353107
20
-55.276464867465208
42
-0.9999999925494194
10
-9.8860994348475586
20
-45.276465009578132
10
20.832773734833406
20
-45.276465009577322
42
-0.9999999925494194
10
20.83277366032782
20
-55.276464867464455
0
CIRCLE
5
416
100
AcDbEntity
8
0
100
AcDbCircle
10
66.81987349148649
20
-38.152913361488388
30
-1.7763568394002505e-14
40
2.0000000000000302
210
0
220
-0
230
1
0
CIRCLE
5
417
100
AcDbEntity
8
0
100
AcDbCircle
10
36.100999736181549
20
-38.152913361489027
30
-1.7763568394002505e-14
40
2.0000000000000302
210
0
220
-0
230
1
0
LWPOLYLINE
5
418
100
AcDbEntity
8
0
100
AcDbPolyline
90
4
70
1
43
0.0
10
36.10100608037488
20
-43.152904823835215
42
-0.9999999925494194
10
36.101006154880473
20
-33.152904965948075
10
66.819879324561697
20
-33.152904965947272
42
-0.9999999925494194
10
66.819879250056118
20
-43.152904823834461
0
CIRCLE
5
419
100
AcDbEntity
8
0
100
AcDbCircle
10
66.81987349148649
20
-25.652913361488174
30
1.7763568394002505e-14
40
2.0000000000000289
210
0
220
-0
230
1
0
CIRCLE
5
420
100
AcDbEntity
8
0
100
AcDbCircle
10
36.100999736181549
20
-25.652913361488885
30
0
40
2.0000000000000289
210
0
220
-0
230
1
0
LWPOLYLINE
5
421
100
AcDbEntity
8
0
100
AcDbPolyline
90
4
70
1
43
0.0
10
36.10100608037488
20
-30.652904823835073
42
-0.9999999925494194
10
36.101006154880473
20
-20.65290496594794
10
66.819879324561583
20
-20.652904965946991
42
-0.9999999925494194
10
66.81987925005609
20
-30.652904823834316
0
CIRCLE
5
422
100
AcDbEntity
8
0
100
AcDbCircle
10
-19.865360464892561
20
-25.813208717255307
30
-1.7763568394002505e-14
40
2.0000000000000244
210
-1.2979066807951159e-29
220
8.9991130261001412e-31
230
1
0
CIRCLE
5
423
100
AcDbEntity
8
0
100
AcDbCircle
10
-25.199636912480479
20
-56.065393755282926
30
-3.5527136788005009e-14
40
2.0000000000000244
210
-1.2979066807951159e-29
220
8.9991130261001412e-31
230
1
0
ARC
5
424
100
AcDbEntity
8
0
100
AcDbCircle
10
-25.199644135855834
20
-56.065385963889156
30
-3.5527136788005009e-14
40
4.9999999289435131
210
-1.2156053027556368e-29
220
3.7455008401558485e-30
230
1
100
AcDbArc
50
170.00000000000264
51
349.99999914622913
0
LINE
5
425
100
AcDbEntity
8
0
100
AcDbLine
10
-20.275605453709531
20
-56.933626913258635
30
-3.5527136788004946e-14
11
-14.941329107814161
21
-26.681442451957782
31
-1.7763568394002568e-14
0
ARC
5
426
100
AcDbEntity
8
0
100
AcDbCircle
10
-19.865367802898319
20
-25.813201575962168
30
-1.7763568394002505e-14
40
4.9999999289435735
210
1.2977958579301887e-29
220
9.1575717290348186e-31
230
1
100
AcDbArc
50
-9.9999999999974438
51
169.99999914622944
0
LINE
5
427
100
AcDbEntity
8
0
100
AcDbLine
10
-24.789406485044701
20
-24.9449606265927
30
-1.7763568394002568e-14
11
-30.123682830939934
21
-55.19714508789356
31
-3.5527136788005072e-14
0
CIRCLE
5
428
100
AcDbEntity
8
0
100
AcDbCircle
10
-61.516536251556992
20
-79.010427755806489
30
0
40
2.0000000000000338
210
2.1964549683394218e-31
220
1.5623578229282341e-30
230
1
0
CIRCLE
5
429
100
AcDbEntity
8
0
100
AcDbCircle
10
-92.235410006861969
20
-79.010427755809118
30
1.7763568394002505e-14
40
2.0000000000000338
210
2.1964549683394218e-31
220
1.5623578229282341e-30
230
1
0
LWPOLYLINE
5
430
100
AcDbEntity
8
0
100
AcDbPolyline
90
4
70
1
43
0.0
10
-92.235403662668304
20
-84.010419218155178
42
-0.9999999925494194
10
-92.235403588163379
20
-74.010419360268159
10
-61.51653041848224
20
-74.010419360265587
42
-0.9999999925494194
10
-61.516530492987052
20
-84.010419218152634
0
CIRCLE
5
431
100
AcDbEntity
8
0
100
AcDbCircle
10
-26.640569210969005
20
-13.000008466597066
30
0
40
2.0000000000000315
210
-1.271850808025972e-29
220
1.9480615174414111e-31
230
1
0
CIRCLE
5
432
100
AcDbEntity
8
0
100
AcDbCircle
10
-57.359442966273946
20
-13.000008466597706
30
1.7763568394002505e-14
40
2.0000000000000315
210
-1.271850808025972e-29
220
1.9480615174414111e-31
230
1
0
LWPOLYLINE
5
433
100
AcDbEntity
8
0
100
AcDbPolyline
90
4
70
1
43
0.0
10
-57.359436622080615
20
-17.999999928943787
42
-0.9999999925494194
10
-57.359436547575022
20
-8.0000000710567232
10
-26.640563377893812
20
-8.0000000710560304
42
-0.9999999925494194
10
-26.640563452399363
20
-17.999999928943204
0
CIRCLE
5
434
100
AcDbEntity
8
0
100
AcDbCircle
10
-26.640569210969254
20
-8.4665965971453261e-06
30
0
40
2.0000000000000311
210
-1.2279217086591646e-29
220
3.3195217976005694e-30
230
1
0
CIRCLE
5
435
100
AcDbEntity
8
0
100
AcDbCircle
10
-57.359442966274194
20
-8.4665972366337883e-06
30
0
40
2.0000000000000311
210
-1.2279217086591646e-29
220
3.3195217976005694e-30
230
1
0
LWPOLYLINE
5
436
100
AcDbEntity
8
0
100
AcDbPolyline
90
4
70
1
43
0.0
10
-57.359436622080864
20
-4.9999999289433177
42
-0.9999999925494194
10
-57.359436547575271
20
4.9999999289437449
10
-26.640563377894054
20
4.999999928944578
42
-0.9999999925494194
10
-26.640563452399618
20
-4.9999999289427315
0
CIRCLE
5
437
100
AcDbEntity
8
0
100
AcDbCircle
10
-68.640569210969531
20
-8.4665964550367789e-06
30
-1.7763568394002505e-14
40
2.000000000000028
210
0
220
-0
230
1
0
CIRCLE
5
438
100
AcDbEntity
8
0
100
AcDbCircle
10
-99.359442966274429
20
-8.4665970945252411e-06
30
0
40
2.000000000000028
210
0
220
-0
230
1
0
LWPOLYLINE
5
439
100
AcDbEntity
8
0
100
AcDbPolyline
90
4
70
1
43
0.0
10
-99.359436622081105
20
-4.9999999289431685
42
-0.9999999925494194
10
-99.359436547575513
20
4.9999999289438799
10
-68.640563377894381
20
4.9999999289445993
42
-0.9999999925494194
10
-68.640563452399903
20
-4.9999999289426098
0
CIRCLE
5
440
100
AcDbEntity
8
0
100
AcDbCircle
10
-68.640569210969176
20
-13.000008466596782
30
0
40
2.000000000000028
210
-1.2498862583425702e-29
220
1.7571639746723575e-30
230
1
0
CIRCLE
5
441
100
AcDbEntity
8
0
100
AcDbCircle
10
-99.359442966274116
20
-13.000008466597421
30
0
40
2.000000000000028
210
-1.2498862583425702e-29
220
1.7571639746723575e-30
230
1
0
LWPOLYLINE
5
442
100
AcDbEntity
8
0
100
AcDbPolyline
90
4
70
1
43
0.0
10
-99.359436622080779
20
-17.999999928943499
42
-0.9999999925494194
10
-99.3594365475752
20
-8.0000000710564461
10
-68.640563377894068
20
-8.0000000710557977
42
-0.9999999925494194
10
-68.64056345239959
20
-17.999999928942866
0
CIRCLE
5
443
100
AcDbEntity
8
0
100
AcDbCircle
10
-152.64056921096727
20
-8.4665957444940432e-06
30
0
40
2.000000000000028
210
0
220
-0
230
1
0
CIRCLE
5
444
100
AcDbEntity
8
0
100
AcDbCircle
10
-183.35944296627218
20
-8.4665963129282318e-06
30
0
40
2.000000000000028
210
0
220
-0
230
1
0
LWPOLYLINE
5
445
100
AcDbEntity
8
0
100
AcDbPolyline
90
4
70
1
43
0.0
10
-183.35943662207887
20
-4.9999999289423869
42
-0.9999999925494194
10
-183.35943654757324
20
4.9999999289446615
10
-152.64056337789216
20
4.9999999289453916
42
-0.9999999925494194
10
-152.64056345239766
20
-4.9999999289418398
0
CIRCLE
5
446
100
AcDbEntity
8
0
100
AcDbCircle
10
-110.64056921096729
20
-8.4665959576568639e-06
30
0
40
2.0000000000000284
210
0
220
-0
230
1
0
CIRCLE
5
447
100
AcDbEntity
8
0
100
AcDbCircle
10
-141.35944296627224
20
-8.4665965971453261e-06
30
1.7763568394002505e-14
40
2.0000000000000284
210
0
220
-0
230
1
0
LWPOLYLINE
5
448
100
AcDbEntity
8
0
100
AcDbPolyline
90
4
70
1
43
0.0
10
-141.3594366220789
20
-4.999999928942743
42
-0.9999999925494194
10
-141.3594365475733
20
4.9999999289443062
10
-110.64056337789219
20
4.9999999289450185
42
-0.9999999925494194
10
-110.64056345239769
20
-4.9999999289420352
0
CIRCLE
5
449
100
AcDbEntity
8
0
100
AcDbCircle
10
-110.64056921096676
20
-13.000008466596142
30
0
40
2.000000000000028
210
-2.196454968340404e-31
220
-1.5623578229282159e-30
230
1
0
CIRCLE
5
450
100
AcDbEntity
8
0
100
AcDbCircle
10
-141.3594429662717
20
-13.000008466596853
30
0
40
2.000000000000028
210
-2.196454968340404e-31
220
-1.5623578229282159e-30
230
1
0
LWPOLYLINE
5
451
100
AcDbEntity
8
0
100
AcDbPolyline
90
4
70
1
43
0.0
10
-141.35943662207831
20
-17.999999928942927
42
-0.9999999925494194
10
-141.3594365475727
20
-8.0000000710558794
10
-110.64056337789151
20
-8.0000000710552364
42
-0.9999999925494194
10
-110.64056345239717
20
-17.999999928942291
0
CIRCLE
5
452
100
AcDbEntity
8
0
100
AcDbCircle
10
-152.64056921096685
20
-13.000008466596213
30
0
40
2.0000000000000258
210
-2.1964549683404014e-31
220
-1.5623578229282155e-30
230
1
0
CIRCLE
5
453
100
AcDbEntity
8
0
100
AcDbCircle
10
-183.35944296627176
20
-13.000008466596853
30
1.7763568394002505e-14
40
2.0000000000000258
210
-2.1964549683404014e-31
220
-1.5623578229282155e-30
230
1
0
LWPOLYLINE
5
454
100
AcDbEntity
8
0
100
AcDbPolyline
90
4
70
1
43
0.0
10
-183.35943662207848
20
-17.99999992894293
42
-0.9999999925494194
10
-183.35943654757278
20
-8.0000000710558776
10
-152.64056337789171
20
-8.0000000710551014
42
-0.9999999925494194
10
-152.64056345239726
20
-17.999999928942284
0
CIRCLE
5
455
100
AcDbEntity
8
0
100
AcDbCircle
10
-183.35944296627224
20
-8.4665964550367789e-06
30
0
40
1.2499999999999993
210
-0
220
0
230
1
0
CIRCLE
5
456
100
AcDbEntity
8
0
100
AcDbCircle
10
-183.35944296627184
20
-13.000008466596924
30
1.7763568394002505e-14
40
1.2499999999999978
210
-0
220
0
230
1
0
CIRCLE
5
457
100
AcDbEntity
8
0
100
AcDbCircle
10
-152.64056921096693
20
-13.000008466596285
30
0
40
1.2499999999999978
210
-0
220
0
230
1
0
CIRCLE
5
458
100
AcDbEntity
8
0
100
AcDbCircle
10
-152.64056921096736
20
-8.4665958155483168e-06
30
0
40
1.2499999999999993
210
-0
220
0
230
1
0
CIRCLE
5
459
100
AcDbEntity
8
0
100
AcDbCircle
10
-141.35944296627235
20
-8.4665967392538732e-06
30
1.7763568394002505e-14
40
1.2499999999999996
210
-0
220
0
230
1
0
CIRCLE
5
460
100
AcDbEntity
8
0
100
AcDbCircle
10
-141.35944296627176
20
-13.000008466596995
30
0
40
1.2499999999999991
210
-0
220
0
230
1
0
CIRCLE
5
461
100
AcDbEntity
8
0
100
AcDbCircle
10
-110.64056921096743
20
-8.4665960997654111e-06
30
0
40
1.2499999999999996
210
-0
220
0
230
1
0
CIRCLE
5
462
100
AcDbEntity
8
0
100
AcDbCircle
10
-110.64056921096682
20
-13.000008466596285
30
0
40
1.2499999999999991
210
-0
220
0
230
1
0
CIRCLE
5
463
100
AcDbEntity
8
0
100
AcDbCircle
10
-99.359442966274514
20
-8.4665972366337883e-06
30
0
40
1.2499999999999991
210
-0
220
0
230
1
0
CIRCLE
5
464
100
AcDbEntity
8
0
100
AcDbCircle
10
-99.35944296627423
20
-13.000008466597563
30
0
40
1.2499999999999991
210
-0
220
0
230
1
0
CIRCLE
5
465
100
AcDbEntity
8
0
100
AcDbCircle
10
-68.64056921096963
20
-8.4665965971453261e-06
30
-1.7763568394002505e-14
40
1.2499999999999991
210
-0
220
0
230
1
0
CIRCLE
5
466
100
AcDbEntity
8
0
100
AcDbCircle
10
-57.359442966274337
20
-8.4665973076880618e-06
30
0
40
1.2500000000000009
210
-0
220
0
230
1
0
CIRCLE
5
467
100
AcDbEntity
8
0
100
AcDbCircle
10
-57.359442966274088
20
-13.000008466597848
30
1.7763568394002505e-14
40
1.2500000000000013
210
-0
220
0
230
1
0
CIRCLE
5
468
100
AcDbEntity
8
0
100
AcDbCircle
10
-68.640569210969318
20
-13.000008466596853
30
0
40
1.2499999999999991
210
-0
220
0
230
1
0
CIRCLE
5
469
100
AcDbEntity
8
0
100
AcDbCircle
10
-26.640569210969325
20
-8.4665967392538732e-06
30
0
40
1.2500000000000009
210
-0
220
0
230
1
0
CIRCLE
5
470
100
AcDbEntity
8
0
100
AcDbCircle
10
-26.640569210969076
20
-13.000008466597137
30
0
40
1.2500000000000013
210
-0
220
0
230
1
0
CIRCLE
5
471
100
AcDbEntity
8
0
100
AcDbCircle
10
-15.359442966276156
20
-13.000008466598274
30
-1.7763568394002505e-14
40
1.2499999999999996
210
1.2331466435978502e-29
220
-2.6914915291676169e-30
230
1
0
CIRCLE
5
472
100
AcDbEntity
8
0
100
AcDbCircle
10
-15.359442966276582
20
-8.4665981603393448e-06
30
1.7763568394002505e-14
40
1.2499999999999991
210
-0
220
0
230
1
0
CIRCLE
5
473
100
AcDbEntity
8
0
100
AcDbCircle
10
-19.86536046489249
20
-25.813208717255307
30
-1.7763568394002505e-14
40
1.2499999999999973
210
-1.167675115291569e-29
220
4.7919383996592476e-30
230
1
0
CIRCLE
5
474
100
AcDbEntity
8
0
100
AcDbCircle
10
-25.199636912480372
20
-56.065393755283068
30
-3.5527136788005009e-14
40
1.2499999999999973
210
-1.167675115291569e-29
220
4.7919383996592476e-30
230
1
0
CIRCLE
5
475
100
AcDbEntity
8
0
100
AcDbCircle
10
-5.899000263816454
20
-25.65291336148853
30
0
40
1.2500000000000009
210
-0
220
0
230
1
0
CIRCLE
5
476
100
AcDbEntity
8
0
100
AcDbCircle
10
-5.8990002638162053
20
-38.152913361489027
30
-1.7763568394002505e-14
40
1.2500000000000009
210
-0
220
0
230
1
0
CIRCLE
5
477
100
AcDbEntity
8
0
100
AcDbCircle
10
-9.8861058535466029
20
-50.276473405119191
30
0
40
1.2499999999999916
210
-0
220
0
230
1
0
CIRCLE
5
478
100
AcDbEntity
8
0
100
AcDbCircle
10
20.832767901758125
20
-50.27647340511848
30
-1.7763568394002505e-14
40
1.2499999999999916
210
-0
220
0
230
1
0
CIRCLE
5
479
100
AcDbEntity
8
0
100
AcDbCircle
10
24.819873491488806
20
-38.152913361488316
30
0
40
1.2500000000000009
210
-0
220
0
230
1
0
CIRCLE
5
480
100
AcDbEntity
8
0
100
AcDbCircle
10
24.819873491488558
20
-25.652913361487819
30
0
40
1.2500000000000009
210
-0
220
0
230
1
0
CIRCLE
5
481
100
AcDbEntity
8
0
100
AcDbCircle
10
26.64055703372366
20
-8.4665980182307976e-06
30
0
40
1.2500000000000009
210
-0
220
0
230
1
0
CIRCLE
5
482
100
AcDbEntity
8
0
100
AcDbCircle
10
26.640557033724086
20
-13.000008466598345
30
1.7763568394002505e-14
40
1.2500000000000013
210
-0
220
0
230
1
0
CIRCLE
5
483
100
AcDbEntity
8
0
100
AcDbCircle
10
57.359430789028636
20
-8.466597449796609e-06
30
0
40
1.2500000000000009
210
-0
220
0
230
1
0
CIRCLE
5
484
100
AcDbEntity
8
0
100
AcDbCircle
10
57.359430789029062
20
-13.000008466597635
30
0
40
1.2500000000000013
210
-0
220
0
230
1
0
CIRCLE
5
485
100
AcDbEntity
8
0
100
AcDbCircle
10
36.100999736181443
20
-25.652913361489027
30
0
40
1.2499999999999998
210
-0
220
0
230
1
0
CIRCLE
5
486
100
AcDbEntity
8
0
100
AcDbCircle
10
66.819873491486348
20
-25.652913361488316
30
1.7763568394002505e-14
40
1.2499999999999998
210
-0
220
0
230
1
0
CIRCLE
5
487
100
AcDbEntity
8
0
100
AcDbCircle
10
66.819873491486419
20
-38.152913361488459
30
-1.7763568394002505e-14
40
1.2500000000000002
210
-0
220
0
230
1
0
CIRCLE
5
488
100
AcDbEntity
8
0
100
AcDbCircle
10
36.100999736181443
20
-38.152913361489169
30
-1.7763568394002505e-14
40
1.2500000000000002
210
-0
220
0
230
1
0
CIRCLE
5
489
100
AcDbEntity
8
0
100
AcDbCircle
10
68.64055703372216
20
-13.000008466598842
30
-1.7763568394002505e-14
40
1.2499999999999996
210
1.2331466435978502e-29
220
-2.6914915291676169e-30
230
1
0
CIRCLE
5
490
100
AcDbEntity
8
0
100
AcDbCircle
10
68.640557033721706
20
-8.4665987287735334e-06
30
1.7763568394002505e-14
40
1.2499999999999991
210
-0
220
0
230
1
0
CIRCLE
5
491
100
AcDbEntity
8
0
100
AcDbCircle
10
99.359430789026604
20
-8.4665980892850712e-06
30
0
40
1.2499999999999991
210
-0
220
0
230
1
0
CIRCLE
5
492
100
AcDbEntity
8
0
100
AcDbCircle
10
99.359430789027101
20
-13.000008466598132
30
-1.7763568394002505e-14
40
1.2499999999999996
210
1.2331466435978502e-29
220
-2.6914915291676169e-30
230
1
0
CIRCLE
5
493
100
AcDbEntity
8
0
100
AcDbCircle
10
15.359430789028323
20
-8.4665975208508826e-06
30
0
40
1.2499999999999991
210
-0
220
0
230
1
0
CIRCLE
5
494
100
AcDbEntity
8
0
100
AcDbCircle
10
15.359430789028785
20
-13.000008466597563
30
-1.7763568394002505e-14
40
1.2499999999999996
210
1.2331466435978502e-29
220
-2.6914915291676169e-30
230
1
0
ENDSEC
0
SECTION
2
OBJECTS
0
DICTIONARY
5
C
100
AcDbDictionary
3
ACAD_GROUP
350
D
3
ACAD_MLINESTYLE
350
17
0
DICTIONARY
5
D
100
AcDbDictionary
0
DICTIONARY
5
1A
330
C
100
AcDbDictionary
0
DICTIONARY
5
17
100
AcDbDictionary
0
ENDSEC
0
EOF
