0
SECTION
2
HEADER
9
$INSUNITS
70
4
9
$ACADVER
1
AC1014
9
$HANDSEED
5
FFFF
0
ENDSEC
0
SECTION
2
TABLES
0
TABLE
2
VPORT
5
8
100
AcDbSymbolTable
0
ENDTAB
0
TABLE
2
LTYPE
5
5
100
AcDbSymbolTable
0
LTYPE
5
14
100
AcDbSymbolTableRecord
100
AcDbLinetypeTableRecord
2
BYBLOCK
70
0
0
LTYPE
5
15
100
AcDbSymbolTableRecord
100
AcDbLinetypeTableRecord
2
BYLAYER
70
0
0
ENDTAB
0
TABLE
2
LAYER
5
2
100
AcDbSymbolTable
70
2
0
LAYER
5
50
100
AcDbSymbolTableRecord
100
AcDbLayerTableRecord
2
0
70
0
6
CONTINUOUS
0
ENDTAB
0
TABLE
2
STYLE
5
3
100
AcDbSymbolTable
70
1
0
STYLE
5
11
100
AcDbSymbolTableRecord
100
AcDbTextStyleTableRecord
2
STANDARD
70
0
0
ENDTAB
0
TABLE
2
VIEW
5
6
100
AcDbSymbolTable
70
0
0
ENDTAB
0
TABLE
2
UCS
5
7
100
AcDbSymbolTable
70
0
0
ENDTAB
0
TABLE
2
APPID
5
9
100
AcDbSymbolTable
70
2
0
APPID
5
12
100
AcDbSymbolTableRecord
100
AcDbRegAppTableRecord
2
ACAD
70
0
0
ENDTAB
0
TABLE
2
DIMSTYLE
5
A
100
AcDbSymbolTable
70
1
0
ENDTAB
0
TABLE
2
BLOCK_RECORD
5
1
100
AcDbSymbolTable
70
1
0
BLOCK_RECORD
5
1F
100
AcDbSymbolTableRecord
100
AcDbBlockTableRecord
2
*MODEL_SPACE
0
BLOCK_RECORD
5
1B
100
AcDbSymbolTableRecord
100
AcDbBlockTableRecord
2
*PAPER_SPACE
0
ENDTAB
0
ENDSEC
0
SECTION
2
BLOCKS
0
BLOCK
5
20
100
AcDbEntity
100
AcDbBlockBegin
2
*MODEL_SPACE
0
ENDBLK
5
21
100
AcDbEntity
100
AcDbBlockEnd
0
BLOCK
5
1C
100
AcDbEntity
100
AcDbBlockBegin
2
*PAPER_SPACE
0
ENDBLK
5
1D
100
AcDbEntity
100
AcDbBlockEnd
0
ENDSEC
0
SECTION
2
ENTITIES
0
LWPOLYLINE
5
100
100
AcDbEntity
8
0
100
AcDbPolyline
90
100
70
1
43
0.0
10
-4.7751722826855314
20
32.649655434628947
10
-4.7751722826855314
20
31.393815194445406
42
0.46630765815500275
10
-4.0709833760853797
20
30.802930542638091
10
0.37716294512040782
20
31.587258753205901
42
-0.11355346309197385
10
4.0270151109713472
20
31.398739478979849
42
-0.010252818942403553
10
5.3067845845454897
20
31.005315006739092
10
4.9187086081088083
20
29.810939962886877
42
0.4663076581549721
10
5.4058386573098716
20
29.031368925016952
10
9.8786479477601556
20
28.402756573872576
42
-0.11355346309196945
10
13.291607974103446
20
27.095597743468588
42
-0.010252818942404885
10
14.387166223376511
20
26.325958319257253
10
13.649001850961184
20
25.309962222728942
42
0.46630765815504566
10
13.871389359512634
20
24.418014643573954
10
17.931031881963193
20
22.437994687447215
42
-0.11355346309197566
10
20.773015461929884
20
20.140150114696187
42
-0.010252818942403553
10
21.577121612259589
20
19.069633407749439
10
20.56112551573122
20
18.331469035334091
42
0.46630765815495201
10
20.497001644831272
20
17.414454958505988
10
23.746091303992106
20
14.276845546312709
42
-0.11355346309197047
10
25.738905283510903
20
11.213244268020153
42
-0.010252818942402887
10
26.172847822366094
20
9.946639912342409
10
24.978472778513918
20
9.5585639359057861
42
0.46630765815504094
10
24.634114419423554
20
8.7062470884571432
10
26.754607681717097
20
4.7181792904732154
42
-0.11355346309197352
10
27.703181543721321
20
1.1887079451236566
42
-0.010252818942403553
10
27.72448315194346
20
-0.15000000000003677
10
26.468642911759943
20
-0.15000000000003233
42
0.4663076581550139
10
25.877758259952657
20
-0.85418890660020619
10
26.662086470520428
20
-5.3023352278060152
42
-0.11355346309196689
10
26.473567196294429
20
-8.9521873936567467
42
-0.010252818942404885
10
26.08014272405363
20
-10.231956867231059
10
24.885767680201383
20
-9.8438808907944306
42
0.4663076581550023
10
24.106196642331383
20
-10.331010939995441
10
23.477584291187096
20
-14.803820230445695
42
-0.11355346309196587
10
22.170425460783207
20
-18.216780256788901
42
-0.010252818942404885
10
21.400786036571873
20
-19.312338506061973
10
20.384789940043504
20
-18.574174133646672
42
0.466307658155032
10
19.492842360888503
20
-18.79656164219822
10
17.512822404761721
20
-22.856204164648783
42
-0.11355346309196801
10
15.214977832010918
20
-25.698187744615293
42
-0.010252818942405552
10
14.14446112506397
20
-26.502293894945158
10
13.406296752648643
20
-25.486297798416743
42
0.46630765815500103
10
12.489282675820448
20
-25.422173927516788
10
9.351673263627303
20
-28.671263586677611
42
-0.11355346309197341
10
6.2880719853347671
20
-30.66407756619644
42
-0.010252818942403553
10
5.0214676296569394
20
-31.098020105051663
10
4.6333916532202934
20
-29.903645061199459
42
0.46630765815499736
10
3.7810748057716737
20
-29.559286702109052
10
-0.20699299221230039
20
-31.679779964402623
42
-0.11355346309196732
10
-3.7364643375613786
20
-32.628353826406837
42
-0.010252818942406884
10
-5.0751722826855072
20
-32.64965543462899
10
-5.0751722826855072
20
-31.393815194445477
42
0.46630765815498421
10
-5.7793611892856234
20
-30.802930542638155
10
-10.227507510491446
20
-31.587258753205969
42
-0.11355346309197452
10
-13.877359676342431
20
-31.398739478979927
42
-0.010252818942402887
10
-15.157129149916493
20
-31.005315006739199
10
-14.769053173479811
20
-29.81093996288697
42
0.46630765815496572
10
-15.256183222680875
20
-29.031368925017059
10
-19.728992513131146
20
-28.402756573872615
42
-0.11355346309197566
10
-23.141952539474598
20
-27.095597743468545
42
-0.010252818942402887
10
-24.237510788747443
20
-26.325958319257353
10
-23.499346416332152
20
-25.309962222729002
42
0.46630765815502656
10
-23.721733924883672
20
-24.418014643574001
10
-27.781376447334235
20
-22.437994687447215
42
-0.11355346309196902
10
-30.623360027300784
20
-20.14015011469635
42
-0.010252818942404885
10
-31.427466177630592
20
-19.069633407749468
10
-30.411470081102188
20
-18.331469035334166
42
0.46630765815498143
10
-30.347346210202275
20
-17.414454958506017
10
-33.596435869363113
20
-14.276845546312773
42
-0.1135534630919698
10
-35.589249848881963
20
-11.21324426802007
42
-0.010252818942401444
10
-36.023192387737097
20
-9.9466399123425084
10
-34.828817343884886
20
-9.5585639359058803
42
0.46630765815497316
10
-34.484458984794522
20
-8.7062470884572782
10
-36.604952247088129
20
-4.7181792904733157
42
-0.11355346309196934
10
-37.553526109092353
20
-1.188707945123981
42
-0.010252818942405552
10
-37.574827717314498
20
0.1499999999999746
10
-36.318987477130946
20
0.14999999999997016
42
0.46630765815500191
10
-35.728102825323624
20
0.85418890660012625
10
-36.512431035891424
20
5.3023352278059299
42
-0.11355346309196666
10
-36.323911761665464
20
8.9521873936565477
42
-0.010252818942405552
10
-35.930487289424633
20
10.231956867230942
10
-34.736112245572421
20
9.8438808907942921
42
0.46630765815500624
10
-33.956541207702529
20
10.331010939995359
10
-33.327928856558088
20
14.803820230445615
42
-0.11355346309196869
10
-32.020770026154139
20
18.216780256788859
42
-0.010252818942404885
10
-31.251130601942805
20
19.312338506061927
10
-30.235134505414436
20
18.574174133646608
42
0.46630765815501457
10
-29.343186926259435
20
18.796561642198121
10
-27.363166970132692
20
22.856204164648712
42
-0.1135534630919688
10
-25.065322397381642
20
25.698187744615364
42
-0.010252818942403553
10
-23.994805690434902
20
26.502293894945069
10
-23.256641318019611
20
25.486297798416683
42
0.46630765815500158
10
-22.339627241191451
20
25.422173927516759
10
-19.202017828998216
20
28.671263586677568
42
-0.11355346309196913
10
-16.138416550705802
20
30.664077566196326
42
-0.010252818942403553
10
-14.871812195027978
20
31.098020105051546
10
-14.483736218591332
20
29.903645061199331
42
0.4663076581549867
10
-13.631419371142712
20
29.559286702108945
10
-9.6433515731587267
20
31.679779964402588
42
-0.11355346309196609
10
-6.1138802278094859
20
32.628353826406801
42
-0.010252818942405552
0
CIRCLE
5
101
100
AcDbEntity
8
0
100
AcDbCircle
10
-4.9251722826855016
20
-4.8849813083506888e-14
30
0
40
1.2699999999999889
210
-0
220
0
230
1
0
CIRCLE
5
102
100
AcDbEntity
8
0
100
AcDbCircle
10
15.074827717314534
20
-4.8849813083506888e-14
30
0
40
6.0000000000000142
210
-0
220
0
230
1
0
ENDSEC
0
SECTION
2
OBJECTS
0
DICTIONARY
5
C
100
AcDbDictionary
3
ACAD_GROUP
350
D
3
ACAD_MLINESTYLE
350
17
0
DICTIONARY
5
D
100
AcDbDictionary
0
DICTIONARY
5
1A
330
C
100
AcDbDictionary
0
DICTIONARY
5
17
100
AcDbDictionary
0
ENDSEC
0
EOF
